<?xml version="1.0" encoding="UTF-8"?>
<svg width="1200" height="1600" viewBox="0 0 1200 1600" fill="none" xmlns="http://www.w3.org/2000/svg">
  <defs>
    <linearGradient id="bg-1" x1="0" y1="0" x2="1200" y2="1600" gradientUnits="userSpaceOnUse">
      <stop stop-color="#f4efe8" />
      <stop offset="0.54" stop-color="#c8b7a4" />
      <stop offset="1" stop-color="#261f1a" />
    </linearGradient>
    <linearGradient id="bg-soft-1" x1="1200" y1="0" x2="0" y2="1600" gradientUnits="userSpaceOnUse">
      <stop stop-color="#c8b7a4" />
      <stop offset="0.52" stop-color="#93796a" />
      <stop offset="1" stop-color="#261f1a" />
    </linearGradient>
    <filter id="blur-1">
      <feGaussianBlur stdDeviation="26" />
    </filter>
  </defs>
  <rect width="1200" height="1600" fill="url(#bg-soft-1)" />
  <rect x="0" y="0" width="1200" height="1600" fill="rgba(255,255,255,0.06)" />
  <circle cx="1034" cy="661" r="330" fill="#93796a" opacity="0.23" filter="url(#blur-1)" />
  <circle cx="1055" cy="610" r="147" fill="#c8b7a4" opacity="0.29" filter="url(#blur-1)" />
  <circle cx="777" cy="251" r="217" fill="#93796a" opacity="0.21" filter="url(#blur-1)" />
  <circle cx="575" cy="245" r="364" fill="#c8b7a4" opacity="0.14" filter="url(#blur-1)" />
  <circle cx="363" cy="1103" r="203" fill="#93796a" opacity="0.12" filter="url(#blur-1)" />
  <rect x="781" y="559" width="291" height="44" rx="22" fill="#f4efe8" opacity="0.26" transform="rotate(-33 926.5 581)" />
  <rect x="110" y="312" width="303" height="19" rx="9.5" fill="#c8b7a4" opacity="0.25" transform="rotate(-28 261.5 321.5)" />
  <rect x="551" y="640" width="288" height="44" rx="22" fill="#261f1a" opacity="0.31" transform="rotate(18 695 662)" />
  <rect x="261" y="478" width="151" height="31" rx="15.5" fill="#f4efe8" opacity="0.31" transform="rotate(32 336.5 493.5)" />
  <rect x="439" y="1269" width="88" height="30" rx="15" fill="#c8b7a4" opacity="0.35" transform="rotate(24 483 1284)" />
  <rect x="648" y="1019" width="129" height="34" rx="17" fill="#261f1a" opacity="0.28" transform="rotate(30 712.5 1036)" />
  <rect x="154" y="308" width="165" height="40" rx="20" fill="#f4efe8" opacity="0.28" transform="rotate(-8 236.5 328)" />
  <rect x="884" y="1041" width="139" height="24" rx="12" fill="#c8b7a4" opacity="0.37" transform="rotate(16 953.5 1053)" />
  <path d="M 913 708 Q 782 101 1082 571" stroke="#261f1a" stroke-width="18" stroke-linecap="round" opacity="0.48" fill="none" />
  <path d="M 727 164 Q 686 949 809 799" stroke="#f4efe8" stroke-width="24" stroke-linecap="round" opacity="0.40" fill="none" />
  <path d="M 462 1250 Q 684 384 285 127" stroke="#261f1a" stroke-width="30" stroke-linecap="round" opacity="0.49" fill="none" />
  <path d="M 855 125 Q 137 393 620 1050" stroke="#f4efe8" stroke-width="36" stroke-linecap="round" opacity="0.45" fill="none" />
  <rect x="76" y="78" width="1048" height="1444" rx="72" stroke="rgba(255,255,255,0.12)" stroke-width="2" />
</svg>