<?xml version="1.0" encoding="UTF-8"?>
<svg width="1200" height="1600" viewBox="0 0 1200 1600" fill="none" xmlns="http://www.w3.org/2000/svg">
  <defs>
    <linearGradient id="bg-2" x1="0" y1="0" x2="1200" y2="1600" gradientUnits="userSpaceOnUse">
      <stop stop-color="#f4efe8" />
      <stop offset="0.54" stop-color="#c8b7a4" />
      <stop offset="1" stop-color="#261f1a" />
    </linearGradient>
    <linearGradient id="bg-soft-2" x1="1200" y1="0" x2="0" y2="1600" gradientUnits="userSpaceOnUse">
      <stop stop-color="#c8b7a4" />
      <stop offset="0.52" stop-color="#93796a" />
      <stop offset="1" stop-color="#261f1a" />
    </linearGradient>
    <filter id="blur-2">
      <feGaussianBlur stdDeviation="28" />
    </filter>
  </defs>
  <rect width="1200" height="1600" fill="url(#bg-2)" />
  <rect x="0" y="0" width="1200" height="1600" fill="rgba(255,255,255,0.06)" />
  <circle cx="861" cy="802" r="120" fill="#93796a" opacity="0.32" filter="url(#blur-2)" />
  <circle cx="550" cy="1314" r="171" fill="#c8b7a4" opacity="0.26" filter="url(#blur-2)" />
  <circle cx="201" cy="1141" r="182" fill="#93796a" opacity="0.34" filter="url(#blur-2)" />
  <circle cx="126" cy="766" r="116" fill="#c8b7a4" opacity="0.34" filter="url(#blur-2)" />
  <circle cx="666" cy="516" r="223" fill="#93796a" opacity="0.33" filter="url(#blur-2)" />
  <rect x="383" y="979" width="222" height="26" rx="13" fill="#f4efe8" opacity="0.38" transform="rotate(27 494 992)" />
  <rect x="132" y="1147" width="304" height="26" rx="13" fill="#c8b7a4" opacity="0.26" transform="rotate(8 284 1160)" />
  <rect x="941" y="1081" width="294" height="16" rx="8" fill="#261f1a" opacity="0.37" transform="rotate(27 1088 1089)" />
  <rect x="178" y="1174" width="237" height="40" rx="20" fill="#f4efe8" opacity="0.32" transform="rotate(-15 296.5 1194)" />
  <rect x="256" y="10" width="253" height="51" rx="25.5" fill="#c8b7a4" opacity="0.29" transform="rotate(-26 382.5 35.5)" />
  <rect x="371" y="1070" width="229" height="13" rx="6.5" fill="#261f1a" opacity="0.38" transform="rotate(8 485.5 1076.5)" />
  <rect x="385" y="195" width="250" height="28" rx="14" fill="#f4efe8" opacity="0.21" transform="rotate(-32 510 209)" />
  <rect x="496" y="64" width="190" height="27" rx="13.5" fill="#c8b7a4" opacity="0.18" transform="rotate(-9 591 77.5)" />
  <path d="M 1090 1186 Q 937 1116 686 484" stroke="#261f1a" stroke-width="18" stroke-linecap="round" opacity="0.41" fill="none" />
  <path d="M 385 1185 Q 234 334 476 1168" stroke="#f4efe8" stroke-width="24" stroke-linecap="round" opacity="0.39" fill="none" />
  <path d="M 977 416 Q 550 554 398 1235" stroke="#261f1a" stroke-width="30" stroke-linecap="round" opacity="0.54" fill="none" />
  <path d="M 174 736 Q 876 483 700 333" stroke="#f4efe8" stroke-width="36" stroke-linecap="round" opacity="0.42" fill="none" />
  <rect x="76" y="78" width="1048" height="1444" rx="72" stroke="rgba(255,255,255,0.12)" stroke-width="2" />
</svg>