<?xml version="1.0" encoding="UTF-8"?>
<svg width="1200" height="1600" viewBox="0 0 1200 1600" fill="none" xmlns="http://www.w3.org/2000/svg">
  <defs>
    <linearGradient id="bg-0" x1="0" y1="0" x2="1200" y2="1600" gradientUnits="userSpaceOnUse">
      <stop stop-color="#f4efe8" />
      <stop offset="0.54" stop-color="#c8b7a4" />
      <stop offset="1" stop-color="#261f1a" />
    </linearGradient>
    <linearGradient id="bg-soft-0" x1="1200" y1="0" x2="0" y2="1600" gradientUnits="userSpaceOnUse">
      <stop stop-color="#c8b7a4" />
      <stop offset="0.52" stop-color="#93796a" />
      <stop offset="1" stop-color="#261f1a" />
    </linearGradient>
    <filter id="blur-0">
      <feGaussianBlur stdDeviation="24" />
    </filter>
  </defs>
  <rect width="1200" height="1600" fill="url(#bg-0)" />
  <rect x="0" y="0" width="1200" height="1600" fill="rgba(255,255,255,0.06)" />
  <circle cx="1044" cy="808" r="201" fill="#93796a" opacity="0.27" filter="url(#blur-0)" />
  <circle cx="273" cy="1266" r="193" fill="#c8b7a4" opacity="0.21" filter="url(#blur-0)" />
  <circle cx="771" cy="1121" r="314" fill="#93796a" opacity="0.26" filter="url(#blur-0)" />
  <circle cx="185" cy="303" r="165" fill="#c8b7a4" opacity="0.29" filter="url(#blur-0)" />
  <circle cx="866" cy="1195" r="150" fill="#93796a" opacity="0.31" filter="url(#blur-0)" />
  <rect x="46" y="389" width="275" height="50" rx="25" fill="#f4efe8" opacity="0.29" transform="rotate(4 183.5 414)" />
  <rect x="1075" y="259" width="84" height="24" rx="12" fill="#c8b7a4" opacity="0.24" transform="rotate(0 1117 271)" />
  <rect x="261" y="613" width="115" height="50" rx="25" fill="#261f1a" opacity="0.31" transform="rotate(8 318.5 638)" />
  <rect x="839" y="941" width="155" height="50" rx="25" fill="#f4efe8" opacity="0.24" transform="rotate(35 916.5 966)" />
  <rect x="944" y="1131" width="271" height="25" rx="12.5" fill="#c8b7a4" opacity="0.30" transform="rotate(23 1079.5 1143.5)" />
  <rect x="911" y="1118" width="244" height="37" rx="18.5" fill="#261f1a" opacity="0.24" transform="rotate(22 1033 1136.5)" />
  <rect x="339" y="1381" width="237" height="14" rx="7" fill="#f4efe8" opacity="0.31" transform="rotate(8 457.5 1388)" />
  <rect x="417" y="479" width="211" height="39" rx="19.5" fill="#c8b7a4" opacity="0.22" transform="rotate(18 522.5 498.5)" />
  <path d="M 724 1153 Q 162 1219 395 1075" stroke="#261f1a" stroke-width="18" stroke-linecap="round" opacity="0.55" fill="none" />
  <path d="M 943 474 Q 185 423 551 418" stroke="#f4efe8" stroke-width="24" stroke-linecap="round" opacity="0.48" fill="none" />
  <path d="M 173 1260 Q 382 786 598 595" stroke="#261f1a" stroke-width="30" stroke-linecap="round" opacity="0.52" fill="none" />
  <path d="M 195 585 Q 905 259 295 1200" stroke="#f4efe8" stroke-width="36" stroke-linecap="round" opacity="0.46" fill="none" />
  <rect x="76" y="78" width="1048" height="1444" rx="72" stroke="rgba(255,255,255,0.12)" stroke-width="2" />
</svg>