<?xml version="1.0" encoding="UTF-8"?>
<svg width="1200" height="1600" viewBox="0 0 1200 1600" fill="none" xmlns="http://www.w3.org/2000/svg">
  <defs>
    <linearGradient id="bg-2" x1="0" y1="0" x2="1200" y2="1600" gradientUnits="userSpaceOnUse">
      <stop stop-color="#f4efe8" />
      <stop offset="0.54" stop-color="#c8b7a4" />
      <stop offset="1" stop-color="#261f1a" />
    </linearGradient>
    <linearGradient id="bg-soft-2" x1="1200" y1="0" x2="0" y2="1600" gradientUnits="userSpaceOnUse">
      <stop stop-color="#c8b7a4" />
      <stop offset="0.52" stop-color="#93796a" />
      <stop offset="1" stop-color="#261f1a" />
    </linearGradient>
    <filter id="blur-2">
      <feGaussianBlur stdDeviation="28" />
    </filter>
  </defs>
  <rect width="1200" height="1600" fill="url(#bg-2)" />
  <rect x="0" y="0" width="1200" height="1600" fill="rgba(255,255,255,0.06)" />
  <circle cx="371" cy="541" r="218" fill="#93796a" opacity="0.22" filter="url(#blur-2)" />
  <circle cx="714" cy="423" r="197" fill="#c8b7a4" opacity="0.16" filter="url(#blur-2)" />
  <circle cx="1002" cy="838" r="223" fill="#93796a" opacity="0.14" filter="url(#blur-2)" />
  <circle cx="217" cy="1408" r="115" fill="#c8b7a4" opacity="0.24" filter="url(#blur-2)" />
  <circle cx="709" cy="878" r="280" fill="#93796a" opacity="0.19" filter="url(#blur-2)" />
  <rect x="989" y="372" width="224" height="24" rx="12" fill="#f4efe8" opacity="0.34" transform="rotate(14 1101 384)" />
  <rect x="541" y="584" width="127" height="31" rx="15.5" fill="#c8b7a4" opacity="0.21" transform="rotate(17 604.5 599.5)" />
  <rect x="567" y="1141" width="319" height="22" rx="11" fill="#261f1a" opacity="0.29" transform="rotate(27 726.5 1152)" />
  <rect x="308" y="1311" width="96" height="22" rx="11" fill="#f4efe8" opacity="0.33" transform="rotate(8 356 1322)" />
  <rect x="386" y="219" width="83" height="43" rx="21.5" fill="#c8b7a4" opacity="0.32" transform="rotate(11 427.5 240.5)" />
  <rect x="223" y="1112" width="185" height="51" rx="25.5" fill="#261f1a" opacity="0.37" transform="rotate(16 315.5 1137.5)" />
  <rect x="624" y="699" width="273" height="35" rx="17.5" fill="#f4efe8" opacity="0.34" transform="rotate(-29 760.5 716.5)" />
  <rect x="977" y="284" width="133" height="40" rx="20" fill="#c8b7a4" opacity="0.36" transform="rotate(24 1043.5 304)" />
  <path d="M 183 204 Q 1021 379 649 692" stroke="#261f1a" stroke-width="18" stroke-linecap="round" opacity="0.35" fill="none" />
  <path d="M 681 952 Q 842 1005 469 620" stroke="#f4efe8" stroke-width="24" stroke-linecap="round" opacity="0.35" fill="none" />
  <path d="M 225 766 Q 876 127 617 809" stroke="#261f1a" stroke-width="30" stroke-linecap="round" opacity="0.42" fill="none" />
  <path d="M 368 1164 Q 812 1228 517 462" stroke="#f4efe8" stroke-width="36" stroke-linecap="round" opacity="0.49" fill="none" />
  <rect x="76" y="78" width="1048" height="1444" rx="72" stroke="rgba(255,255,255,0.12)" stroke-width="2" />
</svg>