<?xml version="1.0" encoding="UTF-8"?>
<svg width="1200" height="1600" viewBox="0 0 1200 1600" fill="none" xmlns="http://www.w3.org/2000/svg">
  <defs>
    <linearGradient id="bg-0" x1="0" y1="0" x2="1200" y2="1600" gradientUnits="userSpaceOnUse">
      <stop stop-color="#f4efe8" />
      <stop offset="0.54" stop-color="#c8b7a4" />
      <stop offset="1" stop-color="#261f1a" />
    </linearGradient>
    <linearGradient id="bg-soft-0" x1="1200" y1="0" x2="0" y2="1600" gradientUnits="userSpaceOnUse">
      <stop stop-color="#c8b7a4" />
      <stop offset="0.52" stop-color="#93796a" />
      <stop offset="1" stop-color="#261f1a" />
    </linearGradient>
    <filter id="blur-0">
      <feGaussianBlur stdDeviation="24" />
    </filter>
  </defs>
  <rect width="1200" height="1600" fill="url(#bg-0)" />
  <rect x="0" y="0" width="1200" height="1600" fill="rgba(255,255,255,0.06)" />
  <circle cx="853" cy="752" r="377" fill="#93796a" opacity="0.31" filter="url(#blur-0)" />
  <circle cx="1029" cy="1137" r="211" fill="#c8b7a4" opacity="0.26" filter="url(#blur-0)" />
  <circle cx="592" cy="414" r="322" fill="#93796a" opacity="0.31" filter="url(#blur-0)" />
  <circle cx="868" cy="627" r="254" fill="#c8b7a4" opacity="0.29" filter="url(#blur-0)" />
  <circle cx="502" cy="379" r="348" fill="#93796a" opacity="0.32" filter="url(#blur-0)" />
  <rect x="534" y="1015" width="132" height="28" rx="14" fill="#f4efe8" opacity="0.19" transform="rotate(20 600 1029)" />
  <rect x="1012" y="1399" width="127" height="43" rx="21.5" fill="#c8b7a4" opacity="0.33" transform="rotate(29 1075.5 1420.5)" />
  <rect x="427" y="1231" width="137" height="33" rx="16.5" fill="#261f1a" opacity="0.36" transform="rotate(25 495.5 1247.5)" />
  <rect x="354" y="1081" width="270" height="47" rx="23.5" fill="#f4efe8" opacity="0.32" transform="rotate(-14 489 1104.5)" />
  <rect x="728" y="327" width="147" height="47" rx="23.5" fill="#c8b7a4" opacity="0.21" transform="rotate(12 801.5 350.5)" />
  <rect x="919" y="303" width="95" height="52" rx="26" fill="#261f1a" opacity="0.35" transform="rotate(28 966.5 329)" />
  <rect x="943" y="1045" width="109" height="40" rx="20" fill="#f4efe8" opacity="0.30" transform="rotate(-33 997.5 1065)" />
  <rect x="22" y="411" width="145" height="14" rx="7" fill="#c8b7a4" opacity="0.32" transform="rotate(-30 94.5 418)" />
  <path d="M 219 779 Q 285 981 308 457" stroke="#261f1a" stroke-width="18" stroke-linecap="round" opacity="0.54" fill="none" />
  <path d="M 598 951 Q 693 685 644 580" stroke="#f4efe8" stroke-width="24" stroke-linecap="round" opacity="0.42" fill="none" />
  <path d="M 439 940 Q 664 190 1015 785" stroke="#261f1a" stroke-width="30" stroke-linecap="round" opacity="0.47" fill="none" />
  <path d="M 233 955 Q 165 509 560 865" stroke="#f4efe8" stroke-width="36" stroke-linecap="round" opacity="0.52" fill="none" />
  <rect x="76" y="78" width="1048" height="1444" rx="72" stroke="rgba(255,255,255,0.12)" stroke-width="2" />
</svg>