<?xml version="1.0" encoding="UTF-8"?>
<svg width="1200" height="1600" viewBox="0 0 1200 1600" fill="none" xmlns="http://www.w3.org/2000/svg">
  <defs>
    <linearGradient id="bg-0" x1="0" y1="0" x2="1200" y2="1600" gradientUnits="userSpaceOnUse">
      <stop stop-color="#f4efe8" />
      <stop offset="0.54" stop-color="#c8b7a4" />
      <stop offset="1" stop-color="#261f1a" />
    </linearGradient>
    <linearGradient id="bg-soft-0" x1="1200" y1="0" x2="0" y2="1600" gradientUnits="userSpaceOnUse">
      <stop stop-color="#c8b7a4" />
      <stop offset="0.52" stop-color="#93796a" />
      <stop offset="1" stop-color="#261f1a" />
    </linearGradient>
    <filter id="blur-0">
      <feGaussianBlur stdDeviation="24" />
    </filter>
  </defs>
  <rect width="1200" height="1600" fill="url(#bg-0)" />
  <rect x="0" y="0" width="1200" height="1600" fill="rgba(255,255,255,0.06)" />
  <circle cx="833" cy="163" r="139" fill="#93796a" opacity="0.33" filter="url(#blur-0)" />
  <circle cx="819" cy="660" r="345" fill="#c8b7a4" opacity="0.33" filter="url(#blur-0)" />
  <circle cx="939" cy="1339" r="244" fill="#93796a" opacity="0.20" filter="url(#blur-0)" />
  <circle cx="589" cy="993" r="221" fill="#c8b7a4" opacity="0.20" filter="url(#blur-0)" />
  <circle cx="237" cy="1129" r="218" fill="#93796a" opacity="0.28" filter="url(#blur-0)" />
  <rect x="358" y="271" width="224" height="34" rx="17" fill="#f4efe8" opacity="0.27" transform="rotate(16 470 288)" />
  <rect x="664" y="1189" width="144" height="33" rx="16.5" fill="#c8b7a4" opacity="0.27" transform="rotate(-29 736 1205.5)" />
  <rect x="1075" y="1255" width="274" height="41" rx="20.5" fill="#261f1a" opacity="0.38" transform="rotate(-26 1212 1275.5)" />
  <rect x="827" y="349" width="181" height="32" rx="16" fill="#f4efe8" opacity="0.37" transform="rotate(26 917.5 365)" />
  <rect x="1057" y="465" width="93" height="19" rx="9.5" fill="#c8b7a4" opacity="0.34" transform="rotate(-1 1103.5 474.5)" />
  <rect x="462" y="1306" width="87" height="48" rx="24" fill="#261f1a" opacity="0.19" transform="rotate(19 505.5 1330)" />
  <rect x="769" y="551" width="193" height="51" rx="25.5" fill="#f4efe8" opacity="0.33" transform="rotate(-8 865.5 576.5)" />
  <rect x="399" y="1251" width="308" height="47" rx="23.5" fill="#c8b7a4" opacity="0.28" transform="rotate(-28 553 1274.5)" />
  <path d="M 1031 847 Q 898 863 1056 972" stroke="#261f1a" stroke-width="18" stroke-linecap="round" opacity="0.59" fill="none" />
  <path d="M 370 557 Q 679 758 902 1124" stroke="#f4efe8" stroke-width="24" stroke-linecap="round" opacity="0.39" fill="none" />
  <path d="M 980 1199 Q 587 525 1063 265" stroke="#261f1a" stroke-width="30" stroke-linecap="round" opacity="0.44" fill="none" />
  <path d="M 1066 933 Q 180 760 820 598" stroke="#f4efe8" stroke-width="36" stroke-linecap="round" opacity="0.59" fill="none" />
  <rect x="76" y="78" width="1048" height="1444" rx="72" stroke="rgba(255,255,255,0.12)" stroke-width="2" />
</svg>