<?xml version="1.0" encoding="UTF-8"?>
<svg width="1200" height="1600" viewBox="0 0 1200 1600" fill="none" xmlns="http://www.w3.org/2000/svg">
  <defs>
    <linearGradient id="bg-0" x1="0" y1="0" x2="1200" y2="1600" gradientUnits="userSpaceOnUse">
      <stop stop-color="#f4efe8" />
      <stop offset="0.54" stop-color="#c8b7a4" />
      <stop offset="1" stop-color="#261f1a" />
    </linearGradient>
    <linearGradient id="bg-soft-0" x1="1200" y1="0" x2="0" y2="1600" gradientUnits="userSpaceOnUse">
      <stop stop-color="#c8b7a4" />
      <stop offset="0.52" stop-color="#93796a" />
      <stop offset="1" stop-color="#261f1a" />
    </linearGradient>
    <filter id="blur-0">
      <feGaussianBlur stdDeviation="24" />
    </filter>
  </defs>
  <rect width="1200" height="1600" fill="url(#bg-0)" />
  <rect x="0" y="0" width="1200" height="1600" fill="rgba(255,255,255,0.06)" />
  <circle cx="207" cy="833" r="271" fill="#93796a" opacity="0.33" filter="url(#blur-0)" />
  <circle cx="863" cy="284" r="159" fill="#c8b7a4" opacity="0.30" filter="url(#blur-0)" />
  <circle cx="343" cy="244" r="206" fill="#93796a" opacity="0.31" filter="url(#blur-0)" />
  <circle cx="392" cy="247" r="159" fill="#c8b7a4" opacity="0.25" filter="url(#blur-0)" />
  <circle cx="362" cy="1074" r="117" fill="#93796a" opacity="0.26" filter="url(#blur-0)" />
  <rect x="1040" y="310" width="265" height="29" rx="14.5" fill="#f4efe8" opacity="0.37" transform="rotate(-4 1172.5 324.5)" />
  <rect x="644" y="878" width="81" height="11" rx="5.5" fill="#c8b7a4" opacity="0.18" transform="rotate(-9 684.5 883.5)" />
  <rect x="720" y="858" width="108" height="51" rx="25.5" fill="#261f1a" opacity="0.23" transform="rotate(-1 774 883.5)" />
  <rect x="160" y="519" width="225" height="51" rx="25.5" fill="#f4efe8" opacity="0.18" transform="rotate(6 272.5 544.5)" />
  <rect x="913" y="1400" width="97" height="14" rx="7" fill="#c8b7a4" opacity="0.36" transform="rotate(14 961.5 1407)" />
  <rect x="343" y="642" width="147" height="46" rx="23" fill="#261f1a" opacity="0.28" transform="rotate(20 416.5 665)" />
  <rect x="641" y="1053" width="101" height="12" rx="6" fill="#f4efe8" opacity="0.35" transform="rotate(14 691.5 1059)" />
  <rect x="404" y="162" width="162" height="28" rx="14" fill="#c8b7a4" opacity="0.31" transform="rotate(14 485 176)" />
  <path d="M 604 351 Q 100 1064 444 364" stroke="#261f1a" stroke-width="18" stroke-linecap="round" opacity="0.49" fill="none" />
  <path d="M 199 223 Q 391 1090 150 428" stroke="#f4efe8" stroke-width="24" stroke-linecap="round" opacity="0.55" fill="none" />
  <path d="M 404 218 Q 617 319 846 927" stroke="#261f1a" stroke-width="30" stroke-linecap="round" opacity="0.42" fill="none" />
  <path d="M 778 1215 Q 803 532 625 380" stroke="#f4efe8" stroke-width="36" stroke-linecap="round" opacity="0.38" fill="none" />
  <rect x="76" y="78" width="1048" height="1444" rx="72" stroke="rgba(255,255,255,0.12)" stroke-width="2" />
</svg>