<?xml version="1.0" encoding="UTF-8"?>
<svg width="1200" height="1600" viewBox="0 0 1200 1600" fill="none" xmlns="http://www.w3.org/2000/svg">
  <defs>
    <linearGradient id="bg-1" x1="0" y1="0" x2="1200" y2="1600" gradientUnits="userSpaceOnUse">
      <stop stop-color="#f4efe8" />
      <stop offset="0.54" stop-color="#c8b7a4" />
      <stop offset="1" stop-color="#261f1a" />
    </linearGradient>
    <linearGradient id="bg-soft-1" x1="1200" y1="0" x2="0" y2="1600" gradientUnits="userSpaceOnUse">
      <stop stop-color="#c8b7a4" />
      <stop offset="0.52" stop-color="#93796a" />
      <stop offset="1" stop-color="#261f1a" />
    </linearGradient>
    <filter id="blur-1">
      <feGaussianBlur stdDeviation="26" />
    </filter>
  </defs>
  <rect width="1200" height="1600" fill="url(#bg-soft-1)" />
  <rect x="0" y="0" width="1200" height="1600" fill="rgba(255,255,255,0.06)" />
  <circle cx="984" cy="203" r="180" fill="#93796a" opacity="0.25" filter="url(#blur-1)" />
  <circle cx="574" cy="325" r="257" fill="#c8b7a4" opacity="0.22" filter="url(#blur-1)" />
  <circle cx="598" cy="992" r="134" fill="#93796a" opacity="0.15" filter="url(#blur-1)" />
  <circle cx="891" cy="1052" r="274" fill="#c8b7a4" opacity="0.34" filter="url(#blur-1)" />
  <circle cx="1022" cy="470" r="152" fill="#93796a" opacity="0.25" filter="url(#blur-1)" />
  <rect x="327" y="741" width="228" height="52" rx="26" fill="#f4efe8" opacity="0.25" transform="rotate(8 441 767)" />
  <rect x="401" y="277" width="299" height="43" rx="21.5" fill="#c8b7a4" opacity="0.27" transform="rotate(-1 550.5 298.5)" />
  <rect x="159" y="32" width="156" height="13" rx="6.5" fill="#261f1a" opacity="0.30" transform="rotate(-19 237 38.5)" />
  <rect x="837" y="305" width="112" height="50" rx="25" fill="#f4efe8" opacity="0.32" transform="rotate(25 893 330)" />
  <rect x="23" y="908" width="179" height="37" rx="18.5" fill="#c8b7a4" opacity="0.22" transform="rotate(9 112.5 926.5)" />
  <rect x="451" y="37" width="106" height="22" rx="11" fill="#261f1a" opacity="0.28" transform="rotate(-31 504 48)" />
  <rect x="1000" y="1297" width="99" height="20" rx="10" fill="#f4efe8" opacity="0.33" transform="rotate(-24 1049.5 1307)" />
  <rect x="986" y="818" width="127" height="41" rx="20.5" fill="#c8b7a4" opacity="0.26" transform="rotate(-25 1049.5 838.5)" />
  <path d="M 195 1102 Q 396 1065 1024 382" stroke="#261f1a" stroke-width="18" stroke-linecap="round" opacity="0.49" fill="none" />
  <path d="M 1052 912 Q 894 218 1006 1288" stroke="#f4efe8" stroke-width="24" stroke-linecap="round" opacity="0.54" fill="none" />
  <path d="M 460 390 Q 822 1014 507 977" stroke="#261f1a" stroke-width="30" stroke-linecap="round" opacity="0.52" fill="none" />
  <path d="M 1001 1040 Q 631 245 1096 1098" stroke="#f4efe8" stroke-width="36" stroke-linecap="round" opacity="0.57" fill="none" />
  <rect x="76" y="78" width="1048" height="1444" rx="72" stroke="rgba(255,255,255,0.12)" stroke-width="2" />
</svg>