<?xml version="1.0" encoding="UTF-8"?>
<svg width="1200" height="1600" viewBox="0 0 1200 1600" fill="none" xmlns="http://www.w3.org/2000/svg">
  <defs>
    <linearGradient id="bg-1" x1="0" y1="0" x2="1200" y2="1600" gradientUnits="userSpaceOnUse">
      <stop stop-color="#f4efe8" />
      <stop offset="0.54" stop-color="#c8b7a4" />
      <stop offset="1" stop-color="#261f1a" />
    </linearGradient>
    <linearGradient id="bg-soft-1" x1="1200" y1="0" x2="0" y2="1600" gradientUnits="userSpaceOnUse">
      <stop stop-color="#c8b7a4" />
      <stop offset="0.52" stop-color="#93796a" />
      <stop offset="1" stop-color="#261f1a" />
    </linearGradient>
    <filter id="blur-1">
      <feGaussianBlur stdDeviation="26" />
    </filter>
  </defs>
  <rect width="1200" height="1600" fill="url(#bg-soft-1)" />
  <rect x="0" y="0" width="1200" height="1600" fill="rgba(255,255,255,0.06)" />
  <circle cx="491" cy="1064" r="305" fill="#93796a" opacity="0.22" filter="url(#blur-1)" />
  <circle cx="636" cy="1257" r="148" fill="#c8b7a4" opacity="0.25" filter="url(#blur-1)" />
  <circle cx="398" cy="755" r="223" fill="#93796a" opacity="0.21" filter="url(#blur-1)" />
  <circle cx="497" cy="287" r="271" fill="#c8b7a4" opacity="0.33" filter="url(#blur-1)" />
  <circle cx="581" cy="727" r="239" fill="#93796a" opacity="0.31" filter="url(#blur-1)" />
  <rect x="166" y="747" width="105" height="47" rx="23.5" fill="#f4efe8" opacity="0.32" transform="rotate(-2 218.5 770.5)" />
  <rect x="723" y="352" width="174" height="38" rx="19" fill="#c8b7a4" opacity="0.28" transform="rotate(-33 810 371)" />
  <rect x="700" y="1076" width="151" height="18" rx="9" fill="#261f1a" opacity="0.24" transform="rotate(11 775.5 1085)" />
  <rect x="1060" y="579" width="265" height="11" rx="5.5" fill="#f4efe8" opacity="0.31" transform="rotate(14 1192.5 584.5)" />
  <rect x="512" y="268" width="117" height="46" rx="23" fill="#c8b7a4" opacity="0.24" transform="rotate(-17 570.5 291)" />
  <rect x="1012" y="1282" width="194" height="11" rx="5.5" fill="#261f1a" opacity="0.35" transform="rotate(29 1109 1287.5)" />
  <rect x="952" y="551" width="137" height="27" rx="13.5" fill="#f4efe8" opacity="0.27" transform="rotate(22 1020.5 564.5)" />
  <rect x="1057" y="640" width="149" height="44" rx="22" fill="#c8b7a4" opacity="0.20" transform="rotate(-35 1131.5 662)" />
  <path d="M 485 640 Q 521 886 675 1017" stroke="#261f1a" stroke-width="18" stroke-linecap="round" opacity="0.50" fill="none" />
  <path d="M 432 969 Q 591 1241 167 1064" stroke="#f4efe8" stroke-width="24" stroke-linecap="round" opacity="0.53" fill="none" />
  <path d="M 458 496 Q 860 352 1053 1066" stroke="#261f1a" stroke-width="30" stroke-linecap="round" opacity="0.58" fill="none" />
  <path d="M 144 920 Q 236 1150 983 334" stroke="#f4efe8" stroke-width="36" stroke-linecap="round" opacity="0.49" fill="none" />
  <rect x="76" y="78" width="1048" height="1444" rx="72" stroke="rgba(255,255,255,0.12)" stroke-width="2" />
</svg>