<svg xmlns="http://www.w3.org/2000/svg" viewBox="0 0 1200 1600">
  <defs>
    <linearGradient id="bg" x1="0" x2="1" y1="0" y2="1">
      <stop offset="0%" stop-color="#13161a"/>
      <stop offset="100%" stop-color="#050505"/>
    </linearGradient>
  </defs>
  <rect width="1200" height="1600" fill="url(#bg)"/>
  <rect x="150" y="150" width="900" height="1300" rx="36" fill="#0f0f0f" stroke="#2b2b2b" stroke-width="2"/>
  <path d="M250 1230C430 980 520 940 870 560" fill="none" stroke="#c7a57f" stroke-width="18" stroke-linecap="round" opacity="0.7"/>
  <path d="M320 1290C470 1080 630 1010 980 650" fill="none" stroke="#f3efe9" stroke-width="8" stroke-linecap="round" opacity="0.12"/>
  <rect x="250" y="250" width="700" height="770" rx="26" fill="#101010" stroke="#323232" stroke-width="2"/>
  <g fill="none" stroke="#f3efe9" stroke-opacity="0.12" stroke-width="2">
    <path d="M310 330h580M310 430h580M310 530h580M310 630h580M310 730h580"/>
    <path d="M360 290v680M460 290v680M560 290v680M660 290v680M760 290v680M860 290v680"/>
  </g>
  <circle cx="800" cy="520" r="120" fill="none" stroke="#d1b08a" stroke-width="10" opacity="0.85"/>
  <circle cx="800" cy="520" r="72" fill="none" stroke="#d1b08a" stroke-width="8" opacity="0.4"/>
  <path d="M882 602l88 88" stroke="#d1b08a" stroke-width="16" stroke-linecap="round"/>
  <rect x="340" y="360" width="220" height="130" rx="18" fill="#d1b08a" opacity="0.12"/>
  <rect x="340" y="530" width="300" height="70" rx="14" fill="#d1b08a" opacity="0.08"/>
</svg>
