<svg xmlns="http://www.w3.org/2000/svg" viewBox="0 0 1200 1600">
  <defs>
    <linearGradient id="bg" x1="0" x2="1" y1="0" y2="1">
      <stop offset="0%" stop-color="#121419"/>
      <stop offset="100%" stop-color="#070707"/>
    </linearGradient>
    <linearGradient id="line" x1="0" x2="1" y1="0" y2="1">
      <stop offset="0%" stop-color="#c7a57f" stop-opacity="0.95"/>
      <stop offset="100%" stop-color="#7d6a5a" stop-opacity="0"/>
    </linearGradient>
  </defs>
  <rect width="1200" height="1600" fill="url(#bg)"/>
  <path d="M110 1250C360 960 520 900 860 560" fill="none" stroke="url(#line)" stroke-width="18" stroke-linecap="round"/>
  <path d="M220 1310C460 1040 650 980 1040 680" fill="none" stroke="#f3efe9" stroke-opacity="0.18" stroke-width="10" stroke-linecap="round"/>
  <circle cx="860" cy="560" r="110" fill="#c7a57f" opacity="0.18"/>
  <circle cx="860" cy="560" r="58" fill="none" stroke="#c7a57f" stroke-width="10" opacity="0.8"/>
  <path d="M860 468v184M768 560h184" stroke="#c7a57f" stroke-width="8" stroke-linecap="round"/>
  <rect x="150" y="140" width="900" height="920" rx="34" fill="#0f0f0f" stroke="#2a2a2a" stroke-width="2"/>
  <rect x="240" y="240" width="240" height="700" rx="22" fill="#1a1a1a"/>
  <rect x="510" y="240" width="180" height="700" rx="22" fill="#101010"/>
  <rect x="720" y="240" width="240" height="700" rx="22" fill="#1a1a1a"/>
  <rect x="280" y="300" width="160" height="16" rx="8" fill="#c7a57f" opacity="0.55"/>
  <rect x="550" y="300" width="100" height="16" rx="8" fill="#c7a57f" opacity="0.55"/>
  <rect x="770" y="300" width="160" height="16" rx="8" fill="#c7a57f" opacity="0.55"/>
</svg>
