<svg xmlns="http://www.w3.org/2000/svg" viewBox="0 0 1200 1600">
  <defs>
    <linearGradient id="bg" x1="0" x2="1" y1="0" y2="1">
      <stop offset="0%" stop-color="#121212"/>
      <stop offset="100%" stop-color="#070707"/>
    </linearGradient>
  </defs>
  <rect width="1200" height="1600" fill="url(#bg)"/>
  <circle cx="310" cy="410" r="290" fill="#8a6b4c" opacity="0.18"/>
  <circle cx="920" cy="1180" r="410" fill="#d1b08a" opacity="0.12"/>
  <rect x="170" y="170" width="860" height="1260" rx="36" fill="#0f0f0f" stroke="#2d2d2d" stroke-width="2"/>
  <g transform="translate(250 290)">
    <rect x="0" y="0" width="210" height="210" rx="18" fill="#6f5a45"/>
    <rect x="230" y="0" width="210" height="210" rx="18" fill="#b59a81"/>
    <rect x="460" y="0" width="210" height="210" rx="18" fill="#c7a57f"/>
    <rect x="0" y="230" width="210" height="210" rx="18" fill="#7d6a5a"/>
    <rect x="230" y="230" width="210" height="210" rx="18" fill="#d1b08a"/>
    <rect x="460" y="230" width="210" height="210" rx="18" fill="#8a6b4c"/>
  </g>
  <rect x="250" y="960" width="700" height="20" rx="10" fill="#f3efe9" opacity="0.12"/>
  <rect x="250" y="1010" width="520" height="20" rx="10" fill="#f3efe9" opacity="0.08"/>
  <rect x="250" y="1060" width="620" height="20" rx="10" fill="#f3efe9" opacity="0.08"/>
  <path d="M300 1210h600" stroke="#d1b08a" stroke-width="8" stroke-linecap="round" opacity="0.7"/>
</svg>
