<svg xmlns="http://www.w3.org/2000/svg" viewBox="0 0 1200 1600">
  <defs>
    <linearGradient id="bg" x1="0" x2="1" y1="0" y2="1">
      <stop offset="0%" stop-color="#141414"/>
      <stop offset="100%" stop-color="#050505"/>
    </linearGradient>
  </defs>
  <rect width="1200" height="1600" fill="url(#bg)"/>
  <rect x="160" y="160" width="880" height="1280" rx="36" fill="#0f0f0f" stroke="#2b2b2b" stroke-width="2"/>
  <g transform="translate(240 260)">
    <rect x="0" y="0" width="220" height="220" rx="18" fill="#6f5a45"/>
    <rect x="245" y="0" width="220" height="220" rx="18" fill="#8a6b4c"/>
    <rect x="490" y="0" width="220" height="220" rx="18" fill="#b59a81"/>
    <rect x="0" y="245" width="220" height="220" rx="18" fill="#d1b08a"/>
    <rect x="245" y="245" width="220" height="220" rx="18" fill="#c7a57f"/>
    <rect x="490" y="245" width="220" height="220" rx="18" fill="#7d6a5a"/>
    <rect x="0" y="490" width="710" height="16" rx="8" fill="#f3efe9" opacity="0.12"/>
    <rect x="0" y="535" width="540" height="16" rx="8" fill="#f3efe9" opacity="0.08"/>
  </g>
  <rect x="240" y="1090" width="720" height="120" rx="24" fill="#f3efe9" opacity="0.06"/>
  <path d="M300 1160h600" stroke="#d1b08a" stroke-width="10" stroke-linecap="round" opacity="0.7"/>
  <circle cx="855" cy="1120" r="92" fill="none" stroke="#d1b08a" stroke-width="10" opacity="0.55"/>
  <circle cx="855" cy="1120" r="42" fill="#d1b08a" opacity="0.18"/>
</svg>
