<svg xmlns="http://www.w3.org/2000/svg" viewBox="0 0 1200 1600">
  <defs>
    <linearGradient id="bg" x1="0" x2="1" y1="0" y2="1">
      <stop offset="0%" stop-color="#151515"/>
      <stop offset="100%" stop-color="#050505"/>
    </linearGradient>
    <linearGradient id="glow" x1="0" x2="1" y1="0" y2="1">
      <stop offset="0%" stop-color="#d1b08a" stop-opacity="0.85"/>
      <stop offset="100%" stop-color="#8a6b4c" stop-opacity="0"/>
    </linearGradient>
  </defs>
  <rect width="1200" height="1600" fill="url(#bg)"/>
  <circle cx="300" cy="380" r="260" fill="url(#glow)"/>
  <circle cx="920" cy="1230" r="420" fill="url(#glow)" opacity="0.55"/>
  <rect x="150" y="890" width="900" height="300" rx="24" fill="#0f0f0f" stroke="#2b2b2b" stroke-width="2"/>
  <rect x="210" y="950" width="340" height="180" rx="22" fill="#c8b8a7" opacity="0.95"/>
  <rect x="560" y="950" width="420" height="180" rx="22" fill="#b59a81" opacity="0.85"/>
  <rect x="235" y="935" width="280" height="24" rx="12" fill="#efe7df" opacity="0.45"/>
  <rect x="590" y="935" width="320" height="24" rx="12" fill="#efe7df" opacity="0.35"/>
  <rect x="150" y="660" width="900" height="18" rx="9" fill="#efe7df" opacity="0.2"/>
  <rect x="240" y="170" width="640" height="350" rx="34" fill="#f3efe9" opacity="0.08"/>
  <rect x="260" y="190" width="600" height="310" rx="28" fill="none" stroke="#f7f3ee" stroke-opacity="0.35" stroke-width="4"/>
  <circle cx="600" cy="335" r="78" fill="none" stroke="#d1b08a" stroke-width="8" opacity="0.7"/>
  <path d="M528 335h144" stroke="#d1b08a" stroke-width="6" stroke-linecap="round"/>
  <path d="M600 263v144" stroke="#d1b08a" stroke-width="6" stroke-linecap="round"/>
</svg>
