<svg xmlns="http://www.w3.org/2000/svg" viewBox="0 0 1200 1600">
  <defs>
    <linearGradient id="bg" x1="0" x2="1" y1="0" y2="1">
      <stop offset="0%" stop-color="#151515"/>
      <stop offset="100%" stop-color="#050505"/>
    </linearGradient>
  </defs>
  <rect width="1200" height="1600" fill="url(#bg)"/>
  <rect x="165" y="195" width="870" height="1220" rx="30" fill="#0d0d0d" stroke="#2e2e2e" stroke-width="2"/>
  <rect x="250" y="270" width="700" height="900" rx="24" fill="#111111" stroke="#3c3c3c" stroke-width="2"/>
  <rect x="300" y="340" width="600" height="26" rx="13" fill="#d1b08a" opacity="0.55"/>
  <rect x="300" y="400" width="420" height="14" rx="7" fill="#f3efe9" opacity="0.15"/>
  <rect x="300" y="440" width="520" height="14" rx="7" fill="#f3efe9" opacity="0.15"/>
  <rect x="300" y="480" width="360" height="14" rx="7" fill="#f3efe9" opacity="0.15"/>
  <path d="M290 930h620" stroke="#d1b08a" stroke-width="6" opacity="0.45"/>
  <path d="M290 990h620" stroke="#f3efe9" stroke-width="3" opacity="0.12"/>
  <path d="M290 1050h620" stroke="#f3efe9" stroke-width="3" opacity="0.12"/>
  <rect x="325" y="650" width="550" height="220" rx="24" fill="#c7a57f" opacity="0.12"/>
  <path d="M340 860c120-120 220-180 450-220" fill="none" stroke="#c7a57f" stroke-width="10" stroke-linecap="round" opacity="0.65"/>
  <path d="M390 840c90-80 170-120 330-160" fill="none" stroke="#f3efe9" stroke-width="6" stroke-linecap="round" opacity="0.18"/>
</svg>
