<svg xmlns="http://www.w3.org/2000/svg" viewBox="0 0 1200 1600">
  <defs>
    <linearGradient id="bg" x1="0" x2="1" y1="0" y2="1">
      <stop offset="0%" stop-color="#141414"/>
      <stop offset="100%" stop-color="#050505"/>
    </linearGradient>
  </defs>
  <rect width="1200" height="1600" fill="url(#bg)"/>
  <rect x="150" y="180" width="900" height="1230" rx="32" fill="#0d0d0d" stroke="#2c2c2c" stroke-width="2"/>
  <rect x="230" y="270" width="260" height="920" rx="18" fill="#1a1a1a"/>
  <rect x="520" y="270" width="160" height="920" rx="18" fill="#111111"/>
  <rect x="710" y="270" width="260" height="920" rx="18" fill="#1a1a1a"/>
  <path d="M250 1060c180-280 320-430 640-690" fill="none" stroke="#d1b08a" stroke-width="14" stroke-linecap="round" opacity="0.75"/>
  <path d="M280 1120c200-220 330-330 520-500" fill="none" stroke="#f3efe9" stroke-width="6" stroke-linecap="round" opacity="0.12"/>
  <circle cx="840" cy="430" r="86" fill="#d1b08a" opacity="0.16"/>
  <circle cx="840" cy="430" r="52" fill="none" stroke="#d1b08a" stroke-width="8" opacity="0.85"/>
  <rect x="790" y="700" width="160" height="20" rx="10" fill="#d1b08a" opacity="0.55"/>
  <rect x="790" y="750" width="110" height="14" rx="7" fill="#f3efe9" opacity="0.12"/>
  <rect x="790" y="790" width="130" height="14" rx="7" fill="#f3efe9" opacity="0.12"/>
</svg>
