<?xml version="1.0" encoding="UTF-8"?>
<svg width="1200" height="1600" viewBox="0 0 1200 1600" fill="none" xmlns="http://www.w3.org/2000/svg">
  <defs>
    <linearGradient id="bg-1" x1="0" y1="0" x2="1200" y2="1600" gradientUnits="userSpaceOnUse">
      <stop stop-color="#d9d5cf" />
      <stop offset="0.54" stop-color="#8f887f" />
      <stop offset="1" stop-color="#1e1d1c" />
    </linearGradient>
    <linearGradient id="bg-soft-1" x1="1200" y1="0" x2="0" y2="1600" gradientUnits="userSpaceOnUse">
      <stop stop-color="#8f887f" />
      <stop offset="0.52" stop-color="#5b5751" />
      <stop offset="1" stop-color="#1e1d1c" />
    </linearGradient>
    <filter id="blur-1">
      <feGaussianBlur stdDeviation="26" />
    </filter>
  </defs>
  <rect width="1200" height="1600" fill="url(#bg-soft-1)" />
  <rect x="0" y="0" width="1200" height="1600" fill="rgba(255,255,255,0.06)" />
  <circle cx="715" cy="1149" r="305" fill="#5b5751" opacity="0.29" filter="url(#blur-1)" />
  <circle cx="354" cy="1179" r="328" fill="#8f887f" opacity="0.24" filter="url(#blur-1)" />
  <circle cx="242" cy="946" r="389" fill="#5b5751" opacity="0.15" filter="url(#blur-1)" />
  <circle cx="728" cy="844" r="364" fill="#8f887f" opacity="0.18" filter="url(#blur-1)" />
  <circle cx="685" cy="828" r="368" fill="#5b5751" opacity="0.17" filter="url(#blur-1)" />
  <rect x="625" y="358" width="157" height="47" rx="23.5" fill="#d9d5cf" opacity="0.22" transform="rotate(23 703.5 381.5)" />
  <rect x="531" y="669" width="169" height="27" rx="13.5" fill="#8f887f" opacity="0.38" transform="rotate(18 615.5 682.5)" />
  <rect x="686" y="857" width="294" height="36" rx="18" fill="#1e1d1c" opacity="0.37" transform="rotate(-10 833 875)" />
  <rect x="914" y="10" width="257" height="42" rx="21" fill="#d9d5cf" opacity="0.19" transform="rotate(-24 1042.5 31)" />
  <rect x="347" y="482" width="169" height="50" rx="25" fill="#8f887f" opacity="0.19" transform="rotate(-23 431.5 507)" />
  <rect x="456" y="589" width="292" height="19" rx="9.5" fill="#1e1d1c" opacity="0.35" transform="rotate(0 602 598.5)" />
  <rect x="404" y="503" width="156" height="30" rx="15" fill="#d9d5cf" opacity="0.33" transform="rotate(20 482 518)" />
  <rect x="557" y="1307" width="280" height="46" rx="23" fill="#8f887f" opacity="0.33" transform="rotate(-19 697 1330)" />
  <path d="M 702 975 Q 541 900 597 434" stroke="#1e1d1c" stroke-width="18" stroke-linecap="round" opacity="0.57" fill="none" />
  <path d="M 320 1097 Q 717 309 144 571" stroke="#d9d5cf" stroke-width="24" stroke-linecap="round" opacity="0.56" fill="none" />
  <path d="M 548 257 Q 1015 359 852 138" stroke="#1e1d1c" stroke-width="30" stroke-linecap="round" opacity="0.42" fill="none" />
  <path d="M 1080 369 Q 143 554 550 962" stroke="#d9d5cf" stroke-width="36" stroke-linecap="round" opacity="0.35" fill="none" />
  <rect x="76" y="78" width="1048" height="1444" rx="72" stroke="rgba(255,255,255,0.12)" stroke-width="2" />
</svg>