<?xml version="1.0" encoding="UTF-8"?>
<svg width="1200" height="1600" viewBox="0 0 1200 1600" fill="none" xmlns="http://www.w3.org/2000/svg">
  <defs>
    <linearGradient id="bg-2" x1="0" y1="0" x2="1200" y2="1600" gradientUnits="userSpaceOnUse">
      <stop stop-color="#d9d5cf" />
      <stop offset="0.54" stop-color="#8f887f" />
      <stop offset="1" stop-color="#1e1d1c" />
    </linearGradient>
    <linearGradient id="bg-soft-2" x1="1200" y1="0" x2="0" y2="1600" gradientUnits="userSpaceOnUse">
      <stop stop-color="#8f887f" />
      <stop offset="0.52" stop-color="#5b5751" />
      <stop offset="1" stop-color="#1e1d1c" />
    </linearGradient>
    <filter id="blur-2">
      <feGaussianBlur stdDeviation="28" />
    </filter>
  </defs>
  <rect width="1200" height="1600" fill="url(#bg-2)" />
  <rect x="0" y="0" width="1200" height="1600" fill="rgba(255,255,255,0.06)" />
  <circle cx="731" cy="422" r="113" fill="#5b5751" opacity="0.17" filter="url(#blur-2)" />
  <circle cx="629" cy="542" r="363" fill="#8f887f" opacity="0.16" filter="url(#blur-2)" />
  <circle cx="373" cy="1259" r="360" fill="#5b5751" opacity="0.15" filter="url(#blur-2)" />
  <circle cx="723" cy="783" r="114" fill="#8f887f" opacity="0.16" filter="url(#blur-2)" />
  <circle cx="646" cy="1321" r="181" fill="#5b5751" opacity="0.23" filter="url(#blur-2)" />
  <rect x="771" y="147" width="122" height="26" rx="13" fill="#d9d5cf" opacity="0.23" transform="rotate(28 832 160)" />
  <rect x="881" y="1080" width="223" height="39" rx="19.5" fill="#8f887f" opacity="0.19" transform="rotate(-31 992.5 1099.5)" />
  <rect x="551" y="8" width="80" height="22" rx="11" fill="#1e1d1c" opacity="0.21" transform="rotate(4 591 19)" />
  <rect x="58" y="1094" width="235" height="18" rx="9" fill="#d9d5cf" opacity="0.26" transform="rotate(-20 175.5 1103)" />
  <rect x="220" y="174" width="152" height="35" rx="17.5" fill="#8f887f" opacity="0.26" transform="rotate(10 296 191.5)" />
  <rect x="47" y="1382" width="178" height="37" rx="18.5" fill="#1e1d1c" opacity="0.29" transform="rotate(-19 136 1400.5)" />
  <rect x="894" y="233" width="289" height="41" rx="20.5" fill="#d9d5cf" opacity="0.34" transform="rotate(1 1038.5 253.5)" />
  <rect x="113" y="410" width="197" height="16" rx="8" fill="#8f887f" opacity="0.28" transform="rotate(33 211.5 418)" />
  <path d="M 931 210 Q 1038 707 531 867" stroke="#1e1d1c" stroke-width="18" stroke-linecap="round" opacity="0.47" fill="none" />
  <path d="M 846 484 Q 893 782 901 1015" stroke="#d9d5cf" stroke-width="24" stroke-linecap="round" opacity="0.50" fill="none" />
  <path d="M 135 574 Q 705 502 717 786" stroke="#1e1d1c" stroke-width="30" stroke-linecap="round" opacity="0.42" fill="none" />
  <path d="M 387 277 Q 510 577 1081 1233" stroke="#d9d5cf" stroke-width="36" stroke-linecap="round" opacity="0.55" fill="none" />
  <rect x="76" y="78" width="1048" height="1444" rx="72" stroke="rgba(255,255,255,0.12)" stroke-width="2" />
</svg>