<?xml version="1.0" encoding="UTF-8"?>
<svg width="1200" height="1600" viewBox="0 0 1200 1600" fill="none" xmlns="http://www.w3.org/2000/svg">
  <defs>
    <linearGradient id="bg-0" x1="0" y1="0" x2="1200" y2="1600" gradientUnits="userSpaceOnUse">
      <stop stop-color="#d9d5cf" />
      <stop offset="0.54" stop-color="#8f887f" />
      <stop offset="1" stop-color="#1e1d1c" />
    </linearGradient>
    <linearGradient id="bg-soft-0" x1="1200" y1="0" x2="0" y2="1600" gradientUnits="userSpaceOnUse">
      <stop stop-color="#8f887f" />
      <stop offset="0.52" stop-color="#5b5751" />
      <stop offset="1" stop-color="#1e1d1c" />
    </linearGradient>
    <filter id="blur-0">
      <feGaussianBlur stdDeviation="24" />
    </filter>
  </defs>
  <rect width="1200" height="1600" fill="url(#bg-0)" />
  <rect x="0" y="0" width="1200" height="1600" fill="rgba(255,255,255,0.06)" />
  <circle cx="603" cy="940" r="160" fill="#5b5751" opacity="0.20" filter="url(#blur-0)" />
  <circle cx="681" cy="372" r="176" fill="#8f887f" opacity="0.16" filter="url(#blur-0)" />
  <circle cx="1004" cy="1250" r="232" fill="#5b5751" opacity="0.15" filter="url(#blur-0)" />
  <circle cx="901" cy="1180" r="165" fill="#8f887f" opacity="0.16" filter="url(#blur-0)" />
  <circle cx="274" cy="1312" r="119" fill="#5b5751" opacity="0.19" filter="url(#blur-0)" />
  <rect x="310" y="659" width="277" height="39" rx="19.5" fill="#d9d5cf" opacity="0.27" transform="rotate(-30 448.5 678.5)" />
  <rect x="714" y="16" width="136" height="49" rx="24.5" fill="#8f887f" opacity="0.30" transform="rotate(-29 782 40.5)" />
  <rect x="923" y="143" width="195" height="47" rx="23.5" fill="#1e1d1c" opacity="0.37" transform="rotate(-3 1020.5 166.5)" />
  <rect x="957" y="458" width="107" height="47" rx="23.5" fill="#d9d5cf" opacity="0.31" transform="rotate(-27 1010.5 481.5)" />
  <rect x="1034" y="1217" width="90" height="39" rx="19.5" fill="#8f887f" opacity="0.29" transform="rotate(-3 1079 1236.5)" />
  <rect x="784" y="591" width="314" height="52" rx="26" fill="#1e1d1c" opacity="0.29" transform="rotate(2 941 617)" />
  <rect x="858" y="882" width="220" height="44" rx="22" fill="#d9d5cf" opacity="0.33" transform="rotate(-27 968 904)" />
  <rect x="796" y="195" width="157" height="12" rx="6" fill="#8f887f" opacity="0.24" transform="rotate(-19 874.5 201)" />
  <path d="M 733 663 Q 183 1270 990 567" stroke="#1e1d1c" stroke-width="18" stroke-linecap="round" opacity="0.54" fill="none" />
  <path d="M 143 224 Q 744 864 608 1185" stroke="#d9d5cf" stroke-width="24" stroke-linecap="round" opacity="0.50" fill="none" />
  <path d="M 209 546 Q 547 1207 151 320" stroke="#1e1d1c" stroke-width="30" stroke-linecap="round" opacity="0.58" fill="none" />
  <path d="M 353 1124 Q 331 950 884 438" stroke="#d9d5cf" stroke-width="36" stroke-linecap="round" opacity="0.49" fill="none" />
  <rect x="76" y="78" width="1048" height="1444" rx="72" stroke="rgba(255,255,255,0.12)" stroke-width="2" />
</svg>