<?xml version="1.0" encoding="UTF-8"?>
<svg width="1200" height="1600" viewBox="0 0 1200 1600" fill="none" xmlns="http://www.w3.org/2000/svg">
  <defs>
    <linearGradient id="bg-1" x1="0" y1="0" x2="1200" y2="1600" gradientUnits="userSpaceOnUse">
      <stop stop-color="#d9d5cf" />
      <stop offset="0.54" stop-color="#8f887f" />
      <stop offset="1" stop-color="#1e1d1c" />
    </linearGradient>
    <linearGradient id="bg-soft-1" x1="1200" y1="0" x2="0" y2="1600" gradientUnits="userSpaceOnUse">
      <stop stop-color="#8f887f" />
      <stop offset="0.52" stop-color="#5b5751" />
      <stop offset="1" stop-color="#1e1d1c" />
    </linearGradient>
    <filter id="blur-1">
      <feGaussianBlur stdDeviation="26" />
    </filter>
  </defs>
  <rect width="1200" height="1600" fill="url(#bg-soft-1)" />
  <rect x="0" y="0" width="1200" height="1600" fill="rgba(255,255,255,0.06)" />
  <circle cx="356" cy="396" r="148" fill="#5b5751" opacity="0.33" filter="url(#blur-1)" />
  <circle cx="706" cy="579" r="113" fill="#8f887f" opacity="0.27" filter="url(#blur-1)" />
  <circle cx="1049" cy="794" r="298" fill="#5b5751" opacity="0.29" filter="url(#blur-1)" />
  <circle cx="444" cy="329" r="240" fill="#8f887f" opacity="0.18" filter="url(#blur-1)" />
  <circle cx="238" cy="695" r="128" fill="#5b5751" opacity="0.34" filter="url(#blur-1)" />
  <rect x="550" y="1391" width="157" height="19" rx="9.5" fill="#d9d5cf" opacity="0.38" transform="rotate(7 628.5 1400.5)" />
  <rect x="726" y="1202" width="316" height="25" rx="12.5" fill="#8f887f" opacity="0.35" transform="rotate(9 884 1214.5)" />
  <rect x="394" y="506" width="118" height="34" rx="17" fill="#1e1d1c" opacity="0.20" transform="rotate(32 453 523)" />
  <rect x="1076" y="1294" width="171" height="33" rx="16.5" fill="#d9d5cf" opacity="0.23" transform="rotate(11 1161.5 1310.5)" />
  <rect x="809" y="309" width="105" height="32" rx="16" fill="#8f887f" opacity="0.30" transform="rotate(14 861.5 325)" />
  <rect x="703" y="785" width="300" height="42" rx="21" fill="#1e1d1c" opacity="0.18" transform="rotate(32 853 806)" />
  <rect x="429" y="907" width="218" height="11" rx="5.5" fill="#d9d5cf" opacity="0.27" transform="rotate(-31 538 912.5)" />
  <rect x="208" y="1111" width="267" height="21" rx="10.5" fill="#8f887f" opacity="0.29" transform="rotate(-16 341.5 1121.5)" />
  <path d="M 411 1160 Q 111 460 385 182" stroke="#1e1d1c" stroke-width="18" stroke-linecap="round" opacity="0.53" fill="none" />
  <path d="M 223 373 Q 394 1181 731 958" stroke="#d9d5cf" stroke-width="24" stroke-linecap="round" opacity="0.36" fill="none" />
  <path d="M 399 899 Q 794 704 472 811" stroke="#1e1d1c" stroke-width="30" stroke-linecap="round" opacity="0.56" fill="none" />
  <path d="M 1001 289 Q 333 1179 1077 405" stroke="#d9d5cf" stroke-width="36" stroke-linecap="round" opacity="0.54" fill="none" />
  <rect x="76" y="78" width="1048" height="1444" rx="72" stroke="rgba(255,255,255,0.12)" stroke-width="2" />
</svg>