<?xml version="1.0" encoding="UTF-8"?>
<svg width="1200" height="1600" viewBox="0 0 1200 1600" fill="none" xmlns="http://www.w3.org/2000/svg">
  <defs>
    <linearGradient id="bg-1" x1="0" y1="0" x2="1200" y2="1600" gradientUnits="userSpaceOnUse">
      <stop stop-color="#d9d5cf" />
      <stop offset="0.54" stop-color="#8f887f" />
      <stop offset="1" stop-color="#1e1d1c" />
    </linearGradient>
    <linearGradient id="bg-soft-1" x1="1200" y1="0" x2="0" y2="1600" gradientUnits="userSpaceOnUse">
      <stop stop-color="#8f887f" />
      <stop offset="0.52" stop-color="#5b5751" />
      <stop offset="1" stop-color="#1e1d1c" />
    </linearGradient>
    <filter id="blur-1">
      <feGaussianBlur stdDeviation="26" />
    </filter>
  </defs>
  <rect width="1200" height="1600" fill="url(#bg-soft-1)" />
  <rect x="0" y="0" width="1200" height="1600" fill="rgba(255,255,255,0.06)" />
  <circle cx="804" cy="307" r="180" fill="#5b5751" opacity="0.19" filter="url(#blur-1)" />
  <circle cx="233" cy="1322" r="176" fill="#8f887f" opacity="0.13" filter="url(#blur-1)" />
  <circle cx="219" cy="482" r="300" fill="#5b5751" opacity="0.27" filter="url(#blur-1)" />
  <circle cx="1045" cy="258" r="285" fill="#8f887f" opacity="0.15" filter="url(#blur-1)" />
  <circle cx="426" cy="619" r="322" fill="#5b5751" opacity="0.17" filter="url(#blur-1)" />
  <rect x="615" y="273" width="247" height="38" rx="19" fill="#d9d5cf" opacity="0.21" transform="rotate(-34 738.5 292)" />
  <rect x="482" y="385" width="145" height="32" rx="16" fill="#8f887f" opacity="0.24" transform="rotate(-17 554.5 401)" />
  <rect x="35" y="1032" width="176" height="33" rx="16.5" fill="#1e1d1c" opacity="0.37" transform="rotate(12 123 1048.5)" />
  <rect x="78" y="272" width="145" height="24" rx="12" fill="#d9d5cf" opacity="0.21" transform="rotate(-26 150.5 284)" />
  <rect x="626" y="523" width="277" height="21" rx="10.5" fill="#8f887f" opacity="0.24" transform="rotate(19 764.5 533.5)" />
  <rect x="199" y="882" width="170" height="17" rx="8.5" fill="#1e1d1c" opacity="0.22" transform="rotate(25 284 890.5)" />
  <rect x="821" y="1268" width="99" height="28" rx="14" fill="#d9d5cf" opacity="0.21" transform="rotate(33 870.5 1282)" />
  <rect x="168" y="678" width="107" height="19" rx="9.5" fill="#8f887f" opacity="0.38" transform="rotate(-27 221.5 687.5)" />
  <path d="M 343 892 Q 106 456 1013 532" stroke="#1e1d1c" stroke-width="18" stroke-linecap="round" opacity="0.43" fill="none" />
  <path d="M 128 742 Q 1095 1174 375 141" stroke="#d9d5cf" stroke-width="24" stroke-linecap="round" opacity="0.48" fill="none" />
  <path d="M 1022 1231 Q 631 241 602 741" stroke="#1e1d1c" stroke-width="30" stroke-linecap="round" opacity="0.39" fill="none" />
  <path d="M 880 157 Q 125 859 422 646" stroke="#d9d5cf" stroke-width="36" stroke-linecap="round" opacity="0.36" fill="none" />
  <rect x="76" y="78" width="1048" height="1444" rx="72" stroke="rgba(255,255,255,0.12)" stroke-width="2" />
</svg>