<?xml version="1.0" encoding="UTF-8"?>
<svg width="1200" height="1600" viewBox="0 0 1200 1600" fill="none" xmlns="http://www.w3.org/2000/svg">
  <defs>
    <linearGradient id="bg-2" x1="0" y1="0" x2="1200" y2="1600" gradientUnits="userSpaceOnUse">
      <stop stop-color="#d9d5cf" />
      <stop offset="0.54" stop-color="#8f887f" />
      <stop offset="1" stop-color="#1e1d1c" />
    </linearGradient>
    <linearGradient id="bg-soft-2" x1="1200" y1="0" x2="0" y2="1600" gradientUnits="userSpaceOnUse">
      <stop stop-color="#8f887f" />
      <stop offset="0.52" stop-color="#5b5751" />
      <stop offset="1" stop-color="#1e1d1c" />
    </linearGradient>
    <filter id="blur-2">
      <feGaussianBlur stdDeviation="28" />
    </filter>
  </defs>
  <rect width="1200" height="1600" fill="url(#bg-2)" />
  <rect x="0" y="0" width="1200" height="1600" fill="rgba(255,255,255,0.06)" />
  <circle cx="713" cy="1145" r="233" fill="#5b5751" opacity="0.33" filter="url(#blur-2)" />
  <circle cx="976" cy="880" r="203" fill="#8f887f" opacity="0.22" filter="url(#blur-2)" />
  <circle cx="421" cy="1358" r="326" fill="#5b5751" opacity="0.16" filter="url(#blur-2)" />
  <circle cx="315" cy="723" r="325" fill="#8f887f" opacity="0.33" filter="url(#blur-2)" />
  <circle cx="439" cy="1059" r="209" fill="#5b5751" opacity="0.25" filter="url(#blur-2)" />
  <rect x="46" y="364" width="290" height="16" rx="8" fill="#d9d5cf" opacity="0.33" transform="rotate(-21 191 372)" />
  <rect x="521" y="37" width="198" height="26" rx="13" fill="#8f887f" opacity="0.27" transform="rotate(15 620 50)" />
  <rect x="1005" y="1222" width="152" height="29" rx="14.5" fill="#1e1d1c" opacity="0.20" transform="rotate(12 1081 1236.5)" />
  <rect x="249" y="117" width="252" height="41" rx="20.5" fill="#d9d5cf" opacity="0.27" transform="rotate(-23 375 137.5)" />
  <rect x="830" y="622" width="211" height="42" rx="21" fill="#8f887f" opacity="0.19" transform="rotate(11 935.5 643)" />
  <rect x="391" y="603" width="242" height="18" rx="9" fill="#1e1d1c" opacity="0.23" transform="rotate(21 512 612)" />
  <rect x="1028" y="1166" width="220" height="34" rx="17" fill="#d9d5cf" opacity="0.36" transform="rotate(26 1138 1183)" />
  <rect x="1005" y="241" width="242" height="17" rx="8.5" fill="#8f887f" opacity="0.34" transform="rotate(27 1126 249.5)" />
  <path d="M 267 1134 Q 450 407 299 917" stroke="#1e1d1c" stroke-width="18" stroke-linecap="round" opacity="0.59" fill="none" />
  <path d="M 165 217 Q 237 1273 751 706" stroke="#d9d5cf" stroke-width="24" stroke-linecap="round" opacity="0.58" fill="none" />
  <path d="M 1043 154 Q 361 836 891 434" stroke="#1e1d1c" stroke-width="30" stroke-linecap="round" opacity="0.51" fill="none" />
  <path d="M 514 1010 Q 816 1212 464 682" stroke="#d9d5cf" stroke-width="36" stroke-linecap="round" opacity="0.40" fill="none" />
  <rect x="76" y="78" width="1048" height="1444" rx="72" stroke="rgba(255,255,255,0.12)" stroke-width="2" />
</svg>