<?xml version="1.0" encoding="UTF-8"?>
<svg width="1200" height="1600" viewBox="0 0 1200 1600" fill="none" xmlns="http://www.w3.org/2000/svg">
  <defs>
    <linearGradient id="bg-2" x1="0" y1="0" x2="1200" y2="1600" gradientUnits="userSpaceOnUse">
      <stop stop-color="#d9d5cf" />
      <stop offset="0.54" stop-color="#8f887f" />
      <stop offset="1" stop-color="#1e1d1c" />
    </linearGradient>
    <linearGradient id="bg-soft-2" x1="1200" y1="0" x2="0" y2="1600" gradientUnits="userSpaceOnUse">
      <stop stop-color="#8f887f" />
      <stop offset="0.52" stop-color="#5b5751" />
      <stop offset="1" stop-color="#1e1d1c" />
    </linearGradient>
    <filter id="blur-2">
      <feGaussianBlur stdDeviation="28" />
    </filter>
  </defs>
  <rect width="1200" height="1600" fill="url(#bg-2)" />
  <rect x="0" y="0" width="1200" height="1600" fill="rgba(255,255,255,0.06)" />
  <circle cx="680" cy="1324" r="172" fill="#5b5751" opacity="0.29" filter="url(#blur-2)" />
  <circle cx="722" cy="1019" r="242" fill="#8f887f" opacity="0.18" filter="url(#blur-2)" />
  <circle cx="307" cy="781" r="274" fill="#5b5751" opacity="0.17" filter="url(#blur-2)" />
  <circle cx="768" cy="976" r="136" fill="#8f887f" opacity="0.21" filter="url(#blur-2)" />
  <circle cx="722" cy="959" r="208" fill="#5b5751" opacity="0.19" filter="url(#blur-2)" />
  <rect x="796" y="1238" width="283" height="45" rx="22.5" fill="#d9d5cf" opacity="0.32" transform="rotate(-23 937.5 1260.5)" />
  <rect x="319" y="231" width="120" height="22" rx="11" fill="#8f887f" opacity="0.25" transform="rotate(22 379 242)" />
  <rect x="742" y="893" width="244" height="45" rx="22.5" fill="#1e1d1c" opacity="0.20" transform="rotate(-22 864 915.5)" />
  <rect x="607" y="637" width="189" height="14" rx="7" fill="#d9d5cf" opacity="0.32" transform="rotate(20 701.5 644)" />
  <rect x="574" y="827" width="303" height="11" rx="5.5" fill="#8f887f" opacity="0.35" transform="rotate(6 725.5 832.5)" />
  <rect x="412" y="978" width="270" height="15" rx="7.5" fill="#1e1d1c" opacity="0.29" transform="rotate(3 547 985.5)" />
  <rect x="995" y="645" width="224" height="29" rx="14.5" fill="#d9d5cf" opacity="0.19" transform="rotate(-5 1107 659.5)" />
  <rect x="920" y="86" width="158" height="32" rx="16" fill="#8f887f" opacity="0.31" transform="rotate(27 999 102)" />
  <path d="M 765 915 Q 520 449 176 740" stroke="#1e1d1c" stroke-width="18" stroke-linecap="round" opacity="0.45" fill="none" />
  <path d="M 764 1131 Q 486 406 513 1147" stroke="#d9d5cf" stroke-width="24" stroke-linecap="round" opacity="0.42" fill="none" />
  <path d="M 164 968 Q 454 915 718 101" stroke="#1e1d1c" stroke-width="30" stroke-linecap="round" opacity="0.37" fill="none" />
  <path d="M 120 557 Q 663 1059 944 587" stroke="#d9d5cf" stroke-width="36" stroke-linecap="round" opacity="0.43" fill="none" />
  <rect x="76" y="78" width="1048" height="1444" rx="72" stroke="rgba(255,255,255,0.12)" stroke-width="2" />
</svg>