<?xml version="1.0" encoding="UTF-8"?>
<svg width="1200" height="1600" viewBox="0 0 1200 1600" fill="none" xmlns="http://www.w3.org/2000/svg">
  <defs>
    <linearGradient id="bg-1" x1="0" y1="0" x2="1200" y2="1600" gradientUnits="userSpaceOnUse">
      <stop stop-color="#d9d5cf" />
      <stop offset="0.54" stop-color="#8f887f" />
      <stop offset="1" stop-color="#1e1d1c" />
    </linearGradient>
    <linearGradient id="bg-soft-1" x1="1200" y1="0" x2="0" y2="1600" gradientUnits="userSpaceOnUse">
      <stop stop-color="#8f887f" />
      <stop offset="0.52" stop-color="#5b5751" />
      <stop offset="1" stop-color="#1e1d1c" />
    </linearGradient>
    <filter id="blur-1">
      <feGaussianBlur stdDeviation="26" />
    </filter>
  </defs>
  <rect width="1200" height="1600" fill="url(#bg-soft-1)" />
  <rect x="0" y="0" width="1200" height="1600" fill="rgba(255,255,255,0.06)" />
  <circle cx="929" cy="503" r="110" fill="#5b5751" opacity="0.20" filter="url(#blur-1)" />
  <circle cx="243" cy="789" r="337" fill="#8f887f" opacity="0.28" filter="url(#blur-1)" />
  <circle cx="417" cy="995" r="235" fill="#5b5751" opacity="0.29" filter="url(#blur-1)" />
  <circle cx="736" cy="310" r="263" fill="#8f887f" opacity="0.28" filter="url(#blur-1)" />
  <circle cx="248" cy="183" r="249" fill="#5b5751" opacity="0.26" filter="url(#blur-1)" />
  <rect x="1014" y="540" width="269" height="25" rx="12.5" fill="#d9d5cf" opacity="0.28" transform="rotate(4 1148.5 552.5)" />
  <rect x="19" y="343" width="296" height="43" rx="21.5" fill="#8f887f" opacity="0.37" transform="rotate(8 167 364.5)" />
  <rect x="940" y="1224" width="151" height="33" rx="16.5" fill="#1e1d1c" opacity="0.32" transform="rotate(-30 1015.5 1240.5)" />
  <rect x="886" y="927" width="318" height="51" rx="25.5" fill="#d9d5cf" opacity="0.36" transform="rotate(-27 1045 952.5)" />
  <rect x="175" y="392" width="140" height="11" rx="5.5" fill="#8f887f" opacity="0.29" transform="rotate(-20 245 397.5)" />
  <rect x="568" y="620" width="195" height="42" rx="21" fill="#1e1d1c" opacity="0.27" transform="rotate(-23 665.5 641)" />
  <rect x="804" y="294" width="100" height="31" rx="15.5" fill="#d9d5cf" opacity="0.32" transform="rotate(-6 854 309.5)" />
  <rect x="436" y="541" width="215" height="27" rx="13.5" fill="#8f887f" opacity="0.23" transform="rotate(21 543.5 554.5)" />
  <path d="M 949 659 Q 195 1167 510 551" stroke="#1e1d1c" stroke-width="18" stroke-linecap="round" opacity="0.50" fill="none" />
  <path d="M 391 246 Q 755 495 1020 558" stroke="#d9d5cf" stroke-width="24" stroke-linecap="round" opacity="0.56" fill="none" />
  <path d="M 1012 1252 Q 989 1091 414 178" stroke="#1e1d1c" stroke-width="30" stroke-linecap="round" opacity="0.58" fill="none" />
  <path d="M 1074 126 Q 555 1179 1062 582" stroke="#d9d5cf" stroke-width="36" stroke-linecap="round" opacity="0.39" fill="none" />
  <rect x="76" y="78" width="1048" height="1444" rx="72" stroke="rgba(255,255,255,0.12)" stroke-width="2" />
</svg>