<?xml version="1.0" encoding="UTF-8"?>
<svg width="1200" height="1600" viewBox="0 0 1200 1600" fill="none" xmlns="http://www.w3.org/2000/svg">
  <defs>
    <linearGradient id="bg-0" x1="0" y1="0" x2="1200" y2="1600" gradientUnits="userSpaceOnUse">
      <stop stop-color="#d9d5cf" />
      <stop offset="0.54" stop-color="#8f887f" />
      <stop offset="1" stop-color="#1e1d1c" />
    </linearGradient>
    <linearGradient id="bg-soft-0" x1="1200" y1="0" x2="0" y2="1600" gradientUnits="userSpaceOnUse">
      <stop stop-color="#8f887f" />
      <stop offset="0.52" stop-color="#5b5751" />
      <stop offset="1" stop-color="#1e1d1c" />
    </linearGradient>
    <filter id="blur-0">
      <feGaussianBlur stdDeviation="24" />
    </filter>
  </defs>
  <rect width="1200" height="1600" fill="url(#bg-0)" />
  <rect x="0" y="0" width="1200" height="1600" fill="rgba(255,255,255,0.06)" />
  <circle cx="214" cy="248" r="206" fill="#5b5751" opacity="0.26" filter="url(#blur-0)" />
  <circle cx="718" cy="763" r="160" fill="#8f887f" opacity="0.21" filter="url(#blur-0)" />
  <circle cx="748" cy="702" r="161" fill="#5b5751" opacity="0.22" filter="url(#blur-0)" />
  <circle cx="218" cy="1429" r="302" fill="#8f887f" opacity="0.16" filter="url(#blur-0)" />
  <circle cx="1052" cy="718" r="385" fill="#5b5751" opacity="0.28" filter="url(#blur-0)" />
  <rect x="323" y="20" width="213" height="52" rx="26" fill="#d9d5cf" opacity="0.22" transform="rotate(15 429.5 46)" />
  <rect x="840" y="1304" width="249" height="23" rx="11.5" fill="#8f887f" opacity="0.27" transform="rotate(-5 964.5 1315.5)" />
  <rect x="386" y="1130" width="250" height="47" rx="23.5" fill="#1e1d1c" opacity="0.34" transform="rotate(-22 511 1153.5)" />
  <rect x="163" y="193" width="91" height="43" rx="21.5" fill="#d9d5cf" opacity="0.22" transform="rotate(-4 208.5 214.5)" />
  <rect x="42" y="684" width="298" height="27" rx="13.5" fill="#8f887f" opacity="0.28" transform="rotate(21 191 697.5)" />
  <rect x="331" y="567" width="86" height="41" rx="20.5" fill="#1e1d1c" opacity="0.36" transform="rotate(3 374 587.5)" />
  <rect x="490" y="1267" width="305" height="39" rx="19.5" fill="#d9d5cf" opacity="0.24" transform="rotate(1 642.5 1286.5)" />
  <rect x="1043" y="297" width="229" height="30" rx="15" fill="#8f887f" opacity="0.31" transform="rotate(35 1157.5 312)" />
  <path d="M 663 889 Q 1033 653 145 225" stroke="#1e1d1c" stroke-width="18" stroke-linecap="round" opacity="0.44" fill="none" />
  <path d="M 339 494 Q 509 713 178 1283" stroke="#d9d5cf" stroke-width="24" stroke-linecap="round" opacity="0.54" fill="none" />
  <path d="M 370 740 Q 117 105 182 1225" stroke="#1e1d1c" stroke-width="30" stroke-linecap="round" opacity="0.56" fill="none" />
  <path d="M 140 308 Q 768 784 967 937" stroke="#d9d5cf" stroke-width="36" stroke-linecap="round" opacity="0.37" fill="none" />
  <rect x="76" y="78" width="1048" height="1444" rx="72" stroke="rgba(255,255,255,0.12)" stroke-width="2" />
</svg>