<?xml version="1.0" encoding="UTF-8"?>
<svg width="1200" height="1600" viewBox="0 0 1200 1600" fill="none" xmlns="http://www.w3.org/2000/svg">
  <defs>
    <linearGradient id="bg-2" x1="0" y1="0" x2="1200" y2="1600" gradientUnits="userSpaceOnUse">
      <stop stop-color="#d9d5cf" />
      <stop offset="0.54" stop-color="#8f887f" />
      <stop offset="1" stop-color="#1e1d1c" />
    </linearGradient>
    <linearGradient id="bg-soft-2" x1="1200" y1="0" x2="0" y2="1600" gradientUnits="userSpaceOnUse">
      <stop stop-color="#8f887f" />
      <stop offset="0.52" stop-color="#5b5751" />
      <stop offset="1" stop-color="#1e1d1c" />
    </linearGradient>
    <filter id="blur-2">
      <feGaussianBlur stdDeviation="28" />
    </filter>
  </defs>
  <rect width="1200" height="1600" fill="url(#bg-2)" />
  <rect x="0" y="0" width="1200" height="1600" fill="rgba(255,255,255,0.06)" />
  <circle cx="878" cy="325" r="381" fill="#5b5751" opacity="0.16" filter="url(#blur-2)" />
  <circle cx="373" cy="1232" r="243" fill="#8f887f" opacity="0.17" filter="url(#blur-2)" />
  <circle cx="720" cy="1339" r="147" fill="#5b5751" opacity="0.27" filter="url(#blur-2)" />
  <circle cx="519" cy="285" r="347" fill="#8f887f" opacity="0.25" filter="url(#blur-2)" />
  <circle cx="535" cy="635" r="295" fill="#5b5751" opacity="0.28" filter="url(#blur-2)" />
  <rect x="278" y="990" width="158" height="45" rx="22.5" fill="#d9d5cf" opacity="0.20" transform="rotate(-20 357 1012.5)" />
  <rect x="673" y="1131" width="99" height="28" rx="14" fill="#8f887f" opacity="0.27" transform="rotate(10 722.5 1145)" />
  <rect x="815" y="1002" width="123" height="17" rx="8.5" fill="#1e1d1c" opacity="0.20" transform="rotate(13 876.5 1010.5)" />
  <rect x="214" y="714" width="131" height="37" rx="18.5" fill="#d9d5cf" opacity="0.31" transform="rotate(-10 279.5 732.5)" />
  <rect x="798" y="28" width="269" height="32" rx="16" fill="#8f887f" opacity="0.31" transform="rotate(4 932.5 44)" />
  <rect x="378" y="945" width="108" height="42" rx="21" fill="#1e1d1c" opacity="0.26" transform="rotate(31 432 966)" />
  <rect x="754" y="236" width="107" height="25" rx="12.5" fill="#d9d5cf" opacity="0.18" transform="rotate(11 807.5 248.5)" />
  <rect x="472" y="1355" width="140" height="24" rx="12" fill="#8f887f" opacity="0.30" transform="rotate(-20 542 1367)" />
  <path d="M 547 218 Q 889 357 205 332" stroke="#1e1d1c" stroke-width="18" stroke-linecap="round" opacity="0.39" fill="none" />
  <path d="M 429 319 Q 765 1155 149 675" stroke="#d9d5cf" stroke-width="24" stroke-linecap="round" opacity="0.39" fill="none" />
  <path d="M 883 618 Q 890 521 186 982" stroke="#1e1d1c" stroke-width="30" stroke-linecap="round" opacity="0.56" fill="none" />
  <path d="M 645 848 Q 526 730 185 707" stroke="#d9d5cf" stroke-width="36" stroke-linecap="round" opacity="0.47" fill="none" />
  <rect x="76" y="78" width="1048" height="1444" rx="72" stroke="rgba(255,255,255,0.12)" stroke-width="2" />
</svg>