<?xml version="1.0" encoding="UTF-8"?>
<svg width="1200" height="1600" viewBox="0 0 1200 1600" fill="none" xmlns="http://www.w3.org/2000/svg">
  <defs>
    <linearGradient id="bg-1" x1="0" y1="0" x2="1200" y2="1600" gradientUnits="userSpaceOnUse">
      <stop stop-color="#d9d5cf" />
      <stop offset="0.54" stop-color="#8f887f" />
      <stop offset="1" stop-color="#1e1d1c" />
    </linearGradient>
    <linearGradient id="bg-soft-1" x1="1200" y1="0" x2="0" y2="1600" gradientUnits="userSpaceOnUse">
      <stop stop-color="#8f887f" />
      <stop offset="0.52" stop-color="#5b5751" />
      <stop offset="1" stop-color="#1e1d1c" />
    </linearGradient>
    <filter id="blur-1">
      <feGaussianBlur stdDeviation="26" />
    </filter>
  </defs>
  <rect width="1200" height="1600" fill="url(#bg-soft-1)" />
  <rect x="0" y="0" width="1200" height="1600" fill="rgba(255,255,255,0.06)" />
  <circle cx="736" cy="424" r="143" fill="#5b5751" opacity="0.25" filter="url(#blur-1)" />
  <circle cx="498" cy="491" r="320" fill="#8f887f" opacity="0.15" filter="url(#blur-1)" />
  <circle cx="882" cy="401" r="278" fill="#5b5751" opacity="0.24" filter="url(#blur-1)" />
  <circle cx="364" cy="844" r="372" fill="#8f887f" opacity="0.30" filter="url(#blur-1)" />
  <circle cx="666" cy="785" r="325" fill="#5b5751" opacity="0.33" filter="url(#blur-1)" />
  <rect x="220" y="177" width="159" height="15" rx="7.5" fill="#d9d5cf" opacity="0.35" transform="rotate(8 299.5 184.5)" />
  <rect x="891" y="1133" width="173" height="29" rx="14.5" fill="#8f887f" opacity="0.27" transform="rotate(5 977.5 1147.5)" />
  <rect x="10" y="987" width="287" height="48" rx="24" fill="#1e1d1c" opacity="0.36" transform="rotate(34 153.5 1011)" />
  <rect x="807" y="539" width="140" height="45" rx="22.5" fill="#d9d5cf" opacity="0.18" transform="rotate(24 877 561.5)" />
  <rect x="114" y="300" width="166" height="36" rx="18" fill="#8f887f" opacity="0.31" transform="rotate(-31 197 318)" />
  <rect x="11" y="1090" width="137" height="46" rx="23" fill="#1e1d1c" opacity="0.29" transform="rotate(6 79.5 1113)" />
  <rect x="820" y="860" width="232" height="11" rx="5.5" fill="#d9d5cf" opacity="0.28" transform="rotate(-9 936 865.5)" />
  <rect x="235" y="530" width="184" height="42" rx="21" fill="#8f887f" opacity="0.24" transform="rotate(-2 327 551)" />
  <path d="M 993 888 Q 467 916 855 1050" stroke="#1e1d1c" stroke-width="18" stroke-linecap="round" opacity="0.59" fill="none" />
  <path d="M 979 589 Q 784 546 643 873" stroke="#d9d5cf" stroke-width="24" stroke-linecap="round" opacity="0.53" fill="none" />
  <path d="M 951 673 Q 414 533 201 166" stroke="#1e1d1c" stroke-width="30" stroke-linecap="round" opacity="0.40" fill="none" />
  <path d="M 494 515 Q 635 810 980 594" stroke="#d9d5cf" stroke-width="36" stroke-linecap="round" opacity="0.57" fill="none" />
  <rect x="76" y="78" width="1048" height="1444" rx="72" stroke="rgba(255,255,255,0.12)" stroke-width="2" />
</svg>