<?xml version="1.0" encoding="UTF-8"?>
<svg width="1200" height="1600" viewBox="0 0 1200 1600" fill="none" xmlns="http://www.w3.org/2000/svg">
  <defs>
    <linearGradient id="bg-2" x1="0" y1="0" x2="1200" y2="1600" gradientUnits="userSpaceOnUse">
      <stop stop-color="#d9d5cf" />
      <stop offset="0.54" stop-color="#8f887f" />
      <stop offset="1" stop-color="#1e1d1c" />
    </linearGradient>
    <linearGradient id="bg-soft-2" x1="1200" y1="0" x2="0" y2="1600" gradientUnits="userSpaceOnUse">
      <stop stop-color="#8f887f" />
      <stop offset="0.52" stop-color="#5b5751" />
      <stop offset="1" stop-color="#1e1d1c" />
    </linearGradient>
    <filter id="blur-2">
      <feGaussianBlur stdDeviation="28" />
    </filter>
  </defs>
  <rect width="1200" height="1600" fill="url(#bg-2)" />
  <rect x="0" y="0" width="1200" height="1600" fill="rgba(255,255,255,0.06)" />
  <circle cx="597" cy="1427" r="348" fill="#5b5751" opacity="0.22" filter="url(#blur-2)" />
  <circle cx="619" cy="1375" r="157" fill="#8f887f" opacity="0.34" filter="url(#blur-2)" />
  <circle cx="896" cy="603" r="268" fill="#5b5751" opacity="0.13" filter="url(#blur-2)" />
  <circle cx="927" cy="1048" r="187" fill="#8f887f" opacity="0.16" filter="url(#blur-2)" />
  <circle cx="322" cy="379" r="293" fill="#5b5751" opacity="0.30" filter="url(#blur-2)" />
  <rect x="628" y="1021" width="211" height="40" rx="20" fill="#d9d5cf" opacity="0.35" transform="rotate(-25 733.5 1041)" />
  <rect x="79" y="390" width="161" height="46" rx="23" fill="#8f887f" opacity="0.33" transform="rotate(-25 159.5 413)" />
  <rect x="644" y="1395" width="271" height="48" rx="24" fill="#1e1d1c" opacity="0.27" transform="rotate(4 779.5 1419)" />
  <rect x="1021" y="104" width="104" height="35" rx="17.5" fill="#d9d5cf" opacity="0.37" transform="rotate(4 1073 121.5)" />
  <rect x="689" y="698" width="222" height="41" rx="20.5" fill="#8f887f" opacity="0.29" transform="rotate(10 800 718.5)" />
  <rect x="48" y="839" width="284" height="19" rx="9.5" fill="#1e1d1c" opacity="0.21" transform="rotate(26 190 848.5)" />
  <rect x="764" y="1041" width="94" height="37" rx="18.5" fill="#d9d5cf" opacity="0.33" transform="rotate(13 811 1059.5)" />
  <rect x="560" y="499" width="153" height="19" rx="9.5" fill="#8f887f" opacity="0.27" transform="rotate(-17 636.5 508.5)" />
  <path d="M 362 234 Q 952 861 432 598" stroke="#1e1d1c" stroke-width="18" stroke-linecap="round" opacity="0.51" fill="none" />
  <path d="M 470 573 Q 402 422 816 761" stroke="#d9d5cf" stroke-width="24" stroke-linecap="round" opacity="0.36" fill="none" />
  <path d="M 701 455 Q 602 613 837 851" stroke="#1e1d1c" stroke-width="30" stroke-linecap="round" opacity="0.58" fill="none" />
  <path d="M 678 573 Q 682 581 842 816" stroke="#d9d5cf" stroke-width="36" stroke-linecap="round" opacity="0.49" fill="none" />
  <rect x="76" y="78" width="1048" height="1444" rx="72" stroke="rgba(255,255,255,0.12)" stroke-width="2" />
</svg>