<?xml version="1.0" encoding="UTF-8"?>
<svg width="1200" height="1600" viewBox="0 0 1200 1600" fill="none" xmlns="http://www.w3.org/2000/svg">
  <defs>
    <linearGradient id="bg-1" x1="0" y1="0" x2="1200" y2="1600" gradientUnits="userSpaceOnUse">
      <stop stop-color="#d9d5cf" />
      <stop offset="0.54" stop-color="#8f887f" />
      <stop offset="1" stop-color="#1e1d1c" />
    </linearGradient>
    <linearGradient id="bg-soft-1" x1="1200" y1="0" x2="0" y2="1600" gradientUnits="userSpaceOnUse">
      <stop stop-color="#8f887f" />
      <stop offset="0.52" stop-color="#5b5751" />
      <stop offset="1" stop-color="#1e1d1c" />
    </linearGradient>
    <filter id="blur-1">
      <feGaussianBlur stdDeviation="26" />
    </filter>
  </defs>
  <rect width="1200" height="1600" fill="url(#bg-soft-1)" />
  <rect x="0" y="0" width="1200" height="1600" fill="rgba(255,255,255,0.06)" />
  <circle cx="340" cy="573" r="149" fill="#5b5751" opacity="0.21" filter="url(#blur-1)" />
  <circle cx="758" cy="1082" r="244" fill="#8f887f" opacity="0.20" filter="url(#blur-1)" />
  <circle cx="570" cy="599" r="330" fill="#5b5751" opacity="0.22" filter="url(#blur-1)" />
  <circle cx="957" cy="1081" r="226" fill="#8f887f" opacity="0.13" filter="url(#blur-1)" />
  <circle cx="834" cy="264" r="260" fill="#5b5751" opacity="0.19" filter="url(#blur-1)" />
  <rect x="1051" y="1073" width="224" height="32" rx="16" fill="#d9d5cf" opacity="0.27" transform="rotate(6 1163 1089)" />
  <rect x="164" y="961" width="254" height="39" rx="19.5" fill="#8f887f" opacity="0.30" transform="rotate(-27 291 980.5)" />
  <rect x="699" y="536" width="184" height="19" rx="9.5" fill="#1e1d1c" opacity="0.28" transform="rotate(-18 791 545.5)" />
  <rect x="462" y="981" width="251" height="21" rx="10.5" fill="#d9d5cf" opacity="0.28" transform="rotate(-23 587.5 991.5)" />
  <rect x="706" y="13" width="240" height="33" rx="16.5" fill="#8f887f" opacity="0.28" transform="rotate(26 826 29.5)" />
  <rect x="611" y="43" width="238" height="20" rx="10" fill="#1e1d1c" opacity="0.28" transform="rotate(-15 730 53)" />
  <rect x="38" y="536" width="234" height="34" rx="17" fill="#d9d5cf" opacity="0.27" transform="rotate(-30 155 553)" />
  <rect x="755" y="1024" width="161" height="25" rx="12.5" fill="#8f887f" opacity="0.32" transform="rotate(4 835.5 1036.5)" />
  <path d="M 875 803 Q 449 1013 458 631" stroke="#1e1d1c" stroke-width="18" stroke-linecap="round" opacity="0.52" fill="none" />
  <path d="M 1071 103 Q 999 1026 1076 799" stroke="#d9d5cf" stroke-width="24" stroke-linecap="round" opacity="0.40" fill="none" />
  <path d="M 959 551 Q 871 1118 845 895" stroke="#1e1d1c" stroke-width="30" stroke-linecap="round" opacity="0.40" fill="none" />
  <path d="M 519 379 Q 737 475 675 291" stroke="#d9d5cf" stroke-width="36" stroke-linecap="round" opacity="0.44" fill="none" />
  <rect x="76" y="78" width="1048" height="1444" rx="72" stroke="rgba(255,255,255,0.12)" stroke-width="2" />
</svg>