<?xml version="1.0" encoding="UTF-8"?>
<svg width="1200" height="1600" viewBox="0 0 1200 1600" fill="none" xmlns="http://www.w3.org/2000/svg">
  <defs>
    <linearGradient id="bg-2" x1="0" y1="0" x2="1200" y2="1600" gradientUnits="userSpaceOnUse">
      <stop stop-color="#d9d5cf" />
      <stop offset="0.54" stop-color="#8f887f" />
      <stop offset="1" stop-color="#1e1d1c" />
    </linearGradient>
    <linearGradient id="bg-soft-2" x1="1200" y1="0" x2="0" y2="1600" gradientUnits="userSpaceOnUse">
      <stop stop-color="#8f887f" />
      <stop offset="0.52" stop-color="#5b5751" />
      <stop offset="1" stop-color="#1e1d1c" />
    </linearGradient>
    <filter id="blur-2">
      <feGaussianBlur stdDeviation="28" />
    </filter>
  </defs>
  <rect width="1200" height="1600" fill="url(#bg-2)" />
  <rect x="0" y="0" width="1200" height="1600" fill="rgba(255,255,255,0.06)" />
  <circle cx="903" cy="1126" r="384" fill="#5b5751" opacity="0.19" filter="url(#blur-2)" />
  <circle cx="334" cy="1250" r="257" fill="#8f887f" opacity="0.32" filter="url(#blur-2)" />
  <circle cx="442" cy="691" r="355" fill="#5b5751" opacity="0.30" filter="url(#blur-2)" />
  <circle cx="123" cy="168" r="231" fill="#8f887f" opacity="0.24" filter="url(#blur-2)" />
  <circle cx="792" cy="769" r="240" fill="#5b5751" opacity="0.30" filter="url(#blur-2)" />
  <rect x="891" y="813" width="319" height="43" rx="21.5" fill="#d9d5cf" opacity="0.20" transform="rotate(-6 1050.5 834.5)" />
  <rect x="572" y="1369" width="273" height="32" rx="16" fill="#8f887f" opacity="0.24" transform="rotate(22 708.5 1385)" />
  <rect x="1074" y="1301" width="87" height="27" rx="13.5" fill="#1e1d1c" opacity="0.24" transform="rotate(26 1117.5 1314.5)" />
  <rect x="294" y="1281" width="86" height="37" rx="18.5" fill="#d9d5cf" opacity="0.38" transform="rotate(-25 337 1299.5)" />
  <rect x="591" y="980" width="92" height="25" rx="12.5" fill="#8f887f" opacity="0.27" transform="rotate(33 637 992.5)" />
  <rect x="100" y="628" width="160" height="23" rx="11.5" fill="#1e1d1c" opacity="0.25" transform="rotate(31 180 639.5)" />
  <rect x="756" y="604" width="201" height="26" rx="13" fill="#d9d5cf" opacity="0.35" transform="rotate(26 856.5 617)" />
  <rect x="44" y="837" width="117" height="52" rx="26" fill="#8f887f" opacity="0.34" transform="rotate(-15 102.5 863)" />
  <path d="M 347 632 Q 264 963 214 374" stroke="#1e1d1c" stroke-width="18" stroke-linecap="round" opacity="0.54" fill="none" />
  <path d="M 841 253 Q 122 618 919 571" stroke="#d9d5cf" stroke-width="24" stroke-linecap="round" opacity="0.36" fill="none" />
  <path d="M 792 916 Q 686 1138 388 349" stroke="#1e1d1c" stroke-width="30" stroke-linecap="round" opacity="0.44" fill="none" />
  <path d="M 120 667 Q 668 989 419 920" stroke="#d9d5cf" stroke-width="36" stroke-linecap="round" opacity="0.56" fill="none" />
  <rect x="76" y="78" width="1048" height="1444" rx="72" stroke="rgba(255,255,255,0.12)" stroke-width="2" />
</svg>