<?xml version="1.0" encoding="UTF-8"?>
<svg width="1200" height="1600" viewBox="0 0 1200 1600" fill="none" xmlns="http://www.w3.org/2000/svg">
  <defs>
    <linearGradient id="bg-0" x1="0" y1="0" x2="1200" y2="1600" gradientUnits="userSpaceOnUse">
      <stop stop-color="#d9d5cf" />
      <stop offset="0.54" stop-color="#8f887f" />
      <stop offset="1" stop-color="#1e1d1c" />
    </linearGradient>
    <linearGradient id="bg-soft-0" x1="1200" y1="0" x2="0" y2="1600" gradientUnits="userSpaceOnUse">
      <stop stop-color="#8f887f" />
      <stop offset="0.52" stop-color="#5b5751" />
      <stop offset="1" stop-color="#1e1d1c" />
    </linearGradient>
    <filter id="blur-0">
      <feGaussianBlur stdDeviation="24" />
    </filter>
  </defs>
  <rect width="1200" height="1600" fill="url(#bg-0)" />
  <rect x="0" y="0" width="1200" height="1600" fill="rgba(255,255,255,0.06)" />
  <circle cx="654" cy="1314" r="202" fill="#5b5751" opacity="0.14" filter="url(#blur-0)" />
  <circle cx="785" cy="868" r="131" fill="#8f887f" opacity="0.32" filter="url(#blur-0)" />
  <circle cx="429" cy="1220" r="131" fill="#5b5751" opacity="0.19" filter="url(#blur-0)" />
  <circle cx="328" cy="912" r="172" fill="#8f887f" opacity="0.24" filter="url(#blur-0)" />
  <circle cx="924" cy="481" r="328" fill="#5b5751" opacity="0.28" filter="url(#blur-0)" />
  <rect x="854" y="570" width="259" height="23" rx="11.5" fill="#d9d5cf" opacity="0.37" transform="rotate(6 983.5 581.5)" />
  <rect x="390" y="1001" width="262" height="26" rx="13" fill="#8f887f" opacity="0.24" transform="rotate(31 521 1014)" />
  <rect x="104" y="590" width="229" height="28" rx="14" fill="#1e1d1c" opacity="0.28" transform="rotate(-16 218.5 604)" />
  <rect x="541" y="1219" width="121" height="32" rx="16" fill="#d9d5cf" opacity="0.28" transform="rotate(11 601.5 1235)" />
  <rect x="782" y="1223" width="288" height="37" rx="18.5" fill="#8f887f" opacity="0.27" transform="rotate(-34 926 1241.5)" />
  <rect x="1023" y="526" width="87" height="23" rx="11.5" fill="#1e1d1c" opacity="0.32" transform="rotate(4 1066.5 537.5)" />
  <rect x="809" y="73" width="156" height="30" rx="15" fill="#d9d5cf" opacity="0.36" transform="rotate(0 887 88)" />
  <rect x="1040" y="490" width="259" height="12" rx="6" fill="#8f887f" opacity="0.28" transform="rotate(-27 1169.5 496)" />
  <path d="M 314 118 Q 1014 1261 692 688" stroke="#1e1d1c" stroke-width="18" stroke-linecap="round" opacity="0.47" fill="none" />
  <path d="M 491 346 Q 413 759 346 946" stroke="#d9d5cf" stroke-width="24" stroke-linecap="round" opacity="0.38" fill="none" />
  <path d="M 634 561 Q 338 1083 715 1144" stroke="#1e1d1c" stroke-width="30" stroke-linecap="round" opacity="0.54" fill="none" />
  <path d="M 690 947 Q 265 1086 130 126" stroke="#d9d5cf" stroke-width="36" stroke-linecap="round" opacity="0.40" fill="none" />
  <rect x="76" y="78" width="1048" height="1444" rx="72" stroke="rgba(255,255,255,0.12)" stroke-width="2" />
</svg>