<?xml version="1.0" encoding="UTF-8"?>
<svg width="1200" height="1600" viewBox="0 0 1200 1600" fill="none" xmlns="http://www.w3.org/2000/svg">
  <defs>
    <linearGradient id="bg-1" x1="0" y1="0" x2="1200" y2="1600" gradientUnits="userSpaceOnUse">
      <stop stop-color="#d9d5cf" />
      <stop offset="0.54" stop-color="#8f887f" />
      <stop offset="1" stop-color="#1e1d1c" />
    </linearGradient>
    <linearGradient id="bg-soft-1" x1="1200" y1="0" x2="0" y2="1600" gradientUnits="userSpaceOnUse">
      <stop stop-color="#8f887f" />
      <stop offset="0.52" stop-color="#5b5751" />
      <stop offset="1" stop-color="#1e1d1c" />
    </linearGradient>
    <filter id="blur-1">
      <feGaussianBlur stdDeviation="26" />
    </filter>
  </defs>
  <rect width="1200" height="1600" fill="url(#bg-soft-1)" />
  <rect x="0" y="0" width="1200" height="1600" fill="rgba(255,255,255,0.06)" />
  <circle cx="900" cy="1394" r="326" fill="#5b5751" opacity="0.15" filter="url(#blur-1)" />
  <circle cx="1004" cy="235" r="148" fill="#8f887f" opacity="0.24" filter="url(#blur-1)" />
  <circle cx="601" cy="369" r="279" fill="#5b5751" opacity="0.16" filter="url(#blur-1)" />
  <circle cx="186" cy="446" r="284" fill="#8f887f" opacity="0.31" filter="url(#blur-1)" />
  <circle cx="701" cy="932" r="351" fill="#5b5751" opacity="0.31" filter="url(#blur-1)" />
  <rect x="713" y="1212" width="87" height="35" rx="17.5" fill="#d9d5cf" opacity="0.19" transform="rotate(-13 756.5 1229.5)" />
  <rect x="606" y="514" width="133" height="51" rx="25.5" fill="#8f887f" opacity="0.24" transform="rotate(14 672.5 539.5)" />
  <rect x="822" y="34" width="187" height="34" rx="17" fill="#1e1d1c" opacity="0.24" transform="rotate(10 915.5 51)" />
  <rect x="1018" y="1263" width="226" height="24" rx="12" fill="#d9d5cf" opacity="0.25" transform="rotate(35 1131 1275)" />
  <rect x="561" y="384" width="231" height="31" rx="15.5" fill="#8f887f" opacity="0.31" transform="rotate(-34 676.5 399.5)" />
  <rect x="1021" y="40" width="86" height="34" rx="17" fill="#1e1d1c" opacity="0.18" transform="rotate(1 1064 57)" />
  <rect x="396" y="775" width="82" height="46" rx="23" fill="#d9d5cf" opacity="0.31" transform="rotate(-14 437 798)" />
  <rect x="589" y="459" width="234" height="10" rx="5" fill="#8f887f" opacity="0.35" transform="rotate(-18 706 464)" />
  <path d="M 481 1274 Q 747 1291 853 320" stroke="#1e1d1c" stroke-width="18" stroke-linecap="round" opacity="0.57" fill="none" />
  <path d="M 807 693 Q 376 919 247 507" stroke="#d9d5cf" stroke-width="24" stroke-linecap="round" opacity="0.44" fill="none" />
  <path d="M 373 121 Q 103 1289 522 785" stroke="#1e1d1c" stroke-width="30" stroke-linecap="round" opacity="0.56" fill="none" />
  <path d="M 692 988 Q 786 1138 937 1077" stroke="#d9d5cf" stroke-width="36" stroke-linecap="round" opacity="0.56" fill="none" />
  <rect x="76" y="78" width="1048" height="1444" rx="72" stroke="rgba(255,255,255,0.12)" stroke-width="2" />
</svg>