<?xml version="1.0" encoding="UTF-8"?>
<svg width="1200" height="1600" viewBox="0 0 1200 1600" fill="none" xmlns="http://www.w3.org/2000/svg">
  <defs>
    <linearGradient id="bg-2" x1="0" y1="0" x2="1200" y2="1600" gradientUnits="userSpaceOnUse">
      <stop stop-color="#d9d5cf" />
      <stop offset="0.54" stop-color="#8f887f" />
      <stop offset="1" stop-color="#1e1d1c" />
    </linearGradient>
    <linearGradient id="bg-soft-2" x1="1200" y1="0" x2="0" y2="1600" gradientUnits="userSpaceOnUse">
      <stop stop-color="#8f887f" />
      <stop offset="0.52" stop-color="#5b5751" />
      <stop offset="1" stop-color="#1e1d1c" />
    </linearGradient>
    <filter id="blur-2">
      <feGaussianBlur stdDeviation="28" />
    </filter>
  </defs>
  <rect width="1200" height="1600" fill="url(#bg-2)" />
  <rect x="0" y="0" width="1200" height="1600" fill="rgba(255,255,255,0.06)" />
  <circle cx="247" cy="661" r="247" fill="#5b5751" opacity="0.23" filter="url(#blur-2)" />
  <circle cx="755" cy="315" r="175" fill="#8f887f" opacity="0.29" filter="url(#blur-2)" />
  <circle cx="430" cy="1160" r="255" fill="#5b5751" opacity="0.12" filter="url(#blur-2)" />
  <circle cx="935" cy="1057" r="131" fill="#8f887f" opacity="0.30" filter="url(#blur-2)" />
  <circle cx="705" cy="805" r="374" fill="#5b5751" opacity="0.20" filter="url(#blur-2)" />
  <rect x="579" y="850" width="230" height="48" rx="24" fill="#d9d5cf" opacity="0.23" transform="rotate(21 694 874)" />
  <rect x="1039" y="1241" width="150" height="10" rx="5" fill="#8f887f" opacity="0.24" transform="rotate(5 1114 1246)" />
  <rect x="780" y="1309" width="283" height="46" rx="23" fill="#1e1d1c" opacity="0.18" transform="rotate(20 921.5 1332)" />
  <rect x="757" y="1028" width="312" height="44" rx="22" fill="#d9d5cf" opacity="0.29" transform="rotate(22 913 1050)" />
  <rect x="737" y="402" width="90" height="43" rx="21.5" fill="#8f887f" opacity="0.28" transform="rotate(33 782 423.5)" />
  <rect x="451" y="1156" width="174" height="20" rx="10" fill="#1e1d1c" opacity="0.31" transform="rotate(25 538 1166)" />
  <rect x="622" y="959" width="89" height="27" rx="13.5" fill="#d9d5cf" opacity="0.36" transform="rotate(-12 666.5 972.5)" />
  <rect x="283" y="288" width="182" height="10" rx="5" fill="#8f887f" opacity="0.20" transform="rotate(34 374 293)" />
  <path d="M 1024 470 Q 135 128 570 578" stroke="#1e1d1c" stroke-width="18" stroke-linecap="round" opacity="0.50" fill="none" />
  <path d="M 963 473 Q 915 790 698 544" stroke="#d9d5cf" stroke-width="24" stroke-linecap="round" opacity="0.38" fill="none" />
  <path d="M 336 450 Q 835 817 1089 459" stroke="#1e1d1c" stroke-width="30" stroke-linecap="round" opacity="0.54" fill="none" />
  <path d="M 840 1056 Q 717 453 336 374" stroke="#d9d5cf" stroke-width="36" stroke-linecap="round" opacity="0.55" fill="none" />
  <rect x="76" y="78" width="1048" height="1444" rx="72" stroke="rgba(255,255,255,0.12)" stroke-width="2" />
</svg>