<?xml version="1.0" encoding="UTF-8"?>
<svg width="1200" height="1600" viewBox="0 0 1200 1600" fill="none" xmlns="http://www.w3.org/2000/svg">
  <defs>
    <linearGradient id="bg-0" x1="0" y1="0" x2="1200" y2="1600" gradientUnits="userSpaceOnUse">
      <stop stop-color="#d8c7b2" />
      <stop offset="0.54" stop-color="#a38b72" />
      <stop offset="1" stop-color="#211911" />
    </linearGradient>
    <linearGradient id="bg-soft-0" x1="1200" y1="0" x2="0" y2="1600" gradientUnits="userSpaceOnUse">
      <stop stop-color="#a38b72" />
      <stop offset="0.52" stop-color="#63513d" />
      <stop offset="1" stop-color="#211911" />
    </linearGradient>
    <filter id="blur-0">
      <feGaussianBlur stdDeviation="24" />
    </filter>
  </defs>
  <rect width="1200" height="1600" fill="url(#bg-0)" />
  <rect x="0" y="0" width="1200" height="1600" fill="rgba(255,255,255,0.06)" />
  <circle cx="892" cy="1128" r="174" fill="#63513d" opacity="0.24" filter="url(#blur-0)" />
  <circle cx="582" cy="379" r="138" fill="#a38b72" opacity="0.14" filter="url(#blur-0)" />
  <circle cx="921" cy="1043" r="303" fill="#63513d" opacity="0.28" filter="url(#blur-0)" />
  <circle cx="1049" cy="721" r="341" fill="#a38b72" opacity="0.25" filter="url(#blur-0)" />
  <circle cx="608" cy="382" r="136" fill="#63513d" opacity="0.14" filter="url(#blur-0)" />
  <rect x="897" y="106" width="120" height="22" rx="11" fill="#d8c7b2" opacity="0.23" transform="rotate(-17 957 117)" />
  <rect x="475" y="470" width="315" height="22" rx="11" fill="#a38b72" opacity="0.33" transform="rotate(17 632.5 481)" />
  <rect x="214" y="1384" width="224" height="12" rx="6" fill="#211911" opacity="0.23" transform="rotate(-34 326 1390)" />
  <rect x="3" y="335" width="85" height="38" rx="19" fill="#d8c7b2" opacity="0.32" transform="rotate(-21 45.5 354)" />
  <rect x="775" y="659" width="282" height="39" rx="19.5" fill="#a38b72" opacity="0.30" transform="rotate(-8 916 678.5)" />
  <rect x="564" y="386" width="255" height="32" rx="16" fill="#211911" opacity="0.33" transform="rotate(-2 691.5 402)" />
  <rect x="779" y="488" width="219" height="47" rx="23.5" fill="#d8c7b2" opacity="0.35" transform="rotate(31 888.5 511.5)" />
  <rect x="836" y="11" width="277" height="14" rx="7" fill="#a38b72" opacity="0.28" transform="rotate(-33 974.5 18)" />
  <path d="M 889 264 Q 900 631 1052 993" stroke="#211911" stroke-width="18" stroke-linecap="round" opacity="0.38" fill="none" />
  <path d="M 325 982 Q 269 925 908 174" stroke="#d8c7b2" stroke-width="24" stroke-linecap="round" opacity="0.55" fill="none" />
  <path d="M 645 761 Q 871 821 888 483" stroke="#211911" stroke-width="30" stroke-linecap="round" opacity="0.51" fill="none" />
  <path d="M 694 1096 Q 804 124 751 547" stroke="#d8c7b2" stroke-width="36" stroke-linecap="round" opacity="0.54" fill="none" />
  <rect x="76" y="78" width="1048" height="1444" rx="72" stroke="rgba(255,255,255,0.12)" stroke-width="2" />
</svg>