<?xml version="1.0" encoding="UTF-8"?>
<svg width="1200" height="1600" viewBox="0 0 1200 1600" fill="none" xmlns="http://www.w3.org/2000/svg">
  <defs>
    <linearGradient id="bg-2" x1="0" y1="0" x2="1200" y2="1600" gradientUnits="userSpaceOnUse">
      <stop stop-color="#d8c7b2" />
      <stop offset="0.54" stop-color="#a38b72" />
      <stop offset="1" stop-color="#211911" />
    </linearGradient>
    <linearGradient id="bg-soft-2" x1="1200" y1="0" x2="0" y2="1600" gradientUnits="userSpaceOnUse">
      <stop stop-color="#a38b72" />
      <stop offset="0.52" stop-color="#63513d" />
      <stop offset="1" stop-color="#211911" />
    </linearGradient>
    <filter id="blur-2">
      <feGaussianBlur stdDeviation="28" />
    </filter>
  </defs>
  <rect width="1200" height="1600" fill="url(#bg-2)" />
  <rect x="0" y="0" width="1200" height="1600" fill="rgba(255,255,255,0.06)" />
  <circle cx="726" cy="1017" r="244" fill="#63513d" opacity="0.20" filter="url(#blur-2)" />
  <circle cx="832" cy="825" r="259" fill="#a38b72" opacity="0.16" filter="url(#blur-2)" />
  <circle cx="540" cy="1356" r="228" fill="#63513d" opacity="0.27" filter="url(#blur-2)" />
  <circle cx="497" cy="731" r="251" fill="#a38b72" opacity="0.21" filter="url(#blur-2)" />
  <circle cx="1042" cy="799" r="358" fill="#63513d" opacity="0.13" filter="url(#blur-2)" />
  <rect x="903" y="151" width="95" height="14" rx="7" fill="#d8c7b2" opacity="0.21" transform="rotate(-7 950.5 158)" />
  <rect x="927" y="505" width="204" height="48" rx="24" fill="#a38b72" opacity="0.23" transform="rotate(-15 1029 529)" />
  <rect x="169" y="1367" width="225" height="46" rx="23" fill="#211911" opacity="0.19" transform="rotate(11 281.5 1390)" />
  <rect x="212" y="1293" width="243" height="32" rx="16" fill="#d8c7b2" opacity="0.27" transform="rotate(-8 333.5 1309)" />
  <rect x="351" y="1301" width="219" height="48" rx="24" fill="#a38b72" opacity="0.32" transform="rotate(-30 460.5 1325)" />
  <rect x="717" y="453" width="167" height="47" rx="23.5" fill="#211911" opacity="0.35" transform="rotate(-17 800.5 476.5)" />
  <rect x="316" y="82" width="109" height="31" rx="15.5" fill="#d8c7b2" opacity="0.36" transform="rotate(-3 370.5 97.5)" />
  <rect x="670" y="254" width="225" height="11" rx="5.5" fill="#a38b72" opacity="0.34" transform="rotate(-33 782.5 259.5)" />
  <path d="M 924 741 Q 1069 1122 698 267" stroke="#211911" stroke-width="18" stroke-linecap="round" opacity="0.48" fill="none" />
  <path d="M 748 219 Q 973 722 837 1253" stroke="#d8c7b2" stroke-width="24" stroke-linecap="round" opacity="0.37" fill="none" />
  <path d="M 910 213 Q 211 758 294 246" stroke="#211911" stroke-width="30" stroke-linecap="round" opacity="0.51" fill="none" />
  <path d="M 257 479 Q 332 1235 265 972" stroke="#d8c7b2" stroke-width="36" stroke-linecap="round" opacity="0.52" fill="none" />
  <rect x="76" y="78" width="1048" height="1444" rx="72" stroke="rgba(255,255,255,0.12)" stroke-width="2" />
</svg>