<?xml version="1.0" encoding="UTF-8"?>
<svg width="1200" height="1600" viewBox="0 0 1200 1600" fill="none" xmlns="http://www.w3.org/2000/svg">
  <defs>
    <linearGradient id="bg-2" x1="0" y1="0" x2="1200" y2="1600" gradientUnits="userSpaceOnUse">
      <stop stop-color="#d8c7b2" />
      <stop offset="0.54" stop-color="#a38b72" />
      <stop offset="1" stop-color="#211911" />
    </linearGradient>
    <linearGradient id="bg-soft-2" x1="1200" y1="0" x2="0" y2="1600" gradientUnits="userSpaceOnUse">
      <stop stop-color="#a38b72" />
      <stop offset="0.52" stop-color="#63513d" />
      <stop offset="1" stop-color="#211911" />
    </linearGradient>
    <filter id="blur-2">
      <feGaussianBlur stdDeviation="28" />
    </filter>
  </defs>
  <rect width="1200" height="1600" fill="url(#bg-2)" />
  <rect x="0" y="0" width="1200" height="1600" fill="rgba(255,255,255,0.06)" />
  <circle cx="678" cy="239" r="189" fill="#63513d" opacity="0.19" filter="url(#blur-2)" />
  <circle cx="941" cy="638" r="292" fill="#a38b72" opacity="0.20" filter="url(#blur-2)" />
  <circle cx="773" cy="968" r="135" fill="#63513d" opacity="0.14" filter="url(#blur-2)" />
  <circle cx="506" cy="1111" r="385" fill="#a38b72" opacity="0.19" filter="url(#blur-2)" />
  <circle cx="955" cy="914" r="352" fill="#63513d" opacity="0.16" filter="url(#blur-2)" />
  <rect x="1003" y="721" width="224" height="16" rx="8" fill="#d8c7b2" opacity="0.36" transform="rotate(20 1115 729)" />
  <rect x="320" y="289" width="130" height="27" rx="13.5" fill="#a38b72" opacity="0.21" transform="rotate(16 385 302.5)" />
  <rect x="253" y="359" width="236" height="45" rx="22.5" fill="#211911" opacity="0.18" transform="rotate(14 371 381.5)" />
  <rect x="746" y="455" width="242" height="43" rx="21.5" fill="#d8c7b2" opacity="0.34" transform="rotate(5 867 476.5)" />
  <rect x="586" y="947" width="214" height="31" rx="15.5" fill="#a38b72" opacity="0.37" transform="rotate(3 693 962.5)" />
  <rect x="198" y="27" width="226" height="39" rx="19.5" fill="#211911" opacity="0.25" transform="rotate(5 311 46.5)" />
  <rect x="262" y="974" width="98" height="41" rx="20.5" fill="#d8c7b2" opacity="0.31" transform="rotate(-27 311 994.5)" />
  <rect x="296" y="1103" width="253" height="48" rx="24" fill="#a38b72" opacity="0.22" transform="rotate(0 422.5 1127)" />
  <path d="M 708 805 Q 970 815 777 479" stroke="#211911" stroke-width="18" stroke-linecap="round" opacity="0.56" fill="none" />
  <path d="M 761 552 Q 879 155 312 1062" stroke="#d8c7b2" stroke-width="24" stroke-linecap="round" opacity="0.46" fill="none" />
  <path d="M 1087 1259 Q 172 723 1053 497" stroke="#211911" stroke-width="30" stroke-linecap="round" opacity="0.55" fill="none" />
  <path d="M 996 614 Q 533 585 732 300" stroke="#d8c7b2" stroke-width="36" stroke-linecap="round" opacity="0.52" fill="none" />
  <rect x="76" y="78" width="1048" height="1444" rx="72" stroke="rgba(255,255,255,0.12)" stroke-width="2" />
</svg>