<?xml version="1.0" encoding="UTF-8"?>
<svg width="1200" height="1600" viewBox="0 0 1200 1600" fill="none" xmlns="http://www.w3.org/2000/svg">
  <defs>
    <linearGradient id="bg-0" x1="0" y1="0" x2="1200" y2="1600" gradientUnits="userSpaceOnUse">
      <stop stop-color="#d8c7b2" />
      <stop offset="0.54" stop-color="#a38b72" />
      <stop offset="1" stop-color="#211911" />
    </linearGradient>
    <linearGradient id="bg-soft-0" x1="1200" y1="0" x2="0" y2="1600" gradientUnits="userSpaceOnUse">
      <stop stop-color="#a38b72" />
      <stop offset="0.52" stop-color="#63513d" />
      <stop offset="1" stop-color="#211911" />
    </linearGradient>
    <filter id="blur-0">
      <feGaussianBlur stdDeviation="24" />
    </filter>
  </defs>
  <rect width="1200" height="1600" fill="url(#bg-0)" />
  <rect x="0" y="0" width="1200" height="1600" fill="rgba(255,255,255,0.06)" />
  <circle cx="326" cy="742" r="119" fill="#63513d" opacity="0.16" filter="url(#blur-0)" />
  <circle cx="665" cy="173" r="125" fill="#a38b72" opacity="0.24" filter="url(#blur-0)" />
  <circle cx="330" cy="470" r="128" fill="#63513d" opacity="0.16" filter="url(#blur-0)" />
  <circle cx="688" cy="1424" r="140" fill="#a38b72" opacity="0.15" filter="url(#blur-0)" />
  <circle cx="666" cy="958" r="370" fill="#63513d" opacity="0.22" filter="url(#blur-0)" />
  <rect x="718" y="441" width="265" height="34" rx="17" fill="#d8c7b2" opacity="0.33" transform="rotate(28 850.5 458)" />
  <rect x="914" y="122" width="135" height="16" rx="8" fill="#a38b72" opacity="0.33" transform="rotate(17 981.5 130)" />
  <rect x="423" y="1123" width="194" height="49" rx="24.5" fill="#211911" opacity="0.36" transform="rotate(-16 520 1147.5)" />
  <rect x="61" y="1164" width="158" height="12" rx="6" fill="#d8c7b2" opacity="0.29" transform="rotate(-20 140 1170)" />
  <rect x="949" y="552" width="126" height="23" rx="11.5" fill="#a38b72" opacity="0.33" transform="rotate(33 1012 563.5)" />
  <rect x="944" y="1307" width="175" height="26" rx="13" fill="#211911" opacity="0.35" transform="rotate(-9 1031.5 1320)" />
  <rect x="423" y="1399" width="279" height="24" rx="12" fill="#d8c7b2" opacity="0.31" transform="rotate(-12 562.5 1411)" />
  <rect x="666" y="398" width="267" height="32" rx="16" fill="#a38b72" opacity="0.36" transform="rotate(11 799.5 414)" />
  <path d="M 670 469 Q 380 966 977 909" stroke="#211911" stroke-width="18" stroke-linecap="round" opacity="0.40" fill="none" />
  <path d="M 296 291 Q 556 563 142 414" stroke="#d8c7b2" stroke-width="24" stroke-linecap="round" opacity="0.44" fill="none" />
  <path d="M 841 1063 Q 409 943 137 380" stroke="#211911" stroke-width="30" stroke-linecap="round" opacity="0.44" fill="none" />
  <path d="M 711 129 Q 802 1238 280 499" stroke="#d8c7b2" stroke-width="36" stroke-linecap="round" opacity="0.54" fill="none" />
  <rect x="76" y="78" width="1048" height="1444" rx="72" stroke="rgba(255,255,255,0.12)" stroke-width="2" />
</svg>