<?xml version="1.0" encoding="UTF-8"?>
<svg width="1200" height="1600" viewBox="0 0 1200 1600" fill="none" xmlns="http://www.w3.org/2000/svg">
  <defs>
    <linearGradient id="bg-2" x1="0" y1="0" x2="1200" y2="1600" gradientUnits="userSpaceOnUse">
      <stop stop-color="#d8c7b2" />
      <stop offset="0.54" stop-color="#a38b72" />
      <stop offset="1" stop-color="#211911" />
    </linearGradient>
    <linearGradient id="bg-soft-2" x1="1200" y1="0" x2="0" y2="1600" gradientUnits="userSpaceOnUse">
      <stop stop-color="#a38b72" />
      <stop offset="0.52" stop-color="#63513d" />
      <stop offset="1" stop-color="#211911" />
    </linearGradient>
    <filter id="blur-2">
      <feGaussianBlur stdDeviation="28" />
    </filter>
  </defs>
  <rect width="1200" height="1600" fill="url(#bg-2)" />
  <rect x="0" y="0" width="1200" height="1600" fill="rgba(255,255,255,0.06)" />
  <circle cx="312" cy="1164" r="212" fill="#63513d" opacity="0.22" filter="url(#blur-2)" />
  <circle cx="385" cy="1104" r="381" fill="#a38b72" opacity="0.29" filter="url(#blur-2)" />
  <circle cx="739" cy="1397" r="340" fill="#63513d" opacity="0.29" filter="url(#blur-2)" />
  <circle cx="277" cy="1026" r="321" fill="#a38b72" opacity="0.18" filter="url(#blur-2)" />
  <circle cx="178" cy="780" r="339" fill="#63513d" opacity="0.24" filter="url(#blur-2)" />
  <rect x="371" y="162" width="269" height="24" rx="12" fill="#d8c7b2" opacity="0.32" transform="rotate(20 505.5 174)" />
  <rect x="1058" y="438" width="200" height="36" rx="18" fill="#a38b72" opacity="0.27" transform="rotate(1 1158 456)" />
  <rect x="588" y="878" width="112" height="30" rx="15" fill="#211911" opacity="0.32" transform="rotate(-6 644 893)" />
  <rect x="694" y="1060" width="95" height="48" rx="24" fill="#d8c7b2" opacity="0.29" transform="rotate(33 741.5 1084)" />
  <rect x="177" y="811" width="210" height="28" rx="14" fill="#a38b72" opacity="0.25" transform="rotate(-24 282 825)" />
  <rect x="452" y="749" width="228" height="21" rx="10.5" fill="#211911" opacity="0.34" transform="rotate(-1 566 759.5)" />
  <rect x="254" y="1138" width="224" height="46" rx="23" fill="#d8c7b2" opacity="0.37" transform="rotate(-3 366 1161)" />
  <rect x="579" y="383" width="147" height="52" rx="26" fill="#a38b72" opacity="0.26" transform="rotate(-8 652.5 409)" />
  <path d="M 787 449 Q 311 777 668 245" stroke="#211911" stroke-width="18" stroke-linecap="round" opacity="0.58" fill="none" />
  <path d="M 681 845 Q 576 737 195 882" stroke="#d8c7b2" stroke-width="24" stroke-linecap="round" opacity="0.38" fill="none" />
  <path d="M 759 366 Q 100 329 778 836" stroke="#211911" stroke-width="30" stroke-linecap="round" opacity="0.49" fill="none" />
  <path d="M 324 901 Q 981 331 964 926" stroke="#d8c7b2" stroke-width="36" stroke-linecap="round" opacity="0.46" fill="none" />
  <rect x="76" y="78" width="1048" height="1444" rx="72" stroke="rgba(255,255,255,0.12)" stroke-width="2" />
</svg>