<?xml version="1.0" encoding="UTF-8"?>
<svg width="1200" height="1600" viewBox="0 0 1200 1600" fill="none" xmlns="http://www.w3.org/2000/svg">
  <defs>
    <linearGradient id="bg-1" x1="0" y1="0" x2="1200" y2="1600" gradientUnits="userSpaceOnUse">
      <stop stop-color="#d8c7b2" />
      <stop offset="0.54" stop-color="#a38b72" />
      <stop offset="1" stop-color="#211911" />
    </linearGradient>
    <linearGradient id="bg-soft-1" x1="1200" y1="0" x2="0" y2="1600" gradientUnits="userSpaceOnUse">
      <stop stop-color="#a38b72" />
      <stop offset="0.52" stop-color="#63513d" />
      <stop offset="1" stop-color="#211911" />
    </linearGradient>
    <filter id="blur-1">
      <feGaussianBlur stdDeviation="26" />
    </filter>
  </defs>
  <rect width="1200" height="1600" fill="url(#bg-soft-1)" />
  <rect x="0" y="0" width="1200" height="1600" fill="rgba(255,255,255,0.06)" />
  <circle cx="417" cy="1028" r="237" fill="#63513d" opacity="0.27" filter="url(#blur-1)" />
  <circle cx="124" cy="268" r="385" fill="#a38b72" opacity="0.29" filter="url(#blur-1)" />
  <circle cx="800" cy="1079" r="325" fill="#63513d" opacity="0.20" filter="url(#blur-1)" />
  <circle cx="933" cy="679" r="115" fill="#a38b72" opacity="0.29" filter="url(#blur-1)" />
  <circle cx="928" cy="1084" r="217" fill="#63513d" opacity="0.13" filter="url(#blur-1)" />
  <rect x="1046" y="1360" width="154" height="50" rx="25" fill="#d8c7b2" opacity="0.20" transform="rotate(-4 1123 1385)" />
  <rect x="859" y="834" width="301" height="14" rx="7" fill="#a38b72" opacity="0.22" transform="rotate(5 1009.5 841)" />
  <rect x="1008" y="843" width="294" height="17" rx="8.5" fill="#211911" opacity="0.34" transform="rotate(-26 1155 851.5)" />
  <rect x="1" y="466" width="272" height="10" rx="5" fill="#d8c7b2" opacity="0.28" transform="rotate(28 137 471)" />
  <rect x="1013" y="666" width="95" height="35" rx="17.5" fill="#a38b72" opacity="0.23" transform="rotate(-16 1060.5 683.5)" />
  <rect x="818" y="338" width="124" height="27" rx="13.5" fill="#211911" opacity="0.28" transform="rotate(-25 880 351.5)" />
  <rect x="1033" y="699" width="193" height="30" rx="15" fill="#d8c7b2" opacity="0.30" transform="rotate(12 1129.5 714)" />
  <rect x="955" y="1200" width="226" height="29" rx="14.5" fill="#a38b72" opacity="0.32" transform="rotate(11 1068 1214.5)" />
  <path d="M 128 333 Q 156 874 795 638" stroke="#211911" stroke-width="18" stroke-linecap="round" opacity="0.42" fill="none" />
  <path d="M 528 420 Q 1057 787 212 577" stroke="#d8c7b2" stroke-width="24" stroke-linecap="round" opacity="0.58" fill="none" />
  <path d="M 312 193 Q 1064 988 771 701" stroke="#211911" stroke-width="30" stroke-linecap="round" opacity="0.44" fill="none" />
  <path d="M 777 1253 Q 902 1039 989 239" stroke="#d8c7b2" stroke-width="36" stroke-linecap="round" opacity="0.48" fill="none" />
  <rect x="76" y="78" width="1048" height="1444" rx="72" stroke="rgba(255,255,255,0.12)" stroke-width="2" />
</svg>