<?xml version="1.0" encoding="UTF-8"?>
<svg width="1200" height="1600" viewBox="0 0 1200 1600" fill="none" xmlns="http://www.w3.org/2000/svg">
  <defs>
    <linearGradient id="bg-0" x1="0" y1="0" x2="1200" y2="1600" gradientUnits="userSpaceOnUse">
      <stop stop-color="#d8c7b2" />
      <stop offset="0.54" stop-color="#a38b72" />
      <stop offset="1" stop-color="#211911" />
    </linearGradient>
    <linearGradient id="bg-soft-0" x1="1200" y1="0" x2="0" y2="1600" gradientUnits="userSpaceOnUse">
      <stop stop-color="#a38b72" />
      <stop offset="0.52" stop-color="#63513d" />
      <stop offset="1" stop-color="#211911" />
    </linearGradient>
    <filter id="blur-0">
      <feGaussianBlur stdDeviation="24" />
    </filter>
  </defs>
  <rect width="1200" height="1600" fill="url(#bg-0)" />
  <rect x="0" y="0" width="1200" height="1600" fill="rgba(255,255,255,0.06)" />
  <circle cx="123" cy="212" r="252" fill="#63513d" opacity="0.28" filter="url(#blur-0)" />
  <circle cx="424" cy="333" r="283" fill="#a38b72" opacity="0.31" filter="url(#blur-0)" />
  <circle cx="973" cy="845" r="283" fill="#63513d" opacity="0.24" filter="url(#blur-0)" />
  <circle cx="1026" cy="298" r="350" fill="#a38b72" opacity="0.21" filter="url(#blur-0)" />
  <circle cx="698" cy="1128" r="133" fill="#63513d" opacity="0.17" filter="url(#blur-0)" />
  <rect x="501" y="17" width="172" height="14" rx="7" fill="#d8c7b2" opacity="0.31" transform="rotate(-31 587 24)" />
  <rect x="1027" y="1210" width="263" height="15" rx="7.5" fill="#a38b72" opacity="0.20" transform="rotate(28 1158.5 1217.5)" />
  <rect x="164" y="745" width="122" height="30" rx="15" fill="#211911" opacity="0.26" transform="rotate(-25 225 760)" />
  <rect x="737" y="88" width="262" height="18" rx="9" fill="#d8c7b2" opacity="0.33" transform="rotate(-26 868 97)" />
  <rect x="162" y="1081" width="182" height="34" rx="17" fill="#a38b72" opacity="0.35" transform="rotate(-20 253 1098)" />
  <rect x="275" y="597" width="297" height="45" rx="22.5" fill="#211911" opacity="0.29" transform="rotate(12 423.5 619.5)" />
  <rect x="162" y="1301" width="240" height="52" rx="26" fill="#d8c7b2" opacity="0.32" transform="rotate(16 282 1327)" />
  <rect x="1041" y="1307" width="240" height="11" rx="5.5" fill="#a38b72" opacity="0.27" transform="rotate(13 1161 1312.5)" />
  <path d="M 299 804 Q 703 223 462 978" stroke="#211911" stroke-width="18" stroke-linecap="round" opacity="0.58" fill="none" />
  <path d="M 884 187 Q 808 1265 469 1006" stroke="#d8c7b2" stroke-width="24" stroke-linecap="round" opacity="0.54" fill="none" />
  <path d="M 1068 810 Q 296 1121 961 1153" stroke="#211911" stroke-width="30" stroke-linecap="round" opacity="0.42" fill="none" />
  <path d="M 260 804 Q 335 1174 293 366" stroke="#d8c7b2" stroke-width="36" stroke-linecap="round" opacity="0.38" fill="none" />
  <rect x="76" y="78" width="1048" height="1444" rx="72" stroke="rgba(255,255,255,0.12)" stroke-width="2" />
</svg>