<?xml version="1.0" encoding="UTF-8"?>
<svg width="1200" height="1600" viewBox="0 0 1200 1600" fill="none" xmlns="http://www.w3.org/2000/svg">
  <defs>
    <linearGradient id="bg-1" x1="0" y1="0" x2="1200" y2="1600" gradientUnits="userSpaceOnUse">
      <stop stop-color="#d8c7b2" />
      <stop offset="0.54" stop-color="#a38b72" />
      <stop offset="1" stop-color="#211911" />
    </linearGradient>
    <linearGradient id="bg-soft-1" x1="1200" y1="0" x2="0" y2="1600" gradientUnits="userSpaceOnUse">
      <stop stop-color="#a38b72" />
      <stop offset="0.52" stop-color="#63513d" />
      <stop offset="1" stop-color="#211911" />
    </linearGradient>
    <filter id="blur-1">
      <feGaussianBlur stdDeviation="26" />
    </filter>
  </defs>
  <rect width="1200" height="1600" fill="url(#bg-soft-1)" />
  <rect x="0" y="0" width="1200" height="1600" fill="rgba(255,255,255,0.06)" />
  <circle cx="486" cy="989" r="198" fill="#63513d" opacity="0.15" filter="url(#blur-1)" />
  <circle cx="950" cy="1383" r="191" fill="#a38b72" opacity="0.15" filter="url(#blur-1)" />
  <circle cx="125" cy="835" r="361" fill="#63513d" opacity="0.30" filter="url(#blur-1)" />
  <circle cx="439" cy="1423" r="306" fill="#a38b72" opacity="0.15" filter="url(#blur-1)" />
  <circle cx="174" cy="296" r="140" fill="#63513d" opacity="0.26" filter="url(#blur-1)" />
  <rect x="202" y="666" width="123" height="38" rx="19" fill="#d8c7b2" opacity="0.30" transform="rotate(12 263.5 685)" />
  <rect x="407" y="1307" width="167" height="16" rx="8" fill="#a38b72" opacity="0.21" transform="rotate(-24 490.5 1315)" />
  <rect x="581" y="521" width="121" height="11" rx="5.5" fill="#211911" opacity="0.31" transform="rotate(19 641.5 526.5)" />
  <rect x="170" y="474" width="94" height="22" rx="11" fill="#d8c7b2" opacity="0.35" transform="rotate(-7 217 485)" />
  <rect x="996" y="1144" width="298" height="29" rx="14.5" fill="#a38b72" opacity="0.24" transform="rotate(29 1145 1158.5)" />
  <rect x="710" y="683" width="146" height="31" rx="15.5" fill="#211911" opacity="0.36" transform="rotate(-7 783 698.5)" />
  <rect x="431" y="1279" width="262" height="47" rx="23.5" fill="#d8c7b2" opacity="0.26" transform="rotate(18 562 1302.5)" />
  <rect x="1066" y="794" width="174" height="31" rx="15.5" fill="#a38b72" opacity="0.36" transform="rotate(5 1153 809.5)" />
  <path d="M 401 1242 Q 1002 909 419 822" stroke="#211911" stroke-width="18" stroke-linecap="round" opacity="0.49" fill="none" />
  <path d="M 363 141 Q 517 888 900 1161" stroke="#d8c7b2" stroke-width="24" stroke-linecap="round" opacity="0.56" fill="none" />
  <path d="M 680 412 Q 290 923 445 848" stroke="#211911" stroke-width="30" stroke-linecap="round" opacity="0.36" fill="none" />
  <path d="M 654 693 Q 690 1195 538 280" stroke="#d8c7b2" stroke-width="36" stroke-linecap="round" opacity="0.40" fill="none" />
  <rect x="76" y="78" width="1048" height="1444" rx="72" stroke="rgba(255,255,255,0.12)" stroke-width="2" />
</svg>