<?xml version="1.0" encoding="UTF-8"?>
<svg width="1200" height="1600" viewBox="0 0 1200 1600" fill="none" xmlns="http://www.w3.org/2000/svg">
  <defs>
    <linearGradient id="bg-2" x1="0" y1="0" x2="1200" y2="1600" gradientUnits="userSpaceOnUse">
      <stop stop-color="#d8c7b2" />
      <stop offset="0.54" stop-color="#a38b72" />
      <stop offset="1" stop-color="#211911" />
    </linearGradient>
    <linearGradient id="bg-soft-2" x1="1200" y1="0" x2="0" y2="1600" gradientUnits="userSpaceOnUse">
      <stop stop-color="#a38b72" />
      <stop offset="0.52" stop-color="#63513d" />
      <stop offset="1" stop-color="#211911" />
    </linearGradient>
    <filter id="blur-2">
      <feGaussianBlur stdDeviation="28" />
    </filter>
  </defs>
  <rect width="1200" height="1600" fill="url(#bg-2)" />
  <rect x="0" y="0" width="1200" height="1600" fill="rgba(255,255,255,0.06)" />
  <circle cx="809" cy="644" r="352" fill="#63513d" opacity="0.32" filter="url(#blur-2)" />
  <circle cx="923" cy="535" r="328" fill="#a38b72" opacity="0.26" filter="url(#blur-2)" />
  <circle cx="170" cy="958" r="293" fill="#63513d" opacity="0.16" filter="url(#blur-2)" />
  <circle cx="194" cy="1006" r="383" fill="#a38b72" opacity="0.16" filter="url(#blur-2)" />
  <circle cx="752" cy="1174" r="288" fill="#63513d" opacity="0.23" filter="url(#blur-2)" />
  <rect x="945" y="895" width="153" height="20" rx="10" fill="#d8c7b2" opacity="0.32" transform="rotate(-19 1021.5 905)" />
  <rect x="23" y="16" width="212" height="47" rx="23.5" fill="#a38b72" opacity="0.28" transform="rotate(0 129 39.5)" />
  <rect x="137" y="1159" width="254" height="25" rx="12.5" fill="#211911" opacity="0.20" transform="rotate(-8 264 1171.5)" />
  <rect x="639" y="1063" width="101" height="26" rx="13" fill="#d8c7b2" opacity="0.29" transform="rotate(-28 689.5 1076)" />
  <rect x="603" y="703" width="187" height="39" rx="19.5" fill="#a38b72" opacity="0.20" transform="rotate(-29 696.5 722.5)" />
  <rect x="666" y="1247" width="254" height="27" rx="13.5" fill="#211911" opacity="0.28" transform="rotate(28 793 1260.5)" />
  <rect x="237" y="1069" width="294" height="22" rx="11" fill="#d8c7b2" opacity="0.25" transform="rotate(2 384 1080)" />
  <rect x="40" y="198" width="223" height="24" rx="12" fill="#a38b72" opacity="0.19" transform="rotate(-4 151.5 210)" />
  <path d="M 394 1090 Q 882 961 357 738" stroke="#211911" stroke-width="18" stroke-linecap="round" opacity="0.50" fill="none" />
  <path d="M 783 1265 Q 805 414 231 185" stroke="#d8c7b2" stroke-width="24" stroke-linecap="round" opacity="0.55" fill="none" />
  <path d="M 154 963 Q 662 643 609 586" stroke="#211911" stroke-width="30" stroke-linecap="round" opacity="0.54" fill="none" />
  <path d="M 1041 1207 Q 339 1195 626 396" stroke="#d8c7b2" stroke-width="36" stroke-linecap="round" opacity="0.51" fill="none" />
  <rect x="76" y="78" width="1048" height="1444" rx="72" stroke="rgba(255,255,255,0.12)" stroke-width="2" />
</svg>