<?xml version="1.0" encoding="UTF-8"?>
<svg width="1200" height="1600" viewBox="0 0 1200 1600" fill="none" xmlns="http://www.w3.org/2000/svg">
  <defs>
    <linearGradient id="bg-0" x1="0" y1="0" x2="1200" y2="1600" gradientUnits="userSpaceOnUse">
      <stop stop-color="#d8c7b2" />
      <stop offset="0.54" stop-color="#a38b72" />
      <stop offset="1" stop-color="#211911" />
    </linearGradient>
    <linearGradient id="bg-soft-0" x1="1200" y1="0" x2="0" y2="1600" gradientUnits="userSpaceOnUse">
      <stop stop-color="#a38b72" />
      <stop offset="0.52" stop-color="#63513d" />
      <stop offset="1" stop-color="#211911" />
    </linearGradient>
    <filter id="blur-0">
      <feGaussianBlur stdDeviation="24" />
    </filter>
  </defs>
  <rect width="1200" height="1600" fill="url(#bg-0)" />
  <rect x="0" y="0" width="1200" height="1600" fill="rgba(255,255,255,0.06)" />
  <circle cx="1045" cy="571" r="171" fill="#63513d" opacity="0.25" filter="url(#blur-0)" />
  <circle cx="998" cy="890" r="298" fill="#a38b72" opacity="0.17" filter="url(#blur-0)" />
  <circle cx="550" cy="1233" r="216" fill="#63513d" opacity="0.33" filter="url(#blur-0)" />
  <circle cx="1042" cy="753" r="249" fill="#a38b72" opacity="0.31" filter="url(#blur-0)" />
  <circle cx="783" cy="166" r="320" fill="#63513d" opacity="0.27" filter="url(#blur-0)" />
  <rect x="173" y="1152" width="253" height="50" rx="25" fill="#d8c7b2" opacity="0.19" transform="rotate(1 299.5 1177)" />
  <rect x="443" y="412" width="82" height="31" rx="15.5" fill="#a38b72" opacity="0.34" transform="rotate(5 484 427.5)" />
  <rect x="149" y="575" width="105" height="15" rx="7.5" fill="#211911" opacity="0.26" transform="rotate(-35 201.5 582.5)" />
  <rect x="819" y="693" width="177" height="11" rx="5.5" fill="#d8c7b2" opacity="0.20" transform="rotate(32 907.5 698.5)" />
  <rect x="1033" y="555" width="110" height="37" rx="18.5" fill="#a38b72" opacity="0.31" transform="rotate(-4 1088 573.5)" />
  <rect x="684" y="39" width="127" height="39" rx="19.5" fill="#211911" opacity="0.30" transform="rotate(8 747.5 58.5)" />
  <rect x="111" y="366" width="141" height="24" rx="12" fill="#d8c7b2" opacity="0.36" transform="rotate(-6 181.5 378)" />
  <rect x="843" y="461" width="265" height="20" rx="10" fill="#a38b72" opacity="0.18" transform="rotate(12 975.5 471)" />
  <path d="M 140 1220 Q 956 123 1085 1109" stroke="#211911" stroke-width="18" stroke-linecap="round" opacity="0.52" fill="none" />
  <path d="M 147 824 Q 680 787 1077 303" stroke="#d8c7b2" stroke-width="24" stroke-linecap="round" opacity="0.41" fill="none" />
  <path d="M 673 662 Q 760 273 809 117" stroke="#211911" stroke-width="30" stroke-linecap="round" opacity="0.55" fill="none" />
  <path d="M 167 428 Q 143 132 927 584" stroke="#d8c7b2" stroke-width="36" stroke-linecap="round" opacity="0.38" fill="none" />
  <rect x="76" y="78" width="1048" height="1444" rx="72" stroke="rgba(255,255,255,0.12)" stroke-width="2" />
</svg>