<?xml version="1.0" encoding="UTF-8"?>
<svg width="1200" height="1600" viewBox="0 0 1200 1600" fill="none" xmlns="http://www.w3.org/2000/svg">
  <defs>
    <linearGradient id="bg-0" x1="0" y1="0" x2="1200" y2="1600" gradientUnits="userSpaceOnUse">
      <stop stop-color="#d8c7b2" />
      <stop offset="0.54" stop-color="#a38b72" />
      <stop offset="1" stop-color="#211911" />
    </linearGradient>
    <linearGradient id="bg-soft-0" x1="1200" y1="0" x2="0" y2="1600" gradientUnits="userSpaceOnUse">
      <stop stop-color="#a38b72" />
      <stop offset="0.52" stop-color="#63513d" />
      <stop offset="1" stop-color="#211911" />
    </linearGradient>
    <filter id="blur-0">
      <feGaussianBlur stdDeviation="24" />
    </filter>
  </defs>
  <rect width="1200" height="1600" fill="url(#bg-0)" />
  <rect x="0" y="0" width="1200" height="1600" fill="rgba(255,255,255,0.06)" />
  <circle cx="249" cy="1207" r="193" fill="#63513d" opacity="0.28" filter="url(#blur-0)" />
  <circle cx="919" cy="901" r="130" fill="#a38b72" opacity="0.25" filter="url(#blur-0)" />
  <circle cx="379" cy="1121" r="364" fill="#63513d" opacity="0.18" filter="url(#blur-0)" />
  <circle cx="469" cy="497" r="300" fill="#a38b72" opacity="0.20" filter="url(#blur-0)" />
  <circle cx="196" cy="1273" r="301" fill="#63513d" opacity="0.24" filter="url(#blur-0)" />
  <rect x="1014" y="1347" width="295" height="36" rx="18" fill="#d8c7b2" opacity="0.32" transform="rotate(16 1161.5 1365)" />
  <rect x="185" y="189" width="223" height="23" rx="11.5" fill="#a38b72" opacity="0.35" transform="rotate(28 296.5 200.5)" />
  <rect x="789" y="361" width="292" height="46" rx="23" fill="#211911" opacity="0.23" transform="rotate(32 935 384)" />
  <rect x="277" y="245" width="282" height="51" rx="25.5" fill="#d8c7b2" opacity="0.29" transform="rotate(29 418 270.5)" />
  <rect x="337" y="48" width="235" height="42" rx="21" fill="#a38b72" opacity="0.37" transform="rotate(-26 454.5 69)" />
  <rect x="615" y="248" width="213" height="27" rx="13.5" fill="#211911" opacity="0.29" transform="rotate(-9 721.5 261.5)" />
  <rect x="668" y="494" width="218" height="17" rx="8.5" fill="#d8c7b2" opacity="0.33" transform="rotate(-11 777 502.5)" />
  <rect x="856" y="456" width="164" height="36" rx="18" fill="#a38b72" opacity="0.31" transform="rotate(17 938 474)" />
  <path d="M 1043 155 Q 257 960 889 517" stroke="#211911" stroke-width="18" stroke-linecap="round" opacity="0.59" fill="none" />
  <path d="M 924 317 Q 828 984 491 908" stroke="#d8c7b2" stroke-width="24" stroke-linecap="round" opacity="0.44" fill="none" />
  <path d="M 234 1275 Q 774 195 992 1089" stroke="#211911" stroke-width="30" stroke-linecap="round" opacity="0.52" fill="none" />
  <path d="M 682 196 Q 883 1168 342 1164" stroke="#d8c7b2" stroke-width="36" stroke-linecap="round" opacity="0.55" fill="none" />
  <rect x="76" y="78" width="1048" height="1444" rx="72" stroke="rgba(255,255,255,0.12)" stroke-width="2" />
</svg>