<?xml version="1.0" encoding="UTF-8"?>
<svg width="1200" height="1600" viewBox="0 0 1200 1600" fill="none" xmlns="http://www.w3.org/2000/svg">
  <defs>
    <linearGradient id="bg-2" x1="0" y1="0" x2="1200" y2="1600" gradientUnits="userSpaceOnUse">
      <stop stop-color="#d8c7b2" />
      <stop offset="0.54" stop-color="#a38b72" />
      <stop offset="1" stop-color="#211911" />
    </linearGradient>
    <linearGradient id="bg-soft-2" x1="1200" y1="0" x2="0" y2="1600" gradientUnits="userSpaceOnUse">
      <stop stop-color="#a38b72" />
      <stop offset="0.52" stop-color="#63513d" />
      <stop offset="1" stop-color="#211911" />
    </linearGradient>
    <filter id="blur-2">
      <feGaussianBlur stdDeviation="28" />
    </filter>
  </defs>
  <rect width="1200" height="1600" fill="url(#bg-2)" />
  <rect x="0" y="0" width="1200" height="1600" fill="rgba(255,255,255,0.06)" />
  <circle cx="500" cy="528" r="170" fill="#63513d" opacity="0.19" filter="url(#blur-2)" />
  <circle cx="613" cy="617" r="387" fill="#a38b72" opacity="0.14" filter="url(#blur-2)" />
  <circle cx="790" cy="1126" r="368" fill="#63513d" opacity="0.29" filter="url(#blur-2)" />
  <circle cx="784" cy="1421" r="382" fill="#a38b72" opacity="0.17" filter="url(#blur-2)" />
  <circle cx="701" cy="1028" r="200" fill="#63513d" opacity="0.20" filter="url(#blur-2)" />
  <rect x="271" y="684" width="136" height="28" rx="14" fill="#d8c7b2" opacity="0.23" transform="rotate(-7 339 698)" />
  <rect x="51" y="466" width="201" height="32" rx="16" fill="#a38b72" opacity="0.27" transform="rotate(-5 151.5 482)" />
  <rect x="565" y="1145" width="95" height="38" rx="19" fill="#211911" opacity="0.21" transform="rotate(5 612.5 1164)" />
  <rect x="141" y="907" width="89" height="46" rx="23" fill="#d8c7b2" opacity="0.33" transform="rotate(3 185.5 930)" />
  <rect x="1027" y="532" width="294" height="10" rx="5" fill="#a38b72" opacity="0.18" transform="rotate(26 1174 537)" />
  <rect x="802" y="593" width="214" height="41" rx="20.5" fill="#211911" opacity="0.30" transform="rotate(-23 909 613.5)" />
  <rect x="70" y="8" width="89" height="39" rx="19.5" fill="#d8c7b2" opacity="0.35" transform="rotate(25 114.5 27.5)" />
  <rect x="867" y="859" width="228" height="16" rx="8" fill="#a38b72" opacity="0.27" transform="rotate(9 981 867)" />
  <path d="M 642 286 Q 337 440 367 248" stroke="#211911" stroke-width="18" stroke-linecap="round" opacity="0.47" fill="none" />
  <path d="M 401 870 Q 783 192 511 970" stroke="#d8c7b2" stroke-width="24" stroke-linecap="round" opacity="0.46" fill="none" />
  <path d="M 798 968 Q 218 504 940 836" stroke="#211911" stroke-width="30" stroke-linecap="round" opacity="0.49" fill="none" />
  <path d="M 912 296 Q 723 386 716 216" stroke="#d8c7b2" stroke-width="36" stroke-linecap="round" opacity="0.43" fill="none" />
  <rect x="76" y="78" width="1048" height="1444" rx="72" stroke="rgba(255,255,255,0.12)" stroke-width="2" />
</svg>