<?xml version="1.0" encoding="UTF-8"?>
<svg width="1200" height="1600" viewBox="0 0 1200 1600" fill="none" xmlns="http://www.w3.org/2000/svg">
  <defs>
    <linearGradient id="bg-0" x1="0" y1="0" x2="1200" y2="1600" gradientUnits="userSpaceOnUse">
      <stop stop-color="#d8c7b2" />
      <stop offset="0.54" stop-color="#a38b72" />
      <stop offset="1" stop-color="#211911" />
    </linearGradient>
    <linearGradient id="bg-soft-0" x1="1200" y1="0" x2="0" y2="1600" gradientUnits="userSpaceOnUse">
      <stop stop-color="#a38b72" />
      <stop offset="0.52" stop-color="#63513d" />
      <stop offset="1" stop-color="#211911" />
    </linearGradient>
    <filter id="blur-0">
      <feGaussianBlur stdDeviation="24" />
    </filter>
  </defs>
  <rect width="1200" height="1600" fill="url(#bg-0)" />
  <rect x="0" y="0" width="1200" height="1600" fill="rgba(255,255,255,0.06)" />
  <circle cx="289" cy="373" r="156" fill="#63513d" opacity="0.14" filter="url(#blur-0)" />
  <circle cx="886" cy="250" r="285" fill="#a38b72" opacity="0.23" filter="url(#blur-0)" />
  <circle cx="736" cy="1198" r="335" fill="#63513d" opacity="0.15" filter="url(#blur-0)" />
  <circle cx="799" cy="563" r="133" fill="#a38b72" opacity="0.12" filter="url(#blur-0)" />
  <circle cx="551" cy="412" r="207" fill="#63513d" opacity="0.33" filter="url(#blur-0)" />
  <rect x="398" y="580" width="82" height="13" rx="6.5" fill="#d8c7b2" opacity="0.24" transform="rotate(20 439 586.5)" />
  <rect x="189" y="1293" width="285" height="51" rx="25.5" fill="#a38b72" opacity="0.19" transform="rotate(-16 331.5 1318.5)" />
  <rect x="102" y="1334" width="191" height="35" rx="17.5" fill="#211911" opacity="0.32" transform="rotate(-5 197.5 1351.5)" />
  <rect x="327" y="933" width="279" height="45" rx="22.5" fill="#d8c7b2" opacity="0.20" transform="rotate(-20 466.5 955.5)" />
  <rect x="533" y="234" width="235" height="11" rx="5.5" fill="#a38b72" opacity="0.35" transform="rotate(-2 650.5 239.5)" />
  <rect x="811" y="649" width="241" height="18" rx="9" fill="#211911" opacity="0.25" transform="rotate(5 931.5 658)" />
  <rect x="663" y="407" width="202" height="13" rx="6.5" fill="#d8c7b2" opacity="0.23" transform="rotate(-13 764 413.5)" />
  <rect x="133" y="1347" width="280" height="38" rx="19" fill="#a38b72" opacity="0.31" transform="rotate(1 273 1366)" />
  <path d="M 666 466 Q 504 1102 172 850" stroke="#211911" stroke-width="18" stroke-linecap="round" opacity="0.39" fill="none" />
  <path d="M 982 567 Q 742 286 453 544" stroke="#d8c7b2" stroke-width="24" stroke-linecap="round" opacity="0.57" fill="none" />
  <path d="M 1035 951 Q 674 916 177 459" stroke="#211911" stroke-width="30" stroke-linecap="round" opacity="0.56" fill="none" />
  <path d="M 965 992 Q 684 367 862 801" stroke="#d8c7b2" stroke-width="36" stroke-linecap="round" opacity="0.46" fill="none" />
  <rect x="76" y="78" width="1048" height="1444" rx="72" stroke="rgba(255,255,255,0.12)" stroke-width="2" />
</svg>