<?xml version="1.0" encoding="UTF-8"?>
<svg width="1200" height="1600" viewBox="0 0 1200 1600" fill="none" xmlns="http://www.w3.org/2000/svg">
  <defs>
    <linearGradient id="bg-1" x1="0" y1="0" x2="1200" y2="1600" gradientUnits="userSpaceOnUse">
      <stop stop-color="#d8c7b2" />
      <stop offset="0.54" stop-color="#a38b72" />
      <stop offset="1" stop-color="#211911" />
    </linearGradient>
    <linearGradient id="bg-soft-1" x1="1200" y1="0" x2="0" y2="1600" gradientUnits="userSpaceOnUse">
      <stop stop-color="#a38b72" />
      <stop offset="0.52" stop-color="#63513d" />
      <stop offset="1" stop-color="#211911" />
    </linearGradient>
    <filter id="blur-1">
      <feGaussianBlur stdDeviation="26" />
    </filter>
  </defs>
  <rect width="1200" height="1600" fill="url(#bg-soft-1)" />
  <rect x="0" y="0" width="1200" height="1600" fill="rgba(255,255,255,0.06)" />
  <circle cx="244" cy="1114" r="358" fill="#63513d" opacity="0.32" filter="url(#blur-1)" />
  <circle cx="484" cy="1350" r="361" fill="#a38b72" opacity="0.32" filter="url(#blur-1)" />
  <circle cx="539" cy="321" r="159" fill="#63513d" opacity="0.34" filter="url(#blur-1)" />
  <circle cx="533" cy="310" r="202" fill="#a38b72" opacity="0.26" filter="url(#blur-1)" />
  <circle cx="192" cy="426" r="177" fill="#63513d" opacity="0.33" filter="url(#blur-1)" />
  <rect x="55" y="1291" width="94" height="13" rx="6.5" fill="#d8c7b2" opacity="0.36" transform="rotate(-11 102 1297.5)" />
  <rect x="820" y="1290" width="259" height="36" rx="18" fill="#a38b72" opacity="0.37" transform="rotate(-1 949.5 1308)" />
  <rect x="990" y="329" width="88" height="17" rx="8.5" fill="#211911" opacity="0.35" transform="rotate(-10 1034 337.5)" />
  <rect x="219" y="917" width="262" height="26" rx="13" fill="#d8c7b2" opacity="0.30" transform="rotate(0 350 930)" />
  <rect x="933" y="1331" width="285" height="33" rx="16.5" fill="#a38b72" opacity="0.26" transform="rotate(-25 1075.5 1347.5)" />
  <rect x="729" y="417" width="133" height="35" rx="17.5" fill="#211911" opacity="0.23" transform="rotate(34 795.5 434.5)" />
  <rect x="479" y="975" width="205" height="15" rx="7.5" fill="#d8c7b2" opacity="0.35" transform="rotate(4 581.5 982.5)" />
  <rect x="353" y="421" width="257" height="44" rx="22" fill="#a38b72" opacity="0.22" transform="rotate(-30 481.5 443)" />
  <path d="M 998 209 Q 316 259 512 260" stroke="#211911" stroke-width="18" stroke-linecap="round" opacity="0.39" fill="none" />
  <path d="M 964 777 Q 666 792 363 331" stroke="#d8c7b2" stroke-width="24" stroke-linecap="round" opacity="0.46" fill="none" />
  <path d="M 916 1227 Q 169 1079 658 576" stroke="#211911" stroke-width="30" stroke-linecap="round" opacity="0.43" fill="none" />
  <path d="M 858 1239 Q 881 1143 769 401" stroke="#d8c7b2" stroke-width="36" stroke-linecap="round" opacity="0.41" fill="none" />
  <rect x="76" y="78" width="1048" height="1444" rx="72" stroke="rgba(255,255,255,0.12)" stroke-width="2" />
</svg>