<?xml version="1.0" encoding="UTF-8"?>
<svg width="1200" height="1600" viewBox="0 0 1200 1600" fill="none" xmlns="http://www.w3.org/2000/svg">
  <defs>
    <linearGradient id="bg-2" x1="0" y1="0" x2="1200" y2="1600" gradientUnits="userSpaceOnUse">
      <stop stop-color="#d8c7b2" />
      <stop offset="0.54" stop-color="#a38b72" />
      <stop offset="1" stop-color="#211911" />
    </linearGradient>
    <linearGradient id="bg-soft-2" x1="1200" y1="0" x2="0" y2="1600" gradientUnits="userSpaceOnUse">
      <stop stop-color="#a38b72" />
      <stop offset="0.52" stop-color="#63513d" />
      <stop offset="1" stop-color="#211911" />
    </linearGradient>
    <filter id="blur-2">
      <feGaussianBlur stdDeviation="28" />
    </filter>
  </defs>
  <rect width="1200" height="1600" fill="url(#bg-2)" />
  <rect x="0" y="0" width="1200" height="1600" fill="rgba(255,255,255,0.06)" />
  <circle cx="729" cy="1153" r="237" fill="#63513d" opacity="0.21" filter="url(#blur-2)" />
  <circle cx="1051" cy="673" r="238" fill="#a38b72" opacity="0.22" filter="url(#blur-2)" />
  <circle cx="809" cy="493" r="268" fill="#63513d" opacity="0.15" filter="url(#blur-2)" />
  <circle cx="259" cy="1356" r="341" fill="#a38b72" opacity="0.31" filter="url(#blur-2)" />
  <circle cx="1018" cy="888" r="306" fill="#63513d" opacity="0.21" filter="url(#blur-2)" />
  <rect x="1073" y="991" width="211" height="42" rx="21" fill="#d8c7b2" opacity="0.28" transform="rotate(7 1178.5 1012)" />
  <rect x="30" y="949" width="156" height="43" rx="21.5" fill="#a38b72" opacity="0.22" transform="rotate(19 108 970.5)" />
  <rect x="1018" y="432" width="269" height="41" rx="20.5" fill="#211911" opacity="0.38" transform="rotate(34 1152.5 452.5)" />
  <rect x="492" y="796" width="217" height="45" rx="22.5" fill="#d8c7b2" opacity="0.31" transform="rotate(18 600.5 818.5)" />
  <rect x="150" y="480" width="95" height="12" rx="6" fill="#a38b72" opacity="0.36" transform="rotate(-21 197.5 486)" />
  <rect x="768" y="102" width="241" height="40" rx="20" fill="#211911" opacity="0.24" transform="rotate(23 888.5 122)" />
  <rect x="984" y="376" width="198" height="33" rx="16.5" fill="#d8c7b2" opacity="0.28" transform="rotate(-16 1083 392.5)" />
  <rect x="834" y="262" width="131" height="13" rx="6.5" fill="#a38b72" opacity="0.35" transform="rotate(-14 899.5 268.5)" />
  <path d="M 726 292 Q 897 595 435 342" stroke="#211911" stroke-width="18" stroke-linecap="round" opacity="0.50" fill="none" />
  <path d="M 992 246 Q 104 772 904 515" stroke="#d8c7b2" stroke-width="24" stroke-linecap="round" opacity="0.57" fill="none" />
  <path d="M 265 950 Q 106 996 424 899" stroke="#211911" stroke-width="30" stroke-linecap="round" opacity="0.45" fill="none" />
  <path d="M 914 1068 Q 242 861 301 882" stroke="#d8c7b2" stroke-width="36" stroke-linecap="round" opacity="0.53" fill="none" />
  <rect x="76" y="78" width="1048" height="1444" rx="72" stroke="rgba(255,255,255,0.12)" stroke-width="2" />
</svg>