<?xml version="1.0" encoding="UTF-8"?>
<svg width="1200" height="1600" viewBox="0 0 1200 1600" fill="none" xmlns="http://www.w3.org/2000/svg">
  <defs>
    <linearGradient id="bg-1" x1="0" y1="0" x2="1200" y2="1600" gradientUnits="userSpaceOnUse">
      <stop stop-color="#d8c7b2" />
      <stop offset="0.54" stop-color="#a38b72" />
      <stop offset="1" stop-color="#211911" />
    </linearGradient>
    <linearGradient id="bg-soft-1" x1="1200" y1="0" x2="0" y2="1600" gradientUnits="userSpaceOnUse">
      <stop stop-color="#a38b72" />
      <stop offset="0.52" stop-color="#63513d" />
      <stop offset="1" stop-color="#211911" />
    </linearGradient>
    <filter id="blur-1">
      <feGaussianBlur stdDeviation="26" />
    </filter>
  </defs>
  <rect width="1200" height="1600" fill="url(#bg-soft-1)" />
  <rect x="0" y="0" width="1200" height="1600" fill="rgba(255,255,255,0.06)" />
  <circle cx="391" cy="588" r="311" fill="#63513d" opacity="0.28" filter="url(#blur-1)" />
  <circle cx="527" cy="1103" r="306" fill="#a38b72" opacity="0.22" filter="url(#blur-1)" />
  <circle cx="753" cy="299" r="309" fill="#63513d" opacity="0.17" filter="url(#blur-1)" />
  <circle cx="635" cy="247" r="135" fill="#a38b72" opacity="0.25" filter="url(#blur-1)" />
  <circle cx="760" cy="212" r="364" fill="#63513d" opacity="0.33" filter="url(#blur-1)" />
  <rect x="436" y="751" width="197" height="17" rx="8.5" fill="#d8c7b2" opacity="0.20" transform="rotate(-16 534.5 759.5)" />
  <rect x="557" y="696" width="92" height="45" rx="22.5" fill="#a38b72" opacity="0.20" transform="rotate(30 603 718.5)" />
  <rect x="736" y="257" width="169" height="44" rx="22" fill="#211911" opacity="0.28" transform="rotate(-7 820.5 279)" />
  <rect x="543" y="1292" width="205" height="23" rx="11.5" fill="#d8c7b2" opacity="0.36" transform="rotate(30 645.5 1303.5)" />
  <rect x="152" y="1132" width="106" height="21" rx="10.5" fill="#a38b72" opacity="0.22" transform="rotate(1 205 1142.5)" />
  <rect x="937" y="616" width="300" height="36" rx="18" fill="#211911" opacity="0.33" transform="rotate(-33 1087 634)" />
  <rect x="301" y="945" width="222" height="37" rx="18.5" fill="#d8c7b2" opacity="0.25" transform="rotate(-31 412 963.5)" />
  <rect x="1000" y="340" width="136" height="47" rx="23.5" fill="#a38b72" opacity="0.30" transform="rotate(1 1068 363.5)" />
  <path d="M 847 454 Q 361 118 667 779" stroke="#211911" stroke-width="18" stroke-linecap="round" opacity="0.49" fill="none" />
  <path d="M 238 720 Q 248 546 620 503" stroke="#d8c7b2" stroke-width="24" stroke-linecap="round" opacity="0.48" fill="none" />
  <path d="M 1030 482 Q 959 151 382 990" stroke="#211911" stroke-width="30" stroke-linecap="round" opacity="0.50" fill="none" />
  <path d="M 472 139 Q 501 1220 290 867" stroke="#d8c7b2" stroke-width="36" stroke-linecap="round" opacity="0.35" fill="none" />
  <rect x="76" y="78" width="1048" height="1444" rx="72" stroke="rgba(255,255,255,0.12)" stroke-width="2" />
</svg>