<?xml version="1.0" encoding="UTF-8"?>
<svg width="1200" height="1600" viewBox="0 0 1200 1600" fill="none" xmlns="http://www.w3.org/2000/svg">
  <defs>
    <linearGradient id="bg-0" x1="0" y1="0" x2="1200" y2="1600" gradientUnits="userSpaceOnUse">
      <stop stop-color="#d8c7b2" />
      <stop offset="0.54" stop-color="#a38b72" />
      <stop offset="1" stop-color="#211911" />
    </linearGradient>
    <linearGradient id="bg-soft-0" x1="1200" y1="0" x2="0" y2="1600" gradientUnits="userSpaceOnUse">
      <stop stop-color="#a38b72" />
      <stop offset="0.52" stop-color="#63513d" />
      <stop offset="1" stop-color="#211911" />
    </linearGradient>
    <filter id="blur-0">
      <feGaussianBlur stdDeviation="24" />
    </filter>
  </defs>
  <rect width="1200" height="1600" fill="url(#bg-0)" />
  <rect x="0" y="0" width="1200" height="1600" fill="rgba(255,255,255,0.06)" />
  <circle cx="929" cy="697" r="194" fill="#63513d" opacity="0.16" filter="url(#blur-0)" />
  <circle cx="758" cy="1132" r="262" fill="#a38b72" opacity="0.27" filter="url(#blur-0)" />
  <circle cx="1000" cy="962" r="277" fill="#63513d" opacity="0.23" filter="url(#blur-0)" />
  <circle cx="830" cy="263" r="156" fill="#a38b72" opacity="0.13" filter="url(#blur-0)" />
  <circle cx="517" cy="745" r="332" fill="#63513d" opacity="0.23" filter="url(#blur-0)" />
  <rect x="903" y="365" width="105" height="13" rx="6.5" fill="#d8c7b2" opacity="0.32" transform="rotate(1 955.5 371.5)" />
  <rect x="901" y="775" width="222" height="34" rx="17" fill="#a38b72" opacity="0.21" transform="rotate(33 1012 792)" />
  <rect x="329" y="974" width="118" height="14" rx="7" fill="#211911" opacity="0.19" transform="rotate(-31 388 981)" />
  <rect x="954" y="273" width="117" height="51" rx="25.5" fill="#d8c7b2" opacity="0.28" transform="rotate(12 1012.5 298.5)" />
  <rect x="226" y="877" width="219" height="19" rx="9.5" fill="#a38b72" opacity="0.35" transform="rotate(14 335.5 886.5)" />
  <rect x="449" y="241" width="285" height="17" rx="8.5" fill="#211911" opacity="0.29" transform="rotate(-12 591.5 249.5)" />
  <rect x="188" y="1373" width="113" height="13" rx="6.5" fill="#d8c7b2" opacity="0.21" transform="rotate(-19 244.5 1379.5)" />
  <rect x="490" y="1208" width="260" height="50" rx="25" fill="#a38b72" opacity="0.25" transform="rotate(34 620 1233)" />
  <path d="M 354 144 Q 587 890 524 957" stroke="#211911" stroke-width="18" stroke-linecap="round" opacity="0.38" fill="none" />
  <path d="M 1010 342 Q 1058 587 307 142" stroke="#d8c7b2" stroke-width="24" stroke-linecap="round" opacity="0.44" fill="none" />
  <path d="M 1079 266 Q 327 367 502 782" stroke="#211911" stroke-width="30" stroke-linecap="round" opacity="0.40" fill="none" />
  <path d="M 923 839 Q 248 802 155 885" stroke="#d8c7b2" stroke-width="36" stroke-linecap="round" opacity="0.39" fill="none" />
  <rect x="76" y="78" width="1048" height="1444" rx="72" stroke="rgba(255,255,255,0.12)" stroke-width="2" />
</svg>