<?xml version="1.0" encoding="UTF-8"?>
<svg width="1200" height="1600" viewBox="0 0 1200 1600" fill="none" xmlns="http://www.w3.org/2000/svg">
  <defs>
    <linearGradient id="bg-1" x1="0" y1="0" x2="1200" y2="1600" gradientUnits="userSpaceOnUse">
      <stop stop-color="#d8c7b2" />
      <stop offset="0.54" stop-color="#a38b72" />
      <stop offset="1" stop-color="#211911" />
    </linearGradient>
    <linearGradient id="bg-soft-1" x1="1200" y1="0" x2="0" y2="1600" gradientUnits="userSpaceOnUse">
      <stop stop-color="#a38b72" />
      <stop offset="0.52" stop-color="#63513d" />
      <stop offset="1" stop-color="#211911" />
    </linearGradient>
    <filter id="blur-1">
      <feGaussianBlur stdDeviation="26" />
    </filter>
  </defs>
  <rect width="1200" height="1600" fill="url(#bg-soft-1)" />
  <rect x="0" y="0" width="1200" height="1600" fill="rgba(255,255,255,0.06)" />
  <circle cx="984" cy="607" r="188" fill="#63513d" opacity="0.29" filter="url(#blur-1)" />
  <circle cx="262" cy="1417" r="275" fill="#a38b72" opacity="0.26" filter="url(#blur-1)" />
  <circle cx="287" cy="1211" r="237" fill="#63513d" opacity="0.13" filter="url(#blur-1)" />
  <circle cx="767" cy="1106" r="203" fill="#a38b72" opacity="0.21" filter="url(#blur-1)" />
  <circle cx="782" cy="496" r="318" fill="#63513d" opacity="0.30" filter="url(#blur-1)" />
  <rect x="246" y="1051" width="302" height="13" rx="6.5" fill="#d8c7b2" opacity="0.27" transform="rotate(-11 397 1057.5)" />
  <rect x="573" y="1092" width="229" height="27" rx="13.5" fill="#a38b72" opacity="0.19" transform="rotate(-7 687.5 1105.5)" />
  <rect x="322" y="306" width="251" height="35" rx="17.5" fill="#211911" opacity="0.31" transform="rotate(-2 447.5 323.5)" />
  <rect x="795" y="347" width="115" height="48" rx="24" fill="#d8c7b2" opacity="0.36" transform="rotate(21 852.5 371)" />
  <rect x="727" y="1073" width="171" height="12" rx="6" fill="#a38b72" opacity="0.19" transform="rotate(-22 812.5 1079)" />
  <rect x="452" y="1385" width="317" height="19" rx="9.5" fill="#211911" opacity="0.31" transform="rotate(20 610.5 1394.5)" />
  <rect x="924" y="869" width="174" height="42" rx="21" fill="#d8c7b2" opacity="0.25" transform="rotate(4 1011 890)" />
  <rect x="30" y="52" width="97" height="48" rx="24" fill="#a38b72" opacity="0.25" transform="rotate(-35 78.5 76)" />
  <path d="M 895 1139 Q 906 188 458 1241" stroke="#211911" stroke-width="18" stroke-linecap="round" opacity="0.52" fill="none" />
  <path d="M 444 1176 Q 287 1294 470 1264" stroke="#d8c7b2" stroke-width="24" stroke-linecap="round" opacity="0.44" fill="none" />
  <path d="M 355 573 Q 804 1249 935 830" stroke="#211911" stroke-width="30" stroke-linecap="round" opacity="0.55" fill="none" />
  <path d="M 656 1028 Q 1067 201 201 185" stroke="#d8c7b2" stroke-width="36" stroke-linecap="round" opacity="0.38" fill="none" />
  <rect x="76" y="78" width="1048" height="1444" rx="72" stroke="rgba(255,255,255,0.12)" stroke-width="2" />
</svg>