<?xml version="1.0" encoding="UTF-8"?>
<svg width="1200" height="1600" viewBox="0 0 1200 1600" fill="none" xmlns="http://www.w3.org/2000/svg">
  <defs>
    <linearGradient id="bg-0" x1="0" y1="0" x2="1200" y2="1600" gradientUnits="userSpaceOnUse">
      <stop stop-color="#d8c7b2" />
      <stop offset="0.54" stop-color="#a38b72" />
      <stop offset="1" stop-color="#211911" />
    </linearGradient>
    <linearGradient id="bg-soft-0" x1="1200" y1="0" x2="0" y2="1600" gradientUnits="userSpaceOnUse">
      <stop stop-color="#a38b72" />
      <stop offset="0.52" stop-color="#63513d" />
      <stop offset="1" stop-color="#211911" />
    </linearGradient>
    <filter id="blur-0">
      <feGaussianBlur stdDeviation="24" />
    </filter>
  </defs>
  <rect width="1200" height="1600" fill="url(#bg-0)" />
  <rect x="0" y="0" width="1200" height="1600" fill="rgba(255,255,255,0.06)" />
  <circle cx="398" cy="314" r="320" fill="#63513d" opacity="0.25" filter="url(#blur-0)" />
  <circle cx="240" cy="990" r="140" fill="#a38b72" opacity="0.28" filter="url(#blur-0)" />
  <circle cx="847" cy="976" r="153" fill="#63513d" opacity="0.23" filter="url(#blur-0)" />
  <circle cx="885" cy="1406" r="164" fill="#a38b72" opacity="0.30" filter="url(#blur-0)" />
  <circle cx="978" cy="413" r="224" fill="#63513d" opacity="0.15" filter="url(#blur-0)" />
  <rect x="358" y="516" width="197" height="29" rx="14.5" fill="#d8c7b2" opacity="0.24" transform="rotate(13 456.5 530.5)" />
  <rect x="927" y="859" width="195" height="18" rx="9" fill="#a38b72" opacity="0.28" transform="rotate(-7 1024.5 868)" />
  <rect x="68" y="1073" width="157" height="26" rx="13" fill="#211911" opacity="0.18" transform="rotate(-34 146.5 1086)" />
  <rect x="238" y="354" width="175" height="48" rx="24" fill="#d8c7b2" opacity="0.28" transform="rotate(-18 325.5 378)" />
  <rect x="95" y="587" width="243" height="12" rx="6" fill="#a38b72" opacity="0.23" transform="rotate(28 216.5 593)" />
  <rect x="140" y="579" width="272" height="15" rx="7.5" fill="#211911" opacity="0.20" transform="rotate(33 276 586.5)" />
  <rect x="413" y="1325" width="183" height="42" rx="21" fill="#d8c7b2" opacity="0.38" transform="rotate(-31 504.5 1346)" />
  <rect x="957" y="1385" width="171" height="10" rx="5" fill="#a38b72" opacity="0.36" transform="rotate(24 1042.5 1390)" />
  <path d="M 680 862 Q 142 324 477 262" stroke="#211911" stroke-width="18" stroke-linecap="round" opacity="0.56" fill="none" />
  <path d="M 654 966 Q 790 149 136 1139" stroke="#d8c7b2" stroke-width="24" stroke-linecap="round" opacity="0.52" fill="none" />
  <path d="M 1049 585 Q 639 489 299 800" stroke="#211911" stroke-width="30" stroke-linecap="round" opacity="0.56" fill="none" />
  <path d="M 1040 590 Q 118 313 726 1029" stroke="#d8c7b2" stroke-width="36" stroke-linecap="round" opacity="0.56" fill="none" />
  <rect x="76" y="78" width="1048" height="1444" rx="72" stroke="rgba(255,255,255,0.12)" stroke-width="2" />
</svg>