<?xml version="1.0" encoding="UTF-8"?>
<svg width="1200" height="1600" viewBox="0 0 1200 1600" fill="none" xmlns="http://www.w3.org/2000/svg">
  <defs>
    <linearGradient id="bg-2" x1="0" y1="0" x2="1200" y2="1600" gradientUnits="userSpaceOnUse">
      <stop stop-color="#fff3d6" />
      <stop offset="0.54" stop-color="#f0d08c" />
      <stop offset="1" stop-color="#191716" />
    </linearGradient>
    <linearGradient id="bg-soft-2" x1="1200" y1="0" x2="0" y2="1600" gradientUnits="userSpaceOnUse">
      <stop stop-color="#f0d08c" />
      <stop offset="0.52" stop-color="#d39f45" />
      <stop offset="1" stop-color="#191716" />
    </linearGradient>
    <filter id="blur-2">
      <feGaussianBlur stdDeviation="28" />
    </filter>
  </defs>
  <rect width="1200" height="1600" fill="url(#bg-2)" />
  <rect x="0" y="0" width="1200" height="1600" fill="rgba(255,255,255,0.06)" />
  <circle cx="372" cy="578" r="252" fill="#d39f45" opacity="0.15" filter="url(#blur-2)" />
  <circle cx="259" cy="1270" r="379" fill="#f0d08c" opacity="0.29" filter="url(#blur-2)" />
  <circle cx="663" cy="864" r="170" fill="#d39f45" opacity="0.24" filter="url(#blur-2)" />
  <circle cx="1005" cy="892" r="241" fill="#f0d08c" opacity="0.18" filter="url(#blur-2)" />
  <circle cx="856" cy="482" r="119" fill="#d39f45" opacity="0.21" filter="url(#blur-2)" />
  <rect x="801" y="982" width="276" height="22" rx="11" fill="#fff3d6" opacity="0.28" transform="rotate(-16 939 993)" />
  <rect x="598" y="1141" width="191" height="16" rx="8" fill="#f0d08c" opacity="0.24" transform="rotate(-17 693.5 1149)" />
  <rect x="1060" y="428" width="271" height="22" rx="11" fill="#191716" opacity="0.31" transform="rotate(19 1195.5 439)" />
  <rect x="524" y="994" width="93" height="37" rx="18.5" fill="#fff3d6" opacity="0.27" transform="rotate(30 570.5 1012.5)" />
  <rect x="967" y="531" width="215" height="24" rx="12" fill="#f0d08c" opacity="0.30" transform="rotate(-1 1074.5 543)" />
  <rect x="526" y="184" width="225" height="28" rx="14" fill="#191716" opacity="0.18" transform="rotate(0 638.5 198)" />
  <rect x="541" y="835" width="87" height="52" rx="26" fill="#fff3d6" opacity="0.20" transform="rotate(-5 584.5 861)" />
  <rect x="439" y="50" width="176" height="33" rx="16.5" fill="#f0d08c" opacity="0.31" transform="rotate(18 527 66.5)" />
  <path d="M 574 834 Q 828 1174 114 1247" stroke="#191716" stroke-width="18" stroke-linecap="round" opacity="0.55" fill="none" />
  <path d="M 758 430 Q 215 874 466 642" stroke="#fff3d6" stroke-width="24" stroke-linecap="round" opacity="0.49" fill="none" />
  <path d="M 947 685 Q 920 557 824 1245" stroke="#191716" stroke-width="30" stroke-linecap="round" opacity="0.37" fill="none" />
  <path d="M 1053 702 Q 1079 141 907 1269" stroke="#fff3d6" stroke-width="36" stroke-linecap="round" opacity="0.36" fill="none" />
  <rect x="76" y="78" width="1048" height="1444" rx="72" stroke="rgba(255,255,255,0.12)" stroke-width="2" />
</svg>