<?xml version="1.0" encoding="UTF-8"?>
<svg width="1200" height="1600" viewBox="0 0 1200 1600" fill="none" xmlns="http://www.w3.org/2000/svg">
  <defs>
    <linearGradient id="bg-0" x1="0" y1="0" x2="1200" y2="1600" gradientUnits="userSpaceOnUse">
      <stop stop-color="#fff3d6" />
      <stop offset="0.54" stop-color="#f0d08c" />
      <stop offset="1" stop-color="#191716" />
    </linearGradient>
    <linearGradient id="bg-soft-0" x1="1200" y1="0" x2="0" y2="1600" gradientUnits="userSpaceOnUse">
      <stop stop-color="#f0d08c" />
      <stop offset="0.52" stop-color="#d39f45" />
      <stop offset="1" stop-color="#191716" />
    </linearGradient>
    <filter id="blur-0">
      <feGaussianBlur stdDeviation="24" />
    </filter>
  </defs>
  <rect width="1200" height="1600" fill="url(#bg-0)" />
  <rect x="0" y="0" width="1200" height="1600" fill="rgba(255,255,255,0.06)" />
  <circle cx="372" cy="1223" r="349" fill="#d39f45" opacity="0.31" filter="url(#blur-0)" />
  <circle cx="766" cy="481" r="146" fill="#f0d08c" opacity="0.17" filter="url(#blur-0)" />
  <circle cx="488" cy="541" r="335" fill="#d39f45" opacity="0.23" filter="url(#blur-0)" />
  <circle cx="1043" cy="515" r="160" fill="#f0d08c" opacity="0.18" filter="url(#blur-0)" />
  <circle cx="169" cy="954" r="349" fill="#d39f45" opacity="0.20" filter="url(#blur-0)" />
  <rect x="1035" y="420" width="269" height="21" rx="10.5" fill="#fff3d6" opacity="0.25" transform="rotate(-24 1169.5 430.5)" />
  <rect x="857" y="359" width="295" height="31" rx="15.5" fill="#f0d08c" opacity="0.22" transform="rotate(9 1004.5 374.5)" />
  <rect x="858" y="635" width="209" height="45" rx="22.5" fill="#191716" opacity="0.21" transform="rotate(-33 962.5 657.5)" />
  <rect x="412" y="1240" width="148" height="27" rx="13.5" fill="#fff3d6" opacity="0.30" transform="rotate(29 486 1253.5)" />
  <rect x="550" y="697" width="189" height="47" rx="23.5" fill="#f0d08c" opacity="0.30" transform="rotate(-18 644.5 720.5)" />
  <rect x="472" y="24" width="308" height="38" rx="19" fill="#191716" opacity="0.36" transform="rotate(22 626 43)" />
  <rect x="87" y="230" width="90" height="45" rx="22.5" fill="#fff3d6" opacity="0.25" transform="rotate(2 132 252.5)" />
  <rect x="1041" y="452" width="133" height="42" rx="21" fill="#f0d08c" opacity="0.27" transform="rotate(3 1107.5 473)" />
  <path d="M 476 842 Q 997 223 483 956" stroke="#191716" stroke-width="18" stroke-linecap="round" opacity="0.41" fill="none" />
  <path d="M 607 317 Q 175 1153 437 152" stroke="#fff3d6" stroke-width="24" stroke-linecap="round" opacity="0.53" fill="none" />
  <path d="M 230 1037 Q 200 108 521 897" stroke="#191716" stroke-width="30" stroke-linecap="round" opacity="0.36" fill="none" />
  <path d="M 429 706 Q 813 787 859 890" stroke="#fff3d6" stroke-width="36" stroke-linecap="round" opacity="0.50" fill="none" />
  <rect x="76" y="78" width="1048" height="1444" rx="72" stroke="rgba(255,255,255,0.12)" stroke-width="2" />
</svg>