<?xml version="1.0" encoding="UTF-8"?>
<svg width="1200" height="1600" viewBox="0 0 1200 1600" fill="none" xmlns="http://www.w3.org/2000/svg">
  <defs>
    <linearGradient id="bg-2" x1="0" y1="0" x2="1200" y2="1600" gradientUnits="userSpaceOnUse">
      <stop stop-color="#fff3d6" />
      <stop offset="0.54" stop-color="#f0d08c" />
      <stop offset="1" stop-color="#191716" />
    </linearGradient>
    <linearGradient id="bg-soft-2" x1="1200" y1="0" x2="0" y2="1600" gradientUnits="userSpaceOnUse">
      <stop stop-color="#f0d08c" />
      <stop offset="0.52" stop-color="#d39f45" />
      <stop offset="1" stop-color="#191716" />
    </linearGradient>
    <filter id="blur-2">
      <feGaussianBlur stdDeviation="28" />
    </filter>
  </defs>
  <rect width="1200" height="1600" fill="url(#bg-2)" />
  <rect x="0" y="0" width="1200" height="1600" fill="rgba(255,255,255,0.06)" />
  <circle cx="626" cy="901" r="364" fill="#d39f45" opacity="0.14" filter="url(#blur-2)" />
  <circle cx="680" cy="1003" r="139" fill="#f0d08c" opacity="0.22" filter="url(#blur-2)" />
  <circle cx="877" cy="649" r="118" fill="#d39f45" opacity="0.28" filter="url(#blur-2)" />
  <circle cx="354" cy="769" r="331" fill="#f0d08c" opacity="0.33" filter="url(#blur-2)" />
  <circle cx="841" cy="1409" r="279" fill="#d39f45" opacity="0.29" filter="url(#blur-2)" />
  <rect x="1003" y="696" width="259" height="40" rx="20" fill="#fff3d6" opacity="0.23" transform="rotate(-30 1132.5 716)" />
  <rect x="260" y="530" width="268" height="23" rx="11.5" fill="#f0d08c" opacity="0.21" transform="rotate(-17 394 541.5)" />
  <rect x="1054" y="366" width="318" height="21" rx="10.5" fill="#191716" opacity="0.18" transform="rotate(-16 1213 376.5)" />
  <rect x="678" y="670" width="138" height="46" rx="23" fill="#fff3d6" opacity="0.20" transform="rotate(17 747 693)" />
  <rect x="380" y="439" width="315" height="38" rx="19" fill="#f0d08c" opacity="0.33" transform="rotate(-29 537.5 458)" />
  <rect x="382" y="413" width="140" height="37" rx="18.5" fill="#191716" opacity="0.30" transform="rotate(-24 452 431.5)" />
  <rect x="206" y="235" width="255" height="13" rx="6.5" fill="#fff3d6" opacity="0.35" transform="rotate(20 333.5 241.5)" />
  <rect x="1063" y="739" width="163" height="43" rx="21.5" fill="#f0d08c" opacity="0.21" transform="rotate(-27 1144.5 760.5)" />
  <path d="M 1068 712 Q 275 1131 814 1168" stroke="#191716" stroke-width="18" stroke-linecap="round" opacity="0.43" fill="none" />
  <path d="M 923 474 Q 114 484 587 1043" stroke="#fff3d6" stroke-width="24" stroke-linecap="round" opacity="0.54" fill="none" />
  <path d="M 426 500 Q 1035 1298 950 932" stroke="#191716" stroke-width="30" stroke-linecap="round" opacity="0.42" fill="none" />
  <path d="M 624 1084 Q 191 850 213 1020" stroke="#fff3d6" stroke-width="36" stroke-linecap="round" opacity="0.44" fill="none" />
  <rect x="76" y="78" width="1048" height="1444" rx="72" stroke="rgba(255,255,255,0.12)" stroke-width="2" />
</svg>