<?xml version="1.0" encoding="UTF-8"?>
<svg width="1200" height="1600" viewBox="0 0 1200 1600" fill="none" xmlns="http://www.w3.org/2000/svg">
  <defs>
    <linearGradient id="bg-1" x1="0" y1="0" x2="1200" y2="1600" gradientUnits="userSpaceOnUse">
      <stop stop-color="#fff3d6" />
      <stop offset="0.54" stop-color="#f0d08c" />
      <stop offset="1" stop-color="#191716" />
    </linearGradient>
    <linearGradient id="bg-soft-1" x1="1200" y1="0" x2="0" y2="1600" gradientUnits="userSpaceOnUse">
      <stop stop-color="#f0d08c" />
      <stop offset="0.52" stop-color="#d39f45" />
      <stop offset="1" stop-color="#191716" />
    </linearGradient>
    <filter id="blur-1">
      <feGaussianBlur stdDeviation="26" />
    </filter>
  </defs>
  <rect width="1200" height="1600" fill="url(#bg-soft-1)" />
  <rect x="0" y="0" width="1200" height="1600" fill="rgba(255,255,255,0.06)" />
  <circle cx="694" cy="674" r="177" fill="#d39f45" opacity="0.16" filter="url(#blur-1)" />
  <circle cx="737" cy="249" r="171" fill="#f0d08c" opacity="0.19" filter="url(#blur-1)" />
  <circle cx="665" cy="639" r="300" fill="#d39f45" opacity="0.19" filter="url(#blur-1)" />
  <circle cx="174" cy="630" r="369" fill="#f0d08c" opacity="0.14" filter="url(#blur-1)" />
  <circle cx="874" cy="1381" r="328" fill="#d39f45" opacity="0.25" filter="url(#blur-1)" />
  <rect x="646" y="924" width="298" height="36" rx="18" fill="#fff3d6" opacity="0.29" transform="rotate(-16 795 942)" />
  <rect x="309" y="1323" width="203" height="46" rx="23" fill="#f0d08c" opacity="0.29" transform="rotate(4 410.5 1346)" />
  <rect x="664" y="430" width="260" height="27" rx="13.5" fill="#191716" opacity="0.30" transform="rotate(-2 794 443.5)" />
  <rect x="987" y="1311" width="179" height="22" rx="11" fill="#fff3d6" opacity="0.20" transform="rotate(29 1076.5 1322)" />
  <rect x="931" y="392" width="256" height="15" rx="7.5" fill="#f0d08c" opacity="0.29" transform="rotate(-7 1059 399.5)" />
  <rect x="910" y="306" width="310" height="42" rx="21" fill="#191716" opacity="0.31" transform="rotate(4 1065 327)" />
  <rect x="959" y="53" width="259" height="15" rx="7.5" fill="#fff3d6" opacity="0.24" transform="rotate(32 1088.5 60.5)" />
  <rect x="1078" y="592" width="159" height="26" rx="13" fill="#f0d08c" opacity="0.27" transform="rotate(-25 1157.5 605)" />
  <path d="M 750 884 Q 133 393 151 1288" stroke="#191716" stroke-width="18" stroke-linecap="round" opacity="0.45" fill="none" />
  <path d="M 743 1271 Q 754 580 911 110" stroke="#fff3d6" stroke-width="24" stroke-linecap="round" opacity="0.51" fill="none" />
  <path d="M 494 438 Q 405 763 729 610" stroke="#191716" stroke-width="30" stroke-linecap="round" opacity="0.58" fill="none" />
  <path d="M 678 476 Q 928 523 1095 310" stroke="#fff3d6" stroke-width="36" stroke-linecap="round" opacity="0.48" fill="none" />
  <rect x="76" y="78" width="1048" height="1444" rx="72" stroke="rgba(255,255,255,0.12)" stroke-width="2" />
</svg>