<?xml version="1.0" encoding="UTF-8"?>
<svg width="1200" height="1600" viewBox="0 0 1200 1600" fill="none" xmlns="http://www.w3.org/2000/svg">
  <defs>
    <linearGradient id="bg-1" x1="0" y1="0" x2="1200" y2="1600" gradientUnits="userSpaceOnUse">
      <stop stop-color="#fff3d6" />
      <stop offset="0.54" stop-color="#f0d08c" />
      <stop offset="1" stop-color="#191716" />
    </linearGradient>
    <linearGradient id="bg-soft-1" x1="1200" y1="0" x2="0" y2="1600" gradientUnits="userSpaceOnUse">
      <stop stop-color="#f0d08c" />
      <stop offset="0.52" stop-color="#d39f45" />
      <stop offset="1" stop-color="#191716" />
    </linearGradient>
    <filter id="blur-1">
      <feGaussianBlur stdDeviation="26" />
    </filter>
  </defs>
  <rect width="1200" height="1600" fill="url(#bg-soft-1)" />
  <rect x="0" y="0" width="1200" height="1600" fill="rgba(255,255,255,0.06)" />
  <circle cx="295" cy="1010" r="161" fill="#d39f45" opacity="0.14" filter="url(#blur-1)" />
  <circle cx="841" cy="1198" r="208" fill="#f0d08c" opacity="0.25" filter="url(#blur-1)" />
  <circle cx="535" cy="1016" r="342" fill="#d39f45" opacity="0.28" filter="url(#blur-1)" />
  <circle cx="747" cy="1176" r="217" fill="#f0d08c" opacity="0.21" filter="url(#blur-1)" />
  <circle cx="551" cy="757" r="113" fill="#d39f45" opacity="0.27" filter="url(#blur-1)" />
  <rect x="881" y="369" width="156" height="18" rx="9" fill="#fff3d6" opacity="0.24" transform="rotate(11 959 378)" />
  <rect x="1068" y="420" width="256" height="32" rx="16" fill="#f0d08c" opacity="0.31" transform="rotate(-11 1196 436)" />
  <rect x="585" y="912" width="269" height="50" rx="25" fill="#191716" opacity="0.20" transform="rotate(15 719.5 937)" />
  <rect x="1" y="1111" width="93" height="51" rx="25.5" fill="#fff3d6" opacity="0.19" transform="rotate(20 47.5 1136.5)" />
  <rect x="767" y="1222" width="261" height="28" rx="14" fill="#f0d08c" opacity="0.37" transform="rotate(-34 897.5 1236)" />
  <rect x="816" y="965" width="201" height="36" rx="18" fill="#191716" opacity="0.37" transform="rotate(-27 916.5 983)" />
  <rect x="595" y="1197" width="250" height="47" rx="23.5" fill="#fff3d6" opacity="0.27" transform="rotate(-28 720 1220.5)" />
  <rect x="710" y="1293" width="273" height="22" rx="11" fill="#f0d08c" opacity="0.26" transform="rotate(-6 846.5 1304)" />
  <path d="M 300 362 Q 608 690 633 873" stroke="#191716" stroke-width="18" stroke-linecap="round" opacity="0.57" fill="none" />
  <path d="M 1024 983 Q 739 728 816 763" stroke="#fff3d6" stroke-width="24" stroke-linecap="round" opacity="0.59" fill="none" />
  <path d="M 238 205 Q 1081 457 365 1276" stroke="#191716" stroke-width="30" stroke-linecap="round" opacity="0.54" fill="none" />
  <path d="M 744 839 Q 1090 1297 554 1091" stroke="#fff3d6" stroke-width="36" stroke-linecap="round" opacity="0.42" fill="none" />
  <rect x="76" y="78" width="1048" height="1444" rx="72" stroke="rgba(255,255,255,0.12)" stroke-width="2" />
</svg>