<?xml version="1.0" encoding="UTF-8"?>
<svg width="1200" height="1600" viewBox="0 0 1200 1600" fill="none" xmlns="http://www.w3.org/2000/svg">
  <defs>
    <linearGradient id="bg-0" x1="0" y1="0" x2="1200" y2="1600" gradientUnits="userSpaceOnUse">
      <stop stop-color="#fff3d6" />
      <stop offset="0.54" stop-color="#f0d08c" />
      <stop offset="1" stop-color="#191716" />
    </linearGradient>
    <linearGradient id="bg-soft-0" x1="1200" y1="0" x2="0" y2="1600" gradientUnits="userSpaceOnUse">
      <stop stop-color="#f0d08c" />
      <stop offset="0.52" stop-color="#d39f45" />
      <stop offset="1" stop-color="#191716" />
    </linearGradient>
    <filter id="blur-0">
      <feGaussianBlur stdDeviation="24" />
    </filter>
  </defs>
  <rect width="1200" height="1600" fill="url(#bg-0)" />
  <rect x="0" y="0" width="1200" height="1600" fill="rgba(255,255,255,0.06)" />
  <circle cx="426" cy="1067" r="149" fill="#d39f45" opacity="0.23" filter="url(#blur-0)" />
  <circle cx="748" cy="208" r="169" fill="#f0d08c" opacity="0.23" filter="url(#blur-0)" />
  <circle cx="270" cy="861" r="315" fill="#d39f45" opacity="0.26" filter="url(#blur-0)" />
  <circle cx="889" cy="1231" r="375" fill="#f0d08c" opacity="0.14" filter="url(#blur-0)" />
  <circle cx="1025" cy="185" r="173" fill="#d39f45" opacity="0.24" filter="url(#blur-0)" />
  <rect x="179" y="99" width="221" height="42" rx="21" fill="#fff3d6" opacity="0.34" transform="rotate(-22 289.5 120)" />
  <rect x="614" y="390" width="128" height="24" rx="12" fill="#f0d08c" opacity="0.36" transform="rotate(-23 678 402)" />
  <rect x="640" y="1210" width="228" height="20" rx="10" fill="#191716" opacity="0.25" transform="rotate(33 754 1220)" />
  <rect x="234" y="902" width="272" height="46" rx="23" fill="#fff3d6" opacity="0.29" transform="rotate(15 370 925)" />
  <rect x="90" y="1000" width="121" height="47" rx="23.5" fill="#f0d08c" opacity="0.25" transform="rotate(-14 150.5 1023.5)" />
  <rect x="699" y="269" width="101" height="38" rx="19" fill="#191716" opacity="0.31" transform="rotate(7 749.5 288)" />
  <rect x="849" y="1141" width="239" height="31" rx="15.5" fill="#fff3d6" opacity="0.23" transform="rotate(1 968.5 1156.5)" />
  <rect x="796" y="855" width="312" height="13" rx="6.5" fill="#f0d08c" opacity="0.22" transform="rotate(10 952 861.5)" />
  <path d="M 252 553 Q 442 336 215 426" stroke="#191716" stroke-width="18" stroke-linecap="round" opacity="0.39" fill="none" />
  <path d="M 1043 746 Q 1058 1233 1005 1180" stroke="#fff3d6" stroke-width="24" stroke-linecap="round" opacity="0.37" fill="none" />
  <path d="M 509 286 Q 476 642 676 961" stroke="#191716" stroke-width="30" stroke-linecap="round" opacity="0.59" fill="none" />
  <path d="M 146 1037 Q 531 167 166 996" stroke="#fff3d6" stroke-width="36" stroke-linecap="round" opacity="0.37" fill="none" />
  <rect x="76" y="78" width="1048" height="1444" rx="72" stroke="rgba(255,255,255,0.12)" stroke-width="2" />
</svg>