<?xml version="1.0" encoding="UTF-8"?>
<svg width="1200" height="1600" viewBox="0 0 1200 1600" fill="none" xmlns="http://www.w3.org/2000/svg">
  <defs>
    <linearGradient id="bg-0" x1="0" y1="0" x2="1200" y2="1600" gradientUnits="userSpaceOnUse">
      <stop stop-color="#fff3d6" />
      <stop offset="0.54" stop-color="#f0d08c" />
      <stop offset="1" stop-color="#191716" />
    </linearGradient>
    <linearGradient id="bg-soft-0" x1="1200" y1="0" x2="0" y2="1600" gradientUnits="userSpaceOnUse">
      <stop stop-color="#f0d08c" />
      <stop offset="0.52" stop-color="#d39f45" />
      <stop offset="1" stop-color="#191716" />
    </linearGradient>
    <filter id="blur-0">
      <feGaussianBlur stdDeviation="24" />
    </filter>
  </defs>
  <rect width="1200" height="1600" fill="url(#bg-0)" />
  <rect x="0" y="0" width="1200" height="1600" fill="rgba(255,255,255,0.06)" />
  <circle cx="635" cy="1149" r="346" fill="#d39f45" opacity="0.34" filter="url(#blur-0)" />
  <circle cx="971" cy="941" r="133" fill="#f0d08c" opacity="0.14" filter="url(#blur-0)" />
  <circle cx="609" cy="209" r="293" fill="#d39f45" opacity="0.28" filter="url(#blur-0)" />
  <circle cx="801" cy="1091" r="230" fill="#f0d08c" opacity="0.26" filter="url(#blur-0)" />
  <circle cx="475" cy="188" r="231" fill="#d39f45" opacity="0.24" filter="url(#blur-0)" />
  <rect x="538" y="1390" width="207" height="16" rx="8" fill="#fff3d6" opacity="0.21" transform="rotate(29 641.5 1398)" />
  <rect x="736" y="1258" width="160" height="45" rx="22.5" fill="#f0d08c" opacity="0.27" transform="rotate(19 816 1280.5)" />
  <rect x="359" y="69" width="291" height="46" rx="23" fill="#191716" opacity="0.35" transform="rotate(0 504.5 92)" />
  <rect x="56" y="1073" width="194" height="24" rx="12" fill="#fff3d6" opacity="0.31" transform="rotate(3 153 1085)" />
  <rect x="295" y="441" width="132" height="38" rx="19" fill="#f0d08c" opacity="0.28" transform="rotate(3 361 460)" />
  <rect x="761" y="505" width="102" height="12" rx="6" fill="#191716" opacity="0.29" transform="rotate(-5 812 511)" />
  <rect x="816" y="117" width="304" height="29" rx="14.5" fill="#fff3d6" opacity="0.33" transform="rotate(22 968 131.5)" />
  <rect x="732" y="495" width="213" height="39" rx="19.5" fill="#f0d08c" opacity="0.38" transform="rotate(31 838.5 514.5)" />
  <path d="M 981 714 Q 190 340 1092 145" stroke="#191716" stroke-width="18" stroke-linecap="round" opacity="0.56" fill="none" />
  <path d="M 779 1112 Q 986 626 972 1184" stroke="#fff3d6" stroke-width="24" stroke-linecap="round" opacity="0.46" fill="none" />
  <path d="M 340 513 Q 304 1263 748 1244" stroke="#191716" stroke-width="30" stroke-linecap="round" opacity="0.46" fill="none" />
  <path d="M 430 481 Q 638 679 458 560" stroke="#fff3d6" stroke-width="36" stroke-linecap="round" opacity="0.41" fill="none" />
  <rect x="76" y="78" width="1048" height="1444" rx="72" stroke="rgba(255,255,255,0.12)" stroke-width="2" />
</svg>