<?xml version="1.0" encoding="UTF-8"?>
<svg width="1200" height="1600" viewBox="0 0 1200 1600" fill="none" xmlns="http://www.w3.org/2000/svg">
  <defs>
    <linearGradient id="bg-2" x1="0" y1="0" x2="1200" y2="1600" gradientUnits="userSpaceOnUse">
      <stop stop-color="#fff3d6" />
      <stop offset="0.54" stop-color="#f0d08c" />
      <stop offset="1" stop-color="#191716" />
    </linearGradient>
    <linearGradient id="bg-soft-2" x1="1200" y1="0" x2="0" y2="1600" gradientUnits="userSpaceOnUse">
      <stop stop-color="#f0d08c" />
      <stop offset="0.52" stop-color="#d39f45" />
      <stop offset="1" stop-color="#191716" />
    </linearGradient>
    <filter id="blur-2">
      <feGaussianBlur stdDeviation="28" />
    </filter>
  </defs>
  <rect width="1200" height="1600" fill="url(#bg-2)" />
  <rect x="0" y="0" width="1200" height="1600" fill="rgba(255,255,255,0.06)" />
  <circle cx="474" cy="1034" r="262" fill="#d39f45" opacity="0.31" filter="url(#blur-2)" />
  <circle cx="705" cy="1415" r="371" fill="#f0d08c" opacity="0.20" filter="url(#blur-2)" />
  <circle cx="981" cy="536" r="312" fill="#d39f45" opacity="0.17" filter="url(#blur-2)" />
  <circle cx="711" cy="1334" r="291" fill="#f0d08c" opacity="0.14" filter="url(#blur-2)" />
  <circle cx="123" cy="911" r="185" fill="#d39f45" opacity="0.25" filter="url(#blur-2)" />
  <rect x="865" y="49" width="264" height="47" rx="23.5" fill="#fff3d6" opacity="0.18" transform="rotate(-31 997 72.5)" />
  <rect x="143" y="793" width="96" height="30" rx="15" fill="#f0d08c" opacity="0.34" transform="rotate(-30 191 808)" />
  <rect x="235" y="1398" width="261" height="22" rx="11" fill="#191716" opacity="0.36" transform="rotate(31 365.5 1409)" />
  <rect x="758" y="531" width="205" height="37" rx="18.5" fill="#fff3d6" opacity="0.32" transform="rotate(-12 860.5 549.5)" />
  <rect x="442" y="1354" width="266" height="52" rx="26" fill="#f0d08c" opacity="0.24" transform="rotate(5 575 1380)" />
  <rect x="826" y="16" width="305" height="17" rx="8.5" fill="#191716" opacity="0.23" transform="rotate(33 978.5 24.5)" />
  <rect x="168" y="549" width="218" height="41" rx="20.5" fill="#fff3d6" opacity="0.20" transform="rotate(-20 277 569.5)" />
  <rect x="391" y="82" width="156" height="50" rx="25" fill="#f0d08c" opacity="0.29" transform="rotate(18 469 107)" />
  <path d="M 822 1042 Q 604 891 778 720" stroke="#191716" stroke-width="18" stroke-linecap="round" opacity="0.58" fill="none" />
  <path d="M 760 208 Q 896 771 1013 1078" stroke="#fff3d6" stroke-width="24" stroke-linecap="round" opacity="0.44" fill="none" />
  <path d="M 795 194 Q 129 333 220 451" stroke="#191716" stroke-width="30" stroke-linecap="round" opacity="0.44" fill="none" />
  <path d="M 381 1169 Q 220 706 238 815" stroke="#fff3d6" stroke-width="36" stroke-linecap="round" opacity="0.48" fill="none" />
  <rect x="76" y="78" width="1048" height="1444" rx="72" stroke="rgba(255,255,255,0.12)" stroke-width="2" />
</svg>