<?xml version="1.0" encoding="UTF-8"?>
<svg width="1200" height="1600" viewBox="0 0 1200 1600" fill="none" xmlns="http://www.w3.org/2000/svg">
  <defs>
    <linearGradient id="bg-0" x1="0" y1="0" x2="1200" y2="1600" gradientUnits="userSpaceOnUse">
      <stop stop-color="#fff3d6" />
      <stop offset="0.54" stop-color="#f0d08c" />
      <stop offset="1" stop-color="#191716" />
    </linearGradient>
    <linearGradient id="bg-soft-0" x1="1200" y1="0" x2="0" y2="1600" gradientUnits="userSpaceOnUse">
      <stop stop-color="#f0d08c" />
      <stop offset="0.52" stop-color="#d39f45" />
      <stop offset="1" stop-color="#191716" />
    </linearGradient>
    <filter id="blur-0">
      <feGaussianBlur stdDeviation="24" />
    </filter>
  </defs>
  <rect width="1200" height="1600" fill="url(#bg-0)" />
  <rect x="0" y="0" width="1200" height="1600" fill="rgba(255,255,255,0.06)" />
  <circle cx="224" cy="758" r="258" fill="#d39f45" opacity="0.30" filter="url(#blur-0)" />
  <circle cx="194" cy="445" r="205" fill="#f0d08c" opacity="0.25" filter="url(#blur-0)" />
  <circle cx="452" cy="241" r="232" fill="#d39f45" opacity="0.31" filter="url(#blur-0)" />
  <circle cx="968" cy="631" r="212" fill="#f0d08c" opacity="0.24" filter="url(#blur-0)" />
  <circle cx="138" cy="756" r="329" fill="#d39f45" opacity="0.31" filter="url(#blur-0)" />
  <rect x="884" y="311" width="260" height="27" rx="13.5" fill="#fff3d6" opacity="0.21" transform="rotate(-3 1014 324.5)" />
  <rect x="51" y="411" width="276" height="34" rx="17" fill="#f0d08c" opacity="0.20" transform="rotate(-8 189 428)" />
  <rect x="902" y="548" width="301" height="21" rx="10.5" fill="#191716" opacity="0.27" transform="rotate(-22 1052.5 558.5)" />
  <rect x="23" y="494" width="176" height="44" rx="22" fill="#fff3d6" opacity="0.23" transform="rotate(34 111 516)" />
  <rect x="83" y="1399" width="227" height="15" rx="7.5" fill="#f0d08c" opacity="0.35" transform="rotate(6 196.5 1406.5)" />
  <rect x="181" y="268" width="123" height="15" rx="7.5" fill="#191716" opacity="0.25" transform="rotate(-31 242.5 275.5)" />
  <rect x="181" y="640" width="303" height="47" rx="23.5" fill="#fff3d6" opacity="0.22" transform="rotate(3 332.5 663.5)" />
  <rect x="427" y="229" width="84" height="29" rx="14.5" fill="#f0d08c" opacity="0.25" transform="rotate(3 469 243.5)" />
  <path d="M 404 552 Q 596 1158 645 1258" stroke="#191716" stroke-width="18" stroke-linecap="round" opacity="0.40" fill="none" />
  <path d="M 933 1020 Q 1031 617 693 1017" stroke="#fff3d6" stroke-width="24" stroke-linecap="round" opacity="0.59" fill="none" />
  <path d="M 609 601 Q 469 1118 664 211" stroke="#191716" stroke-width="30" stroke-linecap="round" opacity="0.59" fill="none" />
  <path d="M 748 1011 Q 803 1141 130 1156" stroke="#fff3d6" stroke-width="36" stroke-linecap="round" opacity="0.47" fill="none" />
  <rect x="76" y="78" width="1048" height="1444" rx="72" stroke="rgba(255,255,255,0.12)" stroke-width="2" />
</svg>