<?xml version="1.0" encoding="UTF-8"?>
<svg width="1200" height="1600" viewBox="0 0 1200 1600" fill="none" xmlns="http://www.w3.org/2000/svg">
  <defs>
    <linearGradient id="bg-2" x1="0" y1="0" x2="1200" y2="1600" gradientUnits="userSpaceOnUse">
      <stop stop-color="#fff3d6" />
      <stop offset="0.54" stop-color="#f0d08c" />
      <stop offset="1" stop-color="#191716" />
    </linearGradient>
    <linearGradient id="bg-soft-2" x1="1200" y1="0" x2="0" y2="1600" gradientUnits="userSpaceOnUse">
      <stop stop-color="#f0d08c" />
      <stop offset="0.52" stop-color="#d39f45" />
      <stop offset="1" stop-color="#191716" />
    </linearGradient>
    <filter id="blur-2">
      <feGaussianBlur stdDeviation="28" />
    </filter>
  </defs>
  <rect width="1200" height="1600" fill="url(#bg-2)" />
  <rect x="0" y="0" width="1200" height="1600" fill="rgba(255,255,255,0.06)" />
  <circle cx="554" cy="383" r="261" fill="#d39f45" opacity="0.13" filter="url(#blur-2)" />
  <circle cx="772" cy="268" r="272" fill="#f0d08c" opacity="0.21" filter="url(#blur-2)" />
  <circle cx="253" cy="331" r="252" fill="#d39f45" opacity="0.20" filter="url(#blur-2)" />
  <circle cx="228" cy="1371" r="217" fill="#f0d08c" opacity="0.25" filter="url(#blur-2)" />
  <circle cx="153" cy="641" r="297" fill="#d39f45" opacity="0.14" filter="url(#blur-2)" />
  <rect x="739" y="1136" width="280" height="45" rx="22.5" fill="#fff3d6" opacity="0.19" transform="rotate(6 879 1158.5)" />
  <rect x="238" y="165" width="222" height="35" rx="17.5" fill="#f0d08c" opacity="0.37" transform="rotate(-21 349 182.5)" />
  <rect x="202" y="1322" width="139" height="32" rx="16" fill="#191716" opacity="0.27" transform="rotate(2 271.5 1338)" />
  <rect x="623" y="510" width="316" height="47" rx="23.5" fill="#fff3d6" opacity="0.34" transform="rotate(16 781 533.5)" />
  <rect x="1068" y="952" width="258" height="46" rx="23" fill="#f0d08c" opacity="0.27" transform="rotate(6 1197 975)" />
  <rect x="635" y="1069" width="301" height="27" rx="13.5" fill="#191716" opacity="0.24" transform="rotate(28 785.5 1082.5)" />
  <rect x="688" y="963" width="309" height="42" rx="21" fill="#fff3d6" opacity="0.32" transform="rotate(12 842.5 984)" />
  <rect x="555" y="1226" width="195" height="47" rx="23.5" fill="#f0d08c" opacity="0.26" transform="rotate(26 652.5 1249.5)" />
  <path d="M 147 316 Q 539 986 177 943" stroke="#191716" stroke-width="18" stroke-linecap="round" opacity="0.53" fill="none" />
  <path d="M 334 604 Q 621 385 1019 899" stroke="#fff3d6" stroke-width="24" stroke-linecap="round" opacity="0.41" fill="none" />
  <path d="M 511 427 Q 310 998 815 115" stroke="#191716" stroke-width="30" stroke-linecap="round" opacity="0.54" fill="none" />
  <path d="M 935 549 Q 928 1127 987 1134" stroke="#fff3d6" stroke-width="36" stroke-linecap="round" opacity="0.40" fill="none" />
  <rect x="76" y="78" width="1048" height="1444" rx="72" stroke="rgba(255,255,255,0.12)" stroke-width="2" />
</svg>