<?xml version="1.0" encoding="UTF-8"?>
<svg width="1200" height="1600" viewBox="0 0 1200 1600" fill="none" xmlns="http://www.w3.org/2000/svg">
  <defs>
    <linearGradient id="bg-1" x1="0" y1="0" x2="1200" y2="1600" gradientUnits="userSpaceOnUse">
      <stop stop-color="#fff3d6" />
      <stop offset="0.54" stop-color="#f0d08c" />
      <stop offset="1" stop-color="#191716" />
    </linearGradient>
    <linearGradient id="bg-soft-1" x1="1200" y1="0" x2="0" y2="1600" gradientUnits="userSpaceOnUse">
      <stop stop-color="#f0d08c" />
      <stop offset="0.52" stop-color="#d39f45" />
      <stop offset="1" stop-color="#191716" />
    </linearGradient>
    <filter id="blur-1">
      <feGaussianBlur stdDeviation="26" />
    </filter>
  </defs>
  <rect width="1200" height="1600" fill="url(#bg-soft-1)" />
  <rect x="0" y="0" width="1200" height="1600" fill="rgba(255,255,255,0.06)" />
  <circle cx="956" cy="624" r="261" fill="#d39f45" opacity="0.17" filter="url(#blur-1)" />
  <circle cx="915" cy="209" r="386" fill="#f0d08c" opacity="0.32" filter="url(#blur-1)" />
  <circle cx="349" cy="1351" r="325" fill="#d39f45" opacity="0.19" filter="url(#blur-1)" />
  <circle cx="377" cy="603" r="155" fill="#f0d08c" opacity="0.14" filter="url(#blur-1)" />
  <circle cx="252" cy="848" r="385" fill="#d39f45" opacity="0.25" filter="url(#blur-1)" />
  <rect x="1" y="381" width="280" height="11" rx="5.5" fill="#fff3d6" opacity="0.24" transform="rotate(9 141 386.5)" />
  <rect x="592" y="1354" width="192" height="51" rx="25.5" fill="#f0d08c" opacity="0.27" transform="rotate(-28 688 1379.5)" />
  <rect x="830" y="1334" width="98" height="38" rx="19" fill="#191716" opacity="0.27" transform="rotate(-5 879 1353)" />
  <rect x="742" y="265" width="101" height="14" rx="7" fill="#fff3d6" opacity="0.33" transform="rotate(29 792.5 272)" />
  <rect x="273" y="332" width="156" height="13" rx="6.5" fill="#f0d08c" opacity="0.19" transform="rotate(-18 351 338.5)" />
  <rect x="620" y="189" width="298" height="30" rx="15" fill="#191716" opacity="0.31" transform="rotate(0 769 204)" />
  <rect x="209" y="837" width="186" height="44" rx="22" fill="#fff3d6" opacity="0.23" transform="rotate(-4 302 859)" />
  <rect x="113" y="820" width="248" height="48" rx="24" fill="#f0d08c" opacity="0.25" transform="rotate(-26 237 844)" />
  <path d="M 1068 382 Q 1011 381 287 328" stroke="#191716" stroke-width="18" stroke-linecap="round" opacity="0.46" fill="none" />
  <path d="M 482 257 Q 930 606 590 241" stroke="#fff3d6" stroke-width="24" stroke-linecap="round" opacity="0.58" fill="none" />
  <path d="M 568 1251 Q 123 332 1024 1122" stroke="#191716" stroke-width="30" stroke-linecap="round" opacity="0.52" fill="none" />
  <path d="M 503 267 Q 483 524 617 1245" stroke="#fff3d6" stroke-width="36" stroke-linecap="round" opacity="0.46" fill="none" />
  <rect x="76" y="78" width="1048" height="1444" rx="72" stroke="rgba(255,255,255,0.12)" stroke-width="2" />
</svg>