<?xml version="1.0" encoding="UTF-8"?>
<svg width="1200" height="1600" viewBox="0 0 1200 1600" fill="none" xmlns="http://www.w3.org/2000/svg">
  <defs>
    <linearGradient id="bg-1" x1="0" y1="0" x2="1200" y2="1600" gradientUnits="userSpaceOnUse">
      <stop stop-color="#fff3d6" />
      <stop offset="0.54" stop-color="#f0d08c" />
      <stop offset="1" stop-color="#191716" />
    </linearGradient>
    <linearGradient id="bg-soft-1" x1="1200" y1="0" x2="0" y2="1600" gradientUnits="userSpaceOnUse">
      <stop stop-color="#f0d08c" />
      <stop offset="0.52" stop-color="#d39f45" />
      <stop offset="1" stop-color="#191716" />
    </linearGradient>
    <filter id="blur-1">
      <feGaussianBlur stdDeviation="26" />
    </filter>
  </defs>
  <rect width="1200" height="1600" fill="url(#bg-soft-1)" />
  <rect x="0" y="0" width="1200" height="1600" fill="rgba(255,255,255,0.06)" />
  <circle cx="782" cy="1380" r="336" fill="#d39f45" opacity="0.20" filter="url(#blur-1)" />
  <circle cx="1071" cy="1065" r="111" fill="#f0d08c" opacity="0.19" filter="url(#blur-1)" />
  <circle cx="999" cy="486" r="206" fill="#d39f45" opacity="0.16" filter="url(#blur-1)" />
  <circle cx="493" cy="1246" r="130" fill="#f0d08c" opacity="0.20" filter="url(#blur-1)" />
  <circle cx="502" cy="1426" r="261" fill="#d39f45" opacity="0.20" filter="url(#blur-1)" />
  <rect x="746" y="340" width="284" height="45" rx="22.5" fill="#fff3d6" opacity="0.38" transform="rotate(-6 888 362.5)" />
  <rect x="1042" y="177" width="143" height="26" rx="13" fill="#f0d08c" opacity="0.28" transform="rotate(9 1113.5 190)" />
  <rect x="890" y="136" width="320" height="52" rx="26" fill="#191716" opacity="0.22" transform="rotate(29 1050 162)" />
  <rect x="40" y="345" width="158" height="11" rx="5.5" fill="#fff3d6" opacity="0.24" transform="rotate(19 119 350.5)" />
  <rect x="196" y="447" width="178" height="45" rx="22.5" fill="#f0d08c" opacity="0.22" transform="rotate(-15 285 469.5)" />
  <rect x="237" y="332" width="175" height="41" rx="20.5" fill="#191716" opacity="0.28" transform="rotate(10 324.5 352.5)" />
  <rect x="763" y="791" width="172" height="33" rx="16.5" fill="#fff3d6" opacity="0.19" transform="rotate(24 849 807.5)" />
  <rect x="86" y="598" width="280" height="34" rx="17" fill="#f0d08c" opacity="0.37" transform="rotate(-13 226 615)" />
  <path d="M 390 837 Q 1093 116 497 384" stroke="#191716" stroke-width="18" stroke-linecap="round" opacity="0.59" fill="none" />
  <path d="M 752 869 Q 967 284 721 743" stroke="#fff3d6" stroke-width="24" stroke-linecap="round" opacity="0.50" fill="none" />
  <path d="M 553 189 Q 127 243 629 747" stroke="#191716" stroke-width="30" stroke-linecap="round" opacity="0.47" fill="none" />
  <path d="M 176 667 Q 532 433 779 1060" stroke="#fff3d6" stroke-width="36" stroke-linecap="round" opacity="0.40" fill="none" />
  <rect x="76" y="78" width="1048" height="1444" rx="72" stroke="rgba(255,255,255,0.12)" stroke-width="2" />
</svg>