<?xml version="1.0" encoding="UTF-8"?>
<svg width="1200" height="1600" viewBox="0 0 1200 1600" fill="none" xmlns="http://www.w3.org/2000/svg">
  <defs>
    <linearGradient id="bg-2" x1="0" y1="0" x2="1200" y2="1600" gradientUnits="userSpaceOnUse">
      <stop stop-color="#fff3d6" />
      <stop offset="0.54" stop-color="#f0d08c" />
      <stop offset="1" stop-color="#191716" />
    </linearGradient>
    <linearGradient id="bg-soft-2" x1="1200" y1="0" x2="0" y2="1600" gradientUnits="userSpaceOnUse">
      <stop stop-color="#f0d08c" />
      <stop offset="0.52" stop-color="#d39f45" />
      <stop offset="1" stop-color="#191716" />
    </linearGradient>
    <filter id="blur-2">
      <feGaussianBlur stdDeviation="28" />
    </filter>
  </defs>
  <rect width="1200" height="1600" fill="url(#bg-2)" />
  <rect x="0" y="0" width="1200" height="1600" fill="rgba(255,255,255,0.06)" />
  <circle cx="611" cy="497" r="206" fill="#d39f45" opacity="0.29" filter="url(#blur-2)" />
  <circle cx="501" cy="858" r="240" fill="#f0d08c" opacity="0.17" filter="url(#blur-2)" />
  <circle cx="723" cy="1250" r="231" fill="#d39f45" opacity="0.25" filter="url(#blur-2)" />
  <circle cx="458" cy="288" r="372" fill="#f0d08c" opacity="0.34" filter="url(#blur-2)" />
  <circle cx="266" cy="528" r="306" fill="#d39f45" opacity="0.31" filter="url(#blur-2)" />
  <rect x="13" y="1220" width="232" height="38" rx="19" fill="#fff3d6" opacity="0.24" transform="rotate(7 129 1239)" />
  <rect x="69" y="130" width="136" height="26" rx="13" fill="#f0d08c" opacity="0.24" transform="rotate(16 137 143)" />
  <rect x="394" y="682" width="89" height="20" rx="10" fill="#191716" opacity="0.36" transform="rotate(-29 438.5 692)" />
  <rect x="505" y="413" width="319" height="46" rx="23" fill="#fff3d6" opacity="0.29" transform="rotate(18 664.5 436)" />
  <rect x="599" y="245" width="268" height="21" rx="10.5" fill="#f0d08c" opacity="0.34" transform="rotate(4 733 255.5)" />
  <rect x="760" y="1231" width="118" height="14" rx="7" fill="#191716" opacity="0.35" transform="rotate(-4 819 1238)" />
  <rect x="338" y="1150" width="275" height="20" rx="10" fill="#fff3d6" opacity="0.28" transform="rotate(0 475.5 1160)" />
  <rect x="919" y="1322" width="238" height="40" rx="20" fill="#f0d08c" opacity="0.30" transform="rotate(-14 1038 1342)" />
  <path d="M 169 634 Q 839 890 490 127" stroke="#191716" stroke-width="18" stroke-linecap="round" opacity="0.40" fill="none" />
  <path d="M 1084 652 Q 351 623 559 784" stroke="#fff3d6" stroke-width="24" stroke-linecap="round" opacity="0.58" fill="none" />
  <path d="M 1019 645 Q 335 762 848 1076" stroke="#191716" stroke-width="30" stroke-linecap="round" opacity="0.47" fill="none" />
  <path d="M 630 395 Q 472 810 532 743" stroke="#fff3d6" stroke-width="36" stroke-linecap="round" opacity="0.38" fill="none" />
  <rect x="76" y="78" width="1048" height="1444" rx="72" stroke="rgba(255,255,255,0.12)" stroke-width="2" />
</svg>