<?xml version="1.0" encoding="UTF-8"?>
<svg width="1200" height="1600" viewBox="0 0 1200 1600" fill="none" xmlns="http://www.w3.org/2000/svg">
  <defs>
    <linearGradient id="bg-0" x1="0" y1="0" x2="1200" y2="1600" gradientUnits="userSpaceOnUse">
      <stop stop-color="#fff3d6" />
      <stop offset="0.54" stop-color="#f0d08c" />
      <stop offset="1" stop-color="#191716" />
    </linearGradient>
    <linearGradient id="bg-soft-0" x1="1200" y1="0" x2="0" y2="1600" gradientUnits="userSpaceOnUse">
      <stop stop-color="#f0d08c" />
      <stop offset="0.52" stop-color="#d39f45" />
      <stop offset="1" stop-color="#191716" />
    </linearGradient>
    <filter id="blur-0">
      <feGaussianBlur stdDeviation="24" />
    </filter>
  </defs>
  <rect width="1200" height="1600" fill="url(#bg-0)" />
  <rect x="0" y="0" width="1200" height="1600" fill="rgba(255,255,255,0.06)" />
  <circle cx="598" cy="1372" r="370" fill="#d39f45" opacity="0.31" filter="url(#blur-0)" />
  <circle cx="1017" cy="477" r="369" fill="#f0d08c" opacity="0.23" filter="url(#blur-0)" />
  <circle cx="549" cy="1166" r="291" fill="#d39f45" opacity="0.16" filter="url(#blur-0)" />
  <circle cx="320" cy="196" r="295" fill="#f0d08c" opacity="0.21" filter="url(#blur-0)" />
  <circle cx="564" cy="756" r="354" fill="#d39f45" opacity="0.25" filter="url(#blur-0)" />
  <rect x="761" y="936" width="280" height="44" rx="22" fill="#fff3d6" opacity="0.36" transform="rotate(8 901 958)" />
  <rect x="658" y="187" width="257" height="49" rx="24.5" fill="#f0d08c" opacity="0.38" transform="rotate(-4 786.5 211.5)" />
  <rect x="891" y="182" width="205" height="16" rx="8" fill="#191716" opacity="0.20" transform="rotate(-16 993.5 190)" />
  <rect x="775" y="437" width="126" height="46" rx="23" fill="#fff3d6" opacity="0.28" transform="rotate(-23 838 460)" />
  <rect x="426" y="472" width="246" height="28" rx="14" fill="#f0d08c" opacity="0.21" transform="rotate(13 549 486)" />
  <rect x="163" y="1049" width="211" height="14" rx="7" fill="#191716" opacity="0.35" transform="rotate(25 268.5 1056)" />
  <rect x="53" y="1220" width="317" height="28" rx="14" fill="#fff3d6" opacity="0.28" transform="rotate(30 211.5 1234)" />
  <rect x="463" y="227" width="102" height="48" rx="24" fill="#f0d08c" opacity="0.21" transform="rotate(22 514 251)" />
  <path d="M 431 1017 Q 923 1087 1083 615" stroke="#191716" stroke-width="18" stroke-linecap="round" opacity="0.56" fill="none" />
  <path d="M 634 603 Q 353 789 670 1090" stroke="#fff3d6" stroke-width="24" stroke-linecap="round" opacity="0.47" fill="none" />
  <path d="M 653 1250 Q 530 601 600 700" stroke="#191716" stroke-width="30" stroke-linecap="round" opacity="0.38" fill="none" />
  <path d="M 355 529 Q 515 332 999 121" stroke="#fff3d6" stroke-width="36" stroke-linecap="round" opacity="0.52" fill="none" />
  <rect x="76" y="78" width="1048" height="1444" rx="72" stroke="rgba(255,255,255,0.12)" stroke-width="2" />
</svg>