<?xml version="1.0" encoding="UTF-8"?>
<svg width="1200" height="1600" viewBox="0 0 1200 1600" fill="none" xmlns="http://www.w3.org/2000/svg">
  <defs>
    <linearGradient id="bg-1" x1="0" y1="0" x2="1200" y2="1600" gradientUnits="userSpaceOnUse">
      <stop stop-color="#fff3d6" />
      <stop offset="0.54" stop-color="#f0d08c" />
      <stop offset="1" stop-color="#191716" />
    </linearGradient>
    <linearGradient id="bg-soft-1" x1="1200" y1="0" x2="0" y2="1600" gradientUnits="userSpaceOnUse">
      <stop stop-color="#f0d08c" />
      <stop offset="0.52" stop-color="#d39f45" />
      <stop offset="1" stop-color="#191716" />
    </linearGradient>
    <filter id="blur-1">
      <feGaussianBlur stdDeviation="26" />
    </filter>
  </defs>
  <rect width="1200" height="1600" fill="url(#bg-soft-1)" />
  <rect x="0" y="0" width="1200" height="1600" fill="rgba(255,255,255,0.06)" />
  <circle cx="646" cy="1047" r="332" fill="#d39f45" opacity="0.33" filter="url(#blur-1)" />
  <circle cx="175" cy="1106" r="275" fill="#f0d08c" opacity="0.29" filter="url(#blur-1)" />
  <circle cx="793" cy="944" r="172" fill="#d39f45" opacity="0.23" filter="url(#blur-1)" />
  <circle cx="605" cy="483" r="381" fill="#f0d08c" opacity="0.32" filter="url(#blur-1)" />
  <circle cx="769" cy="230" r="199" fill="#d39f45" opacity="0.20" filter="url(#blur-1)" />
  <rect x="1012" y="811" width="228" height="22" rx="11" fill="#fff3d6" opacity="0.37" transform="rotate(8 1126 822)" />
  <rect x="279" y="1133" width="189" height="23" rx="11.5" fill="#f0d08c" opacity="0.38" transform="rotate(-26 373.5 1144.5)" />
  <rect x="743" y="982" width="109" height="28" rx="14" fill="#191716" opacity="0.27" transform="rotate(-21 797.5 996)" />
  <rect x="829" y="1296" width="118" height="18" rx="9" fill="#fff3d6" opacity="0.29" transform="rotate(0 888 1305)" />
  <rect x="326" y="525" width="97" height="27" rx="13.5" fill="#f0d08c" opacity="0.36" transform="rotate(15 374.5 538.5)" />
  <rect x="1032" y="240" width="139" height="26" rx="13" fill="#191716" opacity="0.18" transform="rotate(6 1101.5 253)" />
  <rect x="252" y="868" width="133" height="41" rx="20.5" fill="#fff3d6" opacity="0.21" transform="rotate(-2 318.5 888.5)" />
  <rect x="37" y="172" width="320" height="43" rx="21.5" fill="#f0d08c" opacity="0.32" transform="rotate(-24 197 193.5)" />
  <path d="M 1088 833 Q 802 529 558 653" stroke="#191716" stroke-width="18" stroke-linecap="round" opacity="0.41" fill="none" />
  <path d="M 203 649 Q 1093 969 308 221" stroke="#fff3d6" stroke-width="24" stroke-linecap="round" opacity="0.50" fill="none" />
  <path d="M 317 164 Q 644 310 289 949" stroke="#191716" stroke-width="30" stroke-linecap="round" opacity="0.56" fill="none" />
  <path d="M 419 1286 Q 394 1240 289 712" stroke="#fff3d6" stroke-width="36" stroke-linecap="round" opacity="0.53" fill="none" />
  <rect x="76" y="78" width="1048" height="1444" rx="72" stroke="rgba(255,255,255,0.12)" stroke-width="2" />
</svg>