<?xml version="1.0" encoding="UTF-8"?>
<svg width="1200" height="1600" viewBox="0 0 1200 1600" fill="none" xmlns="http://www.w3.org/2000/svg">
  <defs>
    <linearGradient id="bg-1" x1="0" y1="0" x2="1200" y2="1600" gradientUnits="userSpaceOnUse">
      <stop stop-color="#fff3d6" />
      <stop offset="0.54" stop-color="#f0d08c" />
      <stop offset="1" stop-color="#191716" />
    </linearGradient>
    <linearGradient id="bg-soft-1" x1="1200" y1="0" x2="0" y2="1600" gradientUnits="userSpaceOnUse">
      <stop stop-color="#f0d08c" />
      <stop offset="0.52" stop-color="#d39f45" />
      <stop offset="1" stop-color="#191716" />
    </linearGradient>
    <filter id="blur-1">
      <feGaussianBlur stdDeviation="26" />
    </filter>
  </defs>
  <rect width="1200" height="1600" fill="url(#bg-soft-1)" />
  <rect x="0" y="0" width="1200" height="1600" fill="rgba(255,255,255,0.06)" />
  <circle cx="771" cy="321" r="265" fill="#d39f45" opacity="0.30" filter="url(#blur-1)" />
  <circle cx="217" cy="569" r="364" fill="#f0d08c" opacity="0.31" filter="url(#blur-1)" />
  <circle cx="439" cy="727" r="173" fill="#d39f45" opacity="0.20" filter="url(#blur-1)" />
  <circle cx="1056" cy="1117" r="126" fill="#f0d08c" opacity="0.27" filter="url(#blur-1)" />
  <circle cx="704" cy="595" r="252" fill="#d39f45" opacity="0.12" filter="url(#blur-1)" />
  <rect x="111" y="449" width="87" height="14" rx="7" fill="#fff3d6" opacity="0.28" transform="rotate(22 154.5 456)" />
  <rect x="393" y="509" width="264" height="46" rx="23" fill="#f0d08c" opacity="0.30" transform="rotate(24 525 532)" />
  <rect x="1037" y="389" width="272" height="16" rx="8" fill="#191716" opacity="0.35" transform="rotate(-21 1173 397)" />
  <rect x="799" y="1302" width="216" height="49" rx="24.5" fill="#fff3d6" opacity="0.34" transform="rotate(18 907 1326.5)" />
  <rect x="343" y="257" width="272" height="42" rx="21" fill="#f0d08c" opacity="0.31" transform="rotate(-19 479 278)" />
  <rect x="490" y="979" width="123" height="33" rx="16.5" fill="#191716" opacity="0.24" transform="rotate(11 551.5 995.5)" />
  <rect x="501" y="1121" width="243" height="30" rx="15" fill="#fff3d6" opacity="0.32" transform="rotate(-27 622.5 1136)" />
  <rect x="134" y="1259" width="298" height="29" rx="14.5" fill="#f0d08c" opacity="0.23" transform="rotate(-25 283 1273.5)" />
  <path d="M 858 787 Q 709 786 348 755" stroke="#191716" stroke-width="18" stroke-linecap="round" opacity="0.53" fill="none" />
  <path d="M 505 528 Q 236 312 609 1278" stroke="#fff3d6" stroke-width="24" stroke-linecap="round" opacity="0.55" fill="none" />
  <path d="M 594 300 Q 1087 946 954 927" stroke="#191716" stroke-width="30" stroke-linecap="round" opacity="0.53" fill="none" />
  <path d="M 555 626 Q 987 1189 993 1087" stroke="#fff3d6" stroke-width="36" stroke-linecap="round" opacity="0.54" fill="none" />
  <rect x="76" y="78" width="1048" height="1444" rx="72" stroke="rgba(255,255,255,0.12)" stroke-width="2" />
</svg>