<?xml version="1.0" encoding="UTF-8"?>
<svg width="1200" height="1600" viewBox="0 0 1200 1600" fill="none" xmlns="http://www.w3.org/2000/svg">
  <defs>
    <linearGradient id="bg-2" x1="0" y1="0" x2="1200" y2="1600" gradientUnits="userSpaceOnUse">
      <stop stop-color="#ede5da" />
      <stop offset="0.54" stop-color="#baa58d" />
      <stop offset="1" stop-color="#1e1713" />
    </linearGradient>
    <linearGradient id="bg-soft-2" x1="1200" y1="0" x2="0" y2="1600" gradientUnits="userSpaceOnUse">
      <stop stop-color="#baa58d" />
      <stop offset="0.52" stop-color="#7d6754" />
      <stop offset="1" stop-color="#1e1713" />
    </linearGradient>
    <filter id="blur-2">
      <feGaussianBlur stdDeviation="28" />
    </filter>
  </defs>
  <rect width="1200" height="1600" fill="url(#bg-2)" />
  <rect x="0" y="0" width="1200" height="1600" fill="rgba(255,255,255,0.06)" />
  <circle cx="301" cy="449" r="236" fill="#7d6754" opacity="0.13" filter="url(#blur-2)" />
  <circle cx="317" cy="241" r="336" fill="#baa58d" opacity="0.30" filter="url(#blur-2)" />
  <circle cx="979" cy="386" r="265" fill="#7d6754" opacity="0.32" filter="url(#blur-2)" />
  <circle cx="444" cy="318" r="353" fill="#baa58d" opacity="0.17" filter="url(#blur-2)" />
  <circle cx="919" cy="1010" r="367" fill="#7d6754" opacity="0.32" filter="url(#blur-2)" />
  <rect x="361" y="273" width="223" height="12" rx="6" fill="#ede5da" opacity="0.29" transform="rotate(2 472.5 279)" />
  <rect x="900" y="728" width="276" height="14" rx="7" fill="#baa58d" opacity="0.23" transform="rotate(-31 1038 735)" />
  <rect x="585" y="784" width="237" height="36" rx="18" fill="#1e1713" opacity="0.19" transform="rotate(22 703.5 802)" />
  <rect x="615" y="346" width="150" height="25" rx="12.5" fill="#ede5da" opacity="0.28" transform="rotate(-33 690 358.5)" />
  <rect x="988" y="853" width="138" height="36" rx="18" fill="#baa58d" opacity="0.38" transform="rotate(-31 1057 871)" />
  <rect x="532" y="395" width="261" height="48" rx="24" fill="#1e1713" opacity="0.37" transform="rotate(34 662.5 419)" />
  <rect x="223" y="817" width="260" height="11" rx="5.5" fill="#ede5da" opacity="0.34" transform="rotate(-24 353 822.5)" />
  <rect x="318" y="628" width="267" height="42" rx="21" fill="#baa58d" opacity="0.19" transform="rotate(-11 451.5 649)" />
  <path d="M 644 1057 Q 190 307 608 1284" stroke="#1e1713" stroke-width="18" stroke-linecap="round" opacity="0.36" fill="none" />
  <path d="M 303 1171 Q 1054 521 996 338" stroke="#ede5da" stroke-width="24" stroke-linecap="round" opacity="0.37" fill="none" />
  <path d="M 449 521 Q 252 885 846 1078" stroke="#1e1713" stroke-width="30" stroke-linecap="round" opacity="0.52" fill="none" />
  <path d="M 374 881 Q 743 104 699 270" stroke="#ede5da" stroke-width="36" stroke-linecap="round" opacity="0.39" fill="none" />
  <rect x="76" y="78" width="1048" height="1444" rx="72" stroke="rgba(255,255,255,0.12)" stroke-width="2" />
</svg>