<?xml version="1.0" encoding="UTF-8"?>
<svg width="1200" height="1600" viewBox="0 0 1200 1600" fill="none" xmlns="http://www.w3.org/2000/svg">
  <defs>
    <linearGradient id="bg-1" x1="0" y1="0" x2="1200" y2="1600" gradientUnits="userSpaceOnUse">
      <stop stop-color="#ede5da" />
      <stop offset="0.54" stop-color="#baa58d" />
      <stop offset="1" stop-color="#1e1713" />
    </linearGradient>
    <linearGradient id="bg-soft-1" x1="1200" y1="0" x2="0" y2="1600" gradientUnits="userSpaceOnUse">
      <stop stop-color="#baa58d" />
      <stop offset="0.52" stop-color="#7d6754" />
      <stop offset="1" stop-color="#1e1713" />
    </linearGradient>
    <filter id="blur-1">
      <feGaussianBlur stdDeviation="26" />
    </filter>
  </defs>
  <rect width="1200" height="1600" fill="url(#bg-soft-1)" />
  <rect x="0" y="0" width="1200" height="1600" fill="rgba(255,255,255,0.06)" />
  <circle cx="288" cy="1248" r="325" fill="#7d6754" opacity="0.19" filter="url(#blur-1)" />
  <circle cx="449" cy="355" r="370" fill="#baa58d" opacity="0.17" filter="url(#blur-1)" />
  <circle cx="498" cy="875" r="111" fill="#7d6754" opacity="0.14" filter="url(#blur-1)" />
  <circle cx="760" cy="964" r="193" fill="#baa58d" opacity="0.27" filter="url(#blur-1)" />
  <circle cx="433" cy="1391" r="327" fill="#7d6754" opacity="0.18" filter="url(#blur-1)" />
  <rect x="952" y="19" width="161" height="48" rx="24" fill="#ede5da" opacity="0.32" transform="rotate(5 1032.5 43)" />
  <rect x="278" y="727" width="140" height="48" rx="24" fill="#baa58d" opacity="0.35" transform="rotate(0 348 751)" />
  <rect x="67" y="712" width="81" height="47" rx="23.5" fill="#1e1713" opacity="0.38" transform="rotate(9 107.5 735.5)" />
  <rect x="218" y="427" width="113" height="37" rx="18.5" fill="#ede5da" opacity="0.33" transform="rotate(-25 274.5 445.5)" />
  <rect x="556" y="1197" width="297" height="43" rx="21.5" fill="#baa58d" opacity="0.27" transform="rotate(32 704.5 1218.5)" />
  <rect x="517" y="951" width="275" height="50" rx="25" fill="#1e1713" opacity="0.30" transform="rotate(23 654.5 976)" />
  <rect x="289" y="307" width="123" height="40" rx="20" fill="#ede5da" opacity="0.20" transform="rotate(-7 350.5 327)" />
  <rect x="879" y="1326" width="262" height="23" rx="11.5" fill="#baa58d" opacity="0.33" transform="rotate(3 1010 1337.5)" />
  <path d="M 154 250 Q 420 653 647 1024" stroke="#1e1713" stroke-width="18" stroke-linecap="round" opacity="0.51" fill="none" />
  <path d="M 1050 914 Q 1067 404 213 708" stroke="#ede5da" stroke-width="24" stroke-linecap="round" opacity="0.46" fill="none" />
  <path d="M 875 198 Q 745 1055 393 772" stroke="#1e1713" stroke-width="30" stroke-linecap="round" opacity="0.44" fill="none" />
  <path d="M 621 376 Q 1089 783 850 323" stroke="#ede5da" stroke-width="36" stroke-linecap="round" opacity="0.37" fill="none" />
  <rect x="76" y="78" width="1048" height="1444" rx="72" stroke="rgba(255,255,255,0.12)" stroke-width="2" />
</svg>