<?xml version="1.0" encoding="UTF-8"?>
<svg width="1200" height="1600" viewBox="0 0 1200 1600" fill="none" xmlns="http://www.w3.org/2000/svg">
  <defs>
    <linearGradient id="bg-0" x1="0" y1="0" x2="1200" y2="1600" gradientUnits="userSpaceOnUse">
      <stop stop-color="#ede5da" />
      <stop offset="0.54" stop-color="#baa58d" />
      <stop offset="1" stop-color="#1e1713" />
    </linearGradient>
    <linearGradient id="bg-soft-0" x1="1200" y1="0" x2="0" y2="1600" gradientUnits="userSpaceOnUse">
      <stop stop-color="#baa58d" />
      <stop offset="0.52" stop-color="#7d6754" />
      <stop offset="1" stop-color="#1e1713" />
    </linearGradient>
    <filter id="blur-0">
      <feGaussianBlur stdDeviation="24" />
    </filter>
  </defs>
  <rect width="1200" height="1600" fill="url(#bg-0)" />
  <rect x="0" y="0" width="1200" height="1600" fill="rgba(255,255,255,0.06)" />
  <circle cx="979" cy="1196" r="202" fill="#7d6754" opacity="0.25" filter="url(#blur-0)" />
  <circle cx="1018" cy="614" r="116" fill="#baa58d" opacity="0.32" filter="url(#blur-0)" />
  <circle cx="325" cy="299" r="327" fill="#7d6754" opacity="0.15" filter="url(#blur-0)" />
  <circle cx="537" cy="443" r="186" fill="#baa58d" opacity="0.23" filter="url(#blur-0)" />
  <circle cx="264" cy="534" r="233" fill="#7d6754" opacity="0.26" filter="url(#blur-0)" />
  <rect x="799" y="352" width="117" height="16" rx="8" fill="#ede5da" opacity="0.20" transform="rotate(7 857.5 360)" />
  <rect x="67" y="8" width="101" height="41" rx="20.5" fill="#baa58d" opacity="0.27" transform="rotate(-31 117.5 28.5)" />
  <rect x="574" y="1105" width="312" height="20" rx="10" fill="#1e1713" opacity="0.29" transform="rotate(12 730 1115)" />
  <rect x="325" y="546" width="178" height="40" rx="20" fill="#ede5da" opacity="0.34" transform="rotate(-6 414 566)" />
  <rect x="650" y="1003" width="234" height="50" rx="25" fill="#baa58d" opacity="0.29" transform="rotate(6 767 1028)" />
  <rect x="268" y="319" width="163" height="20" rx="10" fill="#1e1713" opacity="0.35" transform="rotate(32 349.5 329)" />
  <rect x="240" y="423" width="221" height="49" rx="24.5" fill="#ede5da" opacity="0.19" transform="rotate(-25 350.5 447.5)" />
  <rect x="567" y="719" width="186" height="36" rx="18" fill="#baa58d" opacity="0.24" transform="rotate(21 660 737)" />
  <path d="M 536 542 Q 660 858 432 1139" stroke="#1e1713" stroke-width="18" stroke-linecap="round" opacity="0.50" fill="none" />
  <path d="M 430 892 Q 671 564 203 958" stroke="#ede5da" stroke-width="24" stroke-linecap="round" opacity="0.37" fill="none" />
  <path d="M 364 592 Q 995 761 606 673" stroke="#1e1713" stroke-width="30" stroke-linecap="round" opacity="0.50" fill="none" />
  <path d="M 1039 325 Q 762 310 1097 1005" stroke="#ede5da" stroke-width="36" stroke-linecap="round" opacity="0.40" fill="none" />
  <rect x="76" y="78" width="1048" height="1444" rx="72" stroke="rgba(255,255,255,0.12)" stroke-width="2" />
</svg>