<?xml version="1.0" encoding="UTF-8"?>
<svg width="1200" height="1600" viewBox="0 0 1200 1600" fill="none" xmlns="http://www.w3.org/2000/svg">
  <defs>
    <linearGradient id="bg-1" x1="0" y1="0" x2="1200" y2="1600" gradientUnits="userSpaceOnUse">
      <stop stop-color="#ede5da" />
      <stop offset="0.54" stop-color="#baa58d" />
      <stop offset="1" stop-color="#1e1713" />
    </linearGradient>
    <linearGradient id="bg-soft-1" x1="1200" y1="0" x2="0" y2="1600" gradientUnits="userSpaceOnUse">
      <stop stop-color="#baa58d" />
      <stop offset="0.52" stop-color="#7d6754" />
      <stop offset="1" stop-color="#1e1713" />
    </linearGradient>
    <filter id="blur-1">
      <feGaussianBlur stdDeviation="26" />
    </filter>
  </defs>
  <rect width="1200" height="1600" fill="url(#bg-soft-1)" />
  <rect x="0" y="0" width="1200" height="1600" fill="rgba(255,255,255,0.06)" />
  <circle cx="253" cy="1048" r="157" fill="#7d6754" opacity="0.19" filter="url(#blur-1)" />
  <circle cx="257" cy="910" r="136" fill="#baa58d" opacity="0.27" filter="url(#blur-1)" />
  <circle cx="472" cy="212" r="121" fill="#7d6754" opacity="0.25" filter="url(#blur-1)" />
  <circle cx="891" cy="240" r="383" fill="#baa58d" opacity="0.34" filter="url(#blur-1)" />
  <circle cx="652" cy="1073" r="362" fill="#7d6754" opacity="0.20" filter="url(#blur-1)" />
  <rect x="567" y="813" width="265" height="41" rx="20.5" fill="#ede5da" opacity="0.32" transform="rotate(1 699.5 833.5)" />
  <rect x="605" y="1056" width="210" height="43" rx="21.5" fill="#baa58d" opacity="0.36" transform="rotate(7 710 1077.5)" />
  <rect x="565" y="963" width="198" height="43" rx="21.5" fill="#1e1713" opacity="0.31" transform="rotate(-24 664 984.5)" />
  <rect x="567" y="619" width="165" height="15" rx="7.5" fill="#ede5da" opacity="0.21" transform="rotate(35 649.5 626.5)" />
  <rect x="494" y="1101" width="219" height="27" rx="13.5" fill="#baa58d" opacity="0.23" transform="rotate(31 603.5 1114.5)" />
  <rect x="840" y="678" width="128" height="50" rx="25" fill="#1e1713" opacity="0.21" transform="rotate(-19 904 703)" />
  <rect x="949" y="1031" width="84" height="20" rx="10" fill="#ede5da" opacity="0.34" transform="rotate(18 991 1041)" />
  <rect x="150" y="874" width="129" height="31" rx="15.5" fill="#baa58d" opacity="0.27" transform="rotate(13 214.5 889.5)" />
  <path d="M 385 745 Q 269 168 615 579" stroke="#1e1713" stroke-width="18" stroke-linecap="round" opacity="0.41" fill="none" />
  <path d="M 142 142 Q 996 908 1033 642" stroke="#ede5da" stroke-width="24" stroke-linecap="round" opacity="0.51" fill="none" />
  <path d="M 870 155 Q 1050 806 900 257" stroke="#1e1713" stroke-width="30" stroke-linecap="round" opacity="0.52" fill="none" />
  <path d="M 1090 369 Q 920 309 697 422" stroke="#ede5da" stroke-width="36" stroke-linecap="round" opacity="0.38" fill="none" />
  <rect x="76" y="78" width="1048" height="1444" rx="72" stroke="rgba(255,255,255,0.12)" stroke-width="2" />
</svg>