<?xml version="1.0" encoding="UTF-8"?>
<svg width="1200" height="1600" viewBox="0 0 1200 1600" fill="none" xmlns="http://www.w3.org/2000/svg">
  <defs>
    <linearGradient id="bg-2" x1="0" y1="0" x2="1200" y2="1600" gradientUnits="userSpaceOnUse">
      <stop stop-color="#ede5da" />
      <stop offset="0.54" stop-color="#baa58d" />
      <stop offset="1" stop-color="#1e1713" />
    </linearGradient>
    <linearGradient id="bg-soft-2" x1="1200" y1="0" x2="0" y2="1600" gradientUnits="userSpaceOnUse">
      <stop stop-color="#baa58d" />
      <stop offset="0.52" stop-color="#7d6754" />
      <stop offset="1" stop-color="#1e1713" />
    </linearGradient>
    <filter id="blur-2">
      <feGaussianBlur stdDeviation="28" />
    </filter>
  </defs>
  <rect width="1200" height="1600" fill="url(#bg-2)" />
  <rect x="0" y="0" width="1200" height="1600" fill="rgba(255,255,255,0.06)" />
  <circle cx="1033" cy="1158" r="267" fill="#7d6754" opacity="0.16" filter="url(#blur-2)" />
  <circle cx="304" cy="794" r="292" fill="#baa58d" opacity="0.22" filter="url(#blur-2)" />
  <circle cx="1035" cy="714" r="305" fill="#7d6754" opacity="0.31" filter="url(#blur-2)" />
  <circle cx="1048" cy="1431" r="361" fill="#baa58d" opacity="0.29" filter="url(#blur-2)" />
  <circle cx="898" cy="282" r="270" fill="#7d6754" opacity="0.32" filter="url(#blur-2)" />
  <rect x="478" y="722" width="147" height="17" rx="8.5" fill="#ede5da" opacity="0.23" transform="rotate(22 551.5 730.5)" />
  <rect x="150" y="1009" width="115" height="39" rx="19.5" fill="#baa58d" opacity="0.31" transform="rotate(-30 207.5 1028.5)" />
  <rect x="1045" y="1309" width="307" height="28" rx="14" fill="#1e1713" opacity="0.36" transform="rotate(16 1198.5 1323)" />
  <rect x="706" y="311" width="245" height="33" rx="16.5" fill="#ede5da" opacity="0.25" transform="rotate(-5 828.5 327.5)" />
  <rect x="943" y="357" width="146" height="35" rx="17.5" fill="#baa58d" opacity="0.22" transform="rotate(1 1016 374.5)" />
  <rect x="390" y="193" width="217" height="20" rx="10" fill="#1e1713" opacity="0.37" transform="rotate(-20 498.5 203)" />
  <rect x="412" y="552" width="124" height="38" rx="19" fill="#ede5da" opacity="0.18" transform="rotate(14 474 571)" />
  <rect x="4" y="1047" width="246" height="28" rx="14" fill="#baa58d" opacity="0.23" transform="rotate(24 127 1061)" />
  <path d="M 340 1235 Q 540 1162 196 596" stroke="#1e1713" stroke-width="18" stroke-linecap="round" opacity="0.41" fill="none" />
  <path d="M 806 1155 Q 883 599 950 1003" stroke="#ede5da" stroke-width="24" stroke-linecap="round" opacity="0.36" fill="none" />
  <path d="M 300 595 Q 1017 140 178 1063" stroke="#1e1713" stroke-width="30" stroke-linecap="round" opacity="0.58" fill="none" />
  <path d="M 110 611 Q 456 1228 851 827" stroke="#ede5da" stroke-width="36" stroke-linecap="round" opacity="0.58" fill="none" />
  <rect x="76" y="78" width="1048" height="1444" rx="72" stroke="rgba(255,255,255,0.12)" stroke-width="2" />
</svg>