<?xml version="1.0" encoding="UTF-8"?>
<svg width="1200" height="1600" viewBox="0 0 1200 1600" fill="none" xmlns="http://www.w3.org/2000/svg">
  <defs>
    <linearGradient id="bg-0" x1="0" y1="0" x2="1200" y2="1600" gradientUnits="userSpaceOnUse">
      <stop stop-color="#ede5da" />
      <stop offset="0.54" stop-color="#baa58d" />
      <stop offset="1" stop-color="#1e1713" />
    </linearGradient>
    <linearGradient id="bg-soft-0" x1="1200" y1="0" x2="0" y2="1600" gradientUnits="userSpaceOnUse">
      <stop stop-color="#baa58d" />
      <stop offset="0.52" stop-color="#7d6754" />
      <stop offset="1" stop-color="#1e1713" />
    </linearGradient>
    <filter id="blur-0">
      <feGaussianBlur stdDeviation="24" />
    </filter>
  </defs>
  <rect width="1200" height="1600" fill="url(#bg-0)" />
  <rect x="0" y="0" width="1200" height="1600" fill="rgba(255,255,255,0.06)" />
  <circle cx="708" cy="340" r="248" fill="#7d6754" opacity="0.18" filter="url(#blur-0)" />
  <circle cx="667" cy="1320" r="268" fill="#baa58d" opacity="0.29" filter="url(#blur-0)" />
  <circle cx="426" cy="497" r="237" fill="#7d6754" opacity="0.30" filter="url(#blur-0)" />
  <circle cx="537" cy="764" r="276" fill="#baa58d" opacity="0.27" filter="url(#blur-0)" />
  <circle cx="806" cy="975" r="211" fill="#7d6754" opacity="0.18" filter="url(#blur-0)" />
  <rect x="1059" y="1298" width="145" height="38" rx="19" fill="#ede5da" opacity="0.19" transform="rotate(-26 1131.5 1317)" />
  <rect x="804" y="1152" width="189" height="26" rx="13" fill="#baa58d" opacity="0.26" transform="rotate(27 898.5 1165)" />
  <rect x="517" y="20" width="168" height="40" rx="20" fill="#1e1713" opacity="0.35" transform="rotate(0 601 40)" />
  <rect x="689" y="724" width="109" height="40" rx="20" fill="#ede5da" opacity="0.31" transform="rotate(-21 743.5 744)" />
  <rect x="359" y="802" width="177" height="47" rx="23.5" fill="#baa58d" opacity="0.24" transform="rotate(10 447.5 825.5)" />
  <rect x="437" y="909" width="202" height="36" rx="18" fill="#1e1713" opacity="0.23" transform="rotate(-9 538 927)" />
  <rect x="610" y="533" width="254" height="16" rx="8" fill="#ede5da" opacity="0.20" transform="rotate(-25 737 541)" />
  <rect x="256" y="1060" width="210" height="23" rx="11.5" fill="#baa58d" opacity="0.21" transform="rotate(20 361 1071.5)" />
  <path d="M 258 679 Q 420 515 147 201" stroke="#1e1713" stroke-width="18" stroke-linecap="round" opacity="0.35" fill="none" />
  <path d="M 363 1162 Q 824 796 538 621" stroke="#ede5da" stroke-width="24" stroke-linecap="round" opacity="0.52" fill="none" />
  <path d="M 312 818 Q 486 1097 869 790" stroke="#1e1713" stroke-width="30" stroke-linecap="round" opacity="0.39" fill="none" />
  <path d="M 116 871 Q 508 309 286 1139" stroke="#ede5da" stroke-width="36" stroke-linecap="round" opacity="0.57" fill="none" />
  <rect x="76" y="78" width="1048" height="1444" rx="72" stroke="rgba(255,255,255,0.12)" stroke-width="2" />
</svg>