<?xml version="1.0" encoding="UTF-8"?>
<svg width="1200" height="1600" viewBox="0 0 1200 1600" fill="none" xmlns="http://www.w3.org/2000/svg">
  <defs>
    <linearGradient id="bg-2" x1="0" y1="0" x2="1200" y2="1600" gradientUnits="userSpaceOnUse">
      <stop stop-color="#ede5da" />
      <stop offset="0.54" stop-color="#baa58d" />
      <stop offset="1" stop-color="#1e1713" />
    </linearGradient>
    <linearGradient id="bg-soft-2" x1="1200" y1="0" x2="0" y2="1600" gradientUnits="userSpaceOnUse">
      <stop stop-color="#baa58d" />
      <stop offset="0.52" stop-color="#7d6754" />
      <stop offset="1" stop-color="#1e1713" />
    </linearGradient>
    <filter id="blur-2">
      <feGaussianBlur stdDeviation="28" />
    </filter>
  </defs>
  <rect width="1200" height="1600" fill="url(#bg-2)" />
  <rect x="0" y="0" width="1200" height="1600" fill="rgba(255,255,255,0.06)" />
  <circle cx="310" cy="916" r="321" fill="#7d6754" opacity="0.13" filter="url(#blur-2)" />
  <circle cx="745" cy="499" r="213" fill="#baa58d" opacity="0.21" filter="url(#blur-2)" />
  <circle cx="449" cy="654" r="227" fill="#7d6754" opacity="0.20" filter="url(#blur-2)" />
  <circle cx="323" cy="612" r="126" fill="#baa58d" opacity="0.31" filter="url(#blur-2)" />
  <circle cx="376" cy="603" r="225" fill="#7d6754" opacity="0.30" filter="url(#blur-2)" />
  <rect x="664" y="218" width="165" height="12" rx="6" fill="#ede5da" opacity="0.30" transform="rotate(0 746.5 224)" />
  <rect x="231" y="146" width="297" height="38" rx="19" fill="#baa58d" opacity="0.36" transform="rotate(-30 379.5 165)" />
  <rect x="357" y="447" width="226" height="39" rx="19.5" fill="#1e1713" opacity="0.35" transform="rotate(-3 470 466.5)" />
  <rect x="903" y="858" width="87" height="14" rx="7" fill="#ede5da" opacity="0.38" transform="rotate(-27 946.5 865)" />
  <rect x="463" y="998" width="125" height="41" rx="20.5" fill="#baa58d" opacity="0.38" transform="rotate(-22 525.5 1018.5)" />
  <rect x="505" y="472" width="225" height="11" rx="5.5" fill="#1e1713" opacity="0.35" transform="rotate(24 617.5 477.5)" />
  <rect x="290" y="1020" width="92" height="25" rx="12.5" fill="#ede5da" opacity="0.29" transform="rotate(1 336 1032.5)" />
  <rect x="962" y="545" width="211" height="30" rx="15" fill="#baa58d" opacity="0.35" transform="rotate(23 1067.5 560)" />
  <path d="M 940 155 Q 118 218 831 899" stroke="#1e1713" stroke-width="18" stroke-linecap="round" opacity="0.39" fill="none" />
  <path d="M 165 756 Q 1087 341 469 685" stroke="#ede5da" stroke-width="24" stroke-linecap="round" opacity="0.55" fill="none" />
  <path d="M 824 166 Q 782 252 361 333" stroke="#1e1713" stroke-width="30" stroke-linecap="round" opacity="0.56" fill="none" />
  <path d="M 108 465 Q 126 993 398 754" stroke="#ede5da" stroke-width="36" stroke-linecap="round" opacity="0.56" fill="none" />
  <rect x="76" y="78" width="1048" height="1444" rx="72" stroke="rgba(255,255,255,0.12)" stroke-width="2" />
</svg>