<?xml version="1.0" encoding="UTF-8"?>
<svg width="1200" height="1600" viewBox="0 0 1200 1600" fill="none" xmlns="http://www.w3.org/2000/svg">
  <defs>
    <linearGradient id="bg-2" x1="0" y1="0" x2="1200" y2="1600" gradientUnits="userSpaceOnUse">
      <stop stop-color="#ede5da" />
      <stop offset="0.54" stop-color="#baa58d" />
      <stop offset="1" stop-color="#1e1713" />
    </linearGradient>
    <linearGradient id="bg-soft-2" x1="1200" y1="0" x2="0" y2="1600" gradientUnits="userSpaceOnUse">
      <stop stop-color="#baa58d" />
      <stop offset="0.52" stop-color="#7d6754" />
      <stop offset="1" stop-color="#1e1713" />
    </linearGradient>
    <filter id="blur-2">
      <feGaussianBlur stdDeviation="28" />
    </filter>
  </defs>
  <rect width="1200" height="1600" fill="url(#bg-2)" />
  <rect x="0" y="0" width="1200" height="1600" fill="rgba(255,255,255,0.06)" />
  <circle cx="616" cy="334" r="296" fill="#7d6754" opacity="0.24" filter="url(#blur-2)" />
  <circle cx="876" cy="1399" r="129" fill="#baa58d" opacity="0.34" filter="url(#blur-2)" />
  <circle cx="1016" cy="320" r="199" fill="#7d6754" opacity="0.25" filter="url(#blur-2)" />
  <circle cx="594" cy="1108" r="184" fill="#baa58d" opacity="0.17" filter="url(#blur-2)" />
  <circle cx="368" cy="717" r="350" fill="#7d6754" opacity="0.17" filter="url(#blur-2)" />
  <rect x="321" y="22" width="158" height="23" rx="11.5" fill="#ede5da" opacity="0.22" transform="rotate(-31 400 33.5)" />
  <rect x="728" y="103" width="305" height="26" rx="13" fill="#baa58d" opacity="0.34" transform="rotate(2 880.5 116)" />
  <rect x="305" y="873" width="314" height="11" rx="5.5" fill="#1e1713" opacity="0.28" transform="rotate(-18 462 878.5)" />
  <rect x="318" y="837" width="301" height="46" rx="23" fill="#ede5da" opacity="0.26" transform="rotate(10 468.5 860)" />
  <rect x="987" y="1243" width="313" height="33" rx="16.5" fill="#baa58d" opacity="0.21" transform="rotate(0 1143.5 1259.5)" />
  <rect x="1043" y="386" width="180" height="37" rx="18.5" fill="#1e1713" opacity="0.24" transform="rotate(1 1133 404.5)" />
  <rect x="1031" y="200" width="89" height="21" rx="10.5" fill="#ede5da" opacity="0.37" transform="rotate(29 1075.5 210.5)" />
  <rect x="154" y="68" width="189" height="49" rx="24.5" fill="#baa58d" opacity="0.20" transform="rotate(-7 248.5 92.5)" />
  <path d="M 985 586 Q 470 401 989 383" stroke="#1e1713" stroke-width="18" stroke-linecap="round" opacity="0.48" fill="none" />
  <path d="M 976 124 Q 306 1051 173 729" stroke="#ede5da" stroke-width="24" stroke-linecap="round" opacity="0.41" fill="none" />
  <path d="M 484 822 Q 830 628 490 639" stroke="#1e1713" stroke-width="30" stroke-linecap="round" opacity="0.43" fill="none" />
  <path d="M 837 435 Q 1094 527 259 567" stroke="#ede5da" stroke-width="36" stroke-linecap="round" opacity="0.53" fill="none" />
  <rect x="76" y="78" width="1048" height="1444" rx="72" stroke="rgba(255,255,255,0.12)" stroke-width="2" />
</svg>