<?xml version="1.0" encoding="UTF-8"?>
<svg width="1200" height="1600" viewBox="0 0 1200 1600" fill="none" xmlns="http://www.w3.org/2000/svg">
  <defs>
    <linearGradient id="bg-0" x1="0" y1="0" x2="1200" y2="1600" gradientUnits="userSpaceOnUse">
      <stop stop-color="#ede5da" />
      <stop offset="0.54" stop-color="#baa58d" />
      <stop offset="1" stop-color="#1e1713" />
    </linearGradient>
    <linearGradient id="bg-soft-0" x1="1200" y1="0" x2="0" y2="1600" gradientUnits="userSpaceOnUse">
      <stop stop-color="#baa58d" />
      <stop offset="0.52" stop-color="#7d6754" />
      <stop offset="1" stop-color="#1e1713" />
    </linearGradient>
    <filter id="blur-0">
      <feGaussianBlur stdDeviation="24" />
    </filter>
  </defs>
  <rect width="1200" height="1600" fill="url(#bg-0)" />
  <rect x="0" y="0" width="1200" height="1600" fill="rgba(255,255,255,0.06)" />
  <circle cx="174" cy="1193" r="143" fill="#7d6754" opacity="0.19" filter="url(#blur-0)" />
  <circle cx="431" cy="1053" r="193" fill="#baa58d" opacity="0.15" filter="url(#blur-0)" />
  <circle cx="887" cy="196" r="130" fill="#7d6754" opacity="0.34" filter="url(#blur-0)" />
  <circle cx="483" cy="537" r="320" fill="#baa58d" opacity="0.25" filter="url(#blur-0)" />
  <circle cx="484" cy="1119" r="179" fill="#7d6754" opacity="0.13" filter="url(#blur-0)" />
  <rect x="386" y="355" width="165" height="15" rx="7.5" fill="#ede5da" opacity="0.21" transform="rotate(-26 468.5 362.5)" />
  <rect x="868" y="360" width="121" height="14" rx="7" fill="#baa58d" opacity="0.26" transform="rotate(-29 928.5 367)" />
  <rect x="531" y="767" width="227" height="15" rx="7.5" fill="#1e1713" opacity="0.22" transform="rotate(-27 644.5 774.5)" />
  <rect x="627" y="1171" width="261" height="11" rx="5.5" fill="#ede5da" opacity="0.28" transform="rotate(6 757.5 1176.5)" />
  <rect x="109" y="382" width="99" height="45" rx="22.5" fill="#baa58d" opacity="0.33" transform="rotate(8 158.5 404.5)" />
  <rect x="402" y="877" width="281" height="20" rx="10" fill="#1e1713" opacity="0.31" transform="rotate(-26 542.5 887)" />
  <rect x="956" y="984" width="143" height="26" rx="13" fill="#ede5da" opacity="0.33" transform="rotate(-28 1027.5 997)" />
  <rect x="90" y="400" width="85" height="14" rx="7" fill="#baa58d" opacity="0.22" transform="rotate(22 132.5 407)" />
  <path d="M 415 915 Q 789 522 982 482" stroke="#1e1713" stroke-width="18" stroke-linecap="round" opacity="0.51" fill="none" />
  <path d="M 622 849 Q 521 165 116 1081" stroke="#ede5da" stroke-width="24" stroke-linecap="round" opacity="0.40" fill="none" />
  <path d="M 598 1036 Q 945 901 139 641" stroke="#1e1713" stroke-width="30" stroke-linecap="round" opacity="0.35" fill="none" />
  <path d="M 1057 529 Q 1094 892 285 1102" stroke="#ede5da" stroke-width="36" stroke-linecap="round" opacity="0.36" fill="none" />
  <rect x="76" y="78" width="1048" height="1444" rx="72" stroke="rgba(255,255,255,0.12)" stroke-width="2" />
</svg>