<?xml version="1.0" encoding="UTF-8"?>
<svg width="1200" height="1600" viewBox="0 0 1200 1600" fill="none" xmlns="http://www.w3.org/2000/svg">
  <defs>
    <linearGradient id="bg-2" x1="0" y1="0" x2="1200" y2="1600" gradientUnits="userSpaceOnUse">
      <stop stop-color="#ede5da" />
      <stop offset="0.54" stop-color="#baa58d" />
      <stop offset="1" stop-color="#1e1713" />
    </linearGradient>
    <linearGradient id="bg-soft-2" x1="1200" y1="0" x2="0" y2="1600" gradientUnits="userSpaceOnUse">
      <stop stop-color="#baa58d" />
      <stop offset="0.52" stop-color="#7d6754" />
      <stop offset="1" stop-color="#1e1713" />
    </linearGradient>
    <filter id="blur-2">
      <feGaussianBlur stdDeviation="28" />
    </filter>
  </defs>
  <rect width="1200" height="1600" fill="url(#bg-2)" />
  <rect x="0" y="0" width="1200" height="1600" fill="rgba(255,255,255,0.06)" />
  <circle cx="467" cy="949" r="152" fill="#7d6754" opacity="0.33" filter="url(#blur-2)" />
  <circle cx="350" cy="1225" r="310" fill="#baa58d" opacity="0.24" filter="url(#blur-2)" />
  <circle cx="338" cy="1349" r="260" fill="#7d6754" opacity="0.14" filter="url(#blur-2)" />
  <circle cx="512" cy="1097" r="257" fill="#baa58d" opacity="0.34" filter="url(#blur-2)" />
  <circle cx="592" cy="969" r="135" fill="#7d6754" opacity="0.31" filter="url(#blur-2)" />
  <rect x="372" y="1108" width="169" height="13" rx="6.5" fill="#ede5da" opacity="0.23" transform="rotate(-12 456.5 1114.5)" />
  <rect x="406" y="803" width="297" height="27" rx="13.5" fill="#baa58d" opacity="0.37" transform="rotate(-14 554.5 816.5)" />
  <rect x="631" y="227" width="286" height="15" rx="7.5" fill="#1e1713" opacity="0.25" transform="rotate(-8 774 234.5)" />
  <rect x="677" y="649" width="240" height="24" rx="12" fill="#ede5da" opacity="0.28" transform="rotate(-9 797 661)" />
  <rect x="331" y="167" width="163" height="35" rx="17.5" fill="#baa58d" opacity="0.35" transform="rotate(-22 412.5 184.5)" />
  <rect x="1017" y="380" width="259" height="34" rx="17" fill="#1e1713" opacity="0.33" transform="rotate(-30 1146.5 397)" />
  <rect x="956" y="1211" width="309" height="30" rx="15" fill="#ede5da" opacity="0.31" transform="rotate(7 1110.5 1226)" />
  <rect x="146" y="1275" width="202" height="26" rx="13" fill="#baa58d" opacity="0.20" transform="rotate(-27 247 1288)" />
  <path d="M 237 1033 Q 865 287 123 617" stroke="#1e1713" stroke-width="18" stroke-linecap="round" opacity="0.43" fill="none" />
  <path d="M 1044 455 Q 253 475 684 366" stroke="#ede5da" stroke-width="24" stroke-linecap="round" opacity="0.40" fill="none" />
  <path d="M 446 286 Q 570 523 990 195" stroke="#1e1713" stroke-width="30" stroke-linecap="round" opacity="0.58" fill="none" />
  <path d="M 266 105 Q 296 323 410 717" stroke="#ede5da" stroke-width="36" stroke-linecap="round" opacity="0.42" fill="none" />
  <rect x="76" y="78" width="1048" height="1444" rx="72" stroke="rgba(255,255,255,0.12)" stroke-width="2" />
</svg>