<?xml version="1.0" encoding="UTF-8"?>
<svg width="1200" height="1600" viewBox="0 0 1200 1600" fill="none" xmlns="http://www.w3.org/2000/svg">
  <defs>
    <linearGradient id="bg-0" x1="0" y1="0" x2="1200" y2="1600" gradientUnits="userSpaceOnUse">
      <stop stop-color="#ede5da" />
      <stop offset="0.54" stop-color="#baa58d" />
      <stop offset="1" stop-color="#1e1713" />
    </linearGradient>
    <linearGradient id="bg-soft-0" x1="1200" y1="0" x2="0" y2="1600" gradientUnits="userSpaceOnUse">
      <stop stop-color="#baa58d" />
      <stop offset="0.52" stop-color="#7d6754" />
      <stop offset="1" stop-color="#1e1713" />
    </linearGradient>
    <filter id="blur-0">
      <feGaussianBlur stdDeviation="24" />
    </filter>
  </defs>
  <rect width="1200" height="1600" fill="url(#bg-0)" />
  <rect x="0" y="0" width="1200" height="1600" fill="rgba(255,255,255,0.06)" />
  <circle cx="554" cy="421" r="154" fill="#7d6754" opacity="0.16" filter="url(#blur-0)" />
  <circle cx="984" cy="705" r="229" fill="#baa58d" opacity="0.25" filter="url(#blur-0)" />
  <circle cx="1019" cy="1011" r="158" fill="#7d6754" opacity="0.30" filter="url(#blur-0)" />
  <circle cx="200" cy="788" r="326" fill="#baa58d" opacity="0.34" filter="url(#blur-0)" />
  <circle cx="351" cy="927" r="226" fill="#7d6754" opacity="0.27" filter="url(#blur-0)" />
  <rect x="672" y="111" width="174" height="38" rx="19" fill="#ede5da" opacity="0.22" transform="rotate(-8 759 130)" />
  <rect x="586" y="872" width="167" height="39" rx="19.5" fill="#baa58d" opacity="0.20" transform="rotate(11 669.5 891.5)" />
  <rect x="774" y="401" width="89" height="23" rx="11.5" fill="#1e1713" opacity="0.31" transform="rotate(14 818.5 412.5)" />
  <rect x="736" y="570" width="103" height="21" rx="10.5" fill="#ede5da" opacity="0.34" transform="rotate(-29 787.5 580.5)" />
  <rect x="637" y="1035" width="93" height="31" rx="15.5" fill="#baa58d" opacity="0.20" transform="rotate(3 683.5 1050.5)" />
  <rect x="1001" y="798" width="239" height="32" rx="16" fill="#1e1713" opacity="0.28" transform="rotate(2 1120.5 814)" />
  <rect x="429" y="1204" width="273" height="51" rx="25.5" fill="#ede5da" opacity="0.34" transform="rotate(-35 565.5 1229.5)" />
  <rect x="815" y="653" width="289" height="17" rx="8.5" fill="#baa58d" opacity="0.24" transform="rotate(13 959.5 661.5)" />
  <path d="M 585 1249 Q 218 478 708 952" stroke="#1e1713" stroke-width="18" stroke-linecap="round" opacity="0.38" fill="none" />
  <path d="M 692 890 Q 889 1001 332 152" stroke="#ede5da" stroke-width="24" stroke-linecap="round" opacity="0.56" fill="none" />
  <path d="M 849 1108 Q 1093 762 226 1101" stroke="#1e1713" stroke-width="30" stroke-linecap="round" opacity="0.50" fill="none" />
  <path d="M 788 817 Q 151 724 635 1194" stroke="#ede5da" stroke-width="36" stroke-linecap="round" opacity="0.59" fill="none" />
  <rect x="76" y="78" width="1048" height="1444" rx="72" stroke="rgba(255,255,255,0.12)" stroke-width="2" />
</svg>