<?xml version="1.0" encoding="UTF-8"?>
<svg width="1200" height="1600" viewBox="0 0 1200 1600" fill="none" xmlns="http://www.w3.org/2000/svg">
  <defs>
    <linearGradient id="bg-1" x1="0" y1="0" x2="1200" y2="1600" gradientUnits="userSpaceOnUse">
      <stop stop-color="#ede5da" />
      <stop offset="0.54" stop-color="#baa58d" />
      <stop offset="1" stop-color="#1e1713" />
    </linearGradient>
    <linearGradient id="bg-soft-1" x1="1200" y1="0" x2="0" y2="1600" gradientUnits="userSpaceOnUse">
      <stop stop-color="#baa58d" />
      <stop offset="0.52" stop-color="#7d6754" />
      <stop offset="1" stop-color="#1e1713" />
    </linearGradient>
    <filter id="blur-1">
      <feGaussianBlur stdDeviation="26" />
    </filter>
  </defs>
  <rect width="1200" height="1600" fill="url(#bg-soft-1)" />
  <rect x="0" y="0" width="1200" height="1600" fill="rgba(255,255,255,0.06)" />
  <circle cx="710" cy="1098" r="249" fill="#7d6754" opacity="0.34" filter="url(#blur-1)" />
  <circle cx="922" cy="221" r="296" fill="#baa58d" opacity="0.19" filter="url(#blur-1)" />
  <circle cx="801" cy="569" r="365" fill="#7d6754" opacity="0.28" filter="url(#blur-1)" />
  <circle cx="633" cy="337" r="129" fill="#baa58d" opacity="0.20" filter="url(#blur-1)" />
  <circle cx="303" cy="1421" r="129" fill="#7d6754" opacity="0.12" filter="url(#blur-1)" />
  <rect x="515" y="721" width="270" height="27" rx="13.5" fill="#ede5da" opacity="0.24" transform="rotate(-17 650 734.5)" />
  <rect x="623" y="565" width="312" height="31" rx="15.5" fill="#baa58d" opacity="0.23" transform="rotate(0 779 580.5)" />
  <rect x="67" y="1204" width="224" height="45" rx="22.5" fill="#1e1713" opacity="0.23" transform="rotate(14 179 1226.5)" />
  <rect x="528" y="961" width="245" height="41" rx="20.5" fill="#ede5da" opacity="0.19" transform="rotate(24 650.5 981.5)" />
  <rect x="80" y="1214" width="118" height="48" rx="24" fill="#baa58d" opacity="0.21" transform="rotate(-8 139 1238)" />
  <rect x="887" y="37" width="221" height="14" rx="7" fill="#1e1713" opacity="0.35" transform="rotate(9 997.5 44)" />
  <rect x="29" y="693" width="270" height="32" rx="16" fill="#ede5da" opacity="0.31" transform="rotate(19 164 709)" />
  <rect x="328" y="623" width="135" height="26" rx="13" fill="#baa58d" opacity="0.32" transform="rotate(31 395.5 636)" />
  <path d="M 742 1209 Q 365 512 508 951" stroke="#1e1713" stroke-width="18" stroke-linecap="round" opacity="0.59" fill="none" />
  <path d="M 243 633 Q 815 149 896 959" stroke="#ede5da" stroke-width="24" stroke-linecap="round" opacity="0.48" fill="none" />
  <path d="M 790 603 Q 762 562 980 723" stroke="#1e1713" stroke-width="30" stroke-linecap="round" opacity="0.42" fill="none" />
  <path d="M 718 1080 Q 1028 1294 134 439" stroke="#ede5da" stroke-width="36" stroke-linecap="round" opacity="0.44" fill="none" />
  <rect x="76" y="78" width="1048" height="1444" rx="72" stroke="rgba(255,255,255,0.12)" stroke-width="2" />
</svg>