<?xml version="1.0" encoding="UTF-8"?>
<svg width="1200" height="1600" viewBox="0 0 1200 1600" fill="none" xmlns="http://www.w3.org/2000/svg">
  <defs>
    <linearGradient id="bg-0" x1="0" y1="0" x2="1200" y2="1600" gradientUnits="userSpaceOnUse">
      <stop stop-color="#ede5da" />
      <stop offset="0.54" stop-color="#baa58d" />
      <stop offset="1" stop-color="#1e1713" />
    </linearGradient>
    <linearGradient id="bg-soft-0" x1="1200" y1="0" x2="0" y2="1600" gradientUnits="userSpaceOnUse">
      <stop stop-color="#baa58d" />
      <stop offset="0.52" stop-color="#7d6754" />
      <stop offset="1" stop-color="#1e1713" />
    </linearGradient>
    <filter id="blur-0">
      <feGaussianBlur stdDeviation="24" />
    </filter>
  </defs>
  <rect width="1200" height="1600" fill="url(#bg-0)" />
  <rect x="0" y="0" width="1200" height="1600" fill="rgba(255,255,255,0.06)" />
  <circle cx="928" cy="490" r="133" fill="#7d6754" opacity="0.20" filter="url(#blur-0)" />
  <circle cx="285" cy="1319" r="129" fill="#baa58d" opacity="0.25" filter="url(#blur-0)" />
  <circle cx="751" cy="1211" r="175" fill="#7d6754" opacity="0.13" filter="url(#blur-0)" />
  <circle cx="605" cy="1365" r="371" fill="#baa58d" opacity="0.19" filter="url(#blur-0)" />
  <circle cx="971" cy="975" r="259" fill="#7d6754" opacity="0.27" filter="url(#blur-0)" />
  <rect x="1025" y="527" width="236" height="11" rx="5.5" fill="#ede5da" opacity="0.24" transform="rotate(-24 1143 532.5)" />
  <rect x="252" y="139" width="176" height="22" rx="11" fill="#baa58d" opacity="0.19" transform="rotate(-34 340 150)" />
  <rect x="169" y="1255" width="183" height="16" rx="8" fill="#1e1713" opacity="0.21" transform="rotate(6 260.5 1263)" />
  <rect x="845" y="1093" width="95" height="44" rx="22" fill="#ede5da" opacity="0.36" transform="rotate(-8 892.5 1115)" />
  <rect x="1064" y="1004" width="265" height="24" rx="12" fill="#baa58d" opacity="0.31" transform="rotate(-13 1196.5 1016)" />
  <rect x="637" y="183" width="216" height="22" rx="11" fill="#1e1713" opacity="0.32" transform="rotate(1 745 194)" />
  <rect x="94" y="156" width="149" height="36" rx="18" fill="#ede5da" opacity="0.31" transform="rotate(11 168.5 174)" />
  <rect x="665" y="659" width="162" height="18" rx="9" fill="#baa58d" opacity="0.34" transform="rotate(30 746 668)" />
  <path d="M 322 100 Q 135 167 358 934" stroke="#1e1713" stroke-width="18" stroke-linecap="round" opacity="0.59" fill="none" />
  <path d="M 1062 292 Q 307 334 828 614" stroke="#ede5da" stroke-width="24" stroke-linecap="round" opacity="0.53" fill="none" />
  <path d="M 332 888 Q 881 913 613 417" stroke="#1e1713" stroke-width="30" stroke-linecap="round" opacity="0.54" fill="none" />
  <path d="M 651 215 Q 1090 737 876 152" stroke="#ede5da" stroke-width="36" stroke-linecap="round" opacity="0.40" fill="none" />
  <rect x="76" y="78" width="1048" height="1444" rx="72" stroke="rgba(255,255,255,0.12)" stroke-width="2" />
</svg>