<?xml version="1.0" encoding="UTF-8"?>
<svg width="1200" height="1600" viewBox="0 0 1200 1600" fill="none" xmlns="http://www.w3.org/2000/svg">
  <defs>
    <linearGradient id="bg-2" x1="0" y1="0" x2="1200" y2="1600" gradientUnits="userSpaceOnUse">
      <stop stop-color="#ede5da" />
      <stop offset="0.54" stop-color="#baa58d" />
      <stop offset="1" stop-color="#1e1713" />
    </linearGradient>
    <linearGradient id="bg-soft-2" x1="1200" y1="0" x2="0" y2="1600" gradientUnits="userSpaceOnUse">
      <stop stop-color="#baa58d" />
      <stop offset="0.52" stop-color="#7d6754" />
      <stop offset="1" stop-color="#1e1713" />
    </linearGradient>
    <filter id="blur-2">
      <feGaussianBlur stdDeviation="28" />
    </filter>
  </defs>
  <rect width="1200" height="1600" fill="url(#bg-2)" />
  <rect x="0" y="0" width="1200" height="1600" fill="rgba(255,255,255,0.06)" />
  <circle cx="1016" cy="1367" r="115" fill="#7d6754" opacity="0.29" filter="url(#blur-2)" />
  <circle cx="867" cy="658" r="114" fill="#baa58d" opacity="0.29" filter="url(#blur-2)" />
  <circle cx="441" cy="1295" r="249" fill="#7d6754" opacity="0.29" filter="url(#blur-2)" />
  <circle cx="957" cy="528" r="147" fill="#baa58d" opacity="0.27" filter="url(#blur-2)" />
  <circle cx="683" cy="583" r="158" fill="#7d6754" opacity="0.13" filter="url(#blur-2)" />
  <rect x="101" y="542" width="305" height="40" rx="20" fill="#ede5da" opacity="0.33" transform="rotate(-4 253.5 562)" />
  <rect x="230" y="1337" width="249" height="35" rx="17.5" fill="#baa58d" opacity="0.35" transform="rotate(-32 354.5 1354.5)" />
  <rect x="437" y="762" width="97" height="15" rx="7.5" fill="#1e1713" opacity="0.31" transform="rotate(31 485.5 769.5)" />
  <rect x="985" y="770" width="240" height="40" rx="20" fill="#ede5da" opacity="0.30" transform="rotate(-18 1105 790)" />
  <rect x="192" y="82" width="304" height="37" rx="18.5" fill="#baa58d" opacity="0.36" transform="rotate(25 344 100.5)" />
  <rect x="1030" y="705" width="135" height="27" rx="13.5" fill="#1e1713" opacity="0.23" transform="rotate(17 1097.5 718.5)" />
  <rect x="62" y="553" width="251" height="49" rx="24.5" fill="#ede5da" opacity="0.35" transform="rotate(-27 187.5 577.5)" />
  <rect x="1027" y="329" width="95" height="35" rx="17.5" fill="#baa58d" opacity="0.38" transform="rotate(3 1074.5 346.5)" />
  <path d="M 189 363 Q 879 905 311 418" stroke="#1e1713" stroke-width="18" stroke-linecap="round" opacity="0.51" fill="none" />
  <path d="M 707 919 Q 521 196 367 736" stroke="#ede5da" stroke-width="24" stroke-linecap="round" opacity="0.51" fill="none" />
  <path d="M 1094 1101 Q 326 591 511 1175" stroke="#1e1713" stroke-width="30" stroke-linecap="round" opacity="0.55" fill="none" />
  <path d="M 152 618 Q 714 991 174 835" stroke="#ede5da" stroke-width="36" stroke-linecap="round" opacity="0.43" fill="none" />
  <rect x="76" y="78" width="1048" height="1444" rx="72" stroke="rgba(255,255,255,0.12)" stroke-width="2" />
</svg>