<?xml version="1.0" encoding="UTF-8"?>
<svg width="1200" height="1600" viewBox="0 0 1200 1600" fill="none" xmlns="http://www.w3.org/2000/svg">
  <defs>
    <linearGradient id="bg-1" x1="0" y1="0" x2="1200" y2="1600" gradientUnits="userSpaceOnUse">
      <stop stop-color="#ede5da" />
      <stop offset="0.54" stop-color="#baa58d" />
      <stop offset="1" stop-color="#1e1713" />
    </linearGradient>
    <linearGradient id="bg-soft-1" x1="1200" y1="0" x2="0" y2="1600" gradientUnits="userSpaceOnUse">
      <stop stop-color="#baa58d" />
      <stop offset="0.52" stop-color="#7d6754" />
      <stop offset="1" stop-color="#1e1713" />
    </linearGradient>
    <filter id="blur-1">
      <feGaussianBlur stdDeviation="26" />
    </filter>
  </defs>
  <rect width="1200" height="1600" fill="url(#bg-soft-1)" />
  <rect x="0" y="0" width="1200" height="1600" fill="rgba(255,255,255,0.06)" />
  <circle cx="509" cy="728" r="149" fill="#7d6754" opacity="0.34" filter="url(#blur-1)" />
  <circle cx="497" cy="837" r="331" fill="#baa58d" opacity="0.29" filter="url(#blur-1)" />
  <circle cx="523" cy="865" r="306" fill="#7d6754" opacity="0.24" filter="url(#blur-1)" />
  <circle cx="1059" cy="1335" r="386" fill="#baa58d" opacity="0.31" filter="url(#blur-1)" />
  <circle cx="455" cy="522" r="118" fill="#7d6754" opacity="0.13" filter="url(#blur-1)" />
  <rect x="1000" y="1038" width="231" height="48" rx="24" fill="#ede5da" opacity="0.34" transform="rotate(-13 1115.5 1062)" />
  <rect x="22" y="702" width="200" height="27" rx="13.5" fill="#baa58d" opacity="0.35" transform="rotate(29 122 715.5)" />
  <rect x="517" y="1170" width="116" height="48" rx="24" fill="#1e1713" opacity="0.36" transform="rotate(-24 575 1194)" />
  <rect x="747" y="970" width="248" height="32" rx="16" fill="#ede5da" opacity="0.25" transform="rotate(12 871 986)" />
  <rect x="64" y="827" width="97" height="39" rx="19.5" fill="#baa58d" opacity="0.33" transform="rotate(14 112.5 846.5)" />
  <rect x="1060" y="333" width="303" height="51" rx="25.5" fill="#1e1713" opacity="0.36" transform="rotate(-34 1211.5 358.5)" />
  <rect x="380" y="22" width="130" height="17" rx="8.5" fill="#ede5da" opacity="0.32" transform="rotate(16 445 30.5)" />
  <rect x="479" y="552" width="90" height="11" rx="5.5" fill="#baa58d" opacity="0.26" transform="rotate(-7 524 557.5)" />
  <path d="M 701 1170 Q 591 293 997 978" stroke="#1e1713" stroke-width="18" stroke-linecap="round" opacity="0.43" fill="none" />
  <path d="M 718 185 Q 366 463 428 1165" stroke="#ede5da" stroke-width="24" stroke-linecap="round" opacity="0.36" fill="none" />
  <path d="M 1028 187 Q 663 1074 677 669" stroke="#1e1713" stroke-width="30" stroke-linecap="round" opacity="0.44" fill="none" />
  <path d="M 685 749 Q 357 686 875 133" stroke="#ede5da" stroke-width="36" stroke-linecap="round" opacity="0.55" fill="none" />
  <rect x="76" y="78" width="1048" height="1444" rx="72" stroke="rgba(255,255,255,0.12)" stroke-width="2" />
</svg>