<?xml version="1.0" encoding="UTF-8"?>
<svg width="1200" height="1600" viewBox="0 0 1200 1600" fill="none" xmlns="http://www.w3.org/2000/svg">
  <defs>
    <linearGradient id="bg-0" x1="0" y1="0" x2="1200" y2="1600" gradientUnits="userSpaceOnUse">
      <stop stop-color="#ede5da" />
      <stop offset="0.54" stop-color="#baa58d" />
      <stop offset="1" stop-color="#1e1713" />
    </linearGradient>
    <linearGradient id="bg-soft-0" x1="1200" y1="0" x2="0" y2="1600" gradientUnits="userSpaceOnUse">
      <stop stop-color="#baa58d" />
      <stop offset="0.52" stop-color="#7d6754" />
      <stop offset="1" stop-color="#1e1713" />
    </linearGradient>
    <filter id="blur-0">
      <feGaussianBlur stdDeviation="24" />
    </filter>
  </defs>
  <rect width="1200" height="1600" fill="url(#bg-0)" />
  <rect x="0" y="0" width="1200" height="1600" fill="rgba(255,255,255,0.06)" />
  <circle cx="651" cy="642" r="122" fill="#7d6754" opacity="0.13" filter="url(#blur-0)" />
  <circle cx="910" cy="1366" r="220" fill="#baa58d" opacity="0.21" filter="url(#blur-0)" />
  <circle cx="316" cy="1408" r="303" fill="#7d6754" opacity="0.24" filter="url(#blur-0)" />
  <circle cx="839" cy="182" r="262" fill="#baa58d" opacity="0.19" filter="url(#blur-0)" />
  <circle cx="991" cy="1193" r="359" fill="#7d6754" opacity="0.33" filter="url(#blur-0)" />
  <rect x="1007" y="876" width="106" height="43" rx="21.5" fill="#ede5da" opacity="0.26" transform="rotate(11 1060 897.5)" />
  <rect x="1063" y="1157" width="85" height="37" rx="18.5" fill="#baa58d" opacity="0.29" transform="rotate(17 1105.5 1175.5)" />
  <rect x="204" y="538" width="218" height="52" rx="26" fill="#1e1713" opacity="0.35" transform="rotate(25 313 564)" />
  <rect x="1069" y="894" width="298" height="25" rx="12.5" fill="#ede5da" opacity="0.36" transform="rotate(-30 1218 906.5)" />
  <rect x="941" y="94" width="261" height="10" rx="5" fill="#baa58d" opacity="0.32" transform="rotate(31 1071.5 99)" />
  <rect x="378" y="1034" width="313" height="26" rx="13" fill="#1e1713" opacity="0.23" transform="rotate(15 534.5 1047)" />
  <rect x="92" y="162" width="253" height="16" rx="8" fill="#ede5da" opacity="0.27" transform="rotate(-27 218.5 170)" />
  <rect x="372" y="273" width="91" height="28" rx="14" fill="#baa58d" opacity="0.18" transform="rotate(19 417.5 287)" />
  <path d="M 280 164 Q 569 1128 1039 383" stroke="#1e1713" stroke-width="18" stroke-linecap="round" opacity="0.58" fill="none" />
  <path d="M 707 285 Q 512 742 807 399" stroke="#ede5da" stroke-width="24" stroke-linecap="round" opacity="0.44" fill="none" />
  <path d="M 746 979 Q 1064 627 732 149" stroke="#1e1713" stroke-width="30" stroke-linecap="round" opacity="0.38" fill="none" />
  <path d="M 425 312 Q 221 379 776 1097" stroke="#ede5da" stroke-width="36" stroke-linecap="round" opacity="0.53" fill="none" />
  <rect x="76" y="78" width="1048" height="1444" rx="72" stroke="rgba(255,255,255,0.12)" stroke-width="2" />
</svg>