<?xml version="1.0" encoding="UTF-8"?>
<svg width="1200" height="1600" viewBox="0 0 1200 1600" fill="none" xmlns="http://www.w3.org/2000/svg">
  <defs>
    <linearGradient id="bg-2" x1="0" y1="0" x2="1200" y2="1600" gradientUnits="userSpaceOnUse">
      <stop stop-color="#ede5da" />
      <stop offset="0.54" stop-color="#baa58d" />
      <stop offset="1" stop-color="#1e1713" />
    </linearGradient>
    <linearGradient id="bg-soft-2" x1="1200" y1="0" x2="0" y2="1600" gradientUnits="userSpaceOnUse">
      <stop stop-color="#baa58d" />
      <stop offset="0.52" stop-color="#7d6754" />
      <stop offset="1" stop-color="#1e1713" />
    </linearGradient>
    <filter id="blur-2">
      <feGaussianBlur stdDeviation="28" />
    </filter>
  </defs>
  <rect width="1200" height="1600" fill="url(#bg-2)" />
  <rect x="0" y="0" width="1200" height="1600" fill="rgba(255,255,255,0.06)" />
  <circle cx="846" cy="803" r="371" fill="#7d6754" opacity="0.21" filter="url(#blur-2)" />
  <circle cx="1076" cy="508" r="307" fill="#baa58d" opacity="0.34" filter="url(#blur-2)" />
  <circle cx="537" cy="469" r="276" fill="#7d6754" opacity="0.29" filter="url(#blur-2)" />
  <circle cx="608" cy="1435" r="189" fill="#baa58d" opacity="0.18" filter="url(#blur-2)" />
  <circle cx="875" cy="1372" r="302" fill="#7d6754" opacity="0.32" filter="url(#blur-2)" />
  <rect x="366" y="1144" width="226" height="28" rx="14" fill="#ede5da" opacity="0.31" transform="rotate(1 479 1158)" />
  <rect x="609" y="327" width="194" height="42" rx="21" fill="#baa58d" opacity="0.36" transform="rotate(-11 706 348)" />
  <rect x="960" y="1069" width="320" height="50" rx="25" fill="#1e1713" opacity="0.30" transform="rotate(-14 1120 1094)" />
  <rect x="335" y="1383" width="105" height="10" rx="5" fill="#ede5da" opacity="0.30" transform="rotate(-34 387.5 1388)" />
  <rect x="117" y="1185" width="275" height="30" rx="15" fill="#baa58d" opacity="0.32" transform="rotate(14 254.5 1200)" />
  <rect x="860" y="139" width="141" height="32" rx="16" fill="#1e1713" opacity="0.22" transform="rotate(-13 930.5 155)" />
  <rect x="643" y="972" width="147" height="11" rx="5.5" fill="#ede5da" opacity="0.34" transform="rotate(-3 716.5 977.5)" />
  <rect x="224" y="295" width="256" height="14" rx="7" fill="#baa58d" opacity="0.35" transform="rotate(-9 352 302)" />
  <path d="M 323 854 Q 250 500 258 1079" stroke="#1e1713" stroke-width="18" stroke-linecap="round" opacity="0.48" fill="none" />
  <path d="M 1046 946 Q 833 318 219 1136" stroke="#ede5da" stroke-width="24" stroke-linecap="round" opacity="0.47" fill="none" />
  <path d="M 1099 1291 Q 821 106 1086 1016" stroke="#1e1713" stroke-width="30" stroke-linecap="round" opacity="0.57" fill="none" />
  <path d="M 145 932 Q 929 612 888 904" stroke="#ede5da" stroke-width="36" stroke-linecap="round" opacity="0.42" fill="none" />
  <rect x="76" y="78" width="1048" height="1444" rx="72" stroke="rgba(255,255,255,0.12)" stroke-width="2" />
</svg>