<?xml version="1.0" encoding="UTF-8"?>
<svg width="1200" height="1600" viewBox="0 0 1200 1600" fill="none" xmlns="http://www.w3.org/2000/svg">
  <defs>
    <linearGradient id="bg-2" x1="0" y1="0" x2="1200" y2="1600" gradientUnits="userSpaceOnUse">
      <stop stop-color="#ede5da" />
      <stop offset="0.54" stop-color="#baa58d" />
      <stop offset="1" stop-color="#1e1713" />
    </linearGradient>
    <linearGradient id="bg-soft-2" x1="1200" y1="0" x2="0" y2="1600" gradientUnits="userSpaceOnUse">
      <stop stop-color="#baa58d" />
      <stop offset="0.52" stop-color="#7d6754" />
      <stop offset="1" stop-color="#1e1713" />
    </linearGradient>
    <filter id="blur-2">
      <feGaussianBlur stdDeviation="28" />
    </filter>
  </defs>
  <rect width="1200" height="1600" fill="url(#bg-2)" />
  <rect x="0" y="0" width="1200" height="1600" fill="rgba(255,255,255,0.06)" />
  <circle cx="817" cy="832" r="340" fill="#7d6754" opacity="0.34" filter="url(#blur-2)" />
  <circle cx="1035" cy="1202" r="214" fill="#baa58d" opacity="0.24" filter="url(#blur-2)" />
  <circle cx="296" cy="1299" r="196" fill="#7d6754" opacity="0.14" filter="url(#blur-2)" />
  <circle cx="380" cy="647" r="300" fill="#baa58d" opacity="0.31" filter="url(#blur-2)" />
  <circle cx="745" cy="1127" r="356" fill="#7d6754" opacity="0.21" filter="url(#blur-2)" />
  <rect x="520" y="952" width="185" height="16" rx="8" fill="#ede5da" opacity="0.31" transform="rotate(-27 612.5 960)" />
  <rect x="737" y="882" width="277" height="20" rx="10" fill="#baa58d" opacity="0.31" transform="rotate(24 875.5 892)" />
  <rect x="640" y="802" width="302" height="23" rx="11.5" fill="#1e1713" opacity="0.37" transform="rotate(-26 791 813.5)" />
  <rect x="491" y="1248" width="235" height="23" rx="11.5" fill="#ede5da" opacity="0.18" transform="rotate(8 608.5 1259.5)" />
  <rect x="41" y="794" width="188" height="51" rx="25.5" fill="#baa58d" opacity="0.37" transform="rotate(-1 135 819.5)" />
  <rect x="927" y="479" width="240" height="47" rx="23.5" fill="#1e1713" opacity="0.33" transform="rotate(-16 1047 502.5)" />
  <rect x="627" y="594" width="302" height="22" rx="11" fill="#ede5da" opacity="0.28" transform="rotate(9 778 605)" />
  <rect x="478" y="324" width="289" height="27" rx="13.5" fill="#baa58d" opacity="0.30" transform="rotate(29 622.5 337.5)" />
  <path d="M 916 886 Q 369 989 709 199" stroke="#1e1713" stroke-width="18" stroke-linecap="round" opacity="0.51" fill="none" />
  <path d="M 280 1119 Q 654 1158 117 1237" stroke="#ede5da" stroke-width="24" stroke-linecap="round" opacity="0.53" fill="none" />
  <path d="M 944 757 Q 837 1156 287 1297" stroke="#1e1713" stroke-width="30" stroke-linecap="round" opacity="0.55" fill="none" />
  <path d="M 475 1055 Q 821 1097 722 1266" stroke="#ede5da" stroke-width="36" stroke-linecap="round" opacity="0.47" fill="none" />
  <rect x="76" y="78" width="1048" height="1444" rx="72" stroke="rgba(255,255,255,0.12)" stroke-width="2" />
</svg>