<?xml version="1.0" encoding="UTF-8"?>
<svg width="1200" height="1600" viewBox="0 0 1200 1600" fill="none" xmlns="http://www.w3.org/2000/svg">
  <defs>
    <linearGradient id="bg-0" x1="0" y1="0" x2="1200" y2="1600" gradientUnits="userSpaceOnUse">
      <stop stop-color="#ede5da" />
      <stop offset="0.54" stop-color="#baa58d" />
      <stop offset="1" stop-color="#1e1713" />
    </linearGradient>
    <linearGradient id="bg-soft-0" x1="1200" y1="0" x2="0" y2="1600" gradientUnits="userSpaceOnUse">
      <stop stop-color="#baa58d" />
      <stop offset="0.52" stop-color="#7d6754" />
      <stop offset="1" stop-color="#1e1713" />
    </linearGradient>
    <filter id="blur-0">
      <feGaussianBlur stdDeviation="24" />
    </filter>
  </defs>
  <rect width="1200" height="1600" fill="url(#bg-0)" />
  <rect x="0" y="0" width="1200" height="1600" fill="rgba(255,255,255,0.06)" />
  <circle cx="323" cy="601" r="268" fill="#7d6754" opacity="0.24" filter="url(#blur-0)" />
  <circle cx="529" cy="1101" r="328" fill="#baa58d" opacity="0.31" filter="url(#blur-0)" />
  <circle cx="1053" cy="1060" r="114" fill="#7d6754" opacity="0.20" filter="url(#blur-0)" />
  <circle cx="514" cy="457" r="161" fill="#baa58d" opacity="0.32" filter="url(#blur-0)" />
  <circle cx="730" cy="1277" r="208" fill="#7d6754" opacity="0.24" filter="url(#blur-0)" />
  <rect x="421" y="826" width="216" height="38" rx="19" fill="#ede5da" opacity="0.32" transform="rotate(17 529 845)" />
  <rect x="951" y="30" width="83" height="22" rx="11" fill="#baa58d" opacity="0.38" transform="rotate(-5 992.5 41)" />
  <rect x="886" y="1352" width="294" height="51" rx="25.5" fill="#1e1713" opacity="0.30" transform="rotate(11 1033 1377.5)" />
  <rect x="612" y="1192" width="94" height="51" rx="25.5" fill="#ede5da" opacity="0.23" transform="rotate(-21 659 1217.5)" />
  <rect x="511" y="1199" width="163" height="45" rx="22.5" fill="#baa58d" opacity="0.32" transform="rotate(19 592.5 1221.5)" />
  <rect x="150" y="1304" width="92" height="16" rx="8" fill="#1e1713" opacity="0.35" transform="rotate(25 196 1312)" />
  <rect x="1007" y="982" width="198" height="35" rx="17.5" fill="#ede5da" opacity="0.34" transform="rotate(22 1106 999.5)" />
  <rect x="154" y="1004" width="135" height="39" rx="19.5" fill="#baa58d" opacity="0.18" transform="rotate(-16 221.5 1023.5)" />
  <path d="M 739 505 Q 184 375 273 666" stroke="#1e1713" stroke-width="18" stroke-linecap="round" opacity="0.41" fill="none" />
  <path d="M 296 820 Q 211 677 438 636" stroke="#ede5da" stroke-width="24" stroke-linecap="round" opacity="0.58" fill="none" />
  <path d="M 534 669 Q 603 281 830 494" stroke="#1e1713" stroke-width="30" stroke-linecap="round" opacity="0.40" fill="none" />
  <path d="M 246 388 Q 344 847 1055 251" stroke="#ede5da" stroke-width="36" stroke-linecap="round" opacity="0.36" fill="none" />
  <rect x="76" y="78" width="1048" height="1444" rx="72" stroke="rgba(255,255,255,0.12)" stroke-width="2" />
</svg>