<?xml version="1.0" encoding="UTF-8"?>
<svg width="1200" height="1600" viewBox="0 0 1200 1600" fill="none" xmlns="http://www.w3.org/2000/svg">
  <defs>
    <linearGradient id="bg-1" x1="0" y1="0" x2="1200" y2="1600" gradientUnits="userSpaceOnUse">
      <stop stop-color="#ede5da" />
      <stop offset="0.54" stop-color="#baa58d" />
      <stop offset="1" stop-color="#1e1713" />
    </linearGradient>
    <linearGradient id="bg-soft-1" x1="1200" y1="0" x2="0" y2="1600" gradientUnits="userSpaceOnUse">
      <stop stop-color="#baa58d" />
      <stop offset="0.52" stop-color="#7d6754" />
      <stop offset="1" stop-color="#1e1713" />
    </linearGradient>
    <filter id="blur-1">
      <feGaussianBlur stdDeviation="26" />
    </filter>
  </defs>
  <rect width="1200" height="1600" fill="url(#bg-soft-1)" />
  <rect x="0" y="0" width="1200" height="1600" fill="rgba(255,255,255,0.06)" />
  <circle cx="673" cy="1300" r="314" fill="#7d6754" opacity="0.12" filter="url(#blur-1)" />
  <circle cx="176" cy="736" r="253" fill="#baa58d" opacity="0.30" filter="url(#blur-1)" />
  <circle cx="844" cy="533" r="112" fill="#7d6754" opacity="0.17" filter="url(#blur-1)" />
  <circle cx="982" cy="477" r="350" fill="#baa58d" opacity="0.16" filter="url(#blur-1)" />
  <circle cx="857" cy="819" r="345" fill="#7d6754" opacity="0.13" filter="url(#blur-1)" />
  <rect x="127" y="1296" width="115" height="42" rx="21" fill="#ede5da" opacity="0.33" transform="rotate(26 184.5 1317)" />
  <rect x="132" y="31" width="276" height="49" rx="24.5" fill="#baa58d" opacity="0.31" transform="rotate(23 270 55.5)" />
  <rect x="418" y="897" width="136" height="51" rx="25.5" fill="#1e1713" opacity="0.21" transform="rotate(20 486 922.5)" />
  <rect x="382" y="466" width="178" height="32" rx="16" fill="#ede5da" opacity="0.19" transform="rotate(-29 471 482)" />
  <rect x="466" y="727" width="141" height="11" rx="5.5" fill="#baa58d" opacity="0.34" transform="rotate(-1 536.5 732.5)" />
  <rect x="709" y="454" width="97" height="12" rx="6" fill="#1e1713" opacity="0.35" transform="rotate(8 757.5 460)" />
  <rect x="538" y="151" width="171" height="15" rx="7.5" fill="#ede5da" opacity="0.24" transform="rotate(-22 623.5 158.5)" />
  <rect x="481" y="1330" width="87" height="38" rx="19" fill="#baa58d" opacity="0.27" transform="rotate(0 524.5 1349)" />
  <path d="M 745 1003 Q 872 132 552 839" stroke="#1e1713" stroke-width="18" stroke-linecap="round" opacity="0.44" fill="none" />
  <path d="M 660 546 Q 1002 462 244 1127" stroke="#ede5da" stroke-width="24" stroke-linecap="round" opacity="0.57" fill="none" />
  <path d="M 428 400 Q 678 861 654 155" stroke="#1e1713" stroke-width="30" stroke-linecap="round" opacity="0.45" fill="none" />
  <path d="M 601 817 Q 964 1163 684 1076" stroke="#ede5da" stroke-width="36" stroke-linecap="round" opacity="0.57" fill="none" />
  <rect x="76" y="78" width="1048" height="1444" rx="72" stroke="rgba(255,255,255,0.12)" stroke-width="2" />
</svg>