<?xml version="1.0" encoding="UTF-8"?>
<svg width="1200" height="1600" viewBox="0 0 1200 1600" fill="none" xmlns="http://www.w3.org/2000/svg">
  <defs>
    <linearGradient id="bg-0" x1="0" y1="0" x2="1200" y2="1600" gradientUnits="userSpaceOnUse">
      <stop stop-color="#ede5da" />
      <stop offset="0.54" stop-color="#baa58d" />
      <stop offset="1" stop-color="#1e1713" />
    </linearGradient>
    <linearGradient id="bg-soft-0" x1="1200" y1="0" x2="0" y2="1600" gradientUnits="userSpaceOnUse">
      <stop stop-color="#baa58d" />
      <stop offset="0.52" stop-color="#7d6754" />
      <stop offset="1" stop-color="#1e1713" />
    </linearGradient>
    <filter id="blur-0">
      <feGaussianBlur stdDeviation="24" />
    </filter>
  </defs>
  <rect width="1200" height="1600" fill="url(#bg-0)" />
  <rect x="0" y="0" width="1200" height="1600" fill="rgba(255,255,255,0.06)" />
  <circle cx="930" cy="925" r="136" fill="#7d6754" opacity="0.15" filter="url(#blur-0)" />
  <circle cx="1065" cy="747" r="299" fill="#baa58d" opacity="0.28" filter="url(#blur-0)" />
  <circle cx="919" cy="1387" r="224" fill="#7d6754" opacity="0.18" filter="url(#blur-0)" />
  <circle cx="509" cy="396" r="159" fill="#baa58d" opacity="0.15" filter="url(#blur-0)" />
  <circle cx="173" cy="1242" r="205" fill="#7d6754" opacity="0.15" filter="url(#blur-0)" />
  <rect x="1032" y="184" width="131" height="16" rx="8" fill="#ede5da" opacity="0.33" transform="rotate(-19 1097.5 192)" />
  <rect x="275" y="912" width="118" height="17" rx="8.5" fill="#baa58d" opacity="0.25" transform="rotate(-8 334 920.5)" />
  <rect x="518" y="1307" width="276" height="33" rx="16.5" fill="#1e1713" opacity="0.20" transform="rotate(-24 656 1323.5)" />
  <rect x="614" y="231" width="134" height="49" rx="24.5" fill="#ede5da" opacity="0.18" transform="rotate(34 681 255.5)" />
  <rect x="350" y="1138" width="157" height="24" rx="12" fill="#baa58d" opacity="0.28" transform="rotate(-15 428.5 1150)" />
  <rect x="388" y="1086" width="152" height="46" rx="23" fill="#1e1713" opacity="0.22" transform="rotate(22 464 1109)" />
  <rect x="891" y="403" width="244" height="22" rx="11" fill="#ede5da" opacity="0.33" transform="rotate(-22 1013 414)" />
  <rect x="428" y="137" width="165" height="32" rx="16" fill="#baa58d" opacity="0.31" transform="rotate(30 510.5 153)" />
  <path d="M 397 334 Q 114 675 549 1148" stroke="#1e1713" stroke-width="18" stroke-linecap="round" opacity="0.55" fill="none" />
  <path d="M 155 953 Q 768 802 712 571" stroke="#ede5da" stroke-width="24" stroke-linecap="round" opacity="0.54" fill="none" />
  <path d="M 204 717 Q 746 242 576 1071" stroke="#1e1713" stroke-width="30" stroke-linecap="round" opacity="0.43" fill="none" />
  <path d="M 1017 369 Q 333 1167 570 419" stroke="#ede5da" stroke-width="36" stroke-linecap="round" opacity="0.41" fill="none" />
  <rect x="76" y="78" width="1048" height="1444" rx="72" stroke="rgba(255,255,255,0.12)" stroke-width="2" />
</svg>