<?xml version="1.0" encoding="UTF-8"?>
<svg width="1200" height="1600" viewBox="0 0 1200 1600" fill="none" xmlns="http://www.w3.org/2000/svg">
  <defs>
    <linearGradient id="bg-2" x1="0" y1="0" x2="1200" y2="1600" gradientUnits="userSpaceOnUse">
      <stop stop-color="#ede5da" />
      <stop offset="0.54" stop-color="#baa58d" />
      <stop offset="1" stop-color="#1e1713" />
    </linearGradient>
    <linearGradient id="bg-soft-2" x1="1200" y1="0" x2="0" y2="1600" gradientUnits="userSpaceOnUse">
      <stop stop-color="#baa58d" />
      <stop offset="0.52" stop-color="#7d6754" />
      <stop offset="1" stop-color="#1e1713" />
    </linearGradient>
    <filter id="blur-2">
      <feGaussianBlur stdDeviation="28" />
    </filter>
  </defs>
  <rect width="1200" height="1600" fill="url(#bg-2)" />
  <rect x="0" y="0" width="1200" height="1600" fill="rgba(255,255,255,0.06)" />
  <circle cx="159" cy="1375" r="189" fill="#7d6754" opacity="0.30" filter="url(#blur-2)" />
  <circle cx="522" cy="922" r="168" fill="#baa58d" opacity="0.29" filter="url(#blur-2)" />
  <circle cx="402" cy="1336" r="206" fill="#7d6754" opacity="0.24" filter="url(#blur-2)" />
  <circle cx="775" cy="1057" r="223" fill="#baa58d" opacity="0.22" filter="url(#blur-2)" />
  <circle cx="400" cy="783" r="253" fill="#7d6754" opacity="0.30" filter="url(#blur-2)" />
  <rect x="4" y="989" width="106" height="46" rx="23" fill="#ede5da" opacity="0.24" transform="rotate(31 57 1012)" />
  <rect x="22" y="1095" width="155" height="46" rx="23" fill="#baa58d" opacity="0.37" transform="rotate(22 99.5 1118)" />
  <rect x="806" y="1131" width="318" height="38" rx="19" fill="#1e1713" opacity="0.31" transform="rotate(-14 965 1150)" />
  <rect x="43" y="896" width="269" height="46" rx="23" fill="#ede5da" opacity="0.19" transform="rotate(2 177.5 919)" />
  <rect x="509" y="339" width="311" height="17" rx="8.5" fill="#baa58d" opacity="0.34" transform="rotate(20 664.5 347.5)" />
  <rect x="167" y="64" width="271" height="22" rx="11" fill="#1e1713" opacity="0.27" transform="rotate(11 302.5 75)" />
  <rect x="31" y="552" width="180" height="22" rx="11" fill="#ede5da" opacity="0.35" transform="rotate(-32 121 563)" />
  <rect x="507" y="1095" width="125" height="36" rx="18" fill="#baa58d" opacity="0.35" transform="rotate(-28 569.5 1113)" />
  <path d="M 1012 868 Q 1026 675 484 871" stroke="#1e1713" stroke-width="18" stroke-linecap="round" opacity="0.36" fill="none" />
  <path d="M 1028 184 Q 312 1008 986 291" stroke="#ede5da" stroke-width="24" stroke-linecap="round" opacity="0.47" fill="none" />
  <path d="M 208 542 Q 448 1223 234 530" stroke="#1e1713" stroke-width="30" stroke-linecap="round" opacity="0.49" fill="none" />
  <path d="M 148 465 Q 473 1022 636 876" stroke="#ede5da" stroke-width="36" stroke-linecap="round" opacity="0.44" fill="none" />
  <rect x="76" y="78" width="1048" height="1444" rx="72" stroke="rgba(255,255,255,0.12)" stroke-width="2" />
</svg>