<?xml version="1.0" encoding="UTF-8"?>
<svg width="1200" height="1600" viewBox="0 0 1200 1600" fill="none" xmlns="http://www.w3.org/2000/svg">
  <defs>
    <linearGradient id="bg-1" x1="0" y1="0" x2="1200" y2="1600" gradientUnits="userSpaceOnUse">
      <stop stop-color="#e6d7c3" />
      <stop offset="0.54" stop-color="#b79f85" />
      <stop offset="1" stop-color="#201915" />
    </linearGradient>
    <linearGradient id="bg-soft-1" x1="1200" y1="0" x2="0" y2="1600" gradientUnits="userSpaceOnUse">
      <stop stop-color="#b79f85" />
      <stop offset="0.52" stop-color="#6a5541" />
      <stop offset="1" stop-color="#201915" />
    </linearGradient>
    <filter id="blur-1">
      <feGaussianBlur stdDeviation="26" />
    </filter>
  </defs>
  <rect width="1200" height="1600" fill="url(#bg-soft-1)" />
  <rect x="0" y="0" width="1200" height="1600" fill="rgba(255,255,255,0.06)" />
  <circle cx="846" cy="420" r="153" fill="#6a5541" opacity="0.33" filter="url(#blur-1)" />
  <circle cx="516" cy="806" r="342" fill="#b79f85" opacity="0.13" filter="url(#blur-1)" />
  <circle cx="362" cy="1130" r="382" fill="#6a5541" opacity="0.20" filter="url(#blur-1)" />
  <circle cx="540" cy="1096" r="187" fill="#b79f85" opacity="0.16" filter="url(#blur-1)" />
  <circle cx="686" cy="768" r="253" fill="#6a5541" opacity="0.19" filter="url(#blur-1)" />
  <rect x="805" y="401" width="289" height="46" rx="23" fill="#e6d7c3" opacity="0.20" transform="rotate(31 949.5 424)" />
  <rect x="445" y="905" width="292" height="35" rx="17.5" fill="#b79f85" opacity="0.27" transform="rotate(3 591 922.5)" />
  <rect x="194" y="928" width="306" height="51" rx="25.5" fill="#201915" opacity="0.36" transform="rotate(15 347 953.5)" />
  <rect x="174" y="824" width="210" height="13" rx="6.5" fill="#e6d7c3" opacity="0.23" transform="rotate(-11 279 830.5)" />
  <rect x="578" y="180" width="313" height="42" rx="21" fill="#b79f85" opacity="0.34" transform="rotate(-14 734.5 201)" />
  <rect x="694" y="1227" width="82" height="41" rx="20.5" fill="#201915" opacity="0.23" transform="rotate(14 735 1247.5)" />
  <rect x="354" y="13" width="189" height="23" rx="11.5" fill="#e6d7c3" opacity="0.36" transform="rotate(-20 448.5 24.5)" />
  <rect x="737" y="146" width="263" height="13" rx="6.5" fill="#b79f85" opacity="0.25" transform="rotate(-21 868.5 152.5)" />
  <path d="M 159 691 Q 477 313 561 277" stroke="#201915" stroke-width="18" stroke-linecap="round" opacity="0.56" fill="none" />
  <path d="M 724 1177 Q 521 856 235 970" stroke="#e6d7c3" stroke-width="24" stroke-linecap="round" opacity="0.51" fill="none" />
  <path d="M 490 1018 Q 431 192 793 906" stroke="#201915" stroke-width="30" stroke-linecap="round" opacity="0.50" fill="none" />
  <path d="M 307 729 Q 1090 1048 702 600" stroke="#e6d7c3" stroke-width="36" stroke-linecap="round" opacity="0.57" fill="none" />
  <rect x="76" y="78" width="1048" height="1444" rx="72" stroke="rgba(255,255,255,0.12)" stroke-width="2" />
</svg>