<?xml version="1.0" encoding="UTF-8"?>
<svg width="1200" height="1600" viewBox="0 0 1200 1600" fill="none" xmlns="http://www.w3.org/2000/svg">
  <defs>
    <linearGradient id="bg-2" x1="0" y1="0" x2="1200" y2="1600" gradientUnits="userSpaceOnUse">
      <stop stop-color="#e6d7c3" />
      <stop offset="0.54" stop-color="#b79f85" />
      <stop offset="1" stop-color="#201915" />
    </linearGradient>
    <linearGradient id="bg-soft-2" x1="1200" y1="0" x2="0" y2="1600" gradientUnits="userSpaceOnUse">
      <stop stop-color="#b79f85" />
      <stop offset="0.52" stop-color="#6a5541" />
      <stop offset="1" stop-color="#201915" />
    </linearGradient>
    <filter id="blur-2">
      <feGaussianBlur stdDeviation="28" />
    </filter>
  </defs>
  <rect width="1200" height="1600" fill="url(#bg-2)" />
  <rect x="0" y="0" width="1200" height="1600" fill="rgba(255,255,255,0.06)" />
  <circle cx="268" cy="544" r="255" fill="#6a5541" opacity="0.31" filter="url(#blur-2)" />
  <circle cx="462" cy="680" r="373" fill="#b79f85" opacity="0.29" filter="url(#blur-2)" />
  <circle cx="604" cy="205" r="209" fill="#6a5541" opacity="0.22" filter="url(#blur-2)" />
  <circle cx="983" cy="1033" r="282" fill="#b79f85" opacity="0.32" filter="url(#blur-2)" />
  <circle cx="700" cy="1434" r="202" fill="#6a5541" opacity="0.31" filter="url(#blur-2)" />
  <rect x="1017" y="1110" width="136" height="11" rx="5.5" fill="#e6d7c3" opacity="0.32" transform="rotate(-11 1085 1115.5)" />
  <rect x="685" y="919" width="230" height="43" rx="21.5" fill="#b79f85" opacity="0.27" transform="rotate(-12 800 940.5)" />
  <rect x="660" y="546" width="119" height="32" rx="16" fill="#201915" opacity="0.21" transform="rotate(-31 719.5 562)" />
  <rect x="697" y="923" width="178" height="14" rx="7" fill="#e6d7c3" opacity="0.25" transform="rotate(35 786 930)" />
  <rect x="24" y="1203" width="228" height="21" rx="10.5" fill="#b79f85" opacity="0.23" transform="rotate(19 138 1213.5)" />
  <rect x="125" y="430" width="251" height="27" rx="13.5" fill="#201915" opacity="0.27" transform="rotate(26 250.5 443.5)" />
  <rect x="1044" y="1190" width="312" height="20" rx="10" fill="#e6d7c3" opacity="0.37" transform="rotate(-34 1200 1200)" />
  <rect x="761" y="972" width="89" height="48" rx="24" fill="#b79f85" opacity="0.19" transform="rotate(-30 805.5 996)" />
  <path d="M 240 387 Q 623 466 1022 501" stroke="#201915" stroke-width="18" stroke-linecap="round" opacity="0.41" fill="none" />
  <path d="M 725 764 Q 789 434 651 825" stroke="#e6d7c3" stroke-width="24" stroke-linecap="round" opacity="0.57" fill="none" />
  <path d="M 1035 938 Q 263 524 515 812" stroke="#201915" stroke-width="30" stroke-linecap="round" opacity="0.50" fill="none" />
  <path d="M 1017 306 Q 975 763 268 419" stroke="#e6d7c3" stroke-width="36" stroke-linecap="round" opacity="0.52" fill="none" />
  <rect x="76" y="78" width="1048" height="1444" rx="72" stroke="rgba(255,255,255,0.12)" stroke-width="2" />
</svg>