<?xml version="1.0" encoding="UTF-8"?>
<svg width="1200" height="1600" viewBox="0 0 1200 1600" fill="none" xmlns="http://www.w3.org/2000/svg">
  <defs>
    <linearGradient id="bg-2" x1="0" y1="0" x2="1200" y2="1600" gradientUnits="userSpaceOnUse">
      <stop stop-color="#e6d7c3" />
      <stop offset="0.54" stop-color="#b79f85" />
      <stop offset="1" stop-color="#201915" />
    </linearGradient>
    <linearGradient id="bg-soft-2" x1="1200" y1="0" x2="0" y2="1600" gradientUnits="userSpaceOnUse">
      <stop stop-color="#b79f85" />
      <stop offset="0.52" stop-color="#6a5541" />
      <stop offset="1" stop-color="#201915" />
    </linearGradient>
    <filter id="blur-2">
      <feGaussianBlur stdDeviation="28" />
    </filter>
  </defs>
  <rect width="1200" height="1600" fill="url(#bg-2)" />
  <rect x="0" y="0" width="1200" height="1600" fill="rgba(255,255,255,0.06)" />
  <circle cx="279" cy="1068" r="149" fill="#6a5541" opacity="0.30" filter="url(#blur-2)" />
  <circle cx="965" cy="465" r="331" fill="#b79f85" opacity="0.12" filter="url(#blur-2)" />
  <circle cx="221" cy="1085" r="224" fill="#6a5541" opacity="0.13" filter="url(#blur-2)" />
  <circle cx="168" cy="779" r="384" fill="#b79f85" opacity="0.16" filter="url(#blur-2)" />
  <circle cx="465" cy="848" r="362" fill="#6a5541" opacity="0.34" filter="url(#blur-2)" />
  <rect x="175" y="283" width="85" height="17" rx="8.5" fill="#e6d7c3" opacity="0.24" transform="rotate(12 217.5 291.5)" />
  <rect x="185" y="885" width="164" height="19" rx="9.5" fill="#b79f85" opacity="0.19" transform="rotate(-11 267 894.5)" />
  <rect x="726" y="265" width="131" height="48" rx="24" fill="#201915" opacity="0.19" transform="rotate(11 791.5 289)" />
  <rect x="226" y="1213" width="131" height="52" rx="26" fill="#e6d7c3" opacity="0.26" transform="rotate(-1 291.5 1239)" />
  <rect x="167" y="844" width="168" height="24" rx="12" fill="#b79f85" opacity="0.24" transform="rotate(0 251 856)" />
  <rect x="190" y="1238" width="308" height="46" rx="23" fill="#201915" opacity="0.36" transform="rotate(-16 344 1261)" />
  <rect x="113" y="288" width="279" height="11" rx="5.5" fill="#e6d7c3" opacity="0.36" transform="rotate(20 252.5 293.5)" />
  <rect x="529" y="497" width="82" height="37" rx="18.5" fill="#b79f85" opacity="0.20" transform="rotate(-4 570 515.5)" />
  <path d="M 746 220 Q 1064 1031 593 573" stroke="#201915" stroke-width="18" stroke-linecap="round" opacity="0.35" fill="none" />
  <path d="M 281 536 Q 405 1006 217 459" stroke="#e6d7c3" stroke-width="24" stroke-linecap="round" opacity="0.44" fill="none" />
  <path d="M 1061 402 Q 835 156 530 342" stroke="#201915" stroke-width="30" stroke-linecap="round" opacity="0.36" fill="none" />
  <path d="M 271 1256 Q 875 519 269 550" stroke="#e6d7c3" stroke-width="36" stroke-linecap="round" opacity="0.49" fill="none" />
  <rect x="76" y="78" width="1048" height="1444" rx="72" stroke="rgba(255,255,255,0.12)" stroke-width="2" />
</svg>