<?xml version="1.0" encoding="UTF-8"?>
<svg width="1200" height="1600" viewBox="0 0 1200 1600" fill="none" xmlns="http://www.w3.org/2000/svg">
  <defs>
    <linearGradient id="bg-1" x1="0" y1="0" x2="1200" y2="1600" gradientUnits="userSpaceOnUse">
      <stop stop-color="#e6d7c3" />
      <stop offset="0.54" stop-color="#b79f85" />
      <stop offset="1" stop-color="#201915" />
    </linearGradient>
    <linearGradient id="bg-soft-1" x1="1200" y1="0" x2="0" y2="1600" gradientUnits="userSpaceOnUse">
      <stop stop-color="#b79f85" />
      <stop offset="0.52" stop-color="#6a5541" />
      <stop offset="1" stop-color="#201915" />
    </linearGradient>
    <filter id="blur-1">
      <feGaussianBlur stdDeviation="26" />
    </filter>
  </defs>
  <rect width="1200" height="1600" fill="url(#bg-soft-1)" />
  <rect x="0" y="0" width="1200" height="1600" fill="rgba(255,255,255,0.06)" />
  <circle cx="709" cy="1262" r="244" fill="#6a5541" opacity="0.22" filter="url(#blur-1)" />
  <circle cx="142" cy="766" r="215" fill="#b79f85" opacity="0.17" filter="url(#blur-1)" />
  <circle cx="769" cy="401" r="234" fill="#6a5541" opacity="0.32" filter="url(#blur-1)" />
  <circle cx="1017" cy="176" r="236" fill="#b79f85" opacity="0.34" filter="url(#blur-1)" />
  <circle cx="558" cy="1136" r="322" fill="#6a5541" opacity="0.12" filter="url(#blur-1)" />
  <rect x="925" y="939" width="114" height="31" rx="15.5" fill="#e6d7c3" opacity="0.22" transform="rotate(13 982 954.5)" />
  <rect x="170" y="96" width="162" height="33" rx="16.5" fill="#b79f85" opacity="0.30" transform="rotate(15 251 112.5)" />
  <rect x="37" y="1374" width="193" height="15" rx="7.5" fill="#201915" opacity="0.23" transform="rotate(20 133.5 1381.5)" />
  <rect x="975" y="182" width="153" height="37" rx="18.5" fill="#e6d7c3" opacity="0.19" transform="rotate(-31 1051.5 200.5)" />
  <rect x="364" y="755" width="285" height="24" rx="12" fill="#b79f85" opacity="0.31" transform="rotate(-32 506.5 767)" />
  <rect x="430" y="942" width="225" height="40" rx="20" fill="#201915" opacity="0.38" transform="rotate(0 542.5 962)" />
  <rect x="43" y="1048" width="160" height="31" rx="15.5" fill="#e6d7c3" opacity="0.36" transform="rotate(-27 123 1063.5)" />
  <rect x="61" y="318" width="206" height="38" rx="19" fill="#b79f85" opacity="0.37" transform="rotate(11 164 337)" />
  <path d="M 661 319 Q 213 971 249 513" stroke="#201915" stroke-width="18" stroke-linecap="round" opacity="0.47" fill="none" />
  <path d="M 1067 441 Q 759 1273 1003 947" stroke="#e6d7c3" stroke-width="24" stroke-linecap="round" opacity="0.48" fill="none" />
  <path d="M 195 939 Q 210 260 765 418" stroke="#201915" stroke-width="30" stroke-linecap="round" opacity="0.43" fill="none" />
  <path d="M 413 123 Q 360 1216 406 1233" stroke="#e6d7c3" stroke-width="36" stroke-linecap="round" opacity="0.36" fill="none" />
  <rect x="76" y="78" width="1048" height="1444" rx="72" stroke="rgba(255,255,255,0.12)" stroke-width="2" />
</svg>