<?xml version="1.0" encoding="UTF-8"?>
<svg width="1200" height="1600" viewBox="0 0 1200 1600" fill="none" xmlns="http://www.w3.org/2000/svg">
  <defs>
    <linearGradient id="bg-0" x1="0" y1="0" x2="1200" y2="1600" gradientUnits="userSpaceOnUse">
      <stop stop-color="#e6d7c3" />
      <stop offset="0.54" stop-color="#b79f85" />
      <stop offset="1" stop-color="#201915" />
    </linearGradient>
    <linearGradient id="bg-soft-0" x1="1200" y1="0" x2="0" y2="1600" gradientUnits="userSpaceOnUse">
      <stop stop-color="#b79f85" />
      <stop offset="0.52" stop-color="#6a5541" />
      <stop offset="1" stop-color="#201915" />
    </linearGradient>
    <filter id="blur-0">
      <feGaussianBlur stdDeviation="24" />
    </filter>
  </defs>
  <rect width="1200" height="1600" fill="url(#bg-0)" />
  <rect x="0" y="0" width="1200" height="1600" fill="rgba(255,255,255,0.06)" />
  <circle cx="1014" cy="656" r="295" fill="#6a5541" opacity="0.33" filter="url(#blur-0)" />
  <circle cx="614" cy="1171" r="182" fill="#b79f85" opacity="0.20" filter="url(#blur-0)" />
  <circle cx="497" cy="625" r="362" fill="#6a5541" opacity="0.28" filter="url(#blur-0)" />
  <circle cx="419" cy="278" r="287" fill="#b79f85" opacity="0.23" filter="url(#blur-0)" />
  <circle cx="478" cy="592" r="303" fill="#6a5541" opacity="0.27" filter="url(#blur-0)" />
  <rect x="1059" y="1266" width="254" height="11" rx="5.5" fill="#e6d7c3" opacity="0.18" transform="rotate(-1 1186 1271.5)" />
  <rect x="793" y="1058" width="116" height="31" rx="15.5" fill="#b79f85" opacity="0.34" transform="rotate(-9 851 1073.5)" />
  <rect x="959" y="135" width="267" height="45" rx="22.5" fill="#201915" opacity="0.18" transform="rotate(-16 1092.5 157.5)" />
  <rect x="756" y="754" width="85" height="20" rx="10" fill="#e6d7c3" opacity="0.34" transform="rotate(-5 798.5 764)" />
  <rect x="937" y="429" width="91" height="37" rx="18.5" fill="#b79f85" opacity="0.32" transform="rotate(22 982.5 447.5)" />
  <rect x="459" y="894" width="213" height="47" rx="23.5" fill="#201915" opacity="0.24" transform="rotate(31 565.5 917.5)" />
  <rect x="1025" y="808" width="226" height="47" rx="23.5" fill="#e6d7c3" opacity="0.31" transform="rotate(27 1138 831.5)" />
  <rect x="710" y="844" width="129" height="40" rx="20" fill="#b79f85" opacity="0.35" transform="rotate(-5 774.5 864)" />
  <path d="M 741 1085 Q 1059 870 809 457" stroke="#201915" stroke-width="18" stroke-linecap="round" opacity="0.50" fill="none" />
  <path d="M 1062 379 Q 707 1150 897 868" stroke="#e6d7c3" stroke-width="24" stroke-linecap="round" opacity="0.39" fill="none" />
  <path d="M 149 917 Q 365 376 1032 105" stroke="#201915" stroke-width="30" stroke-linecap="round" opacity="0.52" fill="none" />
  <path d="M 701 528 Q 347 197 126 1240" stroke="#e6d7c3" stroke-width="36" stroke-linecap="round" opacity="0.44" fill="none" />
  <rect x="76" y="78" width="1048" height="1444" rx="72" stroke="rgba(255,255,255,0.12)" stroke-width="2" />
</svg>