<?xml version="1.0" encoding="UTF-8"?>
<svg width="1200" height="1600" viewBox="0 0 1200 1600" fill="none" xmlns="http://www.w3.org/2000/svg">
  <defs>
    <linearGradient id="bg-0" x1="0" y1="0" x2="1200" y2="1600" gradientUnits="userSpaceOnUse">
      <stop stop-color="#e6d7c3" />
      <stop offset="0.54" stop-color="#b79f85" />
      <stop offset="1" stop-color="#201915" />
    </linearGradient>
    <linearGradient id="bg-soft-0" x1="1200" y1="0" x2="0" y2="1600" gradientUnits="userSpaceOnUse">
      <stop stop-color="#b79f85" />
      <stop offset="0.52" stop-color="#6a5541" />
      <stop offset="1" stop-color="#201915" />
    </linearGradient>
    <filter id="blur-0">
      <feGaussianBlur stdDeviation="24" />
    </filter>
  </defs>
  <rect width="1200" height="1600" fill="url(#bg-0)" />
  <rect x="0" y="0" width="1200" height="1600" fill="rgba(255,255,255,0.06)" />
  <circle cx="1056" cy="336" r="321" fill="#6a5541" opacity="0.12" filter="url(#blur-0)" />
  <circle cx="944" cy="180" r="125" fill="#b79f85" opacity="0.29" filter="url(#blur-0)" />
  <circle cx="245" cy="454" r="374" fill="#6a5541" opacity="0.30" filter="url(#blur-0)" />
  <circle cx="479" cy="165" r="202" fill="#b79f85" opacity="0.24" filter="url(#blur-0)" />
  <circle cx="899" cy="1156" r="247" fill="#6a5541" opacity="0.13" filter="url(#blur-0)" />
  <rect x="711" y="881" width="258" height="45" rx="22.5" fill="#e6d7c3" opacity="0.18" transform="rotate(27 840 903.5)" />
  <rect x="620" y="824" width="109" height="50" rx="25" fill="#b79f85" opacity="0.35" transform="rotate(-17 674.5 849)" />
  <rect x="489" y="242" width="119" height="22" rx="11" fill="#201915" opacity="0.28" transform="rotate(11 548.5 253)" />
  <rect x="565" y="64" width="246" height="13" rx="6.5" fill="#e6d7c3" opacity="0.35" transform="rotate(-8 688 70.5)" />
  <rect x="608" y="0" width="215" height="15" rx="7.5" fill="#b79f85" opacity="0.30" transform="rotate(-4 715.5 7.5)" />
  <rect x="1003" y="952" width="130" height="42" rx="21" fill="#201915" opacity="0.31" transform="rotate(9 1068 973)" />
  <rect x="254" y="808" width="132" height="19" rx="9.5" fill="#e6d7c3" opacity="0.36" transform="rotate(18 320 817.5)" />
  <rect x="211" y="1391" width="225" height="14" rx="7" fill="#b79f85" opacity="0.26" transform="rotate(30 323.5 1398)" />
  <path d="M 782 132 Q 815 417 568 811" stroke="#201915" stroke-width="18" stroke-linecap="round" opacity="0.39" fill="none" />
  <path d="M 1087 1296 Q 466 443 110 535" stroke="#e6d7c3" stroke-width="24" stroke-linecap="round" opacity="0.45" fill="none" />
  <path d="M 377 692 Q 1096 610 925 732" stroke="#201915" stroke-width="30" stroke-linecap="round" opacity="0.44" fill="none" />
  <path d="M 637 391 Q 1098 1247 999 697" stroke="#e6d7c3" stroke-width="36" stroke-linecap="round" opacity="0.40" fill="none" />
  <rect x="76" y="78" width="1048" height="1444" rx="72" stroke="rgba(255,255,255,0.12)" stroke-width="2" />
</svg>