<?xml version="1.0" encoding="UTF-8"?>
<svg width="1200" height="1600" viewBox="0 0 1200 1600" fill="none" xmlns="http://www.w3.org/2000/svg">
  <defs>
    <linearGradient id="bg-0" x1="0" y1="0" x2="1200" y2="1600" gradientUnits="userSpaceOnUse">
      <stop stop-color="#e6d7c3" />
      <stop offset="0.54" stop-color="#b79f85" />
      <stop offset="1" stop-color="#201915" />
    </linearGradient>
    <linearGradient id="bg-soft-0" x1="1200" y1="0" x2="0" y2="1600" gradientUnits="userSpaceOnUse">
      <stop stop-color="#b79f85" />
      <stop offset="0.52" stop-color="#6a5541" />
      <stop offset="1" stop-color="#201915" />
    </linearGradient>
    <filter id="blur-0">
      <feGaussianBlur stdDeviation="24" />
    </filter>
  </defs>
  <rect width="1200" height="1600" fill="url(#bg-0)" />
  <rect x="0" y="0" width="1200" height="1600" fill="rgba(255,255,255,0.06)" />
  <circle cx="260" cy="963" r="268" fill="#6a5541" opacity="0.14" filter="url(#blur-0)" />
  <circle cx="932" cy="626" r="296" fill="#b79f85" opacity="0.28" filter="url(#blur-0)" />
  <circle cx="672" cy="833" r="168" fill="#6a5541" opacity="0.22" filter="url(#blur-0)" />
  <circle cx="657" cy="1303" r="111" fill="#b79f85" opacity="0.23" filter="url(#blur-0)" />
  <circle cx="737" cy="817" r="173" fill="#6a5541" opacity="0.24" filter="url(#blur-0)" />
  <rect x="312" y="713" width="273" height="27" rx="13.5" fill="#e6d7c3" opacity="0.37" transform="rotate(31 448.5 726.5)" />
  <rect x="102" y="784" width="151" height="13" rx="6.5" fill="#b79f85" opacity="0.24" transform="rotate(27 177.5 790.5)" />
  <rect x="329" y="667" width="132" height="14" rx="7" fill="#201915" opacity="0.29" transform="rotate(29 395 674)" />
  <rect x="901" y="761" width="197" height="39" rx="19.5" fill="#e6d7c3" opacity="0.31" transform="rotate(18 999.5 780.5)" />
  <rect x="526" y="921" width="241" height="29" rx="14.5" fill="#b79f85" opacity="0.29" transform="rotate(-2 646.5 935.5)" />
  <rect x="954" y="693" width="294" height="27" rx="13.5" fill="#201915" opacity="0.26" transform="rotate(-25 1101 706.5)" />
  <rect x="141" y="1278" width="184" height="51" rx="25.5" fill="#e6d7c3" opacity="0.34" transform="rotate(-3 233 1303.5)" />
  <rect x="40" y="1367" width="196" height="11" rx="5.5" fill="#b79f85" opacity="0.21" transform="rotate(14 138 1372.5)" />
  <path d="M 132 1139 Q 489 190 332 1203" stroke="#201915" stroke-width="18" stroke-linecap="round" opacity="0.52" fill="none" />
  <path d="M 858 1279 Q 249 498 535 1207" stroke="#e6d7c3" stroke-width="24" stroke-linecap="round" opacity="0.52" fill="none" />
  <path d="M 496 130 Q 123 641 201 897" stroke="#201915" stroke-width="30" stroke-linecap="round" opacity="0.48" fill="none" />
  <path d="M 348 325 Q 476 581 910 1203" stroke="#e6d7c3" stroke-width="36" stroke-linecap="round" opacity="0.59" fill="none" />
  <rect x="76" y="78" width="1048" height="1444" rx="72" stroke="rgba(255,255,255,0.12)" stroke-width="2" />
</svg>