<?xml version="1.0" encoding="UTF-8"?>
<svg width="1200" height="1600" viewBox="0 0 1200 1600" fill="none" xmlns="http://www.w3.org/2000/svg">
  <defs>
    <linearGradient id="bg-0" x1="0" y1="0" x2="1200" y2="1600" gradientUnits="userSpaceOnUse">
      <stop stop-color="#e6d7c3" />
      <stop offset="0.54" stop-color="#b79f85" />
      <stop offset="1" stop-color="#201915" />
    </linearGradient>
    <linearGradient id="bg-soft-0" x1="1200" y1="0" x2="0" y2="1600" gradientUnits="userSpaceOnUse">
      <stop stop-color="#b79f85" />
      <stop offset="0.52" stop-color="#6a5541" />
      <stop offset="1" stop-color="#201915" />
    </linearGradient>
    <filter id="blur-0">
      <feGaussianBlur stdDeviation="24" />
    </filter>
  </defs>
  <rect width="1200" height="1600" fill="url(#bg-0)" />
  <rect x="0" y="0" width="1200" height="1600" fill="rgba(255,255,255,0.06)" />
  <circle cx="408" cy="409" r="214" fill="#6a5541" opacity="0.24" filter="url(#blur-0)" />
  <circle cx="266" cy="995" r="145" fill="#b79f85" opacity="0.25" filter="url(#blur-0)" />
  <circle cx="881" cy="1416" r="296" fill="#6a5541" opacity="0.17" filter="url(#blur-0)" />
  <circle cx="845" cy="814" r="340" fill="#b79f85" opacity="0.15" filter="url(#blur-0)" />
  <circle cx="215" cy="1227" r="353" fill="#6a5541" opacity="0.27" filter="url(#blur-0)" />
  <rect x="464" y="1323" width="90" height="25" rx="12.5" fill="#e6d7c3" opacity="0.34" transform="rotate(-15 509 1335.5)" />
  <rect x="218" y="1182" width="153" height="29" rx="14.5" fill="#b79f85" opacity="0.28" transform="rotate(15 294.5 1196.5)" />
  <rect x="685" y="412" width="224" height="47" rx="23.5" fill="#201915" opacity="0.19" transform="rotate(-14 797 435.5)" />
  <rect x="275" y="1008" width="189" height="33" rx="16.5" fill="#e6d7c3" opacity="0.36" transform="rotate(-9 369.5 1024.5)" />
  <rect x="706" y="91" width="263" height="49" rx="24.5" fill="#b79f85" opacity="0.23" transform="rotate(27 837.5 115.5)" />
  <rect x="494" y="999" width="290" height="36" rx="18" fill="#201915" opacity="0.29" transform="rotate(-11 639 1017)" />
  <rect x="73" y="748" width="99" height="40" rx="20" fill="#e6d7c3" opacity="0.35" transform="rotate(-31 122.5 768)" />
  <rect x="686" y="16" width="117" height="41" rx="20.5" fill="#b79f85" opacity="0.33" transform="rotate(26 744.5 36.5)" />
  <path d="M 986 482 Q 1082 225 831 672" stroke="#201915" stroke-width="18" stroke-linecap="round" opacity="0.52" fill="none" />
  <path d="M 1070 1137 Q 184 1014 513 880" stroke="#e6d7c3" stroke-width="24" stroke-linecap="round" opacity="0.58" fill="none" />
  <path d="M 385 197 Q 592 246 176 1083" stroke="#201915" stroke-width="30" stroke-linecap="round" opacity="0.53" fill="none" />
  <path d="M 1030 559 Q 748 831 377 1047" stroke="#e6d7c3" stroke-width="36" stroke-linecap="round" opacity="0.45" fill="none" />
  <rect x="76" y="78" width="1048" height="1444" rx="72" stroke="rgba(255,255,255,0.12)" stroke-width="2" />
</svg>