<?xml version="1.0" encoding="UTF-8"?>
<svg width="1200" height="1600" viewBox="0 0 1200 1600" fill="none" xmlns="http://www.w3.org/2000/svg">
  <defs>
    <linearGradient id="bg-1" x1="0" y1="0" x2="1200" y2="1600" gradientUnits="userSpaceOnUse">
      <stop stop-color="#e6d7c3" />
      <stop offset="0.54" stop-color="#b79f85" />
      <stop offset="1" stop-color="#201915" />
    </linearGradient>
    <linearGradient id="bg-soft-1" x1="1200" y1="0" x2="0" y2="1600" gradientUnits="userSpaceOnUse">
      <stop stop-color="#b79f85" />
      <stop offset="0.52" stop-color="#6a5541" />
      <stop offset="1" stop-color="#201915" />
    </linearGradient>
    <filter id="blur-1">
      <feGaussianBlur stdDeviation="26" />
    </filter>
  </defs>
  <rect width="1200" height="1600" fill="url(#bg-soft-1)" />
  <rect x="0" y="0" width="1200" height="1600" fill="rgba(255,255,255,0.06)" />
  <circle cx="560" cy="894" r="173" fill="#6a5541" opacity="0.20" filter="url(#blur-1)" />
  <circle cx="654" cy="1222" r="349" fill="#b79f85" opacity="0.23" filter="url(#blur-1)" />
  <circle cx="904" cy="359" r="313" fill="#6a5541" opacity="0.17" filter="url(#blur-1)" />
  <circle cx="538" cy="1195" r="236" fill="#b79f85" opacity="0.17" filter="url(#blur-1)" />
  <circle cx="505" cy="1110" r="197" fill="#6a5541" opacity="0.31" filter="url(#blur-1)" />
  <rect x="155" y="36" width="311" height="22" rx="11" fill="#e6d7c3" opacity="0.34" transform="rotate(-9 310.5 47)" />
  <rect x="145" y="1223" width="311" height="33" rx="16.5" fill="#b79f85" opacity="0.28" transform="rotate(-12 300.5 1239.5)" />
  <rect x="930" y="1106" width="310" height="32" rx="16" fill="#201915" opacity="0.28" transform="rotate(28 1085 1122)" />
  <rect x="209" y="798" width="119" height="51" rx="25.5" fill="#e6d7c3" opacity="0.22" transform="rotate(27 268.5 823.5)" />
  <rect x="1028" y="1271" width="308" height="16" rx="8" fill="#b79f85" opacity="0.31" transform="rotate(34 1182 1279)" />
  <rect x="938" y="65" width="277" height="48" rx="24" fill="#201915" opacity="0.27" transform="rotate(-8 1076.5 89)" />
  <rect x="1065" y="429" width="106" height="36" rx="18" fill="#e6d7c3" opacity="0.31" transform="rotate(-19 1118 447)" />
  <rect x="491" y="802" width="224" height="16" rx="8" fill="#b79f85" opacity="0.32" transform="rotate(-15 603 810)" />
  <path d="M 285 140 Q 401 242 676 742" stroke="#201915" stroke-width="18" stroke-linecap="round" opacity="0.47" fill="none" />
  <path d="M 654 725 Q 400 662 158 899" stroke="#e6d7c3" stroke-width="24" stroke-linecap="round" opacity="0.44" fill="none" />
  <path d="M 1012 698 Q 794 497 680 306" stroke="#201915" stroke-width="30" stroke-linecap="round" opacity="0.46" fill="none" />
  <path d="M 906 587 Q 1029 508 703 626" stroke="#e6d7c3" stroke-width="36" stroke-linecap="round" opacity="0.53" fill="none" />
  <rect x="76" y="78" width="1048" height="1444" rx="72" stroke="rgba(255,255,255,0.12)" stroke-width="2" />
</svg>