<?xml version="1.0" encoding="UTF-8"?>
<svg width="1200" height="1600" viewBox="0 0 1200 1600" fill="none" xmlns="http://www.w3.org/2000/svg">
  <defs>
    <linearGradient id="bg-1" x1="0" y1="0" x2="1200" y2="1600" gradientUnits="userSpaceOnUse">
      <stop stop-color="#e6d7c3" />
      <stop offset="0.54" stop-color="#b79f85" />
      <stop offset="1" stop-color="#201915" />
    </linearGradient>
    <linearGradient id="bg-soft-1" x1="1200" y1="0" x2="0" y2="1600" gradientUnits="userSpaceOnUse">
      <stop stop-color="#b79f85" />
      <stop offset="0.52" stop-color="#6a5541" />
      <stop offset="1" stop-color="#201915" />
    </linearGradient>
    <filter id="blur-1">
      <feGaussianBlur stdDeviation="26" />
    </filter>
  </defs>
  <rect width="1200" height="1600" fill="url(#bg-soft-1)" />
  <rect x="0" y="0" width="1200" height="1600" fill="rgba(255,255,255,0.06)" />
  <circle cx="740" cy="906" r="249" fill="#6a5541" opacity="0.33" filter="url(#blur-1)" />
  <circle cx="859" cy="1426" r="388" fill="#b79f85" opacity="0.32" filter="url(#blur-1)" />
  <circle cx="321" cy="1061" r="366" fill="#6a5541" opacity="0.31" filter="url(#blur-1)" />
  <circle cx="886" cy="505" r="317" fill="#b79f85" opacity="0.17" filter="url(#blur-1)" />
  <circle cx="781" cy="1051" r="286" fill="#6a5541" opacity="0.13" filter="url(#blur-1)" />
  <rect x="542" y="613" width="131" height="39" rx="19.5" fill="#e6d7c3" opacity="0.18" transform="rotate(-18 607.5 632.5)" />
  <rect x="641" y="1336" width="301" height="12" rx="6" fill="#b79f85" opacity="0.36" transform="rotate(-12 791.5 1342)" />
  <rect x="195" y="304" width="80" height="16" rx="8" fill="#201915" opacity="0.36" transform="rotate(-12 235 312)" />
  <rect x="635" y="663" width="127" height="16" rx="8" fill="#e6d7c3" opacity="0.26" transform="rotate(-30 698.5 671)" />
  <rect x="622" y="217" width="255" height="45" rx="22.5" fill="#b79f85" opacity="0.35" transform="rotate(6 749.5 239.5)" />
  <rect x="572" y="54" width="242" height="48" rx="24" fill="#201915" opacity="0.29" transform="rotate(-7 693 78)" />
  <rect x="559" y="774" width="230" height="46" rx="23" fill="#e6d7c3" opacity="0.26" transform="rotate(-11 674 797)" />
  <rect x="101" y="373" width="267" height="31" rx="15.5" fill="#b79f85" opacity="0.31" transform="rotate(34 234.5 388.5)" />
  <path d="M 881 935 Q 983 1263 852 501" stroke="#201915" stroke-width="18" stroke-linecap="round" opacity="0.54" fill="none" />
  <path d="M 959 742 Q 951 687 402 492" stroke="#e6d7c3" stroke-width="24" stroke-linecap="round" opacity="0.50" fill="none" />
  <path d="M 135 1286 Q 106 1276 197 1211" stroke="#201915" stroke-width="30" stroke-linecap="round" opacity="0.55" fill="none" />
  <path d="M 1084 1025 Q 817 834 302 275" stroke="#e6d7c3" stroke-width="36" stroke-linecap="round" opacity="0.39" fill="none" />
  <rect x="76" y="78" width="1048" height="1444" rx="72" stroke="rgba(255,255,255,0.12)" stroke-width="2" />
</svg>