<?xml version="1.0" encoding="UTF-8"?>
<svg width="1200" height="1600" viewBox="0 0 1200 1600" fill="none" xmlns="http://www.w3.org/2000/svg">
  <defs>
    <linearGradient id="bg-2" x1="0" y1="0" x2="1200" y2="1600" gradientUnits="userSpaceOnUse">
      <stop stop-color="#e6d7c3" />
      <stop offset="0.54" stop-color="#b79f85" />
      <stop offset="1" stop-color="#201915" />
    </linearGradient>
    <linearGradient id="bg-soft-2" x1="1200" y1="0" x2="0" y2="1600" gradientUnits="userSpaceOnUse">
      <stop stop-color="#b79f85" />
      <stop offset="0.52" stop-color="#6a5541" />
      <stop offset="1" stop-color="#201915" />
    </linearGradient>
    <filter id="blur-2">
      <feGaussianBlur stdDeviation="28" />
    </filter>
  </defs>
  <rect width="1200" height="1600" fill="url(#bg-2)" />
  <rect x="0" y="0" width="1200" height="1600" fill="rgba(255,255,255,0.06)" />
  <circle cx="693" cy="702" r="241" fill="#6a5541" opacity="0.15" filter="url(#blur-2)" />
  <circle cx="421" cy="968" r="281" fill="#b79f85" opacity="0.16" filter="url(#blur-2)" />
  <circle cx="955" cy="1137" r="359" fill="#6a5541" opacity="0.20" filter="url(#blur-2)" />
  <circle cx="847" cy="559" r="140" fill="#b79f85" opacity="0.17" filter="url(#blur-2)" />
  <circle cx="350" cy="826" r="340" fill="#6a5541" opacity="0.22" filter="url(#blur-2)" />
  <rect x="1055" y="54" width="250" height="22" rx="11" fill="#e6d7c3" opacity="0.37" transform="rotate(-34 1180 65)" />
  <rect x="226" y="925" width="154" height="38" rx="19" fill="#b79f85" opacity="0.31" transform="rotate(-17 303 944)" />
  <rect x="110" y="1252" width="206" height="52" rx="26" fill="#201915" opacity="0.22" transform="rotate(-9 213 1278)" />
  <rect x="275" y="486" width="217" height="46" rx="23" fill="#e6d7c3" opacity="0.31" transform="rotate(-19 383.5 509)" />
  <rect x="1058" y="1177" width="302" height="12" rx="6" fill="#b79f85" opacity="0.30" transform="rotate(4 1209 1183)" />
  <rect x="190" y="1078" width="98" height="47" rx="23.5" fill="#201915" opacity="0.23" transform="rotate(14 239 1101.5)" />
  <rect x="211" y="1365" width="294" height="29" rx="14.5" fill="#e6d7c3" opacity="0.33" transform="rotate(-31 358 1379.5)" />
  <rect x="542" y="46" width="114" height="45" rx="22.5" fill="#b79f85" opacity="0.27" transform="rotate(-26 599 68.5)" />
  <path d="M 617 586 Q 699 682 1045 753" stroke="#201915" stroke-width="18" stroke-linecap="round" opacity="0.39" fill="none" />
  <path d="M 668 606 Q 694 1175 508 702" stroke="#e6d7c3" stroke-width="24" stroke-linecap="round" opacity="0.39" fill="none" />
  <path d="M 519 1103 Q 519 847 429 218" stroke="#201915" stroke-width="30" stroke-linecap="round" opacity="0.43" fill="none" />
  <path d="M 747 1127 Q 741 962 513 1211" stroke="#e6d7c3" stroke-width="36" stroke-linecap="round" opacity="0.52" fill="none" />
  <rect x="76" y="78" width="1048" height="1444" rx="72" stroke="rgba(255,255,255,0.12)" stroke-width="2" />
</svg>