<?xml version="1.0" encoding="UTF-8"?>
<svg width="1200" height="1600" viewBox="0 0 1200 1600" fill="none" xmlns="http://www.w3.org/2000/svg">
  <defs>
    <linearGradient id="bg-1" x1="0" y1="0" x2="1200" y2="1600" gradientUnits="userSpaceOnUse">
      <stop stop-color="#e6d7c3" />
      <stop offset="0.54" stop-color="#b79f85" />
      <stop offset="1" stop-color="#201915" />
    </linearGradient>
    <linearGradient id="bg-soft-1" x1="1200" y1="0" x2="0" y2="1600" gradientUnits="userSpaceOnUse">
      <stop stop-color="#b79f85" />
      <stop offset="0.52" stop-color="#6a5541" />
      <stop offset="1" stop-color="#201915" />
    </linearGradient>
    <filter id="blur-1">
      <feGaussianBlur stdDeviation="26" />
    </filter>
  </defs>
  <rect width="1200" height="1600" fill="url(#bg-soft-1)" />
  <rect x="0" y="0" width="1200" height="1600" fill="rgba(255,255,255,0.06)" />
  <circle cx="433" cy="787" r="265" fill="#6a5541" opacity="0.30" filter="url(#blur-1)" />
  <circle cx="997" cy="444" r="223" fill="#b79f85" opacity="0.28" filter="url(#blur-1)" />
  <circle cx="578" cy="1378" r="209" fill="#6a5541" opacity="0.30" filter="url(#blur-1)" />
  <circle cx="531" cy="1434" r="128" fill="#b79f85" opacity="0.13" filter="url(#blur-1)" />
  <circle cx="154" cy="199" r="308" fill="#6a5541" opacity="0.16" filter="url(#blur-1)" />
  <rect x="1005" y="515" width="120" height="40" rx="20" fill="#e6d7c3" opacity="0.32" transform="rotate(-16 1065 535)" />
  <rect x="976" y="125" width="214" height="17" rx="8.5" fill="#b79f85" opacity="0.22" transform="rotate(-24 1083 133.5)" />
  <rect x="536" y="1246" width="303" height="50" rx="25" fill="#201915" opacity="0.38" transform="rotate(10 687.5 1271)" />
  <rect x="232" y="872" width="153" height="38" rx="19" fill="#e6d7c3" opacity="0.33" transform="rotate(-17 308.5 891)" />
  <rect x="722" y="465" width="315" height="39" rx="19.5" fill="#b79f85" opacity="0.22" transform="rotate(-18 879.5 484.5)" />
  <rect x="577" y="192" width="299" height="50" rx="25" fill="#201915" opacity="0.27" transform="rotate(24 726.5 217)" />
  <rect x="925" y="1258" width="314" height="49" rx="24.5" fill="#e6d7c3" opacity="0.29" transform="rotate(-5 1082 1282.5)" />
  <rect x="912" y="744" width="173" height="41" rx="20.5" fill="#b79f85" opacity="0.24" transform="rotate(11 998.5 764.5)" />
  <path d="M 319 1230 Q 598 1228 875 681" stroke="#201915" stroke-width="18" stroke-linecap="round" opacity="0.60" fill="none" />
  <path d="M 908 868 Q 662 521 836 1053" stroke="#e6d7c3" stroke-width="24" stroke-linecap="round" opacity="0.50" fill="none" />
  <path d="M 262 1261 Q 328 673 568 703" stroke="#201915" stroke-width="30" stroke-linecap="round" opacity="0.44" fill="none" />
  <path d="M 707 948 Q 915 443 370 706" stroke="#e6d7c3" stroke-width="36" stroke-linecap="round" opacity="0.41" fill="none" />
  <rect x="76" y="78" width="1048" height="1444" rx="72" stroke="rgba(255,255,255,0.12)" stroke-width="2" />
</svg>