<?xml version="1.0" encoding="UTF-8"?>
<svg width="1200" height="1600" viewBox="0 0 1200 1600" fill="none" xmlns="http://www.w3.org/2000/svg">
  <defs>
    <linearGradient id="bg-0" x1="0" y1="0" x2="1200" y2="1600" gradientUnits="userSpaceOnUse">
      <stop stop-color="#e6d7c3" />
      <stop offset="0.54" stop-color="#b79f85" />
      <stop offset="1" stop-color="#201915" />
    </linearGradient>
    <linearGradient id="bg-soft-0" x1="1200" y1="0" x2="0" y2="1600" gradientUnits="userSpaceOnUse">
      <stop stop-color="#b79f85" />
      <stop offset="0.52" stop-color="#6a5541" />
      <stop offset="1" stop-color="#201915" />
    </linearGradient>
    <filter id="blur-0">
      <feGaussianBlur stdDeviation="24" />
    </filter>
  </defs>
  <rect width="1200" height="1600" fill="url(#bg-0)" />
  <rect x="0" y="0" width="1200" height="1600" fill="rgba(255,255,255,0.06)" />
  <circle cx="887" cy="670" r="228" fill="#6a5541" opacity="0.15" filter="url(#blur-0)" />
  <circle cx="822" cy="346" r="154" fill="#b79f85" opacity="0.22" filter="url(#blur-0)" />
  <circle cx="639" cy="973" r="204" fill="#6a5541" opacity="0.16" filter="url(#blur-0)" />
  <circle cx="420" cy="771" r="359" fill="#b79f85" opacity="0.17" filter="url(#blur-0)" />
  <circle cx="1051" cy="1298" r="321" fill="#6a5541" opacity="0.23" filter="url(#blur-0)" />
  <rect x="421" y="547" width="244" height="46" rx="23" fill="#e6d7c3" opacity="0.26" transform="rotate(5 543 570)" />
  <rect x="277" y="851" width="139" height="43" rx="21.5" fill="#b79f85" opacity="0.33" transform="rotate(8 346.5 872.5)" />
  <rect x="978" y="700" width="186" height="15" rx="7.5" fill="#201915" opacity="0.34" transform="rotate(-24 1071 707.5)" />
  <rect x="286" y="1121" width="270" height="42" rx="21" fill="#e6d7c3" opacity="0.25" transform="rotate(-20 421 1142)" />
  <rect x="858" y="1029" width="204" height="21" rx="10.5" fill="#b79f85" opacity="0.33" transform="rotate(10 960 1039.5)" />
  <rect x="640" y="1251" width="200" height="13" rx="6.5" fill="#201915" opacity="0.33" transform="rotate(-32 740 1257.5)" />
  <rect x="668" y="837" width="117" height="48" rx="24" fill="#e6d7c3" opacity="0.18" transform="rotate(-6 726.5 861)" />
  <rect x="65" y="1090" width="213" height="52" rx="26" fill="#b79f85" opacity="0.35" transform="rotate(-35 171.5 1116)" />
  <path d="M 737 662 Q 353 1040 851 938" stroke="#201915" stroke-width="18" stroke-linecap="round" opacity="0.53" fill="none" />
  <path d="M 405 341 Q 832 303 499 844" stroke="#e6d7c3" stroke-width="24" stroke-linecap="round" opacity="0.53" fill="none" />
  <path d="M 946 546 Q 499 590 668 1048" stroke="#201915" stroke-width="30" stroke-linecap="round" opacity="0.57" fill="none" />
  <path d="M 830 391 Q 288 1205 551 1041" stroke="#e6d7c3" stroke-width="36" stroke-linecap="round" opacity="0.55" fill="none" />
  <rect x="76" y="78" width="1048" height="1444" rx="72" stroke="rgba(255,255,255,0.12)" stroke-width="2" />
</svg>