<?xml version="1.0" encoding="UTF-8"?>
<svg width="1200" height="1600" viewBox="0 0 1200 1600" fill="none" xmlns="http://www.w3.org/2000/svg">
  <defs>
    <linearGradient id="bg-2" x1="0" y1="0" x2="1200" y2="1600" gradientUnits="userSpaceOnUse">
      <stop stop-color="#e6d7c3" />
      <stop offset="0.54" stop-color="#b79f85" />
      <stop offset="1" stop-color="#201915" />
    </linearGradient>
    <linearGradient id="bg-soft-2" x1="1200" y1="0" x2="0" y2="1600" gradientUnits="userSpaceOnUse">
      <stop stop-color="#b79f85" />
      <stop offset="0.52" stop-color="#6a5541" />
      <stop offset="1" stop-color="#201915" />
    </linearGradient>
    <filter id="blur-2">
      <feGaussianBlur stdDeviation="28" />
    </filter>
  </defs>
  <rect width="1200" height="1600" fill="url(#bg-2)" />
  <rect x="0" y="0" width="1200" height="1600" fill="rgba(255,255,255,0.06)" />
  <circle cx="735" cy="791" r="279" fill="#6a5541" opacity="0.32" filter="url(#blur-2)" />
  <circle cx="700" cy="474" r="267" fill="#b79f85" opacity="0.28" filter="url(#blur-2)" />
  <circle cx="771" cy="454" r="170" fill="#6a5541" opacity="0.21" filter="url(#blur-2)" />
  <circle cx="345" cy="1161" r="353" fill="#b79f85" opacity="0.28" filter="url(#blur-2)" />
  <circle cx="657" cy="292" r="341" fill="#6a5541" opacity="0.26" filter="url(#blur-2)" />
  <rect x="747" y="738" width="96" height="11" rx="5.5" fill="#e6d7c3" opacity="0.24" transform="rotate(1 795 743.5)" />
  <rect x="380" y="1321" width="87" height="46" rx="23" fill="#b79f85" opacity="0.34" transform="rotate(-34 423.5 1344)" />
  <rect x="506" y="711" width="180" height="26" rx="13" fill="#201915" opacity="0.24" transform="rotate(-16 596 724)" />
  <rect x="553" y="769" width="231" height="28" rx="14" fill="#e6d7c3" opacity="0.21" transform="rotate(-3 668.5 783)" />
  <rect x="692" y="146" width="94" height="33" rx="16.5" fill="#b79f85" opacity="0.26" transform="rotate(17 739 162.5)" />
  <rect x="604" y="703" width="208" height="28" rx="14" fill="#201915" opacity="0.30" transform="rotate(-29 708 717)" />
  <rect x="416" y="637" width="317" height="43" rx="21.5" fill="#e6d7c3" opacity="0.27" transform="rotate(-21 574.5 658.5)" />
  <rect x="651" y="1041" width="270" height="14" rx="7" fill="#b79f85" opacity="0.20" transform="rotate(25 786 1048)" />
  <path d="M 468 582 Q 855 558 288 635" stroke="#201915" stroke-width="18" stroke-linecap="round" opacity="0.41" fill="none" />
  <path d="M 534 270 Q 121 557 528 990" stroke="#e6d7c3" stroke-width="24" stroke-linecap="round" opacity="0.51" fill="none" />
  <path d="M 786 575 Q 511 782 147 172" stroke="#201915" stroke-width="30" stroke-linecap="round" opacity="0.38" fill="none" />
  <path d="M 162 552 Q 227 225 972 149" stroke="#e6d7c3" stroke-width="36" stroke-linecap="round" opacity="0.46" fill="none" />
  <rect x="76" y="78" width="1048" height="1444" rx="72" stroke="rgba(255,255,255,0.12)" stroke-width="2" />
</svg>