<?xml version="1.0" encoding="UTF-8"?>
<svg width="1200" height="1600" viewBox="0 0 1200 1600" fill="none" xmlns="http://www.w3.org/2000/svg">
  <defs>
    <linearGradient id="bg-0" x1="0" y1="0" x2="1200" y2="1600" gradientUnits="userSpaceOnUse">
      <stop stop-color="#e6d7c3" />
      <stop offset="0.54" stop-color="#b79f85" />
      <stop offset="1" stop-color="#201915" />
    </linearGradient>
    <linearGradient id="bg-soft-0" x1="1200" y1="0" x2="0" y2="1600" gradientUnits="userSpaceOnUse">
      <stop stop-color="#b79f85" />
      <stop offset="0.52" stop-color="#6a5541" />
      <stop offset="1" stop-color="#201915" />
    </linearGradient>
    <filter id="blur-0">
      <feGaussianBlur stdDeviation="24" />
    </filter>
  </defs>
  <rect width="1200" height="1600" fill="url(#bg-0)" />
  <rect x="0" y="0" width="1200" height="1600" fill="rgba(255,255,255,0.06)" />
  <circle cx="152" cy="509" r="380" fill="#6a5541" opacity="0.18" filter="url(#blur-0)" />
  <circle cx="264" cy="1247" r="231" fill="#b79f85" opacity="0.17" filter="url(#blur-0)" />
  <circle cx="513" cy="1235" r="316" fill="#6a5541" opacity="0.25" filter="url(#blur-0)" />
  <circle cx="1033" cy="854" r="324" fill="#b79f85" opacity="0.32" filter="url(#blur-0)" />
  <circle cx="598" cy="1164" r="273" fill="#6a5541" opacity="0.18" filter="url(#blur-0)" />
  <rect x="268" y="816" width="161" height="35" rx="17.5" fill="#e6d7c3" opacity="0.18" transform="rotate(3 348.5 833.5)" />
  <rect x="102" y="905" width="260" height="40" rx="20" fill="#b79f85" opacity="0.32" transform="rotate(33 232 925)" />
  <rect x="871" y="818" width="288" height="47" rx="23.5" fill="#201915" opacity="0.27" transform="rotate(-9 1015 841.5)" />
  <rect x="610" y="313" width="188" height="43" rx="21.5" fill="#e6d7c3" opacity="0.27" transform="rotate(28 704 334.5)" />
  <rect x="259" y="317" width="107" height="32" rx="16" fill="#b79f85" opacity="0.19" transform="rotate(11 312.5 333)" />
  <rect x="629" y="1027" width="144" height="37" rx="18.5" fill="#201915" opacity="0.28" transform="rotate(-4 701 1045.5)" />
  <rect x="496" y="1007" width="132" height="50" rx="25" fill="#e6d7c3" opacity="0.34" transform="rotate(32 562 1032)" />
  <rect x="139" y="781" width="241" height="25" rx="12.5" fill="#b79f85" opacity="0.30" transform="rotate(23 259.5 793.5)" />
  <path d="M 536 1165 Q 584 785 869 1026" stroke="#201915" stroke-width="18" stroke-linecap="round" opacity="0.54" fill="none" />
  <path d="M 433 539 Q 759 593 759 277" stroke="#e6d7c3" stroke-width="24" stroke-linecap="round" opacity="0.38" fill="none" />
  <path d="M 815 1109 Q 812 163 718 177" stroke="#201915" stroke-width="30" stroke-linecap="round" opacity="0.47" fill="none" />
  <path d="M 867 303 Q 813 251 498 780" stroke="#e6d7c3" stroke-width="36" stroke-linecap="round" opacity="0.50" fill="none" />
  <rect x="76" y="78" width="1048" height="1444" rx="72" stroke="rgba(255,255,255,0.12)" stroke-width="2" />
</svg>