<?xml version="1.0" encoding="UTF-8"?>
<svg width="1200" height="1600" viewBox="0 0 1200 1600" fill="none" xmlns="http://www.w3.org/2000/svg">
  <defs>
    <linearGradient id="bg-1" x1="0" y1="0" x2="1200" y2="1600" gradientUnits="userSpaceOnUse">
      <stop stop-color="#e6d7c3" />
      <stop offset="0.54" stop-color="#b79f85" />
      <stop offset="1" stop-color="#201915" />
    </linearGradient>
    <linearGradient id="bg-soft-1" x1="1200" y1="0" x2="0" y2="1600" gradientUnits="userSpaceOnUse">
      <stop stop-color="#b79f85" />
      <stop offset="0.52" stop-color="#6a5541" />
      <stop offset="1" stop-color="#201915" />
    </linearGradient>
    <filter id="blur-1">
      <feGaussianBlur stdDeviation="26" />
    </filter>
  </defs>
  <rect width="1200" height="1600" fill="url(#bg-soft-1)" />
  <rect x="0" y="0" width="1200" height="1600" fill="rgba(255,255,255,0.06)" />
  <circle cx="677" cy="714" r="335" fill="#6a5541" opacity="0.14" filter="url(#blur-1)" />
  <circle cx="986" cy="1128" r="178" fill="#b79f85" opacity="0.18" filter="url(#blur-1)" />
  <circle cx="1025" cy="639" r="304" fill="#6a5541" opacity="0.24" filter="url(#blur-1)" />
  <circle cx="1059" cy="186" r="138" fill="#b79f85" opacity="0.25" filter="url(#blur-1)" />
  <circle cx="250" cy="909" r="180" fill="#6a5541" opacity="0.28" filter="url(#blur-1)" />
  <rect x="488" y="1065" width="91" height="10" rx="5" fill="#e6d7c3" opacity="0.29" transform="rotate(23 533.5 1070)" />
  <rect x="959" y="1372" width="278" height="21" rx="10.5" fill="#b79f85" opacity="0.25" transform="rotate(-4 1098 1382.5)" />
  <rect x="315" y="1048" width="84" height="45" rx="22.5" fill="#201915" opacity="0.26" transform="rotate(14 357 1070.5)" />
  <rect x="754" y="1171" width="231" height="45" rx="22.5" fill="#e6d7c3" opacity="0.37" transform="rotate(16 869.5 1193.5)" />
  <rect x="930" y="1338" width="287" height="12" rx="6" fill="#b79f85" opacity="0.35" transform="rotate(2 1073.5 1344)" />
  <rect x="489" y="1371" width="81" height="36" rx="18" fill="#201915" opacity="0.28" transform="rotate(2 529.5 1389)" />
  <rect x="342" y="551" width="151" height="49" rx="24.5" fill="#e6d7c3" opacity="0.32" transform="rotate(-34 417.5 575.5)" />
  <rect x="808" y="863" width="182" height="37" rx="18.5" fill="#b79f85" opacity="0.24" transform="rotate(17 899 881.5)" />
  <path d="M 928 926 Q 965 1088 922 1102" stroke="#201915" stroke-width="18" stroke-linecap="round" opacity="0.59" fill="none" />
  <path d="M 611 1279 Q 644 748 878 1158" stroke="#e6d7c3" stroke-width="24" stroke-linecap="round" opacity="0.40" fill="none" />
  <path d="M 285 1172 Q 938 886 274 568" stroke="#201915" stroke-width="30" stroke-linecap="round" opacity="0.47" fill="none" />
  <path d="M 803 533 Q 1069 118 761 233" stroke="#e6d7c3" stroke-width="36" stroke-linecap="round" opacity="0.47" fill="none" />
  <rect x="76" y="78" width="1048" height="1444" rx="72" stroke="rgba(255,255,255,0.12)" stroke-width="2" />
</svg>