<?xml version="1.0" encoding="UTF-8"?>
<svg width="1200" height="1600" viewBox="0 0 1200 1600" fill="none" xmlns="http://www.w3.org/2000/svg">
  <defs>
    <linearGradient id="bg-1" x1="0" y1="0" x2="1200" y2="1600" gradientUnits="userSpaceOnUse">
      <stop stop-color="#f5ede2" />
      <stop offset="0.54" stop-color="#d0b28c" />
      <stop offset="1" stop-color="#2a2018" />
    </linearGradient>
    <linearGradient id="bg-soft-1" x1="1200" y1="0" x2="0" y2="1600" gradientUnits="userSpaceOnUse">
      <stop stop-color="#d0b28c" />
      <stop offset="0.52" stop-color="#9c7350" />
      <stop offset="1" stop-color="#2a2018" />
    </linearGradient>
    <filter id="blur-1">
      <feGaussianBlur stdDeviation="26" />
    </filter>
  </defs>
  <rect width="1200" height="1600" fill="url(#bg-soft-1)" />
  <rect x="0" y="0" width="1200" height="1600" fill="rgba(255,255,255,0.06)" />
  <circle cx="250" cy="1216" r="243" fill="#9c7350" opacity="0.30" filter="url(#blur-1)" />
  <circle cx="319" cy="734" r="141" fill="#d0b28c" opacity="0.31" filter="url(#blur-1)" />
  <circle cx="758" cy="1348" r="291" fill="#9c7350" opacity="0.12" filter="url(#blur-1)" />
  <circle cx="240" cy="457" r="228" fill="#d0b28c" opacity="0.23" filter="url(#blur-1)" />
  <circle cx="567" cy="974" r="152" fill="#9c7350" opacity="0.14" filter="url(#blur-1)" />
  <rect x="291" y="1139" width="196" height="34" rx="17" fill="#f5ede2" opacity="0.24" transform="rotate(23 389 1156)" />
  <rect x="458" y="507" width="239" height="11" rx="5.5" fill="#d0b28c" opacity="0.25" transform="rotate(16 577.5 512.5)" />
  <rect x="25" y="743" width="289" height="47" rx="23.5" fill="#2a2018" opacity="0.20" transform="rotate(33 169.5 766.5)" />
  <rect x="1024" y="5" width="169" height="18" rx="9" fill="#f5ede2" opacity="0.27" transform="rotate(-31 1108.5 14)" />
  <rect x="653" y="439" width="146" height="28" rx="14" fill="#d0b28c" opacity="0.20" transform="rotate(-2 726 453)" />
  <rect x="747" y="1148" width="150" height="33" rx="16.5" fill="#2a2018" opacity="0.22" transform="rotate(-4 822 1164.5)" />
  <rect x="61" y="468" width="152" height="43" rx="21.5" fill="#f5ede2" opacity="0.20" transform="rotate(-3 137 489.5)" />
  <rect x="336" y="223" width="267" height="22" rx="11" fill="#d0b28c" opacity="0.29" transform="rotate(10 469.5 234)" />
  <path d="M 252 199 Q 412 949 209 615" stroke="#2a2018" stroke-width="18" stroke-linecap="round" opacity="0.48" fill="none" />
  <path d="M 365 345 Q 723 805 1026 131" stroke="#f5ede2" stroke-width="24" stroke-linecap="round" opacity="0.49" fill="none" />
  <path d="M 1100 1056 Q 990 974 221 885" stroke="#2a2018" stroke-width="30" stroke-linecap="round" opacity="0.38" fill="none" />
  <path d="M 153 975 Q 703 1106 166 1023" stroke="#f5ede2" stroke-width="36" stroke-linecap="round" opacity="0.55" fill="none" />
  <rect x="76" y="78" width="1048" height="1444" rx="72" stroke="rgba(255,255,255,0.12)" stroke-width="2" />
</svg>