<?xml version="1.0" encoding="UTF-8"?>
<svg width="1200" height="1600" viewBox="0 0 1200 1600" fill="none" xmlns="http://www.w3.org/2000/svg">
  <defs>
    <linearGradient id="bg-2" x1="0" y1="0" x2="1200" y2="1600" gradientUnits="userSpaceOnUse">
      <stop stop-color="#f5ede2" />
      <stop offset="0.54" stop-color="#d0b28c" />
      <stop offset="1" stop-color="#2a2018" />
    </linearGradient>
    <linearGradient id="bg-soft-2" x1="1200" y1="0" x2="0" y2="1600" gradientUnits="userSpaceOnUse">
      <stop stop-color="#d0b28c" />
      <stop offset="0.52" stop-color="#9c7350" />
      <stop offset="1" stop-color="#2a2018" />
    </linearGradient>
    <filter id="blur-2">
      <feGaussianBlur stdDeviation="28" />
    </filter>
  </defs>
  <rect width="1200" height="1600" fill="url(#bg-2)" />
  <rect x="0" y="0" width="1200" height="1600" fill="rgba(255,255,255,0.06)" />
  <circle cx="963" cy="1055" r="267" fill="#9c7350" opacity="0.16" filter="url(#blur-2)" />
  <circle cx="980" cy="604" r="227" fill="#d0b28c" opacity="0.12" filter="url(#blur-2)" />
  <circle cx="717" cy="426" r="113" fill="#9c7350" opacity="0.25" filter="url(#blur-2)" />
  <circle cx="734" cy="1008" r="313" fill="#d0b28c" opacity="0.19" filter="url(#blur-2)" />
  <circle cx="1033" cy="1385" r="202" fill="#9c7350" opacity="0.21" filter="url(#blur-2)" />
  <rect x="566" y="944" width="312" height="14" rx="7" fill="#f5ede2" opacity="0.34" transform="rotate(-27 722 951)" />
  <rect x="839" y="454" width="95" height="24" rx="12" fill="#d0b28c" opacity="0.28" transform="rotate(13 886.5 466)" />
  <rect x="720" y="234" width="153" height="47" rx="23.5" fill="#2a2018" opacity="0.25" transform="rotate(-30 796.5 257.5)" />
  <rect x="814" y="152" width="266" height="45" rx="22.5" fill="#f5ede2" opacity="0.26" transform="rotate(-25 947 174.5)" />
  <rect x="533" y="587" width="305" height="47" rx="23.5" fill="#d0b28c" opacity="0.26" transform="rotate(30 685.5 610.5)" />
  <rect x="9" y="1297" width="261" height="51" rx="25.5" fill="#2a2018" opacity="0.26" transform="rotate(3 139.5 1322.5)" />
  <rect x="51" y="831" width="90" height="24" rx="12" fill="#f5ede2" opacity="0.33" transform="rotate(14 96 843)" />
  <rect x="46" y="1340" width="279" height="52" rx="26" fill="#d0b28c" opacity="0.30" transform="rotate(30 185.5 1366)" />
  <path d="M 410 1115 Q 300 835 672 1114" stroke="#2a2018" stroke-width="18" stroke-linecap="round" opacity="0.47" fill="none" />
  <path d="M 255 824 Q 764 544 792 435" stroke="#f5ede2" stroke-width="24" stroke-linecap="round" opacity="0.36" fill="none" />
  <path d="M 678 946 Q 681 1202 146 1012" stroke="#2a2018" stroke-width="30" stroke-linecap="round" opacity="0.36" fill="none" />
  <path d="M 928 210 Q 338 660 881 900" stroke="#f5ede2" stroke-width="36" stroke-linecap="round" opacity="0.55" fill="none" />
  <rect x="76" y="78" width="1048" height="1444" rx="72" stroke="rgba(255,255,255,0.12)" stroke-width="2" />
</svg>