<?xml version="1.0" encoding="UTF-8"?>
<svg width="1200" height="1600" viewBox="0 0 1200 1600" fill="none" xmlns="http://www.w3.org/2000/svg">
  <defs>
    <linearGradient id="bg-1" x1="0" y1="0" x2="1200" y2="1600" gradientUnits="userSpaceOnUse">
      <stop stop-color="#f5ede2" />
      <stop offset="0.54" stop-color="#d0b28c" />
      <stop offset="1" stop-color="#2a2018" />
    </linearGradient>
    <linearGradient id="bg-soft-1" x1="1200" y1="0" x2="0" y2="1600" gradientUnits="userSpaceOnUse">
      <stop stop-color="#d0b28c" />
      <stop offset="0.52" stop-color="#9c7350" />
      <stop offset="1" stop-color="#2a2018" />
    </linearGradient>
    <filter id="blur-1">
      <feGaussianBlur stdDeviation="26" />
    </filter>
  </defs>
  <rect width="1200" height="1600" fill="url(#bg-soft-1)" />
  <rect x="0" y="0" width="1200" height="1600" fill="rgba(255,255,255,0.06)" />
  <circle cx="671" cy="1384" r="211" fill="#9c7350" opacity="0.26" filter="url(#blur-1)" />
  <circle cx="424" cy="701" r="227" fill="#d0b28c" opacity="0.17" filter="url(#blur-1)" />
  <circle cx="876" cy="1163" r="309" fill="#9c7350" opacity="0.21" filter="url(#blur-1)" />
  <circle cx="1059" cy="1063" r="263" fill="#d0b28c" opacity="0.34" filter="url(#blur-1)" />
  <circle cx="853" cy="742" r="282" fill="#9c7350" opacity="0.34" filter="url(#blur-1)" />
  <rect x="84" y="1386" width="99" height="34" rx="17" fill="#f5ede2" opacity="0.34" transform="rotate(16 133.5 1403)" />
  <rect x="533" y="776" width="224" height="47" rx="23.5" fill="#d0b28c" opacity="0.37" transform="rotate(-4 645 799.5)" />
  <rect x="160" y="833" width="211" height="20" rx="10" fill="#2a2018" opacity="0.34" transform="rotate(-31 265.5 843)" />
  <rect x="1053" y="1005" width="220" height="49" rx="24.5" fill="#f5ede2" opacity="0.35" transform="rotate(20 1163 1029.5)" />
  <rect x="455" y="511" width="273" height="30" rx="15" fill="#d0b28c" opacity="0.29" transform="rotate(24 591.5 526)" />
  <rect x="838" y="685" width="130" height="14" rx="7" fill="#2a2018" opacity="0.33" transform="rotate(9 903 692)" />
  <rect x="514" y="1311" width="205" height="39" rx="19.5" fill="#f5ede2" opacity="0.25" transform="rotate(4 616.5 1330.5)" />
  <rect x="720" y="59" width="171" height="27" rx="13.5" fill="#d0b28c" opacity="0.37" transform="rotate(12 805.5 72.5)" />
  <path d="M 1062 1293 Q 783 348 624 458" stroke="#2a2018" stroke-width="18" stroke-linecap="round" opacity="0.53" fill="none" />
  <path d="M 922 178 Q 411 663 787 569" stroke="#f5ede2" stroke-width="24" stroke-linecap="round" opacity="0.41" fill="none" />
  <path d="M 951 418 Q 711 522 111 272" stroke="#2a2018" stroke-width="30" stroke-linecap="round" opacity="0.38" fill="none" />
  <path d="M 759 381 Q 189 976 397 340" stroke="#f5ede2" stroke-width="36" stroke-linecap="round" opacity="0.37" fill="none" />
  <rect x="76" y="78" width="1048" height="1444" rx="72" stroke="rgba(255,255,255,0.12)" stroke-width="2" />
</svg>