<?xml version="1.0" encoding="UTF-8"?>
<svg width="1200" height="1600" viewBox="0 0 1200 1600" fill="none" xmlns="http://www.w3.org/2000/svg">
  <defs>
    <linearGradient id="bg-2" x1="0" y1="0" x2="1200" y2="1600" gradientUnits="userSpaceOnUse">
      <stop stop-color="#f5ede2" />
      <stop offset="0.54" stop-color="#d0b28c" />
      <stop offset="1" stop-color="#2a2018" />
    </linearGradient>
    <linearGradient id="bg-soft-2" x1="1200" y1="0" x2="0" y2="1600" gradientUnits="userSpaceOnUse">
      <stop stop-color="#d0b28c" />
      <stop offset="0.52" stop-color="#9c7350" />
      <stop offset="1" stop-color="#2a2018" />
    </linearGradient>
    <filter id="blur-2">
      <feGaussianBlur stdDeviation="28" />
    </filter>
  </defs>
  <rect width="1200" height="1600" fill="url(#bg-2)" />
  <rect x="0" y="0" width="1200" height="1600" fill="rgba(255,255,255,0.06)" />
  <circle cx="909" cy="622" r="214" fill="#9c7350" opacity="0.12" filter="url(#blur-2)" />
  <circle cx="945" cy="1031" r="182" fill="#d0b28c" opacity="0.14" filter="url(#blur-2)" />
  <circle cx="682" cy="292" r="137" fill="#9c7350" opacity="0.18" filter="url(#blur-2)" />
  <circle cx="905" cy="403" r="137" fill="#d0b28c" opacity="0.27" filter="url(#blur-2)" />
  <circle cx="523" cy="705" r="206" fill="#9c7350" opacity="0.33" filter="url(#blur-2)" />
  <rect x="846" y="750" width="216" height="29" rx="14.5" fill="#f5ede2" opacity="0.31" transform="rotate(-24 954 764.5)" />
  <rect x="1043" y="74" width="283" height="15" rx="7.5" fill="#d0b28c" opacity="0.25" transform="rotate(-32 1184.5 81.5)" />
  <rect x="956" y="873" width="118" height="16" rx="8" fill="#2a2018" opacity="0.28" transform="rotate(30 1015 881)" />
  <rect x="969" y="201" width="152" height="18" rx="9" fill="#f5ede2" opacity="0.33" transform="rotate(12 1045 210)" />
  <rect x="763" y="1376" width="295" height="19" rx="9.5" fill="#d0b28c" opacity="0.35" transform="rotate(17 910.5 1385.5)" />
  <rect x="259" y="1146" width="222" height="11" rx="5.5" fill="#2a2018" opacity="0.24" transform="rotate(8 370 1151.5)" />
  <rect x="361" y="923" width="203" height="39" rx="19.5" fill="#f5ede2" opacity="0.30" transform="rotate(4 462.5 942.5)" />
  <rect x="95" y="388" width="209" height="51" rx="25.5" fill="#d0b28c" opacity="0.38" transform="rotate(14 199.5 413.5)" />
  <path d="M 469 781 Q 104 874 663 291" stroke="#2a2018" stroke-width="18" stroke-linecap="round" opacity="0.42" fill="none" />
  <path d="M 347 1298 Q 805 262 755 1061" stroke="#f5ede2" stroke-width="24" stroke-linecap="round" opacity="0.54" fill="none" />
  <path d="M 231 1069 Q 966 203 927 1086" stroke="#2a2018" stroke-width="30" stroke-linecap="round" opacity="0.51" fill="none" />
  <path d="M 370 219 Q 559 1054 156 633" stroke="#f5ede2" stroke-width="36" stroke-linecap="round" opacity="0.54" fill="none" />
  <rect x="76" y="78" width="1048" height="1444" rx="72" stroke="rgba(255,255,255,0.12)" stroke-width="2" />
</svg>