<?xml version="1.0" encoding="UTF-8"?>
<svg width="1200" height="1600" viewBox="0 0 1200 1600" fill="none" xmlns="http://www.w3.org/2000/svg">
  <defs>
    <linearGradient id="bg-2" x1="0" y1="0" x2="1200" y2="1600" gradientUnits="userSpaceOnUse">
      <stop stop-color="#f5ede2" />
      <stop offset="0.54" stop-color="#d0b28c" />
      <stop offset="1" stop-color="#2a2018" />
    </linearGradient>
    <linearGradient id="bg-soft-2" x1="1200" y1="0" x2="0" y2="1600" gradientUnits="userSpaceOnUse">
      <stop stop-color="#d0b28c" />
      <stop offset="0.52" stop-color="#9c7350" />
      <stop offset="1" stop-color="#2a2018" />
    </linearGradient>
    <filter id="blur-2">
      <feGaussianBlur stdDeviation="28" />
    </filter>
  </defs>
  <rect width="1200" height="1600" fill="url(#bg-2)" />
  <rect x="0" y="0" width="1200" height="1600" fill="rgba(255,255,255,0.06)" />
  <circle cx="399" cy="816" r="287" fill="#9c7350" opacity="0.27" filter="url(#blur-2)" />
  <circle cx="318" cy="520" r="135" fill="#d0b28c" opacity="0.22" filter="url(#blur-2)" />
  <circle cx="698" cy="220" r="299" fill="#9c7350" opacity="0.25" filter="url(#blur-2)" />
  <circle cx="893" cy="1387" r="355" fill="#d0b28c" opacity="0.14" filter="url(#blur-2)" />
  <circle cx="158" cy="382" r="369" fill="#9c7350" opacity="0.29" filter="url(#blur-2)" />
  <rect x="1026" y="129" width="276" height="35" rx="17.5" fill="#f5ede2" opacity="0.26" transform="rotate(-28 1164 146.5)" />
  <rect x="480" y="171" width="294" height="36" rx="18" fill="#d0b28c" opacity="0.38" transform="rotate(-32 627 189)" />
  <rect x="825" y="661" width="277" height="46" rx="23" fill="#2a2018" opacity="0.38" transform="rotate(-6 963.5 684)" />
  <rect x="101" y="1379" width="260" height="11" rx="5.5" fill="#f5ede2" opacity="0.33" transform="rotate(-21 231 1384.5)" />
  <rect x="371" y="521" width="165" height="35" rx="17.5" fill="#d0b28c" opacity="0.20" transform="rotate(12 453.5 538.5)" />
  <rect x="824" y="1077" width="95" height="36" rx="18" fill="#2a2018" opacity="0.34" transform="rotate(-24 871.5 1095)" />
  <rect x="408" y="1378" width="85" height="35" rx="17.5" fill="#f5ede2" opacity="0.19" transform="rotate(26 450.5 1395.5)" />
  <rect x="721" y="484" width="136" height="15" rx="7.5" fill="#d0b28c" opacity="0.21" transform="rotate(-17 789 491.5)" />
  <path d="M 296 231 Q 613 265 1065 1017" stroke="#2a2018" stroke-width="18" stroke-linecap="round" opacity="0.51" fill="none" />
  <path d="M 457 152 Q 1095 804 395 1220" stroke="#f5ede2" stroke-width="24" stroke-linecap="round" opacity="0.40" fill="none" />
  <path d="M 814 341 Q 250 1292 946 1148" stroke="#2a2018" stroke-width="30" stroke-linecap="round" opacity="0.45" fill="none" />
  <path d="M 414 646 Q 642 968 806 619" stroke="#f5ede2" stroke-width="36" stroke-linecap="round" opacity="0.42" fill="none" />
  <rect x="76" y="78" width="1048" height="1444" rx="72" stroke="rgba(255,255,255,0.12)" stroke-width="2" />
</svg>