<?xml version="1.0" encoding="UTF-8"?>
<svg width="1200" height="1600" viewBox="0 0 1200 1600" fill="none" xmlns="http://www.w3.org/2000/svg">
  <defs>
    <linearGradient id="bg-1" x1="0" y1="0" x2="1200" y2="1600" gradientUnits="userSpaceOnUse">
      <stop stop-color="#f5ede2" />
      <stop offset="0.54" stop-color="#d0b28c" />
      <stop offset="1" stop-color="#2a2018" />
    </linearGradient>
    <linearGradient id="bg-soft-1" x1="1200" y1="0" x2="0" y2="1600" gradientUnits="userSpaceOnUse">
      <stop stop-color="#d0b28c" />
      <stop offset="0.52" stop-color="#9c7350" />
      <stop offset="1" stop-color="#2a2018" />
    </linearGradient>
    <filter id="blur-1">
      <feGaussianBlur stdDeviation="26" />
    </filter>
  </defs>
  <rect width="1200" height="1600" fill="url(#bg-soft-1)" />
  <rect x="0" y="0" width="1200" height="1600" fill="rgba(255,255,255,0.06)" />
  <circle cx="720" cy="417" r="353" fill="#9c7350" opacity="0.34" filter="url(#blur-1)" />
  <circle cx="553" cy="173" r="113" fill="#d0b28c" opacity="0.31" filter="url(#blur-1)" />
  <circle cx="630" cy="978" r="288" fill="#9c7350" opacity="0.23" filter="url(#blur-1)" />
  <circle cx="294" cy="423" r="119" fill="#d0b28c" opacity="0.32" filter="url(#blur-1)" />
  <circle cx="209" cy="619" r="368" fill="#9c7350" opacity="0.34" filter="url(#blur-1)" />
  <rect x="368" y="742" width="205" height="21" rx="10.5" fill="#f5ede2" opacity="0.35" transform="rotate(19 470.5 752.5)" />
  <rect x="86" y="985" width="250" height="18" rx="9" fill="#d0b28c" opacity="0.32" transform="rotate(7 211 994)" />
  <rect x="916" y="100" width="189" height="24" rx="12" fill="#2a2018" opacity="0.21" transform="rotate(4 1010.5 112)" />
  <rect x="80" y="937" width="233" height="26" rx="13" fill="#f5ede2" opacity="0.28" transform="rotate(19 196.5 950)" />
  <rect x="243" y="579" width="222" height="23" rx="11.5" fill="#d0b28c" opacity="0.37" transform="rotate(8 354 590.5)" />
  <rect x="42" y="1112" width="189" height="49" rx="24.5" fill="#2a2018" opacity="0.33" transform="rotate(32 136.5 1136.5)" />
  <rect x="628" y="85" width="157" height="22" rx="11" fill="#f5ede2" opacity="0.37" transform="rotate(-18 706.5 96)" />
  <rect x="62" y="1155" width="115" height="42" rx="21" fill="#d0b28c" opacity="0.24" transform="rotate(-2 119.5 1176)" />
  <path d="M 457 686 Q 497 808 999 1231" stroke="#2a2018" stroke-width="18" stroke-linecap="round" opacity="0.37" fill="none" />
  <path d="M 615 143 Q 881 886 851 973" stroke="#f5ede2" stroke-width="24" stroke-linecap="round" opacity="0.42" fill="none" />
  <path d="M 454 297 Q 171 330 267 879" stroke="#2a2018" stroke-width="30" stroke-linecap="round" opacity="0.36" fill="none" />
  <path d="M 507 410 Q 592 789 654 614" stroke="#f5ede2" stroke-width="36" stroke-linecap="round" opacity="0.50" fill="none" />
  <rect x="76" y="78" width="1048" height="1444" rx="72" stroke="rgba(255,255,255,0.12)" stroke-width="2" />
</svg>