<?xml version="1.0" encoding="UTF-8"?>
<svg width="1200" height="1600" viewBox="0 0 1200 1600" fill="none" xmlns="http://www.w3.org/2000/svg">
  <defs>
    <linearGradient id="bg-0" x1="0" y1="0" x2="1200" y2="1600" gradientUnits="userSpaceOnUse">
      <stop stop-color="#f5ede2" />
      <stop offset="0.54" stop-color="#d0b28c" />
      <stop offset="1" stop-color="#2a2018" />
    </linearGradient>
    <linearGradient id="bg-soft-0" x1="1200" y1="0" x2="0" y2="1600" gradientUnits="userSpaceOnUse">
      <stop stop-color="#d0b28c" />
      <stop offset="0.52" stop-color="#9c7350" />
      <stop offset="1" stop-color="#2a2018" />
    </linearGradient>
    <filter id="blur-0">
      <feGaussianBlur stdDeviation="24" />
    </filter>
  </defs>
  <rect width="1200" height="1600" fill="url(#bg-0)" />
  <rect x="0" y="0" width="1200" height="1600" fill="rgba(255,255,255,0.06)" />
  <circle cx="132" cy="329" r="269" fill="#9c7350" opacity="0.23" filter="url(#blur-0)" />
  <circle cx="434" cy="183" r="197" fill="#d0b28c" opacity="0.31" filter="url(#blur-0)" />
  <circle cx="212" cy="1387" r="381" fill="#9c7350" opacity="0.27" filter="url(#blur-0)" />
  <circle cx="492" cy="1079" r="182" fill="#d0b28c" opacity="0.15" filter="url(#blur-0)" />
  <circle cx="279" cy="1400" r="135" fill="#9c7350" opacity="0.26" filter="url(#blur-0)" />
  <rect x="591" y="1278" width="317" height="33" rx="16.5" fill="#f5ede2" opacity="0.35" transform="rotate(-20 749.5 1294.5)" />
  <rect x="789" y="304" width="209" height="40" rx="20" fill="#d0b28c" opacity="0.28" transform="rotate(-2 893.5 324)" />
  <rect x="27" y="948" width="283" height="29" rx="14.5" fill="#2a2018" opacity="0.26" transform="rotate(10 168.5 962.5)" />
  <rect x="289" y="1360" width="90" height="35" rx="17.5" fill="#f5ede2" opacity="0.28" transform="rotate(-26 334 1377.5)" />
  <rect x="343" y="341" width="154" height="34" rx="17" fill="#d0b28c" opacity="0.27" transform="rotate(0 420 358)" />
  <rect x="871" y="725" width="247" height="30" rx="15" fill="#2a2018" opacity="0.22" transform="rotate(-6 994.5 740)" />
  <rect x="635" y="1003" width="197" height="39" rx="19.5" fill="#f5ede2" opacity="0.20" transform="rotate(-10 733.5 1022.5)" />
  <rect x="98" y="288" width="318" height="41" rx="20.5" fill="#d0b28c" opacity="0.23" transform="rotate(-31 257 308.5)" />
  <path d="M 493 676 Q 623 398 753 734" stroke="#2a2018" stroke-width="18" stroke-linecap="round" opacity="0.41" fill="none" />
  <path d="M 647 198 Q 491 868 558 1167" stroke="#f5ede2" stroke-width="24" stroke-linecap="round" opacity="0.49" fill="none" />
  <path d="M 198 602 Q 1019 277 942 258" stroke="#2a2018" stroke-width="30" stroke-linecap="round" opacity="0.47" fill="none" />
  <path d="M 1099 901 Q 502 1243 962 1295" stroke="#f5ede2" stroke-width="36" stroke-linecap="round" opacity="0.58" fill="none" />
  <rect x="76" y="78" width="1048" height="1444" rx="72" stroke="rgba(255,255,255,0.12)" stroke-width="2" />
</svg>