<?xml version="1.0" encoding="UTF-8"?>
<svg width="1200" height="1600" viewBox="0 0 1200 1600" fill="none" xmlns="http://www.w3.org/2000/svg">
  <defs>
    <linearGradient id="bg-1" x1="0" y1="0" x2="1200" y2="1600" gradientUnits="userSpaceOnUse">
      <stop stop-color="#f5ede2" />
      <stop offset="0.54" stop-color="#d0b28c" />
      <stop offset="1" stop-color="#2a2018" />
    </linearGradient>
    <linearGradient id="bg-soft-1" x1="1200" y1="0" x2="0" y2="1600" gradientUnits="userSpaceOnUse">
      <stop stop-color="#d0b28c" />
      <stop offset="0.52" stop-color="#9c7350" />
      <stop offset="1" stop-color="#2a2018" />
    </linearGradient>
    <filter id="blur-1">
      <feGaussianBlur stdDeviation="26" />
    </filter>
  </defs>
  <rect width="1200" height="1600" fill="url(#bg-soft-1)" />
  <rect x="0" y="0" width="1200" height="1600" fill="rgba(255,255,255,0.06)" />
  <circle cx="402" cy="581" r="287" fill="#9c7350" opacity="0.31" filter="url(#blur-1)" />
  <circle cx="620" cy="1369" r="353" fill="#d0b28c" opacity="0.32" filter="url(#blur-1)" />
  <circle cx="153" cy="319" r="208" fill="#9c7350" opacity="0.19" filter="url(#blur-1)" />
  <circle cx="1053" cy="338" r="153" fill="#d0b28c" opacity="0.29" filter="url(#blur-1)" />
  <circle cx="309" cy="1416" r="185" fill="#9c7350" opacity="0.32" filter="url(#blur-1)" />
  <rect x="481" y="930" width="251" height="32" rx="16" fill="#f5ede2" opacity="0.28" transform="rotate(6 606.5 946)" />
  <rect x="970" y="1321" width="117" height="12" rx="6" fill="#d0b28c" opacity="0.30" transform="rotate(-30 1028.5 1327)" />
  <rect x="1019" y="1002" width="271" height="17" rx="8.5" fill="#2a2018" opacity="0.20" transform="rotate(-26 1154.5 1010.5)" />
  <rect x="84" y="1066" width="202" height="15" rx="7.5" fill="#f5ede2" opacity="0.34" transform="rotate(-24 185 1073.5)" />
  <rect x="879" y="110" width="281" height="31" rx="15.5" fill="#d0b28c" opacity="0.34" transform="rotate(11 1019.5 125.5)" />
  <rect x="6" y="1061" width="172" height="19" rx="9.5" fill="#2a2018" opacity="0.33" transform="rotate(-19 92 1070.5)" />
  <rect x="103" y="1296" width="161" height="44" rx="22" fill="#f5ede2" opacity="0.27" transform="rotate(-28 183.5 1318)" />
  <rect x="640" y="1014" width="180" height="19" rx="9.5" fill="#d0b28c" opacity="0.20" transform="rotate(-6 730 1023.5)" />
  <path d="M 798 873 Q 356 783 375 1189" stroke="#2a2018" stroke-width="18" stroke-linecap="round" opacity="0.44" fill="none" />
  <path d="M 229 1265 Q 863 192 340 930" stroke="#f5ede2" stroke-width="24" stroke-linecap="round" opacity="0.53" fill="none" />
  <path d="M 630 278 Q 1026 210 793 810" stroke="#2a2018" stroke-width="30" stroke-linecap="round" opacity="0.57" fill="none" />
  <path d="M 494 116 Q 553 848 267 214" stroke="#f5ede2" stroke-width="36" stroke-linecap="round" opacity="0.47" fill="none" />
  <rect x="76" y="78" width="1048" height="1444" rx="72" stroke="rgba(255,255,255,0.12)" stroke-width="2" />
</svg>