<?xml version="1.0" encoding="UTF-8"?>
<svg width="1200" height="1600" viewBox="0 0 1200 1600" fill="none" xmlns="http://www.w3.org/2000/svg">
  <defs>
    <linearGradient id="bg-0" x1="0" y1="0" x2="1200" y2="1600" gradientUnits="userSpaceOnUse">
      <stop stop-color="#f5ede2" />
      <stop offset="0.54" stop-color="#d0b28c" />
      <stop offset="1" stop-color="#2a2018" />
    </linearGradient>
    <linearGradient id="bg-soft-0" x1="1200" y1="0" x2="0" y2="1600" gradientUnits="userSpaceOnUse">
      <stop stop-color="#d0b28c" />
      <stop offset="0.52" stop-color="#9c7350" />
      <stop offset="1" stop-color="#2a2018" />
    </linearGradient>
    <filter id="blur-0">
      <feGaussianBlur stdDeviation="24" />
    </filter>
  </defs>
  <rect width="1200" height="1600" fill="url(#bg-0)" />
  <rect x="0" y="0" width="1200" height="1600" fill="rgba(255,255,255,0.06)" />
  <circle cx="841" cy="791" r="374" fill="#9c7350" opacity="0.29" filter="url(#blur-0)" />
  <circle cx="298" cy="963" r="339" fill="#d0b28c" opacity="0.19" filter="url(#blur-0)" />
  <circle cx="723" cy="228" r="259" fill="#9c7350" opacity="0.33" filter="url(#blur-0)" />
  <circle cx="974" cy="559" r="326" fill="#d0b28c" opacity="0.30" filter="url(#blur-0)" />
  <circle cx="947" cy="1308" r="344" fill="#9c7350" opacity="0.30" filter="url(#blur-0)" />
  <rect x="827" y="216" width="131" height="38" rx="19" fill="#f5ede2" opacity="0.31" transform="rotate(13 892.5 235)" />
  <rect x="532" y="198" width="273" height="36" rx="18" fill="#d0b28c" opacity="0.25" transform="rotate(29 668.5 216)" />
  <rect x="943" y="1006" width="140" height="30" rx="15" fill="#2a2018" opacity="0.32" transform="rotate(-1 1013 1021)" />
  <rect x="457" y="1334" width="187" height="41" rx="20.5" fill="#f5ede2" opacity="0.35" transform="rotate(34 550.5 1354.5)" />
  <rect x="957" y="803" width="153" height="24" rx="12" fill="#d0b28c" opacity="0.23" transform="rotate(6 1033.5 815)" />
  <rect x="861" y="1149" width="294" height="37" rx="18.5" fill="#2a2018" opacity="0.27" transform="rotate(-23 1008 1167.5)" />
  <rect x="909" y="914" width="256" height="41" rx="20.5" fill="#f5ede2" opacity="0.26" transform="rotate(27 1037 934.5)" />
  <rect x="870" y="1248" width="142" height="24" rx="12" fill="#d0b28c" opacity="0.19" transform="rotate(19 941 1260)" />
  <path d="M 383 480 Q 972 823 439 1236" stroke="#2a2018" stroke-width="18" stroke-linecap="round" opacity="0.43" fill="none" />
  <path d="M 623 1030 Q 486 1192 302 258" stroke="#f5ede2" stroke-width="24" stroke-linecap="round" opacity="0.46" fill="none" />
  <path d="M 604 1202 Q 1069 200 998 702" stroke="#2a2018" stroke-width="30" stroke-linecap="round" opacity="0.54" fill="none" />
  <path d="M 1021 1172 Q 181 1133 669 523" stroke="#f5ede2" stroke-width="36" stroke-linecap="round" opacity="0.59" fill="none" />
  <rect x="76" y="78" width="1048" height="1444" rx="72" stroke="rgba(255,255,255,0.12)" stroke-width="2" />
</svg>