<?xml version="1.0" encoding="UTF-8"?>
<svg width="1200" height="1600" viewBox="0 0 1200 1600" fill="none" xmlns="http://www.w3.org/2000/svg">
  <defs>
    <linearGradient id="bg-2" x1="0" y1="0" x2="1200" y2="1600" gradientUnits="userSpaceOnUse">
      <stop stop-color="#f5ede2" />
      <stop offset="0.54" stop-color="#d0b28c" />
      <stop offset="1" stop-color="#2a2018" />
    </linearGradient>
    <linearGradient id="bg-soft-2" x1="1200" y1="0" x2="0" y2="1600" gradientUnits="userSpaceOnUse">
      <stop stop-color="#d0b28c" />
      <stop offset="0.52" stop-color="#9c7350" />
      <stop offset="1" stop-color="#2a2018" />
    </linearGradient>
    <filter id="blur-2">
      <feGaussianBlur stdDeviation="28" />
    </filter>
  </defs>
  <rect width="1200" height="1600" fill="url(#bg-2)" />
  <rect x="0" y="0" width="1200" height="1600" fill="rgba(255,255,255,0.06)" />
  <circle cx="861" cy="1167" r="297" fill="#9c7350" opacity="0.30" filter="url(#blur-2)" />
  <circle cx="972" cy="1099" r="282" fill="#d0b28c" opacity="0.19" filter="url(#blur-2)" />
  <circle cx="346" cy="785" r="180" fill="#9c7350" opacity="0.27" filter="url(#blur-2)" />
  <circle cx="347" cy="320" r="252" fill="#d0b28c" opacity="0.15" filter="url(#blur-2)" />
  <circle cx="160" cy="324" r="120" fill="#9c7350" opacity="0.23" filter="url(#blur-2)" />
  <rect x="898" y="563" width="115" height="15" rx="7.5" fill="#f5ede2" opacity="0.35" transform="rotate(1 955.5 570.5)" />
  <rect x="804" y="590" width="255" height="12" rx="6" fill="#d0b28c" opacity="0.24" transform="rotate(2 931.5 596)" />
  <rect x="453" y="331" width="308" height="39" rx="19.5" fill="#2a2018" opacity="0.25" transform="rotate(-21 607 350.5)" />
  <rect x="934" y="1257" width="231" height="37" rx="18.5" fill="#f5ede2" opacity="0.25" transform="rotate(-8 1049.5 1275.5)" />
  <rect x="198" y="937" width="296" height="17" rx="8.5" fill="#d0b28c" opacity="0.21" transform="rotate(22 346 945.5)" />
  <rect x="398" y="65" width="240" height="16" rx="8" fill="#2a2018" opacity="0.22" transform="rotate(22 518 73)" />
  <rect x="622" y="312" width="272" height="31" rx="15.5" fill="#f5ede2" opacity="0.29" transform="rotate(-24 758 327.5)" />
  <rect x="542" y="931" width="103" height="19" rx="9.5" fill="#d0b28c" opacity="0.32" transform="rotate(29 593.5 940.5)" />
  <path d="M 730 707 Q 361 167 465 622" stroke="#2a2018" stroke-width="18" stroke-linecap="round" opacity="0.49" fill="none" />
  <path d="M 704 934 Q 352 1142 764 668" stroke="#f5ede2" stroke-width="24" stroke-linecap="round" opacity="0.38" fill="none" />
  <path d="M 190 440 Q 120 852 694 132" stroke="#2a2018" stroke-width="30" stroke-linecap="round" opacity="0.53" fill="none" />
  <path d="M 503 784 Q 375 1294 279 237" stroke="#f5ede2" stroke-width="36" stroke-linecap="round" opacity="0.49" fill="none" />
  <rect x="76" y="78" width="1048" height="1444" rx="72" stroke="rgba(255,255,255,0.12)" stroke-width="2" />
</svg>