<?xml version="1.0" encoding="UTF-8"?>
<svg width="1200" height="1600" viewBox="0 0 1200 1600" fill="none" xmlns="http://www.w3.org/2000/svg">
  <defs>
    <linearGradient id="bg-1" x1="0" y1="0" x2="1200" y2="1600" gradientUnits="userSpaceOnUse">
      <stop stop-color="#f5ede2" />
      <stop offset="0.54" stop-color="#d0b28c" />
      <stop offset="1" stop-color="#2a2018" />
    </linearGradient>
    <linearGradient id="bg-soft-1" x1="1200" y1="0" x2="0" y2="1600" gradientUnits="userSpaceOnUse">
      <stop stop-color="#d0b28c" />
      <stop offset="0.52" stop-color="#9c7350" />
      <stop offset="1" stop-color="#2a2018" />
    </linearGradient>
    <filter id="blur-1">
      <feGaussianBlur stdDeviation="26" />
    </filter>
  </defs>
  <rect width="1200" height="1600" fill="url(#bg-soft-1)" />
  <rect x="0" y="0" width="1200" height="1600" fill="rgba(255,255,255,0.06)" />
  <circle cx="361" cy="511" r="274" fill="#9c7350" opacity="0.29" filter="url(#blur-1)" />
  <circle cx="1059" cy="897" r="329" fill="#d0b28c" opacity="0.13" filter="url(#blur-1)" />
  <circle cx="811" cy="415" r="199" fill="#9c7350" opacity="0.19" filter="url(#blur-1)" />
  <circle cx="738" cy="765" r="215" fill="#d0b28c" opacity="0.32" filter="url(#blur-1)" />
  <circle cx="353" cy="887" r="217" fill="#9c7350" opacity="0.23" filter="url(#blur-1)" />
  <rect x="164" y="818" width="299" height="43" rx="21.5" fill="#f5ede2" opacity="0.28" transform="rotate(27 313.5 839.5)" />
  <rect x="573" y="846" width="94" height="42" rx="21" fill="#d0b28c" opacity="0.19" transform="rotate(34 620 867)" />
  <rect x="489" y="1057" width="86" height="48" rx="24" fill="#2a2018" opacity="0.30" transform="rotate(7 532 1081)" />
  <rect x="1067" y="944" width="199" height="20" rx="10" fill="#f5ede2" opacity="0.20" transform="rotate(-7 1166.5 954)" />
  <rect x="388" y="1315" width="101" height="32" rx="16" fill="#d0b28c" opacity="0.32" transform="rotate(-14 438.5 1331)" />
  <rect x="902" y="842" width="167" height="23" rx="11.5" fill="#2a2018" opacity="0.23" transform="rotate(35 985.5 853.5)" />
  <rect x="8" y="136" width="112" height="21" rx="10.5" fill="#f5ede2" opacity="0.19" transform="rotate(-17 64 146.5)" />
  <rect x="352" y="671" width="239" height="27" rx="13.5" fill="#d0b28c" opacity="0.20" transform="rotate(10 471.5 684.5)" />
  <path d="M 207 554 Q 111 699 496 1125" stroke="#2a2018" stroke-width="18" stroke-linecap="round" opacity="0.42" fill="none" />
  <path d="M 998 232 Q 456 312 856 402" stroke="#f5ede2" stroke-width="24" stroke-linecap="round" opacity="0.44" fill="none" />
  <path d="M 204 1070 Q 236 1274 693 225" stroke="#2a2018" stroke-width="30" stroke-linecap="round" opacity="0.42" fill="none" />
  <path d="M 308 943 Q 751 1134 758 1204" stroke="#f5ede2" stroke-width="36" stroke-linecap="round" opacity="0.41" fill="none" />
  <rect x="76" y="78" width="1048" height="1444" rx="72" stroke="rgba(255,255,255,0.12)" stroke-width="2" />
</svg>