<?xml version="1.0" encoding="UTF-8"?>
<svg width="1200" height="1600" viewBox="0 0 1200 1600" fill="none" xmlns="http://www.w3.org/2000/svg">
  <defs>
    <linearGradient id="bg-2" x1="0" y1="0" x2="1200" y2="1600" gradientUnits="userSpaceOnUse">
      <stop stop-color="#f5ede2" />
      <stop offset="0.54" stop-color="#d0b28c" />
      <stop offset="1" stop-color="#2a2018" />
    </linearGradient>
    <linearGradient id="bg-soft-2" x1="1200" y1="0" x2="0" y2="1600" gradientUnits="userSpaceOnUse">
      <stop stop-color="#d0b28c" />
      <stop offset="0.52" stop-color="#9c7350" />
      <stop offset="1" stop-color="#2a2018" />
    </linearGradient>
    <filter id="blur-2">
      <feGaussianBlur stdDeviation="28" />
    </filter>
  </defs>
  <rect width="1200" height="1600" fill="url(#bg-2)" />
  <rect x="0" y="0" width="1200" height="1600" fill="rgba(255,255,255,0.06)" />
  <circle cx="888" cy="1153" r="389" fill="#9c7350" opacity="0.25" filter="url(#blur-2)" />
  <circle cx="419" cy="789" r="364" fill="#d0b28c" opacity="0.16" filter="url(#blur-2)" />
  <circle cx="251" cy="499" r="166" fill="#9c7350" opacity="0.25" filter="url(#blur-2)" />
  <circle cx="453" cy="1138" r="146" fill="#d0b28c" opacity="0.22" filter="url(#blur-2)" />
  <circle cx="491" cy="1290" r="152" fill="#9c7350" opacity="0.29" filter="url(#blur-2)" />
  <rect x="684" y="405" width="155" height="31" rx="15.5" fill="#f5ede2" opacity="0.19" transform="rotate(2 761.5 420.5)" />
  <rect x="795" y="1389" width="112" height="34" rx="17" fill="#d0b28c" opacity="0.35" transform="rotate(0 851 1406)" />
  <rect x="813" y="170" width="295" height="32" rx="16" fill="#2a2018" opacity="0.24" transform="rotate(10 960.5 186)" />
  <rect x="615" y="481" width="266" height="32" rx="16" fill="#f5ede2" opacity="0.38" transform="rotate(22 748 497)" />
  <rect x="117" y="1373" width="224" height="45" rx="22.5" fill="#d0b28c" opacity="0.32" transform="rotate(1 229 1395.5)" />
  <rect x="96" y="227" width="191" height="50" rx="25" fill="#2a2018" opacity="0.34" transform="rotate(22 191.5 252)" />
  <rect x="463" y="46" width="152" height="43" rx="21.5" fill="#f5ede2" opacity="0.24" transform="rotate(-12 539 67.5)" />
  <rect x="604" y="223" width="220" height="43" rx="21.5" fill="#d0b28c" opacity="0.34" transform="rotate(29 714 244.5)" />
  <path d="M 453 564 Q 168 1283 754 171" stroke="#2a2018" stroke-width="18" stroke-linecap="round" opacity="0.56" fill="none" />
  <path d="M 859 555 Q 175 825 522 480" stroke="#f5ede2" stroke-width="24" stroke-linecap="round" opacity="0.45" fill="none" />
  <path d="M 241 732 Q 206 643 457 275" stroke="#2a2018" stroke-width="30" stroke-linecap="round" opacity="0.46" fill="none" />
  <path d="M 754 1144 Q 1016 739 1066 997" stroke="#f5ede2" stroke-width="36" stroke-linecap="round" opacity="0.52" fill="none" />
  <rect x="76" y="78" width="1048" height="1444" rx="72" stroke="rgba(255,255,255,0.12)" stroke-width="2" />
</svg>