<?xml version="1.0" encoding="UTF-8"?>
<svg width="1200" height="1600" viewBox="0 0 1200 1600" fill="none" xmlns="http://www.w3.org/2000/svg">
  <defs>
    <linearGradient id="bg-1" x1="0" y1="0" x2="1200" y2="1600" gradientUnits="userSpaceOnUse">
      <stop stop-color="#f5ede2" />
      <stop offset="0.54" stop-color="#d0b28c" />
      <stop offset="1" stop-color="#2a2018" />
    </linearGradient>
    <linearGradient id="bg-soft-1" x1="1200" y1="0" x2="0" y2="1600" gradientUnits="userSpaceOnUse">
      <stop stop-color="#d0b28c" />
      <stop offset="0.52" stop-color="#9c7350" />
      <stop offset="1" stop-color="#2a2018" />
    </linearGradient>
    <filter id="blur-1">
      <feGaussianBlur stdDeviation="26" />
    </filter>
  </defs>
  <rect width="1200" height="1600" fill="url(#bg-soft-1)" />
  <rect x="0" y="0" width="1200" height="1600" fill="rgba(255,255,255,0.06)" />
  <circle cx="219" cy="1431" r="260" fill="#9c7350" opacity="0.30" filter="url(#blur-1)" />
  <circle cx="383" cy="871" r="145" fill="#d0b28c" opacity="0.31" filter="url(#blur-1)" />
  <circle cx="999" cy="1335" r="220" fill="#9c7350" opacity="0.32" filter="url(#blur-1)" />
  <circle cx="1066" cy="882" r="370" fill="#d0b28c" opacity="0.28" filter="url(#blur-1)" />
  <circle cx="764" cy="1391" r="141" fill="#9c7350" opacity="0.22" filter="url(#blur-1)" />
  <rect x="81" y="135" width="129" height="33" rx="16.5" fill="#f5ede2" opacity="0.18" transform="rotate(-21 145.5 151.5)" />
  <rect x="373" y="1182" width="92" height="27" rx="13.5" fill="#d0b28c" opacity="0.26" transform="rotate(9 419 1195.5)" />
  <rect x="339" y="1272" width="235" height="21" rx="10.5" fill="#2a2018" opacity="0.31" transform="rotate(8 456.5 1282.5)" />
  <rect x="113" y="884" width="274" height="44" rx="22" fill="#f5ede2" opacity="0.36" transform="rotate(0 250 906)" />
  <rect x="22" y="576" width="88" height="27" rx="13.5" fill="#d0b28c" opacity="0.36" transform="rotate(0 66 589.5)" />
  <rect x="81" y="1228" width="232" height="22" rx="11" fill="#2a2018" opacity="0.27" transform="rotate(0 197 1239)" />
  <rect x="259" y="905" width="233" height="41" rx="20.5" fill="#f5ede2" opacity="0.26" transform="rotate(23 375.5 925.5)" />
  <rect x="937" y="979" width="86" height="44" rx="22" fill="#d0b28c" opacity="0.25" transform="rotate(15 980 1001)" />
  <path d="M 763 781 Q 752 1216 1021 203" stroke="#2a2018" stroke-width="18" stroke-linecap="round" opacity="0.41" fill="none" />
  <path d="M 325 1171 Q 399 386 159 361" stroke="#f5ede2" stroke-width="24" stroke-linecap="round" opacity="0.45" fill="none" />
  <path d="M 871 680 Q 759 444 1012 763" stroke="#2a2018" stroke-width="30" stroke-linecap="round" opacity="0.60" fill="none" />
  <path d="M 678 911 Q 346 808 1100 240" stroke="#f5ede2" stroke-width="36" stroke-linecap="round" opacity="0.59" fill="none" />
  <rect x="76" y="78" width="1048" height="1444" rx="72" stroke="rgba(255,255,255,0.12)" stroke-width="2" />
</svg>