<?xml version="1.0" encoding="UTF-8"?>
<svg width="1200" height="1600" viewBox="0 0 1200 1600" fill="none" xmlns="http://www.w3.org/2000/svg">
  <defs>
    <linearGradient id="bg-2" x1="0" y1="0" x2="1200" y2="1600" gradientUnits="userSpaceOnUse">
      <stop stop-color="#f5ede2" />
      <stop offset="0.54" stop-color="#d0b28c" />
      <stop offset="1" stop-color="#2a2018" />
    </linearGradient>
    <linearGradient id="bg-soft-2" x1="1200" y1="0" x2="0" y2="1600" gradientUnits="userSpaceOnUse">
      <stop stop-color="#d0b28c" />
      <stop offset="0.52" stop-color="#9c7350" />
      <stop offset="1" stop-color="#2a2018" />
    </linearGradient>
    <filter id="blur-2">
      <feGaussianBlur stdDeviation="28" />
    </filter>
  </defs>
  <rect width="1200" height="1600" fill="url(#bg-2)" />
  <rect x="0" y="0" width="1200" height="1600" fill="rgba(255,255,255,0.06)" />
  <circle cx="680" cy="639" r="296" fill="#9c7350" opacity="0.27" filter="url(#blur-2)" />
  <circle cx="833" cy="417" r="158" fill="#d0b28c" opacity="0.30" filter="url(#blur-2)" />
  <circle cx="986" cy="1388" r="180" fill="#9c7350" opacity="0.24" filter="url(#blur-2)" />
  <circle cx="903" cy="1101" r="285" fill="#d0b28c" opacity="0.19" filter="url(#blur-2)" />
  <circle cx="564" cy="177" r="140" fill="#9c7350" opacity="0.23" filter="url(#blur-2)" />
  <rect x="506" y="829" width="185" height="46" rx="23" fill="#f5ede2" opacity="0.29" transform="rotate(2 598.5 852)" />
  <rect x="594" y="1297" width="240" height="44" rx="22" fill="#d0b28c" opacity="0.24" transform="rotate(-2 714 1319)" />
  <rect x="476" y="224" width="86" height="35" rx="17.5" fill="#2a2018" opacity="0.18" transform="rotate(-21 519 241.5)" />
  <rect x="476" y="767" width="140" height="43" rx="21.5" fill="#f5ede2" opacity="0.25" transform="rotate(16 546 788.5)" />
  <rect x="1070" y="1348" width="218" height="18" rx="9" fill="#d0b28c" opacity="0.33" transform="rotate(0 1179 1357)" />
  <rect x="1003" y="102" width="96" height="35" rx="17.5" fill="#2a2018" opacity="0.25" transform="rotate(-27 1051 119.5)" />
  <rect x="832" y="82" width="198" height="13" rx="6.5" fill="#f5ede2" opacity="0.38" transform="rotate(1 931 88.5)" />
  <rect x="530" y="870" width="98" height="45" rx="22.5" fill="#d0b28c" opacity="0.23" transform="rotate(-30 579 892.5)" />
  <path d="M 762 1205 Q 477 230 585 1233" stroke="#2a2018" stroke-width="18" stroke-linecap="round" opacity="0.55" fill="none" />
  <path d="M 331 442 Q 633 282 417 1246" stroke="#f5ede2" stroke-width="24" stroke-linecap="round" opacity="0.56" fill="none" />
  <path d="M 306 1230 Q 821 1200 486 491" stroke="#2a2018" stroke-width="30" stroke-linecap="round" opacity="0.35" fill="none" />
  <path d="M 213 957 Q 922 910 706 1185" stroke="#f5ede2" stroke-width="36" stroke-linecap="round" opacity="0.45" fill="none" />
  <rect x="76" y="78" width="1048" height="1444" rx="72" stroke="rgba(255,255,255,0.12)" stroke-width="2" />
</svg>