<?xml version="1.0" encoding="UTF-8"?>
<svg width="1200" height="1600" viewBox="0 0 1200 1600" fill="none" xmlns="http://www.w3.org/2000/svg">
  <defs>
    <linearGradient id="bg-0" x1="0" y1="0" x2="1200" y2="1600" gradientUnits="userSpaceOnUse">
      <stop stop-color="#f5ede2" />
      <stop offset="0.54" stop-color="#d0b28c" />
      <stop offset="1" stop-color="#2a2018" />
    </linearGradient>
    <linearGradient id="bg-soft-0" x1="1200" y1="0" x2="0" y2="1600" gradientUnits="userSpaceOnUse">
      <stop stop-color="#d0b28c" />
      <stop offset="0.52" stop-color="#9c7350" />
      <stop offset="1" stop-color="#2a2018" />
    </linearGradient>
    <filter id="blur-0">
      <feGaussianBlur stdDeviation="24" />
    </filter>
  </defs>
  <rect width="1200" height="1600" fill="url(#bg-0)" />
  <rect x="0" y="0" width="1200" height="1600" fill="rgba(255,255,255,0.06)" />
  <circle cx="685" cy="585" r="380" fill="#9c7350" opacity="0.21" filter="url(#blur-0)" />
  <circle cx="1020" cy="740" r="273" fill="#d0b28c" opacity="0.20" filter="url(#blur-0)" />
  <circle cx="952" cy="286" r="166" fill="#9c7350" opacity="0.23" filter="url(#blur-0)" />
  <circle cx="357" cy="1034" r="179" fill="#d0b28c" opacity="0.21" filter="url(#blur-0)" />
  <circle cx="261" cy="499" r="294" fill="#9c7350" opacity="0.15" filter="url(#blur-0)" />
  <rect x="40" y="835" width="274" height="18" rx="9" fill="#f5ede2" opacity="0.24" transform="rotate(35 177 844)" />
  <rect x="989" y="970" width="110" height="14" rx="7" fill="#d0b28c" opacity="0.33" transform="rotate(34 1044 977)" />
  <rect x="160" y="357" width="252" height="50" rx="25" fill="#2a2018" opacity="0.29" transform="rotate(6 286 382)" />
  <rect x="651" y="1154" width="284" height="32" rx="16" fill="#f5ede2" opacity="0.35" transform="rotate(15 793 1170)" />
  <rect x="418" y="710" width="185" height="29" rx="14.5" fill="#d0b28c" opacity="0.21" transform="rotate(15 510.5 724.5)" />
  <rect x="979" y="1354" width="202" height="34" rx="17" fill="#2a2018" opacity="0.18" transform="rotate(6 1080 1371)" />
  <rect x="910" y="694" width="238" height="31" rx="15.5" fill="#f5ede2" opacity="0.32" transform="rotate(-21 1029 709.5)" />
  <rect x="507" y="1087" width="135" height="14" rx="7" fill="#d0b28c" opacity="0.24" transform="rotate(-30 574.5 1094)" />
  <path d="M 554 272 Q 827 703 317 1256" stroke="#2a2018" stroke-width="18" stroke-linecap="round" opacity="0.46" fill="none" />
  <path d="M 176 178 Q 264 1196 1084 762" stroke="#f5ede2" stroke-width="24" stroke-linecap="round" opacity="0.44" fill="none" />
  <path d="M 506 268 Q 813 637 622 1208" stroke="#2a2018" stroke-width="30" stroke-linecap="round" opacity="0.47" fill="none" />
  <path d="M 426 402 Q 180 373 864 829" stroke="#f5ede2" stroke-width="36" stroke-linecap="round" opacity="0.35" fill="none" />
  <rect x="76" y="78" width="1048" height="1444" rx="72" stroke="rgba(255,255,255,0.12)" stroke-width="2" />
</svg>