<?xml version="1.0" encoding="UTF-8"?>
<svg width="1600" height="900" viewBox="0 0 1600 900" fill="none" xmlns="http://www.w3.org/2000/svg">
  <defs>
    <linearGradient id="bg" x1="0" y1="0" x2="1" y2="1">
      <stop offset="0%" stop-color="#19130f"/>
      <stop offset="100%" stop-color="#050505"/>
    </linearGradient>
    <linearGradient id="accent" x1="0" y1="0" x2="1" y2="1">
      <stop offset="0%" stop-color="#c49a72"/>
      <stop offset="100%" stop-color="#eed6b7"/>
    </linearGradient>
    <filter id="blur" x="-30%" y="-30%" width="160%" height="160%">
      <feGaussianBlur stdDeviation="24" />
    </filter>
  </defs>
  <rect width="1600" height="900" fill="url(#bg)"/>
  <circle cx="280" cy="210" r="170" fill="#c49a72" fill-opacity="0.16" filter="url(#blur)"/>
  <circle cx="1340" cy="150" r="220" fill="#eed6b7" fill-opacity="0.12" filter="url(#blur)"/>
  <circle cx="1240" cy="760" r="260" fill="#f1d7bf" fill-opacity="0.08" filter="url(#blur)"/>
  <rect x="90" y="90" width="1420" height="720" rx="44" stroke="rgba(255,255,255,0.09)" stroke-width="2"/>
  <rect x="120" y="120" width="220" height="16" rx="8" fill="#c49a72"/>
  <rect x="120" y="155" width="140" height="8" rx="4" fill="rgba(255,255,255,0.22)"/>
  <g transform="translate(120 242)">
    <text x="0" y="0" fill="white" font-size="86" font-family="Arial, Helvetica, sans-serif" font-weight="700" letter-spacing="-1">OTEL</text>
    <text x="0" y="88" fill="rgba(255,255,255,0.72)" font-size="28" font-family="Arial, Helvetica, sans-serif" letter-spacing="1.8">DEQOIN JOURNAL</text>
  </g>
  <g transform="translate(980 250)">
    <rect x="0" y="0" width="420" height="240" rx="28" fill="rgba(255,255,255,0.04)" stroke="rgba(255,255,255,0.08)"/>
    <circle cx="108" cy="110" r="88" fill="url(#accent)" fill-opacity="0.92"/>
    <rect x="232" y="48" width="126" height="18" rx="9" fill="rgba(255,255,255,0.82)"/>
    <rect x="232" y="82" width="150" height="12" rx="6" fill="rgba(255,255,255,0.25)"/>
    <rect x="232" y="110" width="112" height="12" rx="6" fill="rgba(255,255,255,0.18)"/>
    <rect x="232" y="150" width="154" height="12" rx="6" fill="rgba(255,255,255,0.28)"/>
    <rect x="232" y="174" width="96" height="12" rx="6" fill="rgba(255,255,255,0.18)"/>
  </g>
  <g transform="translate(120 560)">
    <path d="M 0 160 C 130 60 250 60 380 160" stroke="rgba(255,255,255,0.12)" stroke-width="2.5" fill="none" stroke-linecap="round"/>
<path d="M 90 230 C 220 130 340 130 500 230" stroke="rgba(255,255,255,0.16999999999999998)" stroke-width="2.5" fill="none" stroke-linecap="round"/>
<path d="M 190 300 C 320 220 450 220 640 300" stroke="rgba(255,255,255,0.22)" stroke-width="2.5" fill="none" stroke-linecap="round"/>
  </g>
  <text x="120" y="804" fill="rgba(255,255,255,0.58)" font-size="22" font-family="Arial, Helvetica, sans-serif" letter-spacing="2.6">DEQOIN / EDITORIAL COVER</text>
</svg>